<svg width="410" height="172" viewBox="0 0 410 172" fill="none" xmlns="http://www.w3.org/2000/svg">
<g clip-path="url(#clip0_1728_74014)">
<rect width="410" height="172" rx="10" fill="white"/>
<path fill-rule="evenodd" clip-rule="evenodd" d="M242.685 25.2524C252.056 25.1417 262.06 23.8126 270.119 28.588C278.156 33.3502 281.029 43.1646 286.119 50.9891C291.502 59.2641 300.485 66.1668 300.976 76.0213C301.469 85.9154 294.277 94.3482 288.686 102.533C283.416 110.248 277.667 117.84 269.411 122.231C261.286 126.552 251.891 126.97 242.685 126.999C233.455 127.028 224.093 126.564 215.861 122.398C207.401 118.117 200.705 111.136 195.584 103.166C190.309 94.9566 185.389 85.7513 186.062 76.0213C186.724 66.4522 194.072 59.0721 199.198 50.9589C204.13 43.1515 207.666 33.9351 215.623 29.2319C223.604 24.5137 233.409 25.362 242.685 25.2524Z" fill="#A5DBFF"/>
<path fill-rule="evenodd" clip-rule="evenodd" d="M134.219 127.247C139.684 126.037 145.32 129.484 149.698 132.93C153.804 136.163 154.954 141.604 157.904 145.892C161.129 150.581 167.136 153.768 167.895 159.385C168.658 165.043 165.133 170.426 161.85 175.126C158.724 179.602 154.86 184.1 149.571 185.622C144.503 187.081 139.431 183.905 134.219 183.079C129.903 182.394 125.247 183.344 121.474 181.165C117.708 178.991 116.275 174.525 113.563 171.152C110.336 167.139 105.525 164.27 103.959 159.385C102.195 153.88 100.453 146.681 104.336 142.362C108.448 137.788 116.774 141.786 122.289 138.997C127.376 136.424 128.641 128.482 134.219 127.247Z" fill="#FEE719" fill-opacity="0.25" style="mix-blend-mode:hard-light"/>
<path fill-rule="evenodd" clip-rule="evenodd" d="M55.8902 0.166466C70.2235 -0.366086 87.6495 -0.412946 92.6238 12.855C97.9589 27.0854 86.9038 40.9135 74.5625 49.9718C61.6294 59.4645 44.5081 67.1254 31.5232 57.7016C18.685 48.3843 20.6466 29.8067 26.7899 15.301C31.4626 4.26789 43.7748 0.616609 55.8902 0.166466Z" fill="#FFC46B"/>
<path fill-rule="evenodd" clip-rule="evenodd" d="M353.103 44.8936C357.945 45.2932 363.696 41.8234 367.32 45.0559C371.001 48.339 367.078 54.9495 369.309 59.3469C372.304 65.2503 381.928 67.371 382 73.9892C382.067 80.2023 374.908 84.0555 369.611 87.3103C364.636 90.3673 358.845 92.8157 353.103 91.7439C347.737 90.7422 344.571 85.5622 340.541 81.8836C337.054 78.7006 333.551 75.8053 331.175 71.7268C328.209 66.6346 324.034 61.325 325.201 55.5496C326.392 49.6583 331.451 44.7052 337.07 42.5594C342.242 40.5844 347.586 44.4383 353.103 44.8936Z" fill="#F00C18" fill-opacity="0.25" style="mix-blend-mode:hard-light"/>
<path d="M395.178 102C396.438 105.833 400.046 108.6 404.3 108.6C409.602 108.6 413.9 104.302 413.9 99.0004C413.9 93.6985 409.602 89.4004 404.3 89.4004C400.747 89.4004 397.644 91.3309 395.984 94.2004M398.9 95.4004H394.1V90.6004" stroke="black" stroke-width="2" stroke-linecap="round" stroke-linejoin="round"/>
<path d="M155.8 102.8V100.4M151 102.8V98.0004M146.2 102.8V93.2004M143.8 107.6C142.475 107.6 141.4 106.526 141.4 105.2V90.8004C141.4 89.4749 142.475 88.4004 143.8 88.4004H158.2C159.525 88.4004 160.6 89.4749 160.6 90.8004V105.2C160.6 106.526 159.525 107.6 158.2 107.6H143.8Z" stroke="black" stroke-width="2" stroke-linecap="round" stroke-linejoin="round"/>
<path d="M306.944 169.088V151.912C306.944 151.36 306.496 150.912 305.944 150.912H301.885C301.333 150.912 300.885 151.36 300.885 151.912V169.088M306.944 169.088L306.942 158.768C306.942 158.216 307.39 157.768 307.942 157.768H312C312.552 157.768 313 158.216 313 158.768V168.088C313 168.64 312.552 169.088 312 169.088H306.944ZM306.944 169.088H300.885M300.885 169.088V164.088C300.885 163.536 300.438 163.088 299.885 163.088H296C295.448 163.088 295 163.536 295 164.088V168.088C295 168.64 295.448 169.088 296 169.088H300.885Z" stroke="black" stroke-width="2" stroke-linecap="round" stroke-linejoin="round"/>
<path d="M85.5836 126.6L92.9479 113.713M95.5781 113.713L102.416 126.6M86.3628 119.762C88.2908 122.665 91.1156 124.496 94.2633 124.496C97.4109 124.496 100.236 122.665 102.164 119.762M94.263 108.715C92.8104 108.715 91.6329 109.893 91.6329 111.346C91.6329 112.798 92.8104 113.976 94.263 113.976C95.7156 113.976 96.8931 112.798 96.8931 111.346C96.8931 109.893 95.7156 108.715 94.263 108.715ZM94.263 108.715V107.4" stroke="black" stroke-width="2" stroke-linecap="round" stroke-linejoin="round"/>
<path d="M31.3608 123L27.7608 126.6M27.7608 126.6L24.32 123.163M27.7608 126.6V117.757M16.8329 114.511C16.833 113.729 16.8287 112.81 16.8089 112.565C16.7863 111.869 17.0132 111.303 17.5329 110.783C18.5855 109.857 21.0658 108.813 21.0658 108.813C21.0658 108.813 24.32 107.4 27.7621 107.4C31.1461 107.4 34.3513 108.473 36.2107 109.327C37.3484 109.845 38.1066 110.376 38.665 111.035C39.0207 111.457 39.1932 111.929 39.1927 112.482L39.1732 114.593C39.1671 115.259 38.6204 115.792 37.9549 115.782L34.9437 115.736C34.2882 115.726 33.7621 115.192 33.7621 114.536V113.302C33.7621 113.012 33.5553 112.764 33.2687 112.717C32.1987 112.543 29.6124 112.161 27.7608 112.2C26.1183 112.235 23.8517 112.564 22.8602 112.72C22.5714 112.765 22.3621 113.014 22.3621 113.307V114.518C22.3621 115.181 21.8248 115.718 21.1621 115.718L18.0365 115.718C17.3711 115.718 16.8328 115.177 16.8329 114.511Z" stroke="black" stroke-width="2" stroke-linecap="round" stroke-linejoin="round"/>
<path d="M155 28.0004V28.0336M149.033 34.0006H149M159.243 29.7579L159.219 29.7814M150.781 38.2197L150.758 38.2432M150.781 29.7811L150.758 29.7576M155 43.6004C149.698 43.6004 145.4 39.3023 145.4 34.0004C145.4 28.6985 149.698 24.4004 155 24.4004C160.302 24.4004 164.6 28.6985 164.6 34.0004C164.6 35.6145 163.109 36.6884 161.495 36.6884H160.868C160.544 36.6884 160.225 36.7637 159.936 36.9084C158.907 37.4231 158.489 38.6749 159.004 39.7044C159.149 39.9937 159.224 40.3128 159.224 40.6363V40.8255C159.224 41.9261 158.606 42.9683 157.545 43.2594C156.734 43.4817 155.881 43.6004 155 43.6004Z" stroke="black" stroke-width="2" stroke-linecap="round" stroke-linejoin="round"/>
<path d="M418 142.609V159.401M408.4 151.005H427.6M424.96 160.6L410.56 158.801C409.36 158.681 408.4 157.722 408.4 156.522V145.488C408.4 144.288 409.36 143.329 410.56 143.209L424.96 141.41C426.4 141.29 427.6 142.369 427.6 143.688V158.202C427.6 159.641 426.28 160.72 424.96 160.48V160.6Z" stroke="black" stroke-width="2" stroke-linecap="round" stroke-linejoin="round"/>
<path d="M332.4 20.6004L339.6 13.4004M332.954 13.9497L332.94 13.9354M339.064 20.1231L339.05 20.1088M333.576 9.04319L331.638 8.61857C331.328 8.55072 331.018 8.72989 330.922 9.03196L330.321 10.9225C330.261 11.1123 330.112 11.2609 329.922 11.3213L328.032 11.9225C327.73 12.0185 327.55 12.3289 327.618 12.6385L328.043 14.5763C328.085 14.7708 328.031 14.9739 327.897 15.1211L326.56 16.587C326.347 16.8212 326.347 17.1796 326.56 17.4138L327.897 18.8797C328.031 19.0268 328.085 19.2299 328.043 19.4244L327.618 21.3623C327.55 21.6719 327.73 21.9823 328.032 22.0783L329.922 22.6795C330.112 22.7398 330.261 22.8885 330.321 23.0783L330.922 24.9688C331.018 25.2709 331.328 25.4501 331.638 25.3822L333.576 24.9576C333.77 24.915 333.974 24.9694 334.121 25.1035L335.587 26.4402C335.821 26.6538 336.179 26.6538 336.413 26.4402L337.879 25.1035C338.026 24.9694 338.23 24.915 338.424 24.9576L340.362 25.3822C340.672 25.4501 340.982 25.2709 341.078 24.9688L341.679 23.0783C341.739 22.8885 341.888 22.7398 342.078 22.6795L343.968 22.0783C344.27 21.9823 344.45 21.6719 344.382 21.3623L343.957 19.4244C343.915 19.2299 343.969 19.0268 344.103 18.8797L345.44 17.4138C345.653 17.1796 345.653 16.8212 345.44 16.587L344.103 15.1211C343.969 14.9739 343.915 14.7708 343.957 14.5763L344.382 12.6385C344.45 12.3289 344.27 12.0185 343.968 11.9225L342.078 11.3213C341.888 11.2609 341.739 11.1123 341.679 10.9225L341.078 9.03196C340.982 8.72989 340.672 8.55072 340.362 8.61857L338.424 9.04319C338.23 9.08581 338.026 9.03139 337.879 8.89723L336.413 7.56057C336.179 7.347 335.821 7.347 335.587 7.56057L334.121 8.89723C333.974 9.03139 333.77 9.08581 333.576 9.04319Z" stroke="black" stroke-width="2" stroke-linecap="round"/>
</g>
<defs>
<clipPath id="clip0_1728_74014">
<rect width="410" height="172" rx="10" fill="white"/>
</clipPath>
</defs>
</svg>
