<svg width="516" height="516" viewBox="0 0 516 516" fill="none" xmlns="http://www.w3.org/2000/svg">
<g clip-path="url(#clip0_72_2334)">
<path d="M516 0H0V516H516V0Z" fill="white"/>
<path fill-rule="evenodd" clip-rule="evenodd" d="M100.772 373.431C39.0188 330.59 112.978 273.821 94.911 205.94C76.8448 138.058 33.0813 36.8449 205.732 72.9094C380.663 109.451 491.61 156.504 465.391 302.249C439.171 447.996 162.526 416.272 100.772 373.431Z" fill="#61C1FF"/>
<path fill-rule="evenodd" clip-rule="evenodd" d="M368.807 432.113C364.935 428.253 363.1 422.855 361.389 417.662C356.906 424.154 346.897 424.363 340.023 420.489C333.15 416.615 328.51 409.851 323.575 403.694C314.739 392.673 276.886 365.455 276.264 357.243C275.934 352.888 288.6 344.96 288.6 344.96L265.84 331.569C265.84 331.569 254.037 340.624 247.251 341.7C228.371 344.694 215.017 342.912 215.001 346.31C214.944 358.604 289.328 420.978 265.608 420.489C230.009 419.755 164.989 350.466 143.928 344.96C135.107 342.654 74.6116 346.31 74.6116 331.667C74.6116 312 128.646 298.468 128.646 298.468C128.646 298.468 114.564 250.978 131.609 212.143C135.513 203.249 140.346 192.915 140.816 184.177C140.946 181.779 209.092 117.23 217.847 114.006C238.259 106.487 259.972 102.513 281.724 102.316C284.624 102.29 367.304 114.006 404.483 175.375C411.202 186.466 441.725 268.829 410.735 320.495C405.846 328.647 406.446 338.763 409.826 347.737C413.206 356.71 417.362 366.692 413.531 375.482C411.44 361.398 407.767 347.549 402.602 334.28C395.401 339.515 399.047 350.78 403.34 358.58C408.75 368.41 414.161 378.239 419.571 388.069C421.821 392.157 424.147 396.661 423.338 401.257C422.412 406.512 417.73 410.147 413.392 413.255C403.491 420.351 393.588 427.447 383.686 434.543C379.242 437.728 372.679 435.974 368.807 432.113Z" fill="white"/>
<path fill-rule="evenodd" clip-rule="evenodd" d="M235.043 214.615C235.802 212.563 238.532 211.715 240.546 212.571C242.56 213.426 243.811 215.566 244.126 217.731C244.441 219.896 243.963 222.097 243.346 224.197C242.784 226.112 242.106 227.993 241.316 229.826C241.242 229.996 241.144 230.186 240.963 230.227C240.77 230.27 240.593 230.12 240.454 229.98C237.031 226.512 234.968 221.736 234.788 216.867C234.761 216.108 234.78 215.329 235.043 214.615ZM240.96 215.117C240.398 214.635 239.673 214.32 238.934 214.342C237.208 214.395 236.003 216.278 236.042 218.004C236.08 219.731 237 221.298 237.892 222.776C238.532 223.835 239.171 224.893 239.81 225.952C240.028 226.313 240.457 226.725 240.796 226.474C240.933 226.374 240.986 226.197 241.03 226.033C241.292 225.072 241.554 224.11 241.815 223.148C242.19 221.773 242.567 220.375 242.543 218.95C242.52 217.526 242.042 216.044 240.96 215.117Z" fill="#FFB61D"/>
<path fill-rule="evenodd" clip-rule="evenodd" d="M239.831 220.643C239.41 220.761 238.951 220.739 238.544 220.58C237.755 220.273 237.209 219.427 237.255 218.58C237.301 217.733 237.934 216.951 238.752 216.73C239.992 216.396 241.389 217.538 241.306 218.82C241.253 219.652 240.633 220.417 239.831 220.643Z" fill="#FFB61D"/>
<path fill-rule="evenodd" clip-rule="evenodd" d="M262.429 421.874C263.845 422.06 263.323 424.258 262.404 425.352C253.63 435.798 242.173 443.972 229.441 448.871C226.586 449.969 223.632 450.914 220.58 451.124C214.92 451.514 209.282 449.303 204.806 445.817C200.33 442.33 196.919 437.644 194.14 432.698C186.539 419.173 183.353 403.212 185.177 387.805C185.349 386.355 186.338 384.432 187.674 385.021C187.287 390.172 187.227 395.347 187.494 400.506C187.757 405.573 188.342 410.654 189.797 415.515C191.144 420.015 193.217 424.261 195.378 428.432C197.599 432.719 199.953 436.994 203.161 440.603C206.369 444.213 210.533 447.146 215.27 448.081C221.208 449.254 227.303 447.208 232.779 444.627C244.134 439.273 254.32 431.456 262.429 421.874Z" fill="#00160A"/>
<path fill-rule="evenodd" clip-rule="evenodd" d="M303.511 363.166C313.824 353.02 324.136 342.875 334.448 332.729C335.026 332.161 335.88 331.555 336.563 331.99C337.474 332.572 336.745 333.97 335.977 334.729C324.879 345.706 313.779 356.683 302.68 367.66C301.88 367.254 301.648 366.161 301.929 365.309C302.211 364.458 302.872 363.795 303.511 363.166Z" fill="#00160A"/>
<path fill-rule="evenodd" clip-rule="evenodd" d="M224.565 304.815C223.937 304.924 223.308 305.032 222.679 305.141C221.459 303.31 220.21 301.409 219.828 299.243C219.444 297.076 220.161 294.553 222.085 293.484C224.261 292.275 224.917 289.3 224.224 286.908C223.53 284.517 221.813 282.579 220.13 280.744C218.422 278.879 215.682 276.9 213.653 278.41C212.331 279.395 210.351 278.838 209.168 277.691C207.984 276.543 207.358 274.957 206.593 273.497C205.144 270.735 203.033 268.243 200.271 266.795C197.508 265.346 194.051 265.06 191.271 266.473C188.513 267.875 186.773 270.665 184.422 272.676C182.071 274.687 178.189 275.756 176.07 273.501C175.531 272.927 175.17 272.076 175.476 271.352C175.783 270.628 176.971 270.378 177.351 271.067C178.317 272.824 180.989 272.798 182.66 271.69C184.331 270.582 185.377 268.771 186.747 267.307C189.428 264.446 193.504 262.956 197.399 263.414C201.294 263.871 204.913 266.265 206.857 269.671C207.795 271.311 208.372 273.177 209.596 274.617C210.82 276.057 213.043 276.939 214.613 275.887C216.386 274.699 218.699 276.176 220.254 277.637C222.36 279.614 224.412 281.752 225.597 284.385C226.783 287.019 226.971 290.26 225.422 292.698C224.132 294.727 221.663 296.37 221.877 298.766C222.077 300.999 224.646 302.574 224.565 304.815Z" fill="#00160A"/>
<path fill-rule="evenodd" clip-rule="evenodd" d="M251.787 204.252C255.563 206.02 258.922 208.847 260.863 212.536C262.804 216.225 263.198 220.807 261.459 224.596C257.859 232.432 246.413 235.482 245.15 244.013C244.829 246.186 245.266 248.445 244.73 250.574C244.358 252.046 243.546 253.36 242.896 254.732C241.5 257.675 240.842 260.963 240.995 264.215C239.54 265.002 237.83 263.326 237.644 261.681C237.458 260.038 238.116 258.406 238.081 256.752C238.015 253.643 235.61 251.168 233.558 248.831C230.481 245.326 227.808 241.199 227.308 236.561C227.147 235.067 227.215 233.543 226.879 232.078C226.517 230.503 225.707 229.074 224.992 227.625C223.063 223.716 221.757 219.205 222.944 215.01C224.132 210.816 228.561 207.347 232.765 208.501C233.958 208.829 235.127 209.499 236.352 209.316C238.503 208.995 239.37 206.429 240.87 204.853C243.557 202.03 248.257 202.599 251.787 204.252ZM233.506 245.011C235.89 248.146 238.274 251.283 240.658 254.419C243.392 251.54 242.261 246.883 243.092 243.001C244.224 237.712 248.955 234.122 253.053 230.594C257.152 227.065 261.222 222.237 260.301 216.907C259.562 212.625 255.825 209.582 252.241 207.122C250.221 205.736 247.89 204.342 245.48 204.787C243.044 205.238 241.375 207.398 239.62 209.146C237.865 210.895 235.218 212.413 233.021 211.268C229.93 209.656 225.995 212.406 225.123 215.782C224.25 219.157 225.504 222.688 226.881 225.892C228.258 229.094 229.811 232.415 229.55 235.891C229.295 239.274 231.453 242.31 233.506 245.011Z" fill="#00160A"/>
<path fill-rule="evenodd" clip-rule="evenodd" d="M43.3651 172.974C43.2103 172.555 43.9455 172.437 44.3396 172.648C44.3226 173.084 43.6523 173.305 43.3799 172.963L43.3651 172.974Z" fill="#00160A"/>
<path fill-rule="evenodd" clip-rule="evenodd" d="M329.273 344.726C330.082 344.839 330.512 345.835 330.328 346.631C330.144 347.427 329.544 348.051 328.97 348.632C324.325 353.327 319.679 358.024 315.033 362.719C314.69 363.066 314.287 363.438 313.799 363.422C313.143 363.402 312.715 362.643 312.794 361.993C312.875 361.342 313.303 360.794 313.718 360.286C317.99 355.059 322.625 350.13 327.581 345.546C328.057 345.105 328.63 344.636 329.273 344.726Z" fill="#00160A"/>
<path fill-rule="evenodd" clip-rule="evenodd" d="M192.671 276.815C195.23 277.047 197.199 279.452 197.638 281.985C198.077 284.518 197.288 287.106 196.218 289.443C195.627 290.73 194.95 291.977 194.189 293.172C193.643 294.032 192.947 294.935 191.942 295.102C190.264 295.38 189.085 293.533 188.438 291.96C187.526 289.746 186.69 287.501 185.931 285.231C185.558 284.116 185.199 282.943 185.39 281.783C185.681 280.01 187.188 278.683 188.767 277.825C189.966 277.174 191.313 276.693 192.671 276.815ZM190.266 289.855C190.462 290.161 190.672 290.475 190.98 290.67C191.232 290.829 191.541 290.895 191.837 290.855C192.598 290.749 193.087 290.015 193.476 289.353C194.493 287.618 195.538 285.797 195.653 283.789C195.767 281.781 194.626 279.547 192.658 279.133C190.355 278.648 188.209 280.956 188.014 283.301C187.818 285.647 188.996 287.874 190.266 289.855Z" fill="#FF9900"/>
<path fill-rule="evenodd" clip-rule="evenodd" d="M192.561 281.574C193.192 281.778 193.737 282.24 194.043 282.829C194.314 283.354 194.396 283.975 194.27 284.552C193.977 285.885 192.471 286.815 191.148 286.48C189.824 286.145 188.943 284.608 189.321 283.298C189.699 281.986 191.262 281.155 192.561 281.574ZM192.268 284.341C192.749 284.088 192.319 283.164 191.815 283.37C191.424 283.422 191.166 283.913 191.344 284.264C191.522 284.615 192.072 284.696 192.344 284.412L192.268 284.341Z" fill="#FF9900"/>
<path fill-rule="evenodd" clip-rule="evenodd" d="M328.03 306.803C326.603 305.262 325.32 303.588 324.204 301.808C323.848 301.24 324.587 300.499 325.252 300.588C325.918 300.677 326.407 301.235 326.832 301.755C328.31 303.568 329.789 305.382 331.267 307.195C331.097 307.842 330.28 308.135 329.634 307.963C328.987 307.792 328.484 307.294 328.03 306.803Z" fill="#00160A"/>
<path fill-rule="evenodd" clip-rule="evenodd" d="M376.745 390.829C376.762 391.041 376.684 391.247 376.603 391.443C375.791 393.42 374.582 395.233 373.07 396.744C370.664 399.146 367.403 400.926 366.114 404.073C365.81 404.818 364.671 404.926 364.079 404.38C363.488 403.833 363.406 402.896 363.669 402.134C363.931 401.372 364.472 400.745 365.001 400.138C366.726 398.16 368.451 396.183 370.176 394.205C371.497 392.69 372.877 391.129 374.708 390.298C375.461 389.957 376.682 390.005 376.745 390.829Z" fill="#00160A"/>
<path fill-rule="evenodd" clip-rule="evenodd" d="M329.788 298.569C331.49 300.569 333.192 302.57 334.895 304.57C335.181 304.906 335.483 305.288 335.464 305.729C335.434 306.414 334.592 306.823 333.925 306.663C333.258 306.503 332.754 305.97 332.306 305.451C330.864 303.778 329.572 301.975 328.451 300.071C328.014 299.33 327.844 298.031 328.698 297.921C329.137 297.864 329.501 298.233 329.788 298.569Z" fill="#00160A"/>
<path fill-rule="evenodd" clip-rule="evenodd" d="M310.181 309.718C309.922 309.354 309.654 308.88 309.874 308.492C310.235 307.849 311.215 308.347 311.705 308.899C313.434 310.849 314.907 313.028 316.071 315.361C314.962 315.922 313.782 314.779 313.061 313.766C312.102 312.417 311.141 311.067 310.181 309.718Z" fill="#00160A"/>
<path fill-rule="evenodd" clip-rule="evenodd" d="M311.715 315.462C312.408 316.183 313.108 317.367 312.387 318.058C311.653 318.761 310.479 317.968 309.831 317.185C308.262 315.291 306.898 313.229 305.77 311.043C306.494 310.421 307.566 311.145 308.228 311.833C309.39 313.042 310.552 314.252 311.715 315.462Z" fill="#00160A"/>
<path fill-rule="evenodd" clip-rule="evenodd" d="M313.602 308.37C313.289 307.909 312.995 307.276 313.334 306.834C313.819 306.203 314.805 306.783 315.348 307.365C316.923 309.053 318.499 310.742 320.073 312.429C320.003 313.039 319.288 313.405 318.68 313.315C318.073 313.224 317.566 312.815 317.112 312.402C315.787 311.204 314.607 309.847 313.602 308.37Z" fill="#00160A"/>
<path fill-rule="evenodd" clip-rule="evenodd" d="M323.532 304.626C324.513 305.877 325.493 307.129 326.475 308.38C326.863 308.876 327.274 309.513 327.02 310.09C326.776 310.646 326.003 310.793 325.445 310.554C324.886 310.315 324.494 309.809 324.13 309.323C323.106 307.956 322.092 306.582 321.087 305.202C320.865 304.897 320.633 304.555 320.667 304.179C320.723 303.553 321.524 303.228 322.122 303.42C322.721 303.611 323.145 304.131 323.532 304.626Z" fill="#00160A"/>
<path fill-rule="evenodd" clip-rule="evenodd" d="M322.793 310.397C322.997 310.618 323.214 310.876 323.192 311.176C323.163 311.576 322.693 311.824 322.297 311.764C321.901 311.705 321.573 311.434 321.275 311.166C319.317 309.406 317.667 307.304 316.422 304.985C316.667 304.347 317.63 304.78 318.092 305.283C319.659 306.988 321.226 308.692 322.793 310.397Z" fill="#00160A"/>
<path fill-rule="evenodd" clip-rule="evenodd" d="M341.804 299.114C341.957 299.289 342.118 299.49 342.108 299.722C342.094 300.073 341.677 300.293 341.331 300.234C340.984 300.175 340.704 299.927 340.446 299.689C338.603 297.986 336.84 296.196 335.165 294.328C335.757 293.532 337.008 294.17 337.727 294.853C339.152 296.208 340.513 297.63 341.804 299.114Z" fill="#00160A"/>
<path fill-rule="evenodd" clip-rule="evenodd" d="M335.964 300.814C334.934 299.402 333.903 297.991 332.872 296.579C332.683 296.32 332.484 296.005 332.586 295.701C332.786 295.103 333.694 295.369 334.182 295.768C335.732 297.033 337.049 298.584 338.043 300.32C338.236 300.656 338.422 301.055 338.286 301.418C338.112 301.88 337.478 302.016 337.024 301.823C336.569 301.63 336.256 301.213 335.964 300.814Z" fill="#00160A"/>
<path fill-rule="evenodd" clip-rule="evenodd" d="M344.189 295.626C343.171 294.531 342.153 293.436 341.135 292.341C340.772 291.951 341.211 291.259 341.741 291.202C342.27 291.146 342.755 291.48 343.174 291.808C343.947 292.412 344.691 293.05 345.406 293.721C345.801 294.092 346.202 294.498 346.352 295.019C346.5 295.541 346.296 296.203 345.783 296.38C345.194 296.583 344.614 296.083 344.189 295.626Z" fill="#00160A"/>
<path fill-rule="evenodd" clip-rule="evenodd" d="M342.213 297.793C340.804 296.348 339.454 294.845 338.168 293.289C337.945 293.018 337.709 292.684 337.804 292.346C337.912 291.964 338.411 291.815 338.787 291.943C339.163 292.07 339.438 292.386 339.694 292.689C340.872 294.083 342.049 295.477 343.227 296.871C343.546 297.248 343.86 297.841 343.498 298.177C343.133 298.515 342.561 298.15 342.213 297.793Z" fill="#00160A"/>
<path fill-rule="evenodd" clip-rule="evenodd" d="M409.249 387.13C410.84 386.639 414.867 385.547 416.457 385.056C417.17 384.836 418.23 384.808 418.363 385.542C418.474 386.146 417.779 386.557 417.197 386.752C415.591 387.292 411.493 388.269 409.811 388.472C409.211 388.545 408.342 388.321 408.463 387.731C408.532 387.391 408.918 387.233 409.249 387.13Z" fill="#00160A"/>
<path fill-rule="evenodd" clip-rule="evenodd" d="M231.528 320.611C234.046 320.648 237.023 321.234 238.027 323.543C238.971 325.712 237.487 328.32 235.407 329.446C233.326 330.572 230.848 330.6 228.483 330.596C196.209 330.555 163.936 329.776 131.697 328.261C129.688 328.166 129.498 325.267 129.957 323.309C130.231 322.14 130.539 320.909 131.382 320.054C132.595 318.825 134.518 318.741 136.245 318.735C159.421 318.66 182.639 318.587 205.717 320.72C209.373 321.058 213.032 321.451 216.703 321.416C221.653 321.368 226.578 320.539 231.528 320.611ZM235.142 326.47C235.683 325.414 234.887 324.072 233.804 323.587C232.722 323.103 231.478 323.229 230.298 323.345C215.168 324.833 199.936 323.115 184.76 322.228C173.73 321.584 162.678 321.378 151.631 321.173C147.026 321.087 142.42 321.002 137.815 320.916C136.346 320.889 134.736 320.909 133.607 321.849C132.478 322.79 132.441 325.008 133.841 325.451C134.095 325.532 134.364 325.545 134.629 325.558C167.053 327.135 199.519 327.842 231.981 327.679C233.171 327.674 234.599 327.529 235.142 326.47Z" fill="#00160A"/>
<path fill-rule="evenodd" clip-rule="evenodd" d="M210.924 346.698C213.802 352.998 220.002 357.662 226.853 358.68C230.076 359.16 232.277 362.092 234.113 364.784C236.02 367.583 237.42 372.326 234.266 373.562C246.506 387.06 258.746 400.557 270.987 414.055C272.408 415.623 273.79 418.24 272.141 419.568C271.529 420.06 270.689 420.138 269.904 420.164C259.82 420.502 250.304 415.782 241.577 410.718C229.009 403.425 217.006 395.161 205.71 386.022C197.457 379.345 185.601 377.435 175.669 381.182C170.517 383.126 164.057 379.163 163.456 373.689C162.854 368.215 168.299 362.944 173.751 363.723C165.555 351.561 150.896 344.045 136.236 344.488C118.544 345.023 100.78 343.167 83.5796 338.986C82.0688 338.618 80.4465 338.16 79.4991 336.927C77.6092 334.47 79.5913 330.975 81.6684 328.673C96.9702 311.716 120.514 302.567 143.251 304.745C144.22 304.838 144.747 303.661 144.974 302.715C150.754 278.628 156.534 254.54 162.313 230.452C163.01 227.548 167.431 227.147 169.622 229.177C171.812 231.208 172.294 234.446 172.546 237.422C174.429 259.608 171.141 283.494 182.171 302.838C182.685 303.739 183.265 304.661 184.167 305.173C185.056 305.677 186.127 305.708 187.149 305.726C207.57 306.088 227.992 306.45 248.413 306.811C250.957 306.856 254.081 306.553 255.109 304.226C257.743 298.26 260.377 292.295 263.011 286.33C263.849 284.432 265.005 282.279 267.055 281.966C269.993 281.519 271.852 285.208 271.756 288.178C271.661 291.148 270.662 294.303 271.971 296.971C276.768 291.872 281.647 286.707 287.646 283.097C293.645 279.487 301.014 277.569 307.741 279.509C301.794 288.965 295.846 298.421 289.899 307.877C294.866 311.164 295.258 319.477 290.622 323.217C288.642 324.813 290.213 327.964 291.852 329.908C296.99 335.997 302.128 342.087 307.266 348.177C302.88 350.21 297.773 348.118 293.462 345.933C285.755 342.028 278.233 337.761 270.928 333.15C267.382 330.913 263.475 335.108 260.257 337.795C255.15 342.061 248.098 342.91 241.477 343.585C231.293 344.623 221.108 345.661 210.924 346.698ZM228.688 333.461C234.945 333.804 241.321 334.237 247.392 332.686C253.609 331.098 259.266 327.401 263.216 322.344C264.175 321.117 265.855 320.77 267.391 320.505C272.692 319.593 278.274 318.701 283.338 320.515C285.623 321.333 288.41 320.397 289.737 318.365C291.065 316.333 290.802 313.405 289.135 311.641C287.33 311.592 287.001 314.152 286.044 315.683C284.787 317.694 282.044 318.021 279.675 318.14C270.985 318.577 262.296 319.014 253.606 319.451C251.496 319.557 248.59 318.943 248.654 316.832C248.681 315.903 249.36 315.136 250.025 314.486C252.358 312.208 255.021 310.269 257.905 308.748C222.621 309.016 187.332 308.619 152.063 307.559C134.72 307.037 116.226 306.642 101.448 315.734C100.069 316.583 98.9901 319.086 100.59 319.333C105.305 320.06 110.019 320.788 114.733 321.515C115.294 321.602 115.895 321.707 116.302 322.104C117.519 323.294 115.813 325.207 114.244 325.868C107.768 328.594 100.052 328.179 93.9065 324.772C92.514 324 90.8614 323.061 89.4428 323.784C87.7289 324.657 87.9642 327.412 89.418 328.672C90.8724 329.932 92.9433 330.109 94.8628 330.228C112.111 331.292 129.359 332.356 146.607 333.421C151.455 333.72 156.318 334.018 161.166 333.716C183.643 332.316 206.202 332.23 228.688 333.461ZM253.866 400.326C247.829 392.02 240.953 384.325 233.376 377.395C230.895 375.127 228.71 372.559 226.532 369.998C217.008 358.802 207.484 347.605 197.96 336.409C197.009 335.291 195.366 335.145 193.899 335.098C181.391 334.702 168.841 335.631 156.527 337.866C155.617 338.031 154.634 338.244 154.033 338.948C152.639 340.579 154.381 342.962 156.015 344.354C172.365 358.275 189.316 371.49 206.804 383.951C210.022 386.244 213.289 388.529 216.924 390.081C223.781 393.009 230.638 395.937 237.495 398.865C242.742 401.106 248.995 403.297 253.866 400.326ZM171.98 276.71C171.728 273.439 171.727 270.111 170.828 266.956C169.208 261.273 164.89 256.81 160.592 252.754C160.259 252.44 159.819 252.101 159.388 252.259C158.996 252.402 158.854 252.872 158.765 253.279C155.562 267.867 152.358 282.454 149.155 297.042C148.551 299.795 147.943 302.586 148.073 305.402C159.304 305.544 170.534 305.686 181.765 305.827C176.169 297.127 172.774 287.024 171.98 276.71ZM303.933 281.554C296.957 280.958 289.773 283.522 284.75 288.4C275.551 297.334 265.727 305.626 255.375 313.194C253.957 314.23 252.438 315.378 251.957 317.067C260.631 316.676 269.305 316.285 277.978 315.893C280.265 315.79 282.958 315.447 284.052 313.436C290.037 302.425 296.68 291.773 303.933 281.554ZM81.3058 333.202C81.0698 333.707 80.86 334.27 80.9914 334.813C81.2232 335.771 82.3433 336.171 83.3024 336.404C102.695 341.109 122.814 341.715 142.761 342.299C144.746 342.357 146.805 342.402 148.628 341.613C150.45 340.825 151.965 338.951 151.669 336.987C138.703 335.19 125.616 334.27 112.526 334.234C104.684 334.212 96.6193 334.472 89.268 331.743C87.4943 331.084 85.4874 329.765 85.7131 327.886C83.8245 329.245 82.2917 331.094 81.3058 333.202ZM266.229 329.7C265.533 328.19 263.573 327.632 261.947 327.981C260.322 328.329 258.942 329.359 257.579 330.31C254.433 332.507 251.031 334.445 247.297 335.33C244.042 336.101 240.655 336.046 237.31 335.987C225.1 335.771 212.889 335.554 200.679 335.338C203.398 339.395 207.124 343.953 211.98 343.42C221.478 342.377 231.099 342.626 240.552 341.231C250.004 339.836 259.582 336.563 266.229 329.7ZM294.48 340.145C294.924 340.085 295.442 339.937 295.582 339.511C295.699 339.153 295.485 338.779 295.277 338.466C291.759 333.174 287.428 328.481 283.116 323.815C282.458 323.103 281.772 322.371 280.879 321.994C279.954 321.606 278.912 321.643 277.911 321.718C273.822 322.024 269.772 322.858 265.893 324.192C265.576 324.301 265.208 324.477 265.172 324.81C265.144 325.068 265.338 325.293 265.521 325.479C269.596 329.621 274.693 332.581 279.724 335.489C284.276 338.122 289.269 340.848 294.48 340.145ZM178.525 366.756C178.145 366.462 177.741 366.157 177.264 366.095C176.877 366.045 176.491 366.162 176.118 366.277C175.256 366.545 174.394 366.813 173.533 367.08C172.688 367.342 171.633 368.118 172.12 368.857C173.64 371.158 174.257 374.039 173.813 376.76C173.669 377.644 174.939 377.96 175.831 377.896C180.445 377.571 185.058 377.245 189.672 376.919C190.153 376.885 190.802 376.641 190.69 376.172C186.635 373.034 182.58 369.894 178.525 366.756ZM257.575 304.364C257.251 305.211 258.115 306.132 259.018 306.225C259.92 306.319 260.779 305.863 261.572 305.422C264.431 303.83 267.514 301.982 268.593 298.894C268.945 297.888 269.054 296.816 269.16 295.755C269.342 293.935 269.524 292.114 269.706 290.294C269.746 289.89 269.779 289.453 269.565 289.107C269.351 288.762 268.784 288.622 268.546 288.952C267.587 290.284 266.18 291.287 264.607 291.757C263.926 291.961 263.196 292.079 262.623 292.498C261.94 292.996 261.605 293.83 261.302 294.62C260.06 297.868 258.817 301.116 257.575 304.364ZM229.149 362.693C227.903 360.37 224.472 359.589 222.344 361.146C225.087 363.289 226.634 366.596 228.962 369.184C229.763 370.075 230.805 370.937 232 370.857C233.196 370.779 234.184 369.181 233.337 368.334C231.675 366.672 230.259 364.764 229.149 362.693ZM168.162 369.029C166.31 370.837 166.94 373.898 167.705 376.37C167.962 377.204 168.784 378.241 169.465 377.696C169.697 377.511 169.779 377.201 169.849 376.913C170.191 375.492 170.535 374.039 170.382 372.586C170.229 371.133 169.481 369.656 168.162 369.029Z" fill="#00160A"/>
<path fill-rule="evenodd" clip-rule="evenodd" d="M372.935 435.554C369.062 431.693 367.228 426.295 365.517 421.102C361.033 427.595 355.218 432.204 348.345 428.33C341.471 424.455 332.638 413.29 327.703 407.135C318.867 396.113 308.369 386.426 296.675 378.5C302.92 385.352 306.655 394.443 307.03 403.707C311.767 403.658 316.505 403.608 321.242 403.559C305.314 408.986 288.251 411.055 271.488 409.59C280.597 401.93 287.72 391.929 291.98 380.817C291.029 377.81 286.511 378.507 283.874 380.233C281.235 381.96 277.821 384.153 275.28 382.286C272.151 379.988 272.367 372.789 268.652 373.915C259.007 376.838 247.573 371.031 244.241 361.52C241.965 362.942 239.691 364.364 237.416 365.786C236.32 362.262 241.392 359.54 244.811 360.93C248.229 362.319 250.232 365.777 252.603 368.605C254.973 371.433 258.777 373.929 262.16 372.456C268.464 369.71 276.756 374.669 277.318 381.522C282.207 377.599 288.913 376.044 295.029 377.414C291.127 371.762 286.773 366.423 282.021 361.463C285.633 356.65 290.1 352.479 295.15 349.205C292.672 353.89 289.236 358.067 285.117 361.403C306.244 382.116 327.371 402.829 348.499 423.542C349.829 424.846 351.353 426.236 353.216 426.261C355.256 426.29 356.902 424.682 358.293 423.189C368.209 412.548 378.125 401.908 388.041 391.267C390.624 388.494 393.342 385.438 393.73 381.669C394.216 376.935 390.911 372.736 387.756 369.174C375.059 354.84 361.55 341.226 347.315 328.418C341.072 322.801 332.841 316.96 324.986 319.934C315.509 323.523 313.254 337.786 303.519 340.603C306.43 336.603 309.341 332.602 312.251 328.601C306.48 324.426 299.262 315.109 298.886 307.997C303.519 303.777 309.23 300.581 313.967 298.131C309.23 286.977 309.793 284.658 316.128 283.135C322.464 281.611 327.952 280.102 333.774 278.155C349.915 272.756 357.62 247.16 344.071 236.528C336.617 230.679 280.753 173.267 256.767 152.099C258.583 160.201 247.91 167.84 240.827 163.507C242.186 168.177 238.92 173.829 234.095 174.444C229.27 175.061 224.564 169.711 226.253 165.15C227.707 161.224 232.358 159.599 235.058 156.4C237.758 153.202 235.403 146.171 231.732 148.185C229.794 155.987 218.384 159.311 212.559 153.771C210.508 151.82 207.821 151.341 205.075 151.802C201.71 152.366 195.889 153.672 193.4 156.085C189.5 159.866 188.62 165.388 183.977 167.953C183.237 168.363 182.461 168.713 181.642 168.993C175.681 171.024 167.337 165.125 170.431 159.641C153.472 175.278 141.83 196.581 137.828 219.299C146.68 221.822 148.36 233.447 148.336 242.651C138.35 245.185 147.743 264.245 139.107 269.861C129.262 276.264 132 291.153 135.898 302.231C125.918 280.754 124.718 255.351 132.627 233.028C131.846 247.19 131.064 261.352 130.282 275.514C136.978 274.534 139.683 266.374 140.236 259.629C140.79 252.884 141.211 244.948 146.882 241.255C144.765 235.859 143.897 229.977 144.363 224.199C141.899 223.403 139.434 222.608 136.97 221.813C135.489 232.239 123.908 237.368 114.358 241.808C104.048 246.601 94.3482 252.705 85.5665 259.926C76.1471 267.673 67.177 278.322 68.2202 290.472C69.2231 302.155 79.2906 311.089 89.8596 316.167C78.542 316.141 68.8275 306.073 67.0031 294.903C65.1787 283.733 70.0459 272.242 77.6552 263.864C85.2638 255.485 95.354 249.79 105.586 244.951C118.985 238.615 135.237 230.397 135.737 215.583C136.153 203.235 149.697 191.133 143.209 180.619C134.095 165.849 129.012 148.62 128.649 131.27C128.47 122.71 130.032 113.021 137.049 108.114C140.543 105.672 144.889 104.82 149.123 104.333C164.828 102.53 181.007 105.046 195.422 111.534C203.929 115.363 213.22 120.671 221.975 117.446C242.387 109.927 264.1 105.954 285.852 105.757C288.751 105.73 291.159 103.601 293.177 101.519C301.122 93.3286 307.752 83.8507 316.398 76.4038C325.044 68.9569 336.545 63.5957 347.721 65.9003C359.42 68.3132 368.154 78.732 371.976 90.0496C375.798 101.368 375.581 113.595 375.323 125.537C374.861 146.926 401.688 158.574 408.611 178.815C412.693 190.749 426.161 196.28 438.273 199.801C450.385 203.322 463.952 207.223 470.195 218.183C476.009 228.392 473.134 241.765 466.27 251.3C459.406 260.835 449.243 267.367 439.329 273.67C423.277 283.875 427.783 309.975 414.863 323.936C408.351 330.973 410.574 342.203 413.954 351.176C417.334 360.15 421.49 370.132 417.659 378.923C415.568 364.838 411.895 350.989 406.73 337.72C399.528 342.956 403.175 354.221 407.468 362.021C412.878 371.85 418.289 381.68 423.699 391.509C425.949 395.597 428.275 400.102 427.466 404.697C426.54 409.952 421.858 413.587 417.52 416.695C407.619 423.791 397.716 430.887 387.814 437.984C383.37 441.168 376.807 439.414 372.935 435.554ZM394.068 344.958C393.199 343.98 391.61 344.457 390.423 345.005C389.233 345.555 388.044 346.104 386.855 346.654C386.594 346.774 386.306 346.897 386.029 346.821C385.507 346.68 385.42 345.906 385.747 345.476C386.075 345.046 386.631 344.874 387.145 344.707C388.241 344.351 389.31 343.914 390.342 343.4C390.932 343.107 391.565 342.719 391.725 342.08C391.885 341.441 391.152 340.665 390.61 341.039C389.013 342.139 387.217 342.949 385.336 343.417C384.772 343.556 383.892 343.38 384.024 342.814C384.075 342.597 384.277 342.455 384.465 342.336C386.144 341.28 387.976 340.469 389.886 339.935C390.574 339.743 390.403 338.586 389.748 338.302C389.092 338.018 388.344 338.305 387.689 338.591C386.106 339.281 384.522 339.971 382.939 340.661C382.6 340.81 382.218 341.004 382.128 341.364C382.046 341.686 382.233 342.009 382.412 342.289C383.563 344.091 384.713 345.892 385.864 347.694C386.04 347.968 386.238 348.262 386.548 348.363C386.884 348.472 387.244 348.321 387.565 348.171C389.756 347.148 391.924 346.076 394.068 344.958ZM285.904 148.973C282.178 149.037 279.379 144.8 280.072 141.138C280.766 137.476 284.058 134.736 287.623 133.65C292.468 132.175 298.253 133.039 302.115 129.762C303.849 128.29 304.908 126.176 306.488 124.539C309.932 120.971 315.921 120.216 320.143 122.818C321.09 120.331 318.286 117.927 315.662 117.484C313.037 117.04 310.207 117.57 307.79 116.456C303.543 114.501 298.542 117.013 295.143 120.223C291.744 123.434 288.957 127.478 284.768 129.554C280.579 131.63 274.24 130.472 273.088 125.94C272.729 124.529 272.685 122.658 271.308 122.182C269.137 121.431 268.006 118.895 268.136 116.601C268.264 114.306 269.364 112.195 270.44 110.164C266.184 109.95 261.911 110.082 257.676 110.559C256.66 110.673 255.368 111.102 255.371 112.124C255.375 114.237 253.414 115.753 251.652 116.917C247.921 119.383 244.191 121.849 240.461 124.315C240.578 126.777 244.209 127.367 246.336 126.119C248.462 124.872 249.961 122.642 252.254 121.736C253.478 121.252 254.823 121.193 256.139 121.139C258.386 121.047 260.634 120.956 262.881 120.864C265.761 120.747 269.646 121.479 269.798 124.357C269.923 126.717 267.302 128.096 265.624 129.762C261.805 133.551 261.819 140.887 256.807 142.843C255.026 143.538 254.547 146.005 255.328 147.751C256.109 149.496 257.739 150.682 259.28 151.813C286.187 171.555 333.059 222.453 334.085 222.589C335.11 222.725 336.313 221.989 336.256 220.956C336.107 218.285 335.963 215.566 336.617 212.972C337.27 210.378 338.856 207.881 341.301 206.796C343.555 205.797 346.834 205.571 347.322 203.154C348.413 197.748 353.825 193.568 359.331 193.877C362.037 194.029 365.022 195.062 367.274 193.554C365.457 191.832 362.774 191.476 360.523 190.383C358.272 189.289 356.292 186.522 357.637 184.411C359.623 181.294 356.729 177.218 357.324 173.57C357.577 172.022 358.451 170.652 359.376 169.384C362.51 165.089 366.469 161.397 370.972 158.57C372.019 157.913 372.282 156.529 372.447 155.304C372.845 152.346 373.243 149.387 373.641 146.429C373.919 144.365 374.107 141.997 372.691 140.47C368.082 135.502 360.409 135.339 353.635 135.561C346.862 135.782 339.209 135.694 334.517 130.805C333.06 129.287 330.401 129.803 328.821 131.192C327.242 132.581 326.369 134.581 325.193 136.325C321.52 141.773 314.408 144.661 307.976 143.316C304.531 142.596 301.058 140.78 297.676 141.752C293.167 143.048 290.595 148.893 285.904 148.973ZM415.35 283.074C415.557 283.826 415.86 284.685 416.598 284.938C417.189 285.141 417.827 284.864 418.391 284.592C420.261 283.691 422.133 282.79 424.004 281.889C424.964 281.426 426.043 280.812 426.214 279.76C429.679 258.422 428.675 236.369 423.287 215.434C422.013 210.483 420.493 205.584 418.468 200.89C415.881 194.895 412.491 189.282 409.011 183.756C404.003 175.802 398.784 167.98 393.361 160.302C392.355 161.871 392.055 163.772 391.544 165.564C391.032 167.356 390.174 169.214 388.528 170.087C386.882 170.961 384.353 170.219 384.062 168.379C383.431 164.4 379.16 161.39 375.2 162.135C374.349 162.296 374.067 163.355 373.961 164.215C372.997 172.031 372.033 179.848 371.07 187.664C371 188.233 370.97 188.909 371.417 189.267C371.79 189.565 372.32 189.499 372.797 189.491C375.492 189.451 377.842 192.266 377.322 194.91C376.801 197.555 373.559 199.269 371.08 198.209C370.01 197.753 369.172 199.203 368.905 200.335C367.286 207.168 365.667 214.001 364.048 220.834C363.571 222.85 365.311 224.752 367.184 225.638C369.056 226.523 371.195 226.844 372.913 228.001C377.216 230.899 377.031 237.49 380.51 241.338C383.345 244.473 388.59 245.042 392.032 242.59C395.112 240.396 396.45 236.389 396.452 232.607C396.452 230.029 398.054 227.518 400.392 226.43C402.73 225.343 405.682 225.734 407.655 227.394C409.577 229.01 410.448 231.522 411.235 233.907C411.583 234.959 411.93 236.106 411.557 237.149C410.948 238.855 408.852 239.36 407.138 239.945C403.99 241.022 401.231 243.2 399.454 246.012C398.587 247.384 397.999 249.309 399.073 250.527C401.696 253.503 404.319 256.479 406.942 259.456C408.314 261.012 409.727 262.643 410.277 264.643C411.968 270.787 413.659 276.93 415.35 283.074ZM148.149 185.234C152.26 177.562 156.411 169.83 161.995 163.154C166.885 157.307 172.776 152.391 178.658 147.542C186.407 141.155 194.204 134.825 202.046 128.552C205.311 125.941 208.626 123.314 212.432 121.585C201.022 116.557 189.538 111.503 177.425 108.55C165.311 105.597 152.407 104.826 140.454 108.376C139.302 108.718 138.146 109.106 137.151 109.781C135.473 110.92 134.412 112.765 133.617 114.631C130.491 121.965 130.666 130.276 131.683 138.183C133.818 154.784 139.467 170.925 148.149 185.234ZM405.78 412.918C405.672 414.032 404.47 415.08 403.46 414.596C402.984 414.367 402.693 413.882 402.431 413.423C398.406 406.397 394.382 399.371 390.357 392.344C387.76 393.322 386.512 396.452 386.804 399.212C387.096 401.971 388.567 404.446 390.003 406.82C392.2 410.45 394.397 414.082 396.593 417.713C395.438 418.903 393.579 417.322 392.723 415.901C389.675 410.841 386.626 405.78 383.578 400.719C377.756 406.708 371.934 412.696 366.112 418.684C369.903 424.612 373.695 430.538 377.487 436.465C378.38 437.862 380.293 438.308 381.914 437.957C383.534 437.606 384.935 436.622 386.287 435.662C396.448 428.434 406.609 421.207 416.77 413.981C417.543 413.431 418.37 412.804 418.597 411.884C418.834 410.921 418.341 409.945 417.864 409.076C394.878 367.261 370.346 326.295 344.334 286.291C343.568 285.114 342.6 283.813 341.198 283.72C340.264 283.658 339.398 284.167 338.601 284.658C328.284 291.006 317.968 297.355 307.652 303.703C305.742 304.879 303.831 306.054 301.921 307.23C301.424 307.535 300.889 307.89 300.722 308.449C300.525 309.11 300.916 309.79 301.292 310.368C305.05 316.141 309.017 321.778 313.183 327.264C318.106 321.965 323.963 316.258 331.194 316.438C337.436 316.593 342.587 321.134 347.134 325.414C349.794 327.917 352.453 330.421 355.113 332.925C350.91 325.049 345.939 317.584 340.296 310.667C340.052 309.502 342.103 309.821 342.894 310.71C350.769 319.569 355.104 331.211 363.397 339.681C371.873 348.335 380.348 356.989 388.822 365.644C392.422 369.32 396.243 373.474 396.526 378.611C396.785 383.302 394.004 387.57 391.208 391.346C396.137 397.165 400.646 403.341 404.688 409.809C405.282 410.758 405.887 411.804 405.78 412.918ZM316.024 111.13C319.593 111.837 323.166 112.545 326.667 113.534C335.686 116.081 344.071 120.438 352.383 124.766C359.636 128.543 366.93 132.346 373.441 137.295C374.149 119.602 373.447 102.033 367.56 85.3326C365.863 80.5166 361.762 75.3236 357.773 72.1354C353.09 68.3923 346.588 67.7336 340.653 68.5826C330.285 70.0659 320.842 75.6188 313.064 82.6329C305.286 89.6471 298.98 98.1102 292.727 106.513C300.493 108.052 308.258 109.591 316.024 111.13ZM420.177 197.012C430.195 222.569 433.467 250.737 429.573 277.911C442.286 270.625 453.649 260.992 462.917 249.643C467.534 243.987 471.815 237.33 471.514 230.035C471.266 224.04 467.856 218.505 463.352 214.54C458.849 210.574 453.318 207.982 447.759 205.722C438.819 202.086 429.585 199.17 420.177 197.012ZM400.532 240.711C402.886 238.983 405.405 237.481 408.043 236.231C408.036 234.547 408.018 232.809 407.343 231.266C406.667 229.725 405.151 228.419 403.471 228.535C401.706 228.657 400.374 230.269 399.813 231.948C399.253 233.627 399.243 235.436 398.856 237.163C397.784 241.939 393.551 245.837 388.704 246.514C383.857 247.191 378.719 244.602 376.379 240.303C374.493 236.838 374.211 232.355 371.206 229.8C369.542 228.384 367.327 227.841 365.201 227.34C364.707 227.224 364.181 227.109 363.702 227.273C362.93 227.537 362.568 228.399 362.295 229.168C360.474 234.318 358.653 239.467 356.832 244.616C356.158 246.521 355.604 248.956 357.11 250.303C371.012 262.745 376.671 282.534 390.81 294.707C391.228 295.067 391.744 295.444 392.282 295.316C399.027 293.715 405.566 291.249 411.687 287.997C412.175 287.739 412.683 287.453 412.962 286.977C413.246 286.495 413.244 285.901 413.216 285.342C413.014 281.495 411.87 277.7 409.912 274.382C408.986 272.813 407.849 271.263 407.672 269.45C407.522 267.901 408.097 266.313 407.729 264.802C407.429 263.567 406.545 262.572 405.69 261.631C403.276 258.974 400.862 256.316 398.448 253.659C397.253 252.345 396.013 250.943 395.647 249.205C394.934 245.82 397.742 242.757 400.532 240.711ZM249.217 162.478C252.065 160.765 253.791 157.348 253.48 154.038C253.025 149.21 248.867 145.691 245.028 142.726C238.738 137.87 224.355 126.069 218.031 123.532C211.707 120.996 183.729 145.953 174.007 155.522C173.516 156.005 173.004 156.532 172.867 157.207C172.73 157.882 169.759 165.148 175.741 166.914C181.723 168.68 182.364 167.32 184.808 165.148C187.252 162.977 188.674 159.897 189.823 156.836C190.803 154.222 193.768 152.971 196.504 152.414C199.24 151.857 202.188 151.649 204.451 150.014C206.807 148.311 210.099 148.41 212.785 149.523C215.471 150.636 217.689 152.617 219.851 154.562C221.657 156.186 224.577 154.37 225.69 152.21C226.803 150.051 227.271 147.387 229.218 145.935C232.003 143.858 236.275 145.717 237.99 148.738C240.428 153.034 238.704 159.168 234.385 161.566C231.882 162.955 228.22 163.886 228.12 166.747C228.071 168.169 229.063 169.42 230.17 170.316C232.155 171.921 235.387 172.683 237.078 170.771C239.488 168.045 236.796 162.285 240.135 160.837C243.082 159.558 246.464 164.135 249.217 162.478ZM325.326 131.985C326.324 130.437 327.325 128.74 328.991 127.95C331.119 126.941 333.675 127.743 335.694 128.956C337.713 130.169 339.516 131.793 341.731 132.595C343.985 133.411 346.455 133.301 348.849 133.18C352.831 132.979 356.814 132.778 360.796 132.578C336.724 118.63 309.647 108.848 281.827 108.573C279.482 108.551 277.084 108.604 274.883 109.415C272.683 110.227 270.684 111.934 270.12 114.21C269.261 117.677 272.415 121.382 275.984 121.493C274.12 122.858 274.407 126.028 276.183 127.506C277.96 128.984 280.618 128.972 282.751 128.083C284.883 127.193 286.611 125.57 288.288 123.98C291.41 121.022 294.532 118.064 297.654 115.105C299.616 113.246 302.671 113.167 305.323 113.692C307.974 114.217 310.57 115.232 313.273 115.166C318.946 115.029 323.972 120.854 323.004 126.447C320.458 124.045 316.753 122.932 313.305 123.532C309.856 124.132 306.745 126.432 305.16 129.553C303.874 132.083 301.005 133.42 298.216 133.941C295.426 134.461 292.544 134.353 289.764 134.927C286.985 135.501 284.152 136.964 283.015 139.564C281.878 142.165 283.363 145.873 286.189 146.135C289.481 146.441 291.402 142.576 294.171 140.77C296.806 139.051 300.245 139.276 303.319 139.944C306.394 140.612 309.467 141.666 312.602 141.395C318.049 140.924 322.364 136.581 325.326 131.985ZM413.48 290.484C407.172 292.916 400.865 295.348 394.558 297.78C393.68 298.118 392.612 298.983 393.139 299.762C399.156 308.641 403.787 318.457 406.814 328.747C407.109 329.749 408.629 328.999 409.223 328.14C414.739 320.164 419.138 311.416 422.25 302.232C422.812 300.569 423.337 298.773 422.854 297.086C422.096 294.434 419.245 293.098 417.145 291.309C416.565 290.816 415.978 290.244 415.224 290.134C414.631 290.048 414.04 290.268 413.48 290.484ZM340.715 211.613C337.818 214.69 340.252 219.902 338.764 223.857C338.433 224.734 337.901 225.658 338.205 226.545C338.356 226.986 338.696 227.332 339.026 227.663C340.056 228.695 341.086 229.727 342.116 230.76C342.925 231.57 344.237 232.41 345.08 231.635C348.545 228.448 352.743 226.062 357.254 224.717C358.553 224.329 359.959 223.978 360.866 222.97C361.665 222.082 361.923 220.845 362.151 219.672C363.424 213.1 364.69 206.527 365.946 199.952C366.044 199.439 366.138 198.888 365.929 198.41C365.708 197.902 365.195 197.592 364.695 197.353C359.62 194.936 352.796 197.413 350.453 202.522C349.658 204.256 349.291 206.264 347.955 207.627C346.009 209.612 342.621 209.59 340.715 211.613ZM239.535 127.553C238.554 126.663 237.539 125.546 237.636 124.224C237.738 122.816 239.043 121.845 240.225 121.071C244.412 118.333 248.6 115.594 252.787 112.855C252.685 112.042 251.545 111.956 250.739 112.103C239.896 114.075 229.273 117.252 219.129 121.56C230.441 128.534 241.295 136.253 251.593 144.651C252.843 141.814 256.06 140.417 257.965 137.971C260.371 134.88 260.55 130.291 263.509 127.724C264.961 126.465 267.118 125.592 267.408 123.692C264.868 123.71 262.328 123.728 259.788 123.745C256.698 123.767 253.409 123.847 250.841 125.566C248.601 127.067 246.879 129.796 244.184 129.873C242.407 129.924 240.85 128.747 239.535 127.553ZM366.168 296.533C368.139 300.068 370.111 303.603 372.083 307.138C368.471 295.647 364.164 284.374 359.193 273.402C359.017 273.012 358.815 272.596 358.436 272.396C357.97 272.149 357.402 272.312 356.901 272.479C342.898 277.161 328.894 281.843 314.89 286.526C314.464 286.668 314.003 286.838 313.775 287.224C313.5 287.688 313.665 288.277 313.848 288.784C314.669 291.048 315.743 293.221 317.044 295.248C325.826 290.138 334.609 285.027 343.392 279.917C344.744 279.131 346.167 278.322 347.73 278.263C349.023 278.214 350.28 278.689 351.436 279.272C358.297 282.732 362.425 289.822 366.168 296.533ZM302.586 392.161C300.821 388.39 297.792 385.303 294.315 383.015C290.044 390.948 285.144 398.542 279.674 405.702C279.256 406.25 279.102 407.37 279.79 407.321C286.458 406.853 293.127 406.384 299.796 405.915C301.134 405.821 302.743 405.54 303.235 404.291C304.761 400.417 304.352 395.931 302.586 392.161ZM403.273 336.539C403.813 335.712 404.362 334.861 404.582 333.898C404.871 332.624 404.552 331.298 404.208 330.038C401.563 320.344 397.401 311.093 392.207 302.492C391.603 301.491 390.952 300.465 389.967 299.834C388.983 299.202 387.568 299.087 386.709 299.88C385.561 300.941 385.997 302.814 386.52 304.286C390.66 315.951 394.801 327.617 398.941 339.282C399.188 339.977 399.749 340.832 400.437 340.565C400.706 340.461 400.879 340.206 401.037 339.966C401.782 338.823 402.527 337.681 403.273 336.539ZM361.717 188.171C362.916 189.183 364.506 189.565 366.035 189.918C367.26 190.2 367.984 188.602 368.196 187.362C369.613 179.086 370.523 170.732 371.432 162.384C370.737 162.089 369.999 162.656 369.457 163.182C367.509 165.072 365.561 166.962 363.613 168.852C362.257 170.167 360.839 171.589 360.409 173.428C359.591 176.93 362.575 180.921 360.689 183.982C359.867 185.316 360.519 187.161 361.717 188.171ZM357.475 254.382C357.007 253.857 356.502 253.315 355.833 253.098C355.163 252.881 354.29 253.127 354.058 253.791C351.984 259.723 349.911 265.656 347.836 271.589C347.639 272.152 347.772 273.102 348.345 272.932C351.842 271.9 355.069 270.074 358.582 269.093C362.094 268.112 366.202 268.124 369.008 270.453C365.735 264.716 361.863 259.32 357.475 254.382ZM387.434 167.633C388.486 164.779 389.538 161.925 390.591 159.071C390.794 158.518 390.39 157.942 390.011 157.491C386.256 153.017 382.468 148.512 377.92 144.845C377.727 144.688 377.508 144.526 377.259 144.539C376.787 144.565 376.598 145.152 376.531 145.621C375.965 149.599 375.399 153.579 374.833 157.558C374.668 158.717 375.736 159.725 376.856 160.069C377.975 160.411 379.182 160.316 380.333 160.53C382.456 160.925 384.337 162.445 385.169 164.439C385.696 165.703 386.086 167.386 387.434 167.633ZM353.855 244.497C355.844 239.412 357.668 234.261 359.323 229.057C359.435 228.707 359.545 228.327 359.428 227.978C359.112 227.049 357.736 227.29 356.859 227.729C353.41 229.456 350.094 231.448 346.949 233.681C346.558 233.957 346.131 234.307 346.117 234.785C346.105 235.148 346.338 235.467 346.561 235.752C348.898 238.745 351.331 241.662 353.855 244.497ZM383.027 328.327C382.655 327.92 382.043 327.857 381.492 327.866C380.245 327.887 379.002 328.141 377.848 328.611C377.279 328.843 376.714 329.131 376.102 329.163C375.489 329.194 374.802 328.875 374.651 328.28C376.271 327.122 378.235 326.453 380.225 326.38C381.109 326.347 381.135 324.845 380.358 324.419C379.581 323.994 378.624 324.305 377.797 324.623C376.431 325.148 375.065 325.673 373.698 326.198C373.301 326.351 372.891 325.87 372.949 325.448C373.006 325.026 373.349 324.705 373.688 324.446C374.917 323.507 376.383 322.883 377.911 322.647C378.64 322.534 378.758 321.404 378.225 320.894C377.693 320.384 376.874 320.351 376.139 320.389C373.997 320.501 371.876 320.965 369.884 321.757C371.583 324.805 373.316 327.833 375.087 330.839C375.545 331.617 376.042 332.431 376.835 332.862C378.261 331.061 380.429 329.868 382.713 329.626C383.261 329.568 383.4 328.733 383.027 328.327ZM412.283 383.312C410.974 383.646 409.677 384.027 408.395 384.454C408.045 384.571 407.639 384.754 407.579 385.119C407.544 385.336 407.649 385.549 407.751 385.744C408.503 387.191 409.256 388.638 410.009 390.084C410.314 390.671 410.929 391.361 411.5 391.025C413.377 389.921 415.474 389.192 417.632 388.894C418.226 388.812 418.614 388.175 418.628 387.576C418.642 386.977 418.376 386.411 418.117 385.87C417.672 384.944 417.185 383.968 416.31 383.428C415.135 382.702 413.622 382.97 412.283 383.312ZM417.335 399.212C416.823 399.306 416.231 399.46 416.031 399.94C415.867 400.331 416.04 400.775 416.211 401.163C416.864 402.644 417.517 404.126 418.17 405.608C418.374 406.071 418.644 406.59 419.138 406.701C419.489 406.779 419.845 406.619 420.17 406.463C421.176 405.982 422.183 405.5 423.189 405.017C423.756 404.746 424.356 404.444 424.667 403.898C424.977 403.352 424.812 402.498 424.207 402.331C423.884 402.242 423.542 402.369 423.241 402.516C422.34 402.953 421.527 403.59 420.565 403.87C419.603 404.15 418.378 403.935 417.921 403.043C420.292 402.201 422.559 401.065 424.652 399.67C424.464 398.362 422.63 398.245 421.33 398.483C419.998 398.726 418.667 398.969 417.335 399.212ZM397.965 365.192C398.35 364.772 398.909 364.567 399.446 364.376C400.922 363.852 402.399 363.327 403.876 362.802C404.644 362.529 404.455 361.252 403.731 360.879C403.007 360.506 402.133 360.739 401.354 360.979C399.665 361.499 397.976 362.019 396.287 362.54C396.066 362.608 395.835 362.682 395.68 362.853C395.327 363.245 395.564 363.861 395.815 364.325C396.485 365.561 397.153 366.798 397.823 368.034C397.901 368.178 397.989 368.332 398.137 368.401C398.317 368.485 398.527 368.421 398.715 368.357C400.77 367.647 402.826 366.936 404.881 366.226C405.372 366.056 405.961 365.746 405.919 365.228C405.863 364.523 404.829 364.518 404.154 364.731C402.04 365.402 399.925 366.074 397.811 366.745C397.438 366.314 397.579 365.611 397.965 365.192ZM424.241 284.535C422.421 285.563 420.6 286.592 418.781 287.62C418.562 287.744 418.332 287.878 418.212 288.099C417.895 288.683 418.522 289.318 419.075 289.689C420.207 290.447 421.339 291.206 422.471 291.964C422.693 292.113 422.934 292.268 423.202 292.271C423.811 292.276 424.125 291.559 424.282 290.97C424.784 289.078 425.286 287.186 425.789 285.294C425.851 285.057 425.913 284.797 425.811 284.573C425.565 284.034 424.757 284.243 424.241 284.535ZM400.28 369.428C399.839 369.541 399.339 369.706 399.174 370.129C399.052 370.444 399.163 370.799 399.306 371.105C399.675 371.892 400.258 372.577 400.977 373.067C402.886 372.339 404.795 371.609 406.705 370.881C407.525 370.567 408.497 370.04 408.462 369.162C408.437 368.534 407.844 368.047 407.227 367.926C406.611 367.805 405.977 367.962 405.368 368.119C403.672 368.555 401.976 368.992 400.28 369.428ZM372.613 300.739C373.281 302.043 374.934 302.421 376.38 302.655C378.687 303.029 380.993 303.402 383.3 303.777C383.34 302.467 381.989 301.597 380.789 301.072C378.591 300.108 376.296 299.365 373.95 298.855C373.697 298.8 373.433 298.747 373.181 298.808C372.43 298.989 372.261 300.051 372.613 300.739ZM364.063 299.752C364.243 299.684 364.426 299.614 364.582 299.499C365.27 298.994 365.061 297.806 364.359 297.319C363.656 296.833 362.705 296.898 361.891 297.154C361.075 297.41 360.315 297.834 359.482 298.022C358.356 298.277 356.884 298.265 356.453 299.336C356.085 300.249 356.929 301.285 357.891 301.497C358.854 301.708 359.84 301.353 360.762 301.003C361.862 300.586 362.963 300.17 364.063 299.752ZM368.491 307.997C369.42 307.39 368.99 305.793 368.002 305.288C367.014 304.784 365.825 305.02 364.744 305.267C363.602 305.528 362.384 305.834 361.607 306.709C360.83 307.584 360.831 309.224 361.891 309.72C363.332 310.393 364.684 308.492 366.257 308.256C367.009 308.144 367.854 308.412 368.491 307.997ZM401.12 359.162C401.431 359.058 401.761 358.941 401.962 358.68C402.186 358.39 402.193 357.977 402.067 357.633C401.771 356.83 400.845 356.402 399.988 356.418C399.131 356.433 398.324 356.797 397.546 357.155C396.555 357.609 395.564 358.064 394.573 358.519C394.028 358.769 393.411 359.109 393.321 359.702C393.23 360.305 393.784 360.852 394.379 360.979C394.976 361.107 395.59 360.928 396.172 360.749C397.828 360.239 399.477 359.71 401.12 359.162ZM405.586 380.149C407.72 379.251 409.855 378.354 411.99 377.456C412.191 377.371 412.4 377.282 412.547 377.12C412.98 376.639 412.585 375.803 411.981 375.572C411.376 375.341 410.702 375.519 410.08 375.7C408.638 376.117 407.196 376.535 405.753 376.952C404.955 377.184 404.062 377.495 403.726 378.254C403.266 379.293 404.539 380.589 405.586 380.149ZM419.995 392.593C420.848 392.264 420.536 390.827 419.69 390.483C418.843 390.138 417.893 390.492 417.035 390.807C415.355 391.427 413.622 391.905 411.862 392.238C411.248 393.064 411.996 394.33 412.986 394.61C413.976 394.891 415.02 394.514 415.98 394.144C417.318 393.627 418.657 393.11 419.995 392.593ZM374.553 296.934C376.273 297.385 377.993 297.836 379.713 298.286C380.367 298.458 381.376 298.362 381.329 297.687C378.358 295.633 374.941 294.23 371.384 293.605C371.195 293.572 370.996 293.541 370.817 293.607C370.2 293.831 370.435 294.787 370.899 295.25C371.861 296.209 373.239 296.59 374.553 296.934ZM381.052 290.289C381.66 291.752 382.268 293.215 382.876 294.677C383.243 295.559 383.654 296.494 384.463 297.001C385.27 297.508 386.586 297.293 386.851 296.377C387.052 295.678 386.58 294.981 386.132 294.408C384.419 292.225 382.655 290.081 380.842 287.98C380.441 288.674 380.743 289.548 381.052 290.289ZM378.106 293.038C378.428 293.149 378.821 293.25 379.082 293.029C379.387 292.771 379.277 292.272 379.07 291.931C378.316 290.69 376.791 290.198 375.394 289.801C373.517 289.268 371.639 288.735 369.761 288.201C369.177 288.036 368.738 288.887 369.012 289.428C369.285 289.97 369.913 290.214 370.486 290.412C373.026 291.287 375.566 292.163 378.106 293.038ZM403.212 373.681C402.684 373.841 402.111 374.035 401.822 374.505C401.309 375.34 402.059 376.43 402.941 376.86C404.933 375.239 407.47 374.302 410.036 374.24C410.91 374.22 410.986 372.756 410.245 372.292C409.504 371.828 408.544 372.068 407.707 372.321C406.209 372.774 404.71 373.228 403.212 373.681ZM394.872 350.821C393.661 351.141 392.45 351.461 391.24 351.781C390.13 352.074 388.738 352.801 389.004 353.918C389.231 354.869 390.56 355.085 391.451 354.685C392.343 354.284 393.023 353.507 393.911 353.098C395.362 352.429 397.405 352.672 398.218 351.298C397.525 350.313 396.036 350.513 394.872 350.821ZM349.497 286.798C349.265 286.898 349.025 287.013 348.872 287.215C348.476 287.735 348.907 288.544 349.52 288.772C350.132 289.001 350.813 288.836 351.448 288.684C353.584 288.173 355.758 287.819 357.946 287.625C358.158 286.425 356.59 285.753 355.371 285.704C353.364 285.625 351.341 286.002 349.497 286.798ZM384.902 333.341C385.529 332.677 385.174 331.196 384.277 331.37C381.898 331.835 379.605 332.735 377.545 334.012C377.063 334.992 378.395 336.009 379.474 335.839C380.553 335.668 381.42 334.877 382.43 334.464C383.276 334.117 384.273 334.006 384.902 333.341ZM386.205 311.846C385.923 311.49 385.472 311.321 385.044 311.168C382.965 310.424 380.886 309.681 378.807 308.937C378.238 308.734 377.601 308.531 377.047 308.774C376.494 309.017 376.273 309.934 376.814 310.202C379.478 311.519 382.31 312.495 385.219 313.101C385.521 313.164 385.86 313.217 386.121 313.051C386.504 312.807 386.486 312.202 386.205 311.846ZM376.416 287.384C376.712 287.561 377.102 287.228 377.11 286.884C377.118 286.539 376.886 286.239 376.652 285.985C374.419 283.548 371.142 282.41 368.006 281.362C367.211 281.097 366.048 281.007 365.816 281.812C369.44 283.489 372.98 285.349 376.416 287.384ZM422.658 395.488C422.47 394.835 421.781 394.428 421.105 394.36C420.429 394.292 419.758 394.493 419.108 394.692C417.974 395.039 416.84 395.385 415.705 395.732C414.922 395.971 413.97 396.443 414.035 397.259C414.089 397.925 414.863 398.322 415.527 398.258C416.19 398.194 416.776 397.819 417.377 397.532C418.689 396.903 420.186 396.668 421.628 396.865C422.301 396.956 422.845 396.141 422.658 395.488ZM351.523 291.767C351.513 292.381 351.993 292.966 352.597 293.078C352.987 293.149 353.386 293.042 353.768 292.935C355.976 292.32 358.184 291.704 360.392 291.089C360.427 290.469 359.891 289.933 359.296 289.753C358.7 289.573 358.062 289.665 357.448 289.759C355.844 290.002 354.24 290.247 352.637 290.491C352.03 290.583 351.532 291.153 351.523 291.767ZM387.991 335.929C388.079 335.353 387.511 334.843 386.933 334.77C386.354 334.698 385.786 334.934 385.25 335.165C383.546 335.902 381.843 336.637 380.139 337.372C379.632 338.016 380.255 339.036 381.054 339.217C381.853 339.398 382.663 339.033 383.401 338.677C384.565 338.116 385.729 337.555 386.893 336.993C387.371 336.763 387.91 336.455 387.991 335.929ZM363.623 276.932C363.819 277.282 364.21 277.468 364.576 277.631C367.612 278.992 370.648 280.352 373.684 281.712C374.222 281.953 375.009 282.118 375.274 281.59C375.56 281.025 374.856 280.484 374.273 280.235C371.007 278.848 367.741 277.461 364.475 276.073C364.31 276.004 364.135 275.932 363.96 275.962C363.564 276.028 363.427 276.582 363.623 276.932ZM379.346 316.097C379.244 316.055 379.135 316.011 379.026 316.032C378.913 316.054 378.82 316.152 378.803 316.267C379.069 318.084 381.107 318.979 382.854 319.546C385.137 320.287 387.42 321.028 389.702 321.769C390.251 321.162 389.355 320.321 388.602 320.003C385.516 318.702 382.431 317.4 379.346 316.097ZM362.466 294.805C362.72 294.325 362.337 293.725 361.854 293.477C361.01 293.042 359.992 293.285 359.077 293.536C358.034 293.822 356.991 294.108 355.949 294.394C355.199 294.6 354.292 294.99 354.265 295.768C354.244 296.35 354.793 296.827 355.366 296.934C355.94 297.041 356.524 296.872 357.083 296.705C358.57 296.262 360.057 295.818 361.544 295.374C361.9 295.268 362.292 295.133 362.466 294.805ZM414.149 379.341C413.529 378.983 412.75 379.193 412.068 379.411C409.898 380.104 407.728 380.798 405.559 381.492C405.079 382.26 405.952 383.282 406.856 383.336C407.76 383.39 408.58 382.862 409.379 382.434C410.832 381.656 412.433 381.155 414.069 380.968C414.781 380.886 414.769 379.7 414.149 379.341ZM372.71 313.469C372.015 313.284 371.279 313.413 370.571 313.544C369.696 313.705 368.82 313.866 367.945 314.028C366.952 314.211 365.693 314.725 365.799 315.729C365.861 316.321 366.445 316.749 367.035 316.835C367.625 316.921 368.217 316.746 368.787 316.572C370.534 316.04 372.282 315.508 374.028 314.976C374.046 314.256 373.405 313.656 372.71 313.469ZM366.751 301.7C366.265 301.204 365.465 301.168 364.798 301.361C364.13 301.554 363.532 301.933 362.881 302.172C362.112 302.454 361.281 302.538 360.515 302.827C359.749 303.117 359.009 303.696 358.877 304.503C359.164 305.176 360.129 305.1 360.836 304.911C362.707 304.407 364.578 303.903 366.449 303.399C367.12 303.218 367.237 302.196 366.751 301.7ZM364.147 310.856C363.368 311.083 363.502 312.371 364.213 312.763C364.923 313.154 365.801 312.938 366.582 312.712C368.218 312.241 369.853 311.768 371.489 311.295C371.609 310.478 370.861 309.738 370.055 309.561C369.248 309.383 368.414 309.615 367.62 309.846C366.462 310.183 365.305 310.519 364.147 310.856ZM373.428 195.768C374.469 195.019 374.308 193.473 374.339 192.191C372.983 192.026 371.499 191.889 370.355 192.636C369.212 193.384 368.906 195.402 370.13 196.008C370.55 196.216 371.04 196.211 371.51 196.2C372.176 196.186 372.888 196.157 373.428 195.768ZM376.05 304.725C375.395 304.658 374.441 304.948 374.627 305.579C374.716 305.883 375.049 306.031 375.347 306.139C378.198 307.17 381.174 307.852 384.189 308.166C384.562 308.08 384.672 307.552 384.476 307.222C384.281 306.893 383.905 306.722 383.55 306.58C381.153 305.616 378.62 304.99 376.05 304.725ZM362.782 273.08C365.248 274.347 367.761 275.522 370.315 276.601C370.811 276.811 371.373 277.019 371.872 276.815C372.37 276.61 372.561 275.775 372.067 275.559C369.164 274.289 366.261 273.018 363.358 271.748C362.897 271.546 362.24 271.402 361.99 271.839C361.717 272.319 362.291 272.828 362.782 273.08ZM387.188 315.579C386.768 315.198 386.203 315.028 385.659 314.867C383.369 314.194 381.078 313.522 378.787 312.849C378.471 312.756 378.118 312.665 377.821 312.811C377.525 312.957 377.417 313.456 377.714 313.601C380.848 315.137 384.156 316.317 387.555 317.111C387.836 316.618 387.608 315.961 387.188 315.579ZM388.985 350.929C390.618 350.351 392.251 349.773 393.885 349.196C394.603 348.941 395.374 348.647 395.786 348.005C395.68 347.43 395.059 347.068 394.474 347.057C393.89 347.045 393.336 347.298 392.806 347.546C391.375 348.215 389.943 348.883 388.512 349.552C387.995 349.794 387.399 350.149 387.39 350.72C387.658 351.243 388.43 351.125 388.985 350.929ZM376.006 318.263C376.388 317.838 376.045 317.101 375.515 316.889C374.985 316.677 374.387 316.823 373.835 316.971C371.96 317.472 370.086 317.974 368.211 318.475C367.871 318.869 368.177 319.535 368.655 319.741C369.133 319.947 369.682 319.837 370.19 319.725C371.881 319.35 373.572 318.974 375.264 318.598C375.534 318.538 375.822 318.468 376.006 318.263ZM398.912 353.394C398.526 353.309 398.131 353.461 397.764 353.611C395.766 354.428 393.768 355.245 391.77 356.061C391.191 356.298 391.424 357.28 392.012 357.495C392.599 357.71 393.241 357.432 393.804 357.159C395.521 356.328 397.238 355.497 398.955 354.665C399.151 354.571 399.359 354.464 399.455 354.27C399.63 353.915 399.299 353.479 398.912 353.394ZM384.24 321.658C383.471 321.373 382.361 321.224 382.054 321.985C384.762 323.379 387.635 324.455 390.593 325.181C391.197 324.816 390.443 323.954 389.781 323.709C387.934 323.026 386.087 322.342 384.24 321.658ZM346.983 284.231C346.466 284.819 346.975 285.933 347.758 285.927C349.547 284.758 351.635 284.055 353.766 283.901C353.091 283.056 351.921 282.736 350.843 282.82C349.764 282.905 348.747 283.334 347.752 283.759C347.472 283.878 347.183 284.004 346.983 284.231ZM390.75 328.117C391.335 328.259 392.258 328.095 392.112 327.51C389.665 326.406 387.087 325.594 384.449 325.097C384.158 325.49 384.333 326.084 384.697 326.41C385.061 326.736 385.557 326.862 386.033 326.977C387.605 327.357 389.177 327.738 390.75 328.117ZM388.899 331.183C390.269 331.606 391.687 331.873 393.118 331.976C393.404 331.598 393.24 331.019 392.89 330.699C392.54 330.378 392.06 330.251 391.599 330.134C390.14 329.763 388.681 329.392 387.222 329.021C386.692 329.932 387.892 330.871 388.899 331.183ZM420.093 408.964C419.767 409.767 420.191 410.889 421.05 411C422.12 409.974 423.039 408.79 423.767 407.498C423.353 407.05 422.621 407.158 422.048 407.37C421.235 407.669 420.42 408.162 420.093 408.964ZM397.246 342.333C396.549 341.684 395.689 341.213 394.769 340.975C394.621 342.28 395.369 343.639 396.551 344.212C396.835 344.349 397.171 344.443 397.46 344.32C398.192 344.009 397.827 342.874 397.246 342.333ZM393.821 334.133C393.343 333.787 392.724 333.721 392.136 333.666C391.412 333.599 390.688 333.531 389.964 333.464C389.613 334.309 390.606 335.131 391.512 335.263C392.417 335.396 393.407 335.215 394.198 335.674C394.556 335.205 394.3 334.478 393.821 334.133ZM399.433 350.046C399.717 350.288 400.066 350.504 400.437 350.464C400.568 348.687 399.367 347.033 397.873 346.063C397.698 347.538 398.302 349.083 399.433 350.046ZM394.794 338.069C393.956 337.606 392.97 337.417 392.02 337.536C392.364 338.462 393.184 339.195 394.143 339.435C394.655 339.564 395.296 339.507 395.575 339.057C395.855 338.609 395.303 337.866 394.871 338.17M347.841 280.5C347.046 280.641 346.301 281.045 345.748 281.633C346.736 281.911 347.862 281.63 348.603 280.921C348.42 280.675 348.136 280.507 347.833 280.465" fill="#00160A"/>
<path fill-rule="evenodd" clip-rule="evenodd" d="M330.791 359.545C338.898 351.758 350.277 352.856 358.237 361.401C365.158 368.836 363.513 378.657 355.653 386.895C352.688 389.971 346.734 392.011 342.427 391.512C338.78 391.149 333.101 388.462 329.728 385.984C328.167 384.837 326.739 382.472 325.392 378.88L325.194 378.344C322.801 371.709 324.417 364.697 329.837 360.297L330.091 360.095L330.148 360.017C330.195 359.958 330.249 359.903 330.311 359.852L330.409 359.776L330.52 359.705L330.751 359.589L330.791 359.545ZM344.884 386.296L342.432 388.918L342.703 388.941C345.216 389.123 347.675 388.73 349.911 387.78L350.036 387.725L349.863 387.714C348.317 387.604 346.685 387.132 344.988 386.344L344.884 386.296ZM337.73 381.369L337.501 381.16L337.258 381.395C336.308 382.321 335.342 383.27 334.354 384.249L333.234 385.36C333.551 385.59 333.881 385.815 334.224 386.036C335.775 387.046 337.45 387.813 339.183 388.311L339.555 388.413L341.347 386.525L342.689 385.106L342.601 385.054C340.915 384.018 339.258 382.748 337.73 381.369ZM349.426 381.436L346.504 384.563L346.651 384.626C348.926 385.58 350.948 385.761 352.688 385.059L352.871 384.98L352.695 384.781C351.816 383.797 350.87 382.822 349.836 381.826L349.426 381.436ZM331.817 374.836L331.298 375.346C330.551 376.073 329.798 376.795 329.037 377.512L327.84 378.631L327.941 378.87C328.751 380.737 329.88 382.362 331.349 383.782L331.402 383.833L331.569 383.663C332.634 382.583 333.733 381.489 334.879 380.368L335.77 379.5L335.527 379.257C334.195 377.901 333.055 376.573 332.095 375.233L331.817 374.836ZM354.2 376.327L351.011 379.74L351.043 379.771C352.267 380.938 353.386 382.084 354.424 383.241L354.739 383.597L354.749 383.586C355.837 382.107 355.65 379.698 354.342 376.65L354.2 376.327ZM343.04 375.865L342.804 376.086C341.713 377.11 340.608 378.161 339.48 379.244L339.161 379.55L339.459 379.813C341.018 381.175 342.512 382.32 344.005 383.242L344.287 383.413L346.289 381.288L347.667 379.819L347.212 379.415C346.385 378.686 345.492 377.921 344.37 376.977L343.04 375.865ZM360.081 370.037L355.668 374.757L355.812 375.034C356.055 375.513 356.293 375.999 356.527 376.493L356.875 377.239L357.198 377.958C357.528 378.654 357.755 379.347 357.876 380.029L357.895 380.145L358.026 379.908C359.812 376.634 360.544 373.264 360.097 370.134L360.081 370.037ZM350.374 369.984L350.147 369.684L349.342 370.36L347.1 372.214L346.698 372.551C346.286 372.9 345.915 373.219 345.574 373.521L345.177 373.879L344.766 374.258L345.691 375.029C346.723 375.894 347.62 376.664 348.46 377.405L349.259 378.118L351.824 375.37L353.044 374.057L353.035 374.04C352.268 372.687 351.356 371.305 350.374 369.984ZM336.712 370.262L336.52 370.073L336.46 370.138C335.71 370.923 334.953 371.702 334.19 372.476L333.428 373.241L333.587 373.484C334.515 374.873 335.662 376.229 337 377.545L337.338 377.873L337.399 377.931L337.503 377.831C338.277 377.093 339.07 376.342 339.889 375.572L341.21 374.336L341.027 374.183C339.541 372.918 338.107 371.614 336.712 370.262ZM328.556 365.253L328.483 365.374C326.667 368.427 326.107 372.221 326.95 375.836L327.026 376.146L327.064 376.293L327.444 375.938C328.24 375.188 329.03 374.432 329.814 373.668L330.612 372.884L330.536 372.745C329.229 370.314 328.546 367.845 328.556 365.31V365.253ZM342.978 362.968L342.031 364.055C340.956 365.279 339.867 366.489 338.762 367.686L338.111 368.385L338.273 368.542C339.56 369.786 340.893 370.998 342.285 372.189L342.932 372.737L343.55 372.168C343.947 371.808 344.372 371.436 344.853 371.028L345.642 370.367L347.494 368.84C347.829 368.564 348.128 368.315 348.405 368.081L348.677 367.85L348.546 367.697C347.91 366.959 347.311 366.325 346.814 365.86L346.668 365.725C345.658 364.814 344.554 363.98 343.324 363.188L342.978 362.968ZM356.357 362.835L356.258 363.009C355.234 364.744 353.825 366.368 351.907 368.136L351.746 368.282L351.804 368.361C352.642 369.539 353.436 370.77 354.189 372.055L354.462 372.529L356.608 370.212L359.322 367.265L359.259 367.111C358.635 365.628 357.708 364.236 356.475 362.955L356.357 362.835ZM330.96 364.154L330.949 364.254C330.729 366.593 331.187 368.894 332.26 371.157L332.288 371.213L332.574 370.926C333.206 370.286 333.836 369.64 334.46 368.99L334.937 368.489L334.743 368.292C333.644 367.159 332.565 365.989 331.499 364.776L330.96 364.154ZM332.026 361.567L331.862 361.647L331.904 361.697C333.357 363.429 334.837 365.07 336.367 366.644L336.524 366.804L337.163 366.119C338.284 364.904 339.391 363.675 340.48 362.432L341.011 361.821L340.954 361.79C340.685 361.644 340.408 361.497 340.125 361.35L339.694 361.129C337.166 359.889 335.3 360.026 332.281 361.446L332.026 361.567ZM347.83 357.142L346.899 358.297C346.271 359.069 345.636 359.838 344.996 360.601L344.548 361.132L344.662 361.204C346.355 362.296 347.797 363.481 348.983 364.794L349.252 365.1C349.514 365.404 349.773 365.714 350.029 366.028L350.322 366.393L350.363 366.356C352.251 364.596 353.585 362.992 354.5 361.269L354.527 361.217L354.284 361.025C351.836 359.101 350.043 357.958 348.145 357.254L347.83 357.142ZM344.086 356.48C341.688 356.463 339.503 356.892 337.488 357.772L337.373 357.823L337.574 357.85C338.015 357.915 338.448 358.026 338.875 358.187L339.087 358.272C340.229 358.775 341.279 359.279 342.264 359.802L342.593 359.98L343.239 359.219C343.896 358.436 344.546 357.649 345.191 356.857L345.422 356.57L345.142 356.538C344.908 356.514 344.674 356.498 344.438 356.488L344.086 356.48Z" fill="#FF9900"/>
<path fill-rule="evenodd" clip-rule="evenodd" d="M384.856 192.264C385.614 190.211 388.344 189.363 390.359 190.219C392.373 191.074 393.623 193.213 393.939 195.379C394.255 197.545 393.776 199.746 393.159 201.845C392.597 203.76 391.919 205.641 391.129 207.473C391.056 207.644 390.957 207.835 390.777 207.875C390.584 207.918 390.406 207.768 390.267 207.628C386.845 204.16 384.781 199.384 384.602 194.516C384.574 193.756 384.593 192.977 384.856 192.264ZM390.773 192.765C390.212 192.283 389.487 191.968 388.747 191.991C387.021 192.043 385.817 193.926 385.855 195.652C385.893 197.378 386.813 198.946 387.705 200.424C388.345 201.483 388.984 202.542 389.623 203.601C389.842 203.961 390.27 204.372 390.609 204.123C390.746 204.022 390.799 203.845 390.843 203.682C391.105 202.72 391.367 201.758 391.628 200.796C392.003 199.421 392.38 198.024 392.356 196.599C392.333 195.174 391.855 193.692 390.773 192.765Z" fill="#FFB61D"/>
<path fill-rule="evenodd" clip-rule="evenodd" d="M389.644 198.291C389.224 198.41 388.765 198.387 388.357 198.229C387.568 197.92 387.022 197.075 387.068 196.228C387.114 195.382 387.747 194.599 388.565 194.379C389.806 194.044 391.202 195.186 391.119 196.468C391.065 197.3 390.446 198.065 389.644 198.291Z" fill="#FFB61D"/>
</g>
<defs>
<clipPath id="clip0_72_2334">
<rect width="516" height="516" fill="white"/>
</clipPath>
</defs>
</svg>
