<svg width="99" height="45" viewBox="0 0 99 45" fill="none" xmlns="http://www.w3.org/2000/svg">
<path d="M32.6513 35.1011C31.6302 35.8266 30.5305 36.4342 29.3733 36.9124C25.1788 38.641 21.4016 38.1571 20.0259 37.9215C15.7376 37.1945 12.9688 34.9883 12.4158 34.5371C10.7156 33.1326 9.32376 31.3909 8.32769 29.4216C8.09497 28.9584 4.593 23.7859 7.74653 15.8326C10.9 7.87919 18.5615 5.67118 23.7456 5.27884C29.5997 4.83573 34.9647 7.25809 39.5482 9.66165C41.0684 10.4589 42.551 11.3231 44.0524 12.1567C44.0893 12.1617 44.1437 12.1692 44.2094 12.1812C44.3345 12.2037 44.3683 12.2169 44.3921 12.1962C44.4321 12.1611 44.4046 12.0708 44.3864 12.0044C44.3674 11.9369 44.3367 11.8733 44.2957 11.8164C42.5235 10.2978 40.8175 8.69271 38.9665 7.27689C33.1474 2.82388 26.5269 0.526247 19.2252 1.18746C12.8375 1.76657 6.0262 5.89493 2.45291 12.6637C1.85236 13.8013 -0.105061 17.7629 0.00441465 23.2143C0.148297 30.4056 3.78977 35.2873 4.92581 36.6993C9.44496 42.3168 15.6638 44.4283 19.7213 44.8721C22.5295 45.1785 25.0474 44.8533 25.8356 44.7354C28.2694 44.3679 30.6338 43.6343 32.849 42.5594C32.7818 40.0733 32.7159 37.5872 32.6513 35.1011Z" fill="#F00C18"/>
<path d="M66.478 9.65914C67.5887 8.94443 68.7755 8.35584 70.0162 7.90426C74.5867 6.24402 78.524 6.95976 79.3748 7.12648C83.6387 7.96005 86.3494 10.232 86.8899 10.6989C88.5526 12.1438 89.8991 13.9177 90.8447 15.909C91.0656 16.3778 94.433 21.6299 91.0868 29.4931C87.7406 37.3562 80.0336 39.3705 74.8494 39.6325C68.9928 39.9277 63.6961 37.3762 59.1788 34.8611C57.6774 34.0269 56.2186 33.1263 54.7372 32.2564C54.7003 32.2507 54.6459 32.2413 54.5808 32.2282C54.4557 32.2025 54.4232 32.1887 54.3994 32.2087C54.3581 32.2426 54.3831 32.3341 54.3994 32.4005C54.4169 32.4677 54.4459 32.5313 54.4851 32.5885C56.2167 34.1491 57.8807 35.7943 59.693 37.254C65.3964 41.8474 71.9499 44.3099 79.2579 43.8348C85.6506 43.4168 92.5544 39.4664 96.2916 32.7979C96.9172 31.6772 98.9728 27.7701 98.9997 22.3237C99.0348 15.1394 95.5203 10.1737 94.4212 8.73533C90.0509 3.01191 83.8927 0.744354 79.854 0.200341C77.1522 -0.163796 74.7662 0.0549357 73.7447 0.183418C71.1169 0.516598 68.562 1.28167 66.1827 2.44784C66.2811 4.85286 66.3796 7.25663 66.478 9.65914Z" fill="#FEE719"/>
<path d="M64.6701 1.34477C62.6883 2.15954 60.6095 2.79067 58.7453 3.81727C54.2361 6.2998 51.005 10.1417 48.2656 14.4092C45.8853 18.1164 43.7046 21.9609 41.2285 25.6016C39.0584 28.7924 36.6299 31.7305 33.7554 34.1924L33.9512 42.0267C35.9267 40.5513 37.7678 38.9037 39.4532 37.103C43.1953 33.1025 44.1963 30.43 51.5086 16.5909C51.5086 16.5909 56.8016 6.57369 62.3254 3.23377C62.951 2.85773 63.5922 2.48733 63.5922 2.48733C64.0977 2.20404 64.5306 1.9571 64.8765 1.76908C64.9847 1.72144 65.0642 1.63621 65.0642 1.55536C65.0586 1.44505 64.8972 1.31344 64.6701 1.34477Z" fill="#19A5FF"/>
<path d="M34.4167 43.3472C36.3997 42.5387 38.4829 41.9057 40.3458 40.886C44.8594 38.4116 48.098 34.5759 50.8455 30.3122C53.2327 26.6082 55.4203 22.7706 57.9032 19.1342C60.079 15.9473 62.5137 13.0141 65.3926 10.5579L65.2112 2.72361C63.2607 4.13253 61.4327 5.79089 59.7005 7.63727C54.5808 13.0968 51.3904 19.7416 48.3689 26.4778C48.073 27.1378 47.4117 28.8469 46.1906 30.9803C45.1625 32.7835 43.9756 34.491 42.6442 36.0826C41.968 36.888 40.9714 38.0638 39.4632 39.3749C39.4632 39.3749 37.5539 41.0358 35.4976 42.2059C34.66 42.6822 34.269 42.6973 34.2115 42.9216C34.1871 43.0056 34.2096 43.1391 34.4167 43.3472Z" fill="#13D1FF"/>
<path d="M7.65101 27.0474V26.3626L8.53513 26.2105V19.9775L7.65101 19.8253V19.1406H11.1712C11.7462 19.1406 12.2307 19.2276 12.6249 19.4015C13.0226 19.5717 13.3246 19.8199 13.5307 20.1459C13.7368 20.472 13.8399 20.8705 13.8399 21.3415C13.8399 21.8052 13.7386 22.1946 13.5361 22.5098C13.3372 22.825 13.0534 23.0641 12.6845 23.2271C12.3157 23.3865 11.8782 23.4717 11.3719 23.4825L9.60367 23.5151V26.2105L10.4878 26.3626V27.0474H7.65101ZM12.8635 27.0474L11.1061 23.0967L12.1747 23.0858L13.6337 26.2485L14.1816 26.3463V27.0474H12.8635ZM9.60367 22.6728H11.0627C11.6594 22.6728 12.0933 22.5587 12.3645 22.3305C12.6357 22.1022 12.7713 21.769 12.7713 21.3306C12.7713 20.914 12.6411 20.5843 12.3808 20.3416C12.1204 20.0988 11.7172 19.9775 11.1712 19.9775H9.60367V22.6728Z" fill="black"/>
<path d="M15.1687 27.0474V26.3626L16.0529 26.2105V19.9775L15.1687 19.8253V19.1352H21.0159V21.0371H20.1589L20.0396 19.9612H17.1214V22.537H20.0341V23.3793H17.1214V26.2431H20.2131L20.3324 25.1508H21.184V27.0474H15.1687Z" fill="black"/>
<path d="M22.3231 27.0474V26.3626L23.2072 26.2105V19.9775L22.3231 19.8253V19.1352H24.6337L27.1776 25.14H27.2101L29.6727 19.1352H32.0538V19.8253L31.1697 19.9775V26.2105L32.0538 26.3626V27.0474H29.2171V26.3626L30.15 26.2105V20.597L30.1229 20.5915L27.5573 26.7648H26.8467L24.1944 20.6024L24.1673 20.6078L24.2052 23.9173V26.2105L25.1599 26.3626V27.0474H22.3231Z" fill="black"/>
<path d="M36.2249 27.1615C35.7151 27.1615 35.2576 27.0637 34.8526 26.868C34.4476 26.6724 34.1023 26.3971 33.8166 26.042C33.5346 25.6834 33.3176 25.2595 33.1658 24.7704C33.0175 24.2814 32.9434 23.7416 32.9434 23.151V23.0369C32.9434 22.45 33.0175 21.9121 33.1658 21.423C33.3176 20.9303 33.5346 20.5046 33.8166 20.1459C34.1023 19.7873 34.4476 19.5101 34.8526 19.3145C35.2576 19.1189 35.7151 19.0211 36.2249 19.0211C36.7637 19.0211 37.2374 19.1189 37.646 19.3145C38.0546 19.5101 38.3964 19.7873 38.6712 20.1459C38.9496 20.5046 39.1593 20.9303 39.3004 21.423C39.4414 21.9121 39.5119 22.45 39.5119 23.0369V23.151C39.5119 23.7416 39.4414 24.2814 39.3004 24.7704C39.1593 25.2595 38.9496 25.6834 38.6712 26.042C38.3964 26.3971 38.0546 26.6724 37.646 26.868C37.2374 27.0637 36.7637 27.1615 36.2249 27.1615ZM36.2249 26.2703C36.7493 26.2703 37.1723 26.1398 37.4942 25.879C37.8196 25.6182 38.0583 25.2541 38.2101 24.7867C38.362 24.3158 38.4379 23.7705 38.4379 23.151V23.0261C38.4379 22.4102 38.3602 21.8704 38.2047 21.4067C38.0528 20.9393 37.8142 20.5752 37.4887 20.3144C37.1633 20.0499 36.742 19.9177 36.2249 19.9177C35.7512 19.9177 35.3498 20.0499 35.0208 20.3144C34.6917 20.5789 34.4422 20.9448 34.2723 21.4121C34.1023 21.8758 34.0173 22.4138 34.0173 23.0261V23.151C34.0173 23.7669 34.1023 24.3103 34.2723 24.7813C34.4422 25.2486 34.6917 25.6145 35.0208 25.879C35.3498 26.1398 35.7512 26.2703 36.2249 26.2703Z" fill="black"/>
<path d="M61.2044 27.9843V27.2996L62.0885 27.1475V20.8819H60.2986L60.1413 21.9796H59.3385V20.0722H65.9016V21.9796H65.1097L64.947 20.8819H63.1571V27.1475L64.0412 27.2996V27.9843H61.2044Z" fill="black"/>
<path d="M65.522 27.9843V27.2996L66.1077 27.2181L68.8686 20.0722H69.7853L72.4973 27.2181L73.0777 27.2996V27.9843H70.8104V27.2996L71.4071 27.1964L70.8863 25.74H67.7241L67.1871 27.1964L67.7838 27.2996V27.9843H65.522ZM68.055 24.8434H70.5609L69.4002 21.6263L69.3351 21.447H69.3025L69.2374 21.6263L68.055 24.8434Z" fill="black"/>
<path d="M73.9021 27.9843V27.2996L74.7862 27.1475V20.9145L73.9021 20.7623V20.0776H77.4223C77.9973 20.0776 78.4818 20.1645 78.876 20.3384C79.2737 20.5087 79.5757 20.7569 79.7818 21.0829C79.9879 21.409 80.091 21.8075 80.091 22.2784C80.091 22.7422 79.9897 23.1316 79.7872 23.4468C79.5883 23.762 79.3045 24.0011 78.9356 24.1641C78.5668 24.3235 78.1293 24.4086 77.623 24.4195L75.8548 24.4521V27.1475L76.7389 27.2996V27.9843H73.9021ZM79.1146 27.9843L77.3572 24.0337L78.4258 24.0228L79.8848 27.1855L80.4327 27.2833V27.9843H79.1146ZM75.8548 23.6098H77.3138C77.9105 23.6098 78.3444 23.4957 78.6156 23.2675C78.8868 23.0392 79.0224 22.7059 79.0224 22.2676C79.0224 21.851 78.8922 21.5213 78.6319 21.2786C78.3715 21.0358 77.9684 20.9145 77.4223 20.9145H75.8548V23.6098Z" fill="black"/>
<path d="M82.9332 27.9843V27.2996L83.8173 27.1475V20.8819H82.0274L81.87 21.9796H81.0673V20.0722H87.6304V21.9796H86.8385L86.6758 20.8819H84.8858V27.1475L85.77 27.2996V27.9843H82.9332Z" fill="black"/>
</svg>
