<svg width="380" height="320" viewBox="0 0 380 320" fill="none" xmlns="http://www.w3.org/2000/svg">
<g clip-path="url(#clip0_72_2499)">
<path d="M380 0H0V320H380V0Z" fill="white"/>
<path fill-rule="evenodd" clip-rule="evenodd" d="M235.301 65.9546C235.896 47.3451 207.927 15.5766 162.109 21.1117C111.944 27.1718 75.5445 75.7116 82.7955 129.964L83.0716 132.047C87.5232 165.933 89.0107 192.626 81.3195 230.212C75.5689 258.313 116.461 320.53 206.916 310.687C297.371 300.845 347.056 209.507 304.37 166.409C247.356 108.844 233.998 106.684 235.301 65.9546Z" fill="#FF5A78"/>
<path fill-rule="evenodd" clip-rule="evenodd" d="M181.582 120.209C180.03 116.846 177.09 114.1 174.546 111.197C167.742 103.436 163.522 94.0855 162.488 84.4778C161.937 79.3488 164.032 54.315 175.111 48.4424C169.641 47.0241 164.032 45.5453 159.545 42.5531C155.059 39.5608 151.883 34.6688 153.091 29.9577C154.918 22.8272 165.916 19.766 174.118 22.1096C182.322 24.4533 188.223 30.3823 193.682 36.0455C198.903 35.6752 200.199 29.1974 204.967 27.3694C208.184 26.1364 211.923 27.4006 215.041 28.8012C224.115 32.8774 232.614 38.4668 237.411 46.1269C242.209 53.7872 242.625 63.7866 236.511 70.7506C238.738 68.6037 243.353 71.2737 243.09 74.1158C242.826 76.9578 239.844 79.0199 236.998 80.5631C234.152 82.1064 230.972 83.706 229.847 86.3948C227.017 93.163 222.519 99.4333 216.723 104.693C213.181 107.906 209.115 110.798 206.488 114.583C203.862 118.368 202.984 123.455 206.048 127C210.122 123.348 217.144 122.321 222.442 124.603C227.739 126.884 230.861 132.279 229.731 137.198C237.112 137.732 243.744 142.656 245.296 148.756C260.262 161.461 272.487 176.449 281.196 192.772C286.725 203.134 290.83 213.985 294.923 224.808C296.525 229.044 298.145 233.48 297.253 237.861C295.442 246.757 283.982 251.997 273.338 253.05C260.084 254.362 246.274 251.106 235.755 244.191C230.137 258.905 224.528 274.977 230.915 289.467C232.283 292.57 229.548 296.094 225.974 297.473C222.401 298.852 218.288 298.65 214.367 298.421C192.389 297.139 170.412 295.856 148.435 294.573C143.829 294.304 137.532 292.022 139.163 288.385C142.803 280.262 143.843 271.325 142.145 262.762C140.849 268.529 138.602 274.144 135.489 279.396C135.489 279.396 124.518 298.421 113.578 288.657C107.343 278.048 107.074 265.624 108.915 253.888C110.755 242.152 114.56 230.667 116.047 218.896C117.495 207.428 116.725 195.823 118.142 184.353C119.558 172.882 123.473 161.135 132.77 152.667C140.127 145.968 147.483 139.268 154.839 132.568C156.82 130.765 158.907 128.899 161.646 128.053C164.385 127.207 167.965 127.745 169.374 129.896C171.11 128.077 173.142 126.117 175.898 125.873C178.655 125.63 181.531 128.474 179.762 130.269C182.933 127.844 183.134 123.572 181.582 120.209Z" fill="white"/>
<path fill-rule="evenodd" clip-rule="evenodd" d="M240.229 148.757C255.196 161.461 267.42 176.449 276.13 192.773C281.658 203.134 285.764 213.986 289.856 224.809C291.458 229.044 293.079 233.481 292.187 237.861C290.375 246.757 278.915 251.998 268.271 253.051C255.017 254.362 242.057 250.427 231.539 243.512C225.92 258.226 219.461 274.977 225.849 289.467C226.427 290.78 227.937 292.266 227.294 293.535C226.417 295.266 222.969 296.678 220.908 297.474C220.365 297.683 221.814 293.354 221.751 287.001C221.643 276.189 216.26 238.626 228.931 241.108C259.879 247.168 283.213 246.228 283.702 239.763C286.187 206.94 238.677 142.657 240.229 148.757Z" fill="#E7EAEE"/>
<path fill-rule="evenodd" clip-rule="evenodd" d="M172.685 113.064V113.064L172.685 113.064L172.684 113.063L172.684 113.063V113.062H172.683V113.062H172.683V113.061V113.061H172.682V113.061H172.682C172.114 112.442 171.547 111.823 170.999 111.197C164.195 103.436 159.975 94.0855 158.942 84.4778C158.39 79.3488 160.485 54.315 171.564 48.4424C166.094 47.0241 160.485 45.5453 155.999 42.5531C151.512 39.5608 148.337 34.6688 149.544 29.9577C151.372 22.8272 162.369 19.766 170.572 22.1096C178.775 24.4533 184.676 30.3823 190.136 36.0455C193.011 35.8416 194.696 33.7848 196.426 31.6727C197.837 29.95 199.279 28.1906 201.421 27.3694C204.637 26.1364 208.376 27.4006 211.494 28.8012C220.568 32.8774 229.067 38.4668 233.865 46.1269C238.663 53.7872 239.078 63.7866 232.965 70.7506C235.192 68.6037 239.806 71.2737 239.543 74.1158C239.279 76.9578 236.298 79.0199 233.452 80.5631C233.3 80.6451 233.148 80.7274 232.995 80.8102C230.273 82.2796 227.366 83.8493 226.301 86.3948C223.47 93.163 218.972 99.4333 213.176 104.693C212.234 105.548 211.254 106.38 210.274 107.213H210.274C207.572 109.509 204.87 111.805 202.942 114.583C200.315 118.368 199.438 123.455 202.502 127C206.576 123.348 213.597 122.321 218.895 124.603C224.192 126.884 227.314 132.279 226.184 137.198C233.566 137.732 240.197 142.656 241.749 148.756C256.716 161.461 268.94 176.449 277.65 192.772C283.178 203.134 287.284 213.985 291.376 224.808C292.978 229.044 294.599 233.48 293.707 237.861C291.895 246.757 280.435 251.997 269.791 253.05C256.537 254.362 242.727 251.106 232.208 244.191C226.59 258.905 220.981 274.977 227.369 289.467C227.934 290.749 227.798 292.104 227.192 293.349C223.033 285.739 222.271 277.051 223.383 268.722C224.505 260.325 227.437 252.184 230.355 244.099C230.839 242.759 228.311 242.405 226.662 242.215C223.734 241.877 221.61 239.776 219.779 237.823L212.336 229.883C207.532 224.758 201.993 219.258 194.329 218.265C192.204 217.99 190.053 218.09 187.899 218.19C186.588 218.251 185.274 218.312 183.965 218.289C178.879 218.197 173.837 216.788 169.696 214.299C168.703 213.703 167.696 212.955 167.492 211.942C167.293 210.953 168.354 209.794 169.482 210.045L169.562 210.066C169.549 210.062 169.537 210.059 169.525 210.056C169.511 210.052 169.496 210.049 169.482 210.045C165.894 209.134 162.477 207.746 159.396 205.949C158.829 205.617 158.25 205.25 157.957 204.723C157.325 203.584 158.371 202.19 159.75 201.71C161.129 201.229 162.691 201.405 164.167 201.588C162.406 201.286 160.59 200.966 159.114 200.102C157.639 199.238 156.581 197.679 157.038 196.216C157.495 194.752 159.89 193.847 161.241 194.845C160.651 193.367 161.929 191.73 163.6 191.06C165.271 190.39 167.207 190.443 169.055 190.528C176.809 190.888 184.542 191.586 192.211 192.615L191.087 179.33C191.042 178.788 190.986 178.22 190.637 177.763C190.191 177.178 189.364 176.899 188.589 176.657C172.978 171.787 156.919 167.938 140.603 165.154L144.258 222.819C144.37 224.587 144.955 226.83 147.03 227.118C159.92 228.904 172.565 231.945 184.631 236.16C186.326 236.753 187.565 234.754 187.878 233.232L190.97 218.14C191.399 224.52 190.316 230.969 187.801 236.997C189.724 237.378 190.837 235.239 191.145 233.595L193.937 218.682C194.413 223.968 193.863 229.32 192.319 234.459C191.963 235.639 191.425 236.945 190.114 237.458C189.005 237.893 187.706 237.611 186.531 237.323L145.7 227.296C145.058 227.138 144.388 226.967 143.912 226.571C143.204 225.982 143.107 225.063 143.053 224.226L139.655 172.231C139.434 168.86 139.653 165.481 139.871 162.111L140.992 144.848C134.42 164.344 133.799 185.009 136.567 205.141C139.336 225.272 145.418 244.972 152.081 264.446C149.278 260.407 147.23 255.998 146.037 251.429C142.778 255.357 139.358 259.834 140.288 264.562C141.849 272.501 140.854 280.787 137.435 288.302C136.655 290.016 138.057 291.993 139.976 292.863C141.896 293.732 144.173 293.775 146.352 293.798L175.366 294.101C174.566 293.246 174.855 291.826 175.948 291.244C175.655 293.899 179.699 295.15 182.837 295.509C197.662 297.207 213.422 298.8 227.047 293.629C226.139 295.279 224.413 296.707 222.428 297.473C218.855 298.852 214.742 298.65 210.82 298.421L144.888 294.573C140.282 294.304 133.985 292.022 135.616 288.385C139.256 280.262 140.297 271.325 138.598 262.762C137.302 268.529 135.056 274.144 131.942 279.396C133.219 270.627 136.71 262.091 142.116 254.52C145.964 249.131 143.747 242.274 141.771 236.209C132.413 207.499 130.963 176.983 137.565 147.735C123.474 156.409 117.591 171.8 115.92 186.431C115.221 192.547 115.106 198.707 114.991 204.862C114.829 213.43 114.669 221.989 112.936 230.417C112.145 234.267 111.028 238.072 109.912 241.874C108.149 247.881 106.387 253.882 105.914 260.043C105.175 269.663 107.61 279.234 110.032 288.657C103.796 278.048 103.527 265.624 105.368 253.888C106.213 248.502 107.471 243.169 108.729 237.836C110.213 231.55 111.696 225.265 112.5 218.896C113.229 213.12 113.397 207.31 113.563 201.499C113.728 195.773 113.892 190.046 114.595 184.353C116.011 172.882 119.926 161.135 129.224 152.667L151.293 132.568C153.273 130.765 155.361 128.899 158.099 128.053C160.838 127.207 164.418 127.745 165.827 129.896C167.563 128.077 169.595 126.117 172.351 125.873C175.108 125.63 177.984 128.474 176.215 130.269C179.386 127.844 179.587 123.572 178.035 120.209C176.819 117.573 174.749 115.315 172.685 113.064ZM227.047 293.629C227.098 293.537 227.146 293.443 227.192 293.349C227.226 293.411 227.26 293.473 227.294 293.535C227.259 293.548 227.224 293.562 227.189 293.575C227.142 293.593 227.095 293.611 227.047 293.629ZM292.2 232.994C292.947 238.234 289.611 243.501 284.661 246.738C279.711 249.975 273.374 251.397 267.122 251.758C253.959 252.52 240.505 248.719 230.549 241.428C238.192 234.832 238.619 223.243 231.476 216.261C237.621 213.853 243.904 211.413 250.641 210.789C257.378 210.165 264.771 211.671 269.15 216.027C269.898 216.771 270.546 217.583 271.193 218.394C271.987 219.391 272.781 220.386 273.761 221.254C272.912 216.531 268.54 212.586 263.306 210.743C258.073 208.901 252.119 208.942 246.581 209.978C241.044 211.015 235.827 212.992 230.656 214.956C229.673 215.33 228.937 214.138 228.777 213.24L227.851 208.035C227.469 205.89 227.51 203.081 229.91 202.293C231.713 201.701 231.24 199.386 230.047 198.103C229.847 197.888 229.632 197.672 229.417 197.454C228.342 196.37 227.214 195.232 227.499 193.896C230.524 179.716 233.565 165.479 238.948 151.803C239.114 151.38 239.317 150.92 239.775 150.696C240.395 150.394 241.178 150.656 241.802 150.952C246.844 153.352 249.858 157.638 252.865 161.916V161.917C253.926 163.426 254.986 164.934 256.135 166.359C257.907 168.555 259.937 170.589 261.967 172.624L261.968 172.625V172.625L261.968 172.625L261.969 172.626L261.969 172.626V172.627L261.97 172.627L261.97 172.628L261.971 172.628L261.971 172.628L261.972 172.629V172.629L261.973 172.63C263.479 174.139 264.985 175.648 266.387 177.225C275.036 186.955 279.279 198.658 283.531 210.386C285.471 215.736 287.412 221.091 289.775 226.266C289.871 226.476 289.967 226.686 290.064 226.897C290.978 228.883 291.899 230.884 292.2 232.994ZM224.434 202.371C225.668 202.361 226.96 202.339 228.041 201.837C229.121 201.335 229.885 200.185 229.385 199.235C228.91 198.333 227.543 198.008 226.381 198.136C225.708 198.21 225.065 198.395 224.421 198.581H224.42H224.42H224.419V198.581H224.419C223.952 198.716 223.484 198.85 223.004 198.943C220.613 199.403 218.172 198.796 215.744 198.193C213.116 197.539 210.503 196.889 207.985 197.602C209.614 195.332 209.506 192.524 209.404 189.857C209.399 189.717 209.393 189.578 209.388 189.439C208.871 175.273 212.604 161.012 220.144 148.341C217.361 150.017 215.363 152.594 214.661 155.415C214.577 155.75 214.511 156.09 214.444 156.43C214.273 157.303 214.103 158.175 213.645 158.966C211.791 162.17 206.554 162.408 202.338 162.087C198.883 161.825 195.263 161.443 192.449 159.735C191.037 158.878 189.901 157.727 188.771 156.584C187.267 155.061 185.773 153.549 183.657 152.756C180.146 151.441 176.395 152.537 172.599 153.646C169.17 154.648 165.705 155.66 162.349 154.915C160.458 154.495 159.15 156.45 158.583 158.026L156.11 164.893C154.956 161.14 156.365 156.905 159.667 154.203C158.253 153.422 158.634 151.819 159.011 150.231C159.392 148.622 159.771 147.031 158.276 146.327C153.763 144.2 152.869 139.151 152.484 134.809C146.742 136.594 143.467 141.82 142.457 146.904C141.862 149.901 141.869 152.942 141.876 155.986C141.88 158.107 141.885 160.229 141.686 162.338C158.998 165.192 176.062 169.113 192.695 174.058C193.714 174.361 194.783 174.698 195.463 175.405C196.194 176.165 196.33 177.201 196.437 178.175C196.98 183.101 197.493 188.23 195.401 192.852L195.418 178.448C195.419 177.651 195.257 176.652 194.356 176.408C192.954 176.028 192.296 177.832 192.412 179.069L193.413 189.777C193.55 191.242 193.804 192.893 195.204 193.771L170.036 191.642C167.421 191.421 164.288 191.384 162.759 193.183C163.011 194.905 165.455 195.628 167.471 195.982L183.492 198.795C178.478 199.667 173.21 198.885 168.466 197.262C168.106 197.139 167.748 197.011 167.389 196.883L167.387 196.882C165.885 196.346 164.378 195.808 162.768 195.629C160.773 195.407 158.518 195.865 157.359 197.25C164.527 201.242 172.858 203.742 181.408 204.467C181.357 205.248 180.119 205.482 179.192 205.425C176.781 205.277 174.461 204.682 172.139 204.085H172.139C171.061 203.808 169.984 203.531 168.896 203.299C165.464 202.567 161.616 202.324 158.569 203.843C165.427 208.553 174.468 210.19 183.138 211.682L168.782 211.424C171.321 215.229 177.018 216.63 182.192 216.861C183.723 216.929 185.267 216.928 186.811 216.926C190.486 216.922 194.159 216.918 197.633 217.859C203.94 219.567 208.509 224.074 212.728 228.376L220.864 236.671C221.973 237.802 224.087 237.927 225.655 237.288C227.222 236.648 228.328 235.415 229.196 234.143C230.918 231.615 231.943 228.647 231.387 225.77C230.831 222.893 228.474 220.175 225.153 219.355C219.447 217.946 215.397 213.676 212.597 209.259C211.636 207.743 210.772 206.178 209.909 204.615C208.258 201.624 206.609 198.637 204.282 195.996C203.585 195.205 202.825 194.441 202.065 193.678C200.188 191.793 198.311 189.908 197.382 187.6C202.162 191.495 206.218 196.017 209.359 200.954C209.7 201.489 210.075 202.067 210.733 202.316C211.154 202.475 211.633 202.474 212.095 202.47L224.434 202.371ZM223.118 81.6004C224.273 81.4741 225.187 80.7449 226.013 80.0533L230.032 76.6869C222.608 92.1783 212.006 107.156 195.935 116.949C192.672 118.937 188.793 120.768 184.828 120.172C182.751 119.859 180.888 118.9 179.236 117.794C175.796 115.493 173.075 112.513 170.747 109.375C164.176 100.515 160.528 90.1034 160.583 79.6577C160.639 69.2125 164.432 58.7715 171.532 50.2058C171.776 49.9114 172.049 49.6025 172.452 49.4852C172.861 49.3661 173.309 49.4715 173.723 49.5777C188.603 53.3866 203.341 57.5897 217.907 62.1781C220.213 62.9047 221.173 65.1899 221.592 67.2328C222.455 71.4406 222.225 75.8049 220.922 79.9321C220.623 80.8797 221.964 81.7271 223.118 81.6004ZM213.41 50.2809C215.165 50.2941 216.389 52.2709 215.397 53.4903C214.405 54.7097 211.774 54.4626 211.125 53.0892C210.398 51.5485 208.521 50.7122 206.751 49.9233C206.563 49.8397 206.377 49.7565 206.193 49.6729C200.244 46.9751 195.671 42.6905 191.12 38.4268V38.4266C189.926 37.3081 188.734 36.191 187.519 35.1044C185.21 33.0399 182.788 31.0648 180.264 29.1874C177.496 27.1284 174.559 25.1634 171.169 23.9279C167.78 22.6924 163.861 22.2421 160.373 23.2644C161.944 23.3314 163.175 24.8393 162.687 26.0988C162.199 27.3583 160.148 27.964 158.832 27.2374C157.517 26.5108 157.36 24.6857 158.537 23.8067C154.97 24.696 151.972 27.0716 150.702 30.0162C150.452 30.5968 150.266 31.2388 150.495 31.8257C150.624 32.1566 150.877 32.4504 151.128 32.7409C151.482 33.1512 151.83 33.5549 151.814 34.0467C151.685 37.9832 156.262 41.5474 160.912 41.1321C161.823 41.0508 162.19 41.8156 162.571 42.6091C162.752 42.9879 162.937 43.3727 163.185 43.6757C163.629 44.2167 164.371 44.5179 165.081 44.7914C172.299 47.5716 179.767 49.8901 187.401 51.72C188.285 51.9321 189.496 52.0204 189.872 51.313C190.375 50.3641 191.838 49.8713 192.98 50.2664C194.121 50.661 194.751 51.8775 194.316 52.8507C194.122 53.2863 194.76 53.64 195.28 53.7983L221.285 61.716C220.805 60.0951 223.25 58.4844 225.003 59.2661C226.755 60.0481 226.546 62.6564 224.684 63.2323L234.188 67.2682L235.895 55.5229C235.974 54.9742 235.714 54.158 235.085 54.315C233.918 54.606 232.544 54.0505 232.083 53.1024C231.623 52.1548 232.141 50.9473 233.215 50.4665C234.041 50.0966 234.35 49.1843 234.167 48.4112C233.984 47.6381 233.419 46.9734 232.854 46.3445C226.751 39.5402 219.018 33.7475 210.15 29.6306C207.773 28.5273 204.892 27.5331 202.436 28.5052C201.014 29.068 200.058 30.1756 199.123 31.2583C198.974 31.4306 198.826 31.6023 198.677 31.7711C196.807 33.8822 194.493 35.7137 191.875 37.1549L200.161 44.2538C199.476 43.0079 200.518 41.3294 202.125 41.0933C203.731 40.8572 205.387 42.1388 205.244 43.5067C205.101 44.8742 203.203 45.8913 201.671 45.4216C205.131 47.7759 208.961 50.2476 213.41 50.2809ZM223.957 146.434C225.216 146.512 226.495 145.876 227.021 144.909C227.547 143.942 227.285 142.711 226.392 141.958C225.277 141.018 226.568 139.263 228.137 139.127C229.706 138.99 231.132 139.834 232.39 140.636L238.453 144.501C239.188 144.97 240.013 145.67 239.691 146.398C232.767 162.079 228.215 178.501 226.181 195.144C226.016 196.492 224.472 197.486 222.887 197.727C221.303 197.969 219.684 197.631 218.124 197.294L212.546 196.093C212.167 196.011 211.77 195.921 211.488 195.693C211.085 195.366 211.024 194.85 210.99 194.38C209.857 178.354 213.772 162.095 222.227 147.706C222.589 147.091 223.145 146.384 223.957 146.434ZM211.672 136.383C210.162 135.424 210.508 133.083 212.251 132.465C207.938 132.779 204.004 134.397 200.065 136.017C196.266 137.58 192.464 139.144 188.316 139.54C190.809 140.965 191.985 143.695 191.648 146.216C191.31 148.736 189.633 151.032 187.454 152.784C189.32 155.792 192.401 158.254 196.066 159.665C197.358 160.162 198.838 160.534 200.183 160.151C200.477 160.067 200.79 159.955 201.109 159.841C202.27 159.426 203.501 158.987 204.084 159.802C205.177 161.331 207.968 160.98 209.778 160.053C211.015 159.42 212.166 158.562 212.675 157.421C213.184 156.279 212.883 154.822 211.692 154.129C210.703 153.553 210.371 152.309 210.971 151.432C211.572 150.554 213.016 150.173 214.104 150.604C215.054 150.981 215.943 150.042 216.51 149.298C217.845 147.547 219.812 146.143 222.082 145.32C221.174 144.194 221.301 142.554 222.377 141.538C219.598 139.828 217.37 137.492 215.987 134.839C215.759 136.419 213.181 137.342 211.672 136.383ZM174.885 130.262V130.263C174.85 130.451 174.816 130.64 174.789 130.827C174.664 131.7 174.776 132.716 175.607 133.249C178.778 130.012 180.642 125.883 180.826 121.689C180.863 120.851 182.371 120.972 183.311 121.248C186.086 122.062 189.201 121.656 191.893 120.663C194.585 119.671 196.934 118.133 199.252 116.612C198.573 120.414 199.164 124.372 200.939 127.914L191.777 133.708C191.415 133.937 191.075 134.463 191.49 134.615C194.962 133.667 197.91 131.739 200.797 129.851L201.068 129.675C204.041 127.731 207.155 125.781 210.799 124.986C214.443 124.192 218.779 124.819 221.101 127.313C222.246 128.543 222.793 130.082 223.317 131.581L224.94 136.223C225.291 137.229 225.637 138.338 225.131 139.296C224.624 140.254 222.843 140.726 222.132 139.865L218.81 135.84C217.227 133.922 215.432 131.874 212.759 131.252C209.843 130.573 206.837 131.799 204.125 132.93C199.374 134.909 194.51 136.697 189.556 138.283C188.032 138.772 186.343 138.295 184.69 137.829C182.808 137.299 180.973 136.782 179.486 137.716C178.934 138.062 178.154 137.873 177.517 137.652C173.14 136.129 169.219 133.687 166.208 130.608L172.511 127.16C173.387 126.681 174.606 127.369 174.903 128.212C175.137 128.874 175.01 129.57 174.885 130.262ZM179.519 150.829C176.65 148.854 175.264 145.469 176.077 142.425C176.284 141.652 175.329 141.053 174.557 140.599C173.786 140.144 173.022 139.258 173.617 138.644C173.938 138.313 173.501 137.85 173.1 137.588L165.388 132.554C164.462 131.95 163.508 131.317 162.974 130.44C162.009 128.854 159.432 128.139 157.536 128.93C154.843 130.054 154.468 133.102 154.453 135.632C154.45 136.229 154.649 137.02 155.356 137.054C157.163 137.14 158.019 139.503 156.576 140.424C155.163 141.326 156.171 143.281 157.577 144.191C157.884 144.389 158.212 144.58 158.542 144.771C159.725 145.456 160.928 146.154 161.236 147.292C161.466 148.139 161.127 149.037 160.795 149.914C160.381 151.01 159.979 152.075 160.716 152.966C161.619 154.058 163.545 153.952 165.097 153.707C169.955 152.94 174.769 151.979 179.519 150.829ZM213.791 203.747C217.287 203.509 220.806 203.515 224.3 203.764C224.593 203.785 224.903 203.813 225.138 203.961C225.501 204.19 225.565 204.617 225.606 204.997C225.94 208.116 226.644 211.206 227.703 214.207C227.538 214.575 227.071 214.664 226.585 214.757C226.268 214.818 225.943 214.88 225.69 215.022C224.871 215.48 225.109 216.578 225.718 217.228C225.933 217.458 226.183 217.668 226.431 217.878V217.878C226.886 218.261 227.339 218.643 227.575 219.14C220.079 217.162 214.614 211.508 211.694 205.367C211.517 204.994 211.346 204.58 211.507 204.203C211.668 203.825 212.329 203.603 212.632 203.912C212.752 204.034 212.782 204.199 212.809 204.355L213.319 207.424C213.385 207.825 214.165 207.829 214.429 207.491C214.693 207.153 214.596 206.707 214.489 206.312L213.791 203.747ZM189.491 143.372C188.484 140.928 185.771 139.045 182.73 138.679C181.617 138.545 180.363 138.64 179.566 139.308C177.815 140.776 177.123 143.015 177.534 145.067C177.945 147.118 179.375 148.97 181.261 150.315C182.671 151.319 184.658 152.08 186.332 151.422C186.83 151.226 187.255 150.918 187.635 150.583C189.753 148.709 190.498 145.816 189.491 143.372ZM222.904 78.9192C223.731 74.0727 224.5 68.8473 221.783 64.5187C221.594 64.2175 221.399 63.8212 221.67 63.5681L230.199 67.1265C230.876 67.409 231.676 67.9551 231.362 68.5328C230.994 69.2078 230.924 69.9532 230.855 70.6999C230.826 71.0156 230.796 71.3309 230.744 71.6415C230.43 73.5189 229.271 75.2383 227.802 76.6745C226.333 78.1111 224.555 79.2968 222.789 80.4727C222.729 79.9551 222.817 79.4342 222.904 78.9192ZM231.492 218.097C230.514 216.937 229.206 215.801 227.524 215.659C226.876 215.605 226.003 216.16 226.474 216.539C230.547 219.818 233.274 224.51 232.77 229.236C232.265 233.961 228.032 238.471 222.463 239.191C224.11 240.838 227.253 240.966 229.486 239.916C231.718 238.865 233.153 236.909 234.059 234.895C236.53 229.398 235.536 222.889 231.492 218.097ZM144.081 163.662C150.26 164.478 156.287 165.94 162.296 167.4L178.67 171.376C183.653 172.586 188.693 173.816 193.187 175.996C191.056 175.931 188.983 175.418 186.943 174.893C183.336 173.964 179.742 172.984 176.146 172.003C164.482 168.821 152.809 165.637 140.691 164.221C141.465 163.44 142.889 163.505 144.081 163.662ZM233.606 72.0426C232.668 72.7521 232.221 73.8103 231.951 74.8475C231.872 75.1521 231.805 75.4598 231.738 75.767L231.738 75.7674C231.577 76.5068 231.415 77.2462 231.087 77.943C231.033 78.0573 230.975 78.1729 230.916 78.289C230.621 78.8722 230.315 79.4747 230.536 80.0631C234.072 79.8719 237.272 77.4728 237.906 74.5365C238.119 73.5509 237.992 72.3933 237.066 71.7653C236.084 71.1001 234.544 71.3335 233.606 72.0426ZM215.5 33.4951C215.906 34.4677 215.292 35.6614 214.172 36.0765C213.05 36.4915 211.591 36.0657 211.015 35.1557C210.381 34.1539 210.96 32.7458 212.194 32.2889C213.428 31.832 215.052 32.4245 215.5 33.4951ZM173.4 34.4131C173.47 33.5288 172.81 32.6367 171.838 32.2992C170.599 31.8697 169.006 32.4409 168.516 33.4906C168.026 34.5403 168.73 35.8719 169.984 36.268C171.456 36.733 173.295 35.7345 173.4 34.4131ZM221.301 43.3207C221.336 44.4394 222.555 45.4369 223.884 45.434C225.293 45.4305 226.549 44.2892 226.447 43.1052C226.349 41.989 225.076 41.041 223.749 41.0967C222.421 41.1524 221.266 42.2021 221.301 43.3207ZM183.416 44.6199C182.453 45.6341 180.349 45.6366 179.382 44.625C178.415 43.6129 178.867 41.8832 180.249 41.3071C181.631 40.7309 183.539 41.477 183.908 42.7383C184.097 43.3842 183.91 44.1006 183.416 44.6199ZM175.602 61.5227C174.786 62.5958 174.612 63.9961 175.146 65.1882C175.344 65.6302 175.639 66.0488 176.058 66.3624C177.402 67.3697 179.701 66.9444 180.833 65.7659C181.965 64.5879 182.12 62.9256 181.786 61.4365C181.654 60.8426 181.408 60.209 180.807 59.8796C180.388 59.6505 179.861 59.6091 179.363 59.6394C177.854 59.7303 176.417 60.4501 175.602 61.5227ZM202.679 72.5038C202.234 72.1211 201.941 71.6283 201.759 71.1154C201.084 69.2146 202.034 66.9879 203.992 65.8837C204.877 65.3845 206.019 65.1067 207.021 65.4126C208.25 65.7872 208.925 66.9158 209.158 67.9986C209.491 69.5479 209.09 71.2844 207.735 72.3698C206.381 73.4549 203.987 73.6289 202.679 72.5038ZM168.756 93.876C168.801 92.9185 168.893 91.9628 169.033 91.0122C169.081 90.6824 169.419 90.3995 169.811 90.3611C169.992 92.7061 170.077 95.0566 170.064 97.4062C168.832 96.6459 168.695 95.1607 168.756 93.876ZM214.506 83.6957C214.136 82.2698 212.864 81.0337 211.242 80.5217C210.97 80.436 210.983 80.0703 211.211 79.9197C211.439 79.7691 211.764 79.7845 212.045 79.8425C213.588 80.1595 214.543 81.4348 215.248 82.6333C215.435 82.9503 215.619 83.3198 215.454 83.6454C215.29 83.9713 214.596 84.0413 214.506 83.6957ZM186.291 291.461C186.129 291.153 185.717 291.006 185.341 290.89C179.447 289.081 173.189 288.115 166.916 288.046C166.023 288.036 164.978 288.109 164.486 288.738C164.965 289.077 165.652 289.076 166.278 289.068C172.919 288.984 179.578 290.022 185.743 292.104C186.115 292.229 186.453 291.77 186.291 291.461ZM188.419 75.8578V75.8583C187.977 76.0895 187.536 76.3204 187.148 76.6105C186.416 77.157 185.887 78.0415 186.265 78.801C186.733 79.7397 188.234 79.9167 189.423 79.7362L189.472 79.7286L189.537 79.7183L189.573 79.7128C189.949 79.653 190.333 79.592 190.699 79.6765C191.114 79.7721 191.478 80.1399 191.336 80.4816C191.236 80.7214 190.938 80.8554 190.657 80.948C188.914 81.5218 186.74 81.3085 185.447 80.1693C184.154 79.0305 184.122 76.945 185.598 75.9777L191.367 72.1983C191.308 73.3542 190.616 74.4669 189.556 75.2025C189.201 75.4482 188.81 75.653 188.419 75.8578ZM211.646 84.9578C212.005 86.6645 211.485 88.4181 210.75 90.0364C207.583 97.0047 200.106 102.466 191.466 104.12C187.99 104.786 184.154 104.826 181.059 103.333C177.965 101.841 175.976 98.4844 177.333 95.7077C178.926 92.4484 183.856 91.5344 188.04 91.4606C188.407 91.4538 188.777 91.4495 189.15 91.4448C193.033 91.3962 197.178 91.3441 199.988 89.1673C200.988 88.3925 201.709 87.418 202.432 86.4413C203.041 85.6178 203.651 84.7935 204.43 84.0861C206.133 82.5403 209.468 81.8013 210.964 83.4922C211.34 83.9167 211.537 84.4364 211.646 84.9578ZM209.868 87.5583C210.3 86.1695 210.11 84.1714 208.424 83.9615C207.797 83.8839 207.171 84.1202 206.651 84.4245C205.355 85.1814 204.524 86.3218 203.689 87.4687C203.026 88.3788 202.361 89.2927 201.457 90.0223C199.098 91.927 195.57 92.264 192.313 92.5017L186.056 92.9578C184.46 93.0743 182.806 93.2053 181.417 93.8777C178.808 95.1402 177.903 98.3679 179.566 100.48C181.364 102.763 185.115 103.259 188.354 102.996C198.338 102.182 207.33 95.7303 209.868 87.5583ZM213.434 194.307C213.095 194.34 212.742 194.26 212.469 194.087C212.284 193.969 212.136 193.812 212.043 193.634C211.742 193.054 212.148 192.291 212.864 192.095C213.579 191.901 214.44 192.317 214.6 192.936C214.759 193.555 214.181 194.235 213.434 194.307ZM225.009 194.386C224.762 194.204 224.433 194.104 224.105 194.112C223.298 194.132 222.65 194.899 222.891 195.547C223.132 196.196 224.184 196.514 224.86 196.143C225.537 195.772 225.616 194.834 225.009 194.386ZM200.675 145.015C199.837 144.203 199.909 142.838 200.828 142.091C201.749 141.344 203.371 141.334 204.304 142.069C205.301 142.855 205.315 144.354 204.332 145.151C203.349 145.949 201.57 145.883 200.675 145.015ZM189.707 151.789C189.515 152.223 189.499 152.71 189.663 153.152C190.127 154.409 192.191 155.007 193.476 154.257C194.761 153.508 194.821 151.671 193.587 150.862C192.353 150.054 190.254 150.555 189.707 151.789ZM167.514 148.592C167.225 149.396 166.309 150.013 165.313 150.074C163.843 150.165 162.47 148.936 162.666 147.706C162.862 146.476 164.571 145.596 165.961 146.009C167.154 146.363 167.88 147.572 167.514 148.592Z" fill="#00160A"/>
</g>
<defs>
<clipPath id="clip0_72_2499">
<rect width="380" height="320" fill="white"/>
</clipPath>
</defs>
</svg>
