<svg width="679" height="506" viewBox="0 0 679 506" fill="none" xmlns="http://www.w3.org/2000/svg">
<path d="M678.999 445.008H0V444.669H678.999V445.008Z" fill="#EBEBEB"/>
<path d="M394.102 454.257H428.675V453.918H394.102V454.257Z" fill="#EBEBEB"/>
<path d="M536.56 461.606H618.492V461.266H536.56V461.606Z" fill="#EBEBEB"/>
<path d="M302.099 454.427H386.747V454.088H302.099V454.427Z" fill="#EBEBEB"/>
<path d="M229.501 464.586H247.211V464.246H229.501V464.586Z" fill="#EBEBEB"/>
<path d="M264.413 464.586H345.046V464.246H264.413V464.586Z" fill="#EBEBEB"/>
<path d="M71.2394 458.851H123.46V458.512H71.2394V458.851Z" fill="#EBEBEB"/>
<path d="M321.864 384.105H59.6364C55.3628 384.105 51.8849 380.629 51.8849 376.354V7.75009C51.8849 3.47647 55.3628 0 59.6364 0H321.864C326.137 0 329.614 3.47647 329.614 7.75009V376.354C329.614 380.629 326.137 384.105 321.864 384.105ZM59.6364 0.339499C55.5488 0.339499 52.2244 3.66387 52.2244 7.75009V376.354C52.2244 380.442 55.5488 383.766 59.6364 383.766H321.864C325.951 383.766 329.275 380.442 329.275 376.354V7.75009C329.275 3.66387 325.951 0.339499 321.864 0.339499H59.6364Z" fill="#EBEBEB"/>
<path d="M615.596 384.105H353.368C349.096 384.105 345.618 380.629 345.618 376.354V7.75009C345.618 3.47647 349.096 0 353.368 0H615.596C619.871 0 623.347 3.47647 623.347 7.75009V376.354C623.347 380.629 619.871 384.105 615.596 384.105ZM353.368 0.339499C349.282 0.339499 345.957 3.66387 345.957 7.75009V376.354C345.957 380.442 349.282 383.766 353.368 383.766H615.596C619.683 383.766 623.008 380.442 623.008 376.354V7.75009C623.008 3.66387 619.683 0.339499 615.596 0.339499H353.368Z" fill="#EBEBEB"/>
<path d="M266.116 326.89H175.944L170.47 263.743H260.642L266.116 326.89Z" fill="#E6E6E6"/>
<path d="M270.786 326.89H180.615L175.141 263.743H265.312L270.786 326.89Z" fill="#F0F0F0"/>
<path d="M192.941 313.327L189.934 277.301H252.986L255.991 313.327H192.941Z" fill="white"/>
<path d="M286.388 444.667H275.808V326.888H286.388V444.667Z" fill="#E6E6E6"/>
<path d="M289.726 444.667H282.379V326.888H289.726V444.667Z" fill="#F0F0F0"/>
<path d="M187.321 339.887H289.726V326.888H187.321V339.887Z" fill="#F0F0F0"/>
<path d="M190.941 444.669H180.361V339.888H190.941V444.669Z" fill="#E6E6E6"/>
<path d="M194.281 444.669H186.933V339.888H194.281V444.669Z" fill="#F0F0F0"/>
<path d="M115.63 444.669H105.05V339.888H115.63V444.669Z" fill="#E6E6E6"/>
<path d="M118.97 444.669H111.622V339.888H118.97V444.669Z" fill="#F0F0F0"/>
<path d="M219.435 444.669H208.855V339.888H219.435V444.669Z" fill="#E6E6E6"/>
<path d="M222.772 444.669H215.426V339.888H222.772V444.669Z" fill="#F0F0F0"/>
<path d="M187.32 339.887H105.05V326.888H187.32V339.887Z" fill="#E6E6E6"/>
<path d="M494.093 210.376H175.872V33.2188H494.093V210.376Z" fill="#E0E0E0"/>
<path d="M511.566 210.376H177.478V33.2188H511.566V210.376Z" fill="#F5F5F5"/>
<path d="M506.108 204.917V38.675H182.937V204.917H506.108Z" fill="white"/>
<path d="M313.787 204.917L374.801 38.675H274.107L213.092 204.917H313.787Z" fill="#F5F5F5"/>
<path d="M410.714 204.917L471.727 38.675H395.766L334.753 204.917H410.714Z" fill="#F5F5F5"/>
<path d="M594.953 444.67H567.903V275.47H594.953V444.67Z" fill="#E6E6E6"/>
<path d="M587.841 444.669H594.953V431.641H580.383L587.841 444.669Z" fill="#FAFAFA"/>
<path d="M345.548 444.669H318.498V275.47H345.548V444.669Z" fill="#E6E6E6"/>
<path d="M594.954 441.155H339.341V275.47H594.954V441.155Z" fill="#FAFAFA"/>
<path d="M590.115 328.929H344.179V282.135H590.115V328.929ZM345.537 327.571H588.757V283.493H345.537V327.571Z" fill="#E6E6E6"/>
<path d="M546.821 304.855H392.251C385.073 304.855 378.162 299.065 373.293 288.969L372.823 287.996H566.25L565.78 288.969C560.911 299.065 554.001 304.855 546.821 304.855ZM374.999 289.354C379.594 298.359 385.841 303.497 392.251 303.497H546.821C553.231 303.497 559.479 298.359 564.074 289.354H374.999Z" fill="#E6E6E6"/>
<path d="M346.454 444.669H339.341V431.641H353.911L346.454 444.669Z" fill="#FAFAFA"/>
<path d="M590.115 381.709H344.179V334.914H590.115V381.709ZM345.537 380.351H588.757V336.272H345.537V380.351Z" fill="#E6E6E6"/>
<path d="M546.821 357.633H392.251C385.073 357.633 378.162 351.843 373.293 341.748L372.823 340.774H566.25L565.78 341.748C560.911 351.843 554.001 357.633 546.821 357.633ZM374.999 342.132C379.594 351.137 385.841 356.275 392.251 356.275H546.821C553.232 356.275 559.479 351.137 564.074 342.132H374.999Z" fill="#E6E6E6"/>
<path d="M590.115 434.491H344.179V387.695H590.115V434.491ZM345.537 433.133H588.757V389.053H345.537V433.133Z" fill="#E6E6E6"/>
<path d="M546.821 410.415H392.251C385.073 410.415 378.162 404.626 373.293 394.53L372.823 393.555H566.25L565.78 394.53C560.911 404.626 554.001 410.415 546.821 410.415ZM374.999 394.913C379.594 403.918 385.841 409.057 392.251 409.057H546.821C553.232 409.057 559.479 403.918 564.074 394.913H374.999Z" fill="#E6E6E6"/>
<path d="M164.294 297.848V301.132H162.192L160.456 326.888H134.878L133.144 301.132H131.042V297.848H164.294Z" fill="#E6E6E6"/>
<path d="M155.876 233.927C153.774 218.586 133.07 214.202 106.795 213.641C81.7934 213.108 73.7853 204.26 73.7853 204.26C73.7853 204.26 73.864 240.083 109.89 253.053C144.1 265.369 157.982 249.295 155.876 233.927Z" fill="#E6E6E6"/>
<path d="M143.104 268.708C143.543 262.397 153.618 250.801 177.852 256.073C195.375 259.885 201.889 250.801 201.889 250.801C201.889 250.801 200.267 276.439 173.913 284.147C148.889 291.466 142.333 279.804 143.104 268.708Z" fill="#E6E6E6"/>
<path d="M148.633 307.519C148.898 307.519 149.163 307.406 149.347 307.188C151.105 305.111 149.668 300.14 147.678 293.257C145.125 284.426 141.949 273.433 144.639 265.452C146.157 260.946 148.035 256.973 149.853 253.131C153.656 245.086 156.941 238.14 154.202 230.884C154.02 230.401 153.481 230.158 152.998 230.34C152.516 230.522 152.271 231.062 152.453 231.544C154.912 238.057 151.934 244.357 148.163 252.333C146.409 256.041 144.422 260.246 142.868 264.855C139.991 273.391 143.257 284.694 145.882 293.776C147.43 299.132 149.03 304.668 147.92 305.98C147.587 306.374 147.636 306.965 148.03 307.298C148.205 307.446 148.42 307.519 148.633 307.519Z" fill="#E6E6E6"/>
<path d="M545.706 162.098C536.482 235.724 471.969 309.236 401.034 356.583C217.649 479.91 40.4684 270.636 85.1764 195.473C118.737 119.229 223.4 140.174 267.926 110.201C518.193 -59.4441 554.389 100.481 545.706 162.098Z" fill="#407BFF"/>
<g opacity="0.9">
<path d="M545.706 162.098C536.482 235.724 471.969 309.236 401.034 356.583C217.649 479.91 40.4684 270.636 85.1764 195.473C118.737 119.229 223.4 140.174 267.926 110.201C518.193 -59.4441 554.389 100.481 545.706 162.098Z" fill="white"/>
</g>
<path d="M602.8 490.623C602.8 499.116 484.916 506 339.499 506C194.082 506 76.1982 499.116 76.1982 490.623C76.1982 482.132 194.082 475.247 339.499 475.247C484.916 475.247 602.8 482.132 602.8 490.623Z" fill="#F5F5F5"/>
<path d="M339.445 431.335H146.609L136.055 121.212H328.891L339.445 431.335Z" fill="#FFB61D"/>
<path d="M349.069 421.712H156.234L145.679 111.589H338.515L349.069 421.712Z" fill="#EEA886"/>
<g opacity="0.3">
<path d="M349.239 421.86H156.404L145.849 111.737H338.685L349.239 421.86Z" fill="white"/>
</g>
<path d="M299.365 200.535C300.385 230.493 276.927 254.778 246.97 254.778C217.012 254.778 191.9 230.493 190.88 200.535C189.86 170.578 213.32 146.293 243.277 146.293C273.235 146.293 298.345 170.578 299.365 200.535Z" fill="#00160A"/>
<path d="M289.891 200.532C290.155 208.263 288.441 215.521 285.207 221.856C278.131 235.81 263.666 245.299 246.647 245.299C229.629 245.299 214.518 235.81 206.491 221.856C202.827 215.521 200.619 208.263 200.356 200.532C199.514 175.802 218.872 155.764 243.6 155.764C268.328 155.764 289.049 175.802 289.891 200.532Z" fill="white"/>
<g opacity="0.6">
<path d="M285.205 221.855C278.129 235.808 263.665 245.298 246.646 245.298C229.628 245.298 214.517 235.808 206.49 221.855C217.505 214.326 230.88 209.93 245.442 209.93C260.003 209.93 273.678 214.326 285.205 221.855Z" fill="#407BFF"/>
</g>
<g opacity="0.6">
<path d="M264.542 185.215C264.917 196.228 256.294 205.156 245.28 205.156C234.267 205.156 225.035 196.228 224.66 185.215C224.286 174.201 232.909 165.274 243.922 165.274C254.936 165.274 264.167 174.201 264.542 185.215Z" fill="#407BFF"/>
</g>
<path d="M310.337 309.404H187.322L186.49 284.96H309.504L310.337 309.404Z" fill="white"/>
<path d="M311.823 353.095H188.809L187.976 328.651H310.99L311.823 353.095Z" fill="white"/>
<path d="M291.518 387.322H211.446L210.904 371.412H290.976L291.518 387.322Z" fill="#3B82F6"/>
<g opacity="0.3">
<path d="M459.68 92.161C459.68 94.4886 456.719 96.3749 453.068 96.3749C449.416 96.3749 446.456 94.4886 446.456 92.161C446.456 89.8334 449.416 87.9458 453.068 87.9458C456.719 87.9458 459.68 89.8334 459.68 92.161Z" fill="#407BFF"/>
</g>
<g opacity="0.6">
<path d="M494.794 81.895C494.794 87.5646 487.583 92.1614 478.687 92.1614C469.791 92.1614 462.58 87.5646 462.58 81.895C462.58 76.2253 469.791 71.6285 478.687 71.6285C487.583 71.6285 494.794 76.2253 494.794 81.895Z" fill="#407BFF"/>
</g>
<path d="M404.817 119.857C404.758 120.625 404.302 121.217 403.801 121.178C403.299 121.14 402.94 120.486 402.999 119.718C403.058 118.95 403.512 118.358 404.014 118.397C404.516 118.436 404.876 119.089 404.817 119.857Z" fill="#263238"/>
<path d="M404.374 121.224C404.374 121.224 402.286 125.521 400.199 127.512C401.46 128.885 403.816 128.482 403.816 128.482L404.374 121.224Z" fill="#FF5652"/>
<path d="M407.957 115.81C408.066 115.796 408.17 115.744 408.247 115.653C408.408 115.462 408.384 115.176 408.193 115.016C406.28 113.401 404.275 113.979 404.188 114.005C403.949 114.077 403.813 114.329 403.886 114.568C403.958 114.807 404.211 114.941 404.446 114.872C404.512 114.853 406.084 114.419 407.61 115.707C407.711 115.791 407.835 115.825 407.957 115.81Z" fill="#263238"/>
<path d="M427.321 130.904C426.824 138.008 427.201 147.717 432.629 151.74C432.629 151.74 431.609 159.011 418.724 160.615C404.556 162.379 411.14 155.29 411.14 155.29C416.801 152.73 415.914 146.027 413.897 140.807L427.321 130.904Z" fill="#FF8B7B"/>
<path d="M430.564 120.198C429.26 129.588 428.974 135.149 423.837 139.626C416.11 146.359 404.798 141.144 403.27 131.554C401.895 122.921 404.257 109.018 413.78 105.972C423.163 102.972 431.868 110.808 430.564 120.198Z" fill="#FF8B7B"/>
<path d="M409.332 123.197C408.73 122.035 405.462 112.906 407.13 110.223C408.798 107.539 431.451 106.499 435.175 109.351C441.353 114.082 438.137 119.391 432.887 126.378C428.939 131.632 429.425 136.939 427.236 138C423.4 139.858 417.029 139.354 415.251 135.233C413.472 131.112 409.332 123.197 409.332 123.197Z" fill="#263238"/>
<path d="M431.127 99.0086C422.776 96.6204 408.373 102.206 400.104 101.27C400.335 105.463 403.674 111.817 411.925 112.61C411.925 112.61 423.598 113.413 432.371 111.957C441.142 110.501 438.218 101.038 431.127 99.0086Z" fill="#263238"/>
<path d="M433.733 109.823C433.733 109.823 438.708 109.765 441.919 107.17C443.853 110.568 435.824 112.566 433.733 109.823Z" fill="#263238"/>
<path d="M413.701 123.032C413.86 125.51 413.005 127.966 411.82 129.65C410.038 132.184 407.706 131.036 406.994 128.308C406.353 125.853 406.509 121.578 408.879 120.007C411.214 118.46 413.519 120.199 413.701 123.032Z" fill="#FF8B7B"/>
<path d="M453.448 162.046C455.258 164.945 456.756 167.727 458.31 170.616C459.857 173.476 461.254 176.417 462.627 179.383C465.328 185.335 467.745 191.475 469.553 198.03C469.794 198.834 469.978 199.687 470.18 200.522L470.478 201.779L470.626 202.407L470.801 203.441C471.189 206.199 470.848 208.451 470.377 210.436C469.403 214.394 467.833 217.551 466.151 220.563C462.717 226.526 458.708 231.605 454.085 236.415L448.367 232.086C451.186 226.735 453.972 221.129 456.022 215.739C457.014 213.059 457.849 210.331 458.094 208.091C458.212 206.99 458.135 206.045 457.983 205.692L457.445 204.032C457.221 203.35 457.024 202.673 456.755 201.986C454.798 196.506 452.31 191.002 449.6 185.576C446.928 180.169 443.968 174.665 441.054 169.528L453.448 162.046Z" fill="#FF8B7B"/>
<path d="M449.818 230.143L443.582 233.454L450.751 241.847C450.751 241.847 455.225 238.82 455.426 234.197L449.818 230.143Z" fill="#FF8B7B"/>
<path d="M435.192 238.628L442.872 244.722L450.75 241.847L443.581 233.454L435.192 238.628Z" fill="#FF8B7B"/>
<path d="M405.906 145.556L405.965 136.656L417.752 138.081C417.752 138.081 417.55 145.734 410.968 147.985L405.906 145.556Z" fill="#FF8B7B"/>
<path d="M409.295 130.248L417.595 132.632L417.753 138.082L405.966 136.657L409.295 130.248Z" fill="#FF8B7B"/>
<g opacity="0.2">
<path d="M417.598 132.632L409.3 130.242L407.684 133.338C407.888 138.594 411.093 142.912 415.343 144.854C417.652 141.826 417.747 138.077 417.747 138.077L417.598 132.632Z" fill="black"/>
</g>
<path d="M435.295 157.365C436.566 155.564 436.515 149.875 435.158 148.872C432.966 147.252 423.592 146.878 410.964 149.783C412.323 155.294 409.412 158.182 409.412 158.182L435.295 157.365Z" fill="#00160A"/>
<path d="M477.737 479.759C476.778 479.967 475.821 480.021 475.359 479.629C475.165 479.463 474.971 479.148 475.14 478.577C475.23 478.277 475.426 478.055 475.723 477.912C477.013 477.297 479.976 478.504 480.102 478.556C480.185 478.59 480.24 478.668 480.242 478.758C480.245 478.848 480.195 478.929 480.115 478.969C479.661 479.187 478.7 479.551 477.737 479.759ZM476.183 478.233C476.085 478.254 475.996 478.283 475.917 478.321C475.738 478.406 475.625 478.533 475.574 478.706C475.453 479.114 475.603 479.242 475.654 479.284C476.167 479.721 478.074 479.318 479.418 478.78C478.507 478.459 477.032 478.049 476.183 478.233Z" fill="#407BFF"/>
<path d="M480.063 478.986C480.027 478.994 479.99 478.993 479.953 478.982C478.874 478.667 476.564 477.026 476.535 475.943C476.53 475.746 476.599 475.39 477.114 475.211C477.448 475.094 477.783 475.121 478.116 475.291C479.392 475.943 480.199 478.587 480.233 478.699C480.257 478.779 480.236 478.866 480.177 478.925C480.146 478.956 480.105 478.976 480.063 478.986ZM477.361 475.61C477.328 475.617 477.296 475.626 477.262 475.637C476.982 475.735 476.986 475.872 476.987 475.93C477.004 476.571 478.527 477.859 479.646 478.38C479.367 477.617 478.73 476.11 477.911 475.693C477.723 475.598 477.543 475.57 477.361 475.61Z" fill="#407BFF"/>
<path d="M407.216 481.362C405.99 481.362 404.805 481.193 404.409 480.642C404.27 480.449 404.16 480.12 404.428 479.653C404.577 479.391 404.818 479.213 405.144 479.125C406.734 478.693 410.073 480.594 410.214 480.676C410.296 480.723 410.339 480.816 410.324 480.908C410.309 481 410.237 481.075 410.145 481.094C409.535 481.215 408.358 481.362 407.216 481.362ZM405.7 479.509C405.542 479.509 405.394 479.526 405.263 479.561C405.054 479.618 404.91 479.721 404.82 479.877C404.66 480.158 404.717 480.298 404.776 480.378C405.22 480.996 407.634 481.01 409.41 480.759C408.525 480.304 406.817 479.509 405.7 479.509Z" fill="#407BFF"/>
<path d="M410.101 481.098C410.069 481.098 410.038 481.092 410.008 481.078C408.855 480.561 406.573 478.495 406.746 477.415C406.787 477.161 406.966 476.845 407.588 476.783C408.053 476.735 408.472 476.867 408.843 477.171C410.059 478.169 410.315 480.743 410.326 480.851C410.334 480.931 410.299 481.01 410.234 481.056C410.194 481.085 410.147 481.098 410.101 481.098ZM407.77 477.225C407.726 477.225 407.681 477.229 407.635 477.233C407.227 477.274 407.201 477.434 407.193 477.487C407.089 478.135 408.641 479.758 409.817 480.465C409.695 479.715 409.354 478.175 408.555 477.52C408.315 477.323 408.057 477.225 407.77 477.225Z" fill="#407BFF"/>
<path d="M420.604 480.87H411.052L410.102 458.751H419.652L420.604 480.87Z" fill="#FF8B7B"/>
<path d="M490.711 476.449L481.376 478.47L472.003 457.868L481.338 455.846L490.711 476.449Z" fill="#FF8B7B"/>
<path d="M480.478 477.532L490.966 475.262C491.347 475.179 491.736 475.373 491.899 475.727L495.539 483.626C495.917 484.444 495.417 485.407 494.532 485.582C490.857 486.312 489.03 486.483 484.419 487.481C481.582 488.095 475.175 489.655 471.257 490.504C467.425 491.334 465.989 487.588 467.517 486.89C474.37 483.76 477.231 481.002 479.086 478.434C479.42 477.971 479.92 477.653 480.478 477.532Z" fill="#263238"/>
<path d="M411.114 479.765H421.546C421.938 479.765 422.274 480.035 422.359 480.417L424.246 488.907C424.442 489.787 423.774 490.621 422.872 490.606C419.109 490.542 413.673 490.322 408.943 490.322C403.413 490.322 398.636 490.624 392.151 490.624C388.231 490.624 387.142 486.658 388.783 486.3C396.256 484.665 402.357 484.491 408.814 480.509C409.516 480.076 410.29 479.765 411.114 479.765Z" fill="#263238"/>
<path d="M449.724 154.851C458.676 156.903 466.058 179.758 466.058 179.758L448.079 193.46C448.079 193.46 441.482 187.239 438.545 175.808C435.468 163.83 440.57 152.753 449.724 154.851Z" fill="#BCBCBC"/>
<g opacity="0.4">
<path d="M449.724 154.851C458.676 156.903 466.058 179.758 466.058 179.758L448.079 193.46C448.079 193.46 441.482 187.239 438.545 175.808C435.468 163.83 440.57 152.753 449.724 154.851Z" fill="black"/>
</g>
<path d="M402.649 182.127C400.415 184.537 398.186 186.681 395.879 188.888C394.734 189.984 393.564 191.062 392.367 192.116L390.564 193.695L390.109 194.088C389.889 194.277 389.621 194.501 389.335 194.721C388.737 195.162 388.083 195.677 386.711 196.269C385.985 196.549 385.05 196.919 383.408 196.952C382.628 196.964 381.568 196.828 380.557 196.445C379.523 196.062 378.524 195.4 377.839 194.718C376.419 193.291 375.99 192.04 375.71 191.202C375.451 190.338 375.376 189.722 375.323 189.183C375.237 188.129 375.292 187.415 375.35 186.755C375.414 186.103 375.504 185.539 375.603 185.007C376.002 182.913 376.565 181.224 377.179 179.531C377.8 177.856 378.488 176.249 379.29 174.624C380.152 172.894 380.984 171.64 381.814 170.193C385.17 164.584 389.107 159.463 393.291 154.634C397.566 149.839 402.052 145.454 407.213 141.437L412.212 146.581C408.7 151.277 405.248 156.312 402.056 161.277C398.869 166.279 395.913 171.37 393.368 176.548C392.781 177.827 392.059 179.229 391.651 180.299C391.175 181.468 390.738 182.724 390.378 183.961C390.022 185.183 389.735 186.457 389.606 187.392C389.576 187.617 389.562 187.814 389.562 187.928C389.557 188.033 389.586 188.091 389.572 187.803C389.559 187.646 389.544 187.411 389.397 186.914C389.232 186.441 388.974 185.545 387.83 184.388C387.279 183.846 386.45 183.278 385.593 182.971C384.764 182.647 383.895 182.552 383.307 182.554C382.05 182.583 381.488 182.84 381.116 182.973C380.451 183.261 380.437 183.338 380.444 183.308L380.965 182.833L382.596 181.338L385.842 178.297C387.99 176.272 390.154 174.113 392.195 172.11L402.649 182.127Z" fill="#FF8B7B"/>
<g opacity="0.2">
<path d="M442.051 171.657C446.914 176.468 448.499 185.231 448.877 192.851L448.084 193.462C448.084 193.462 441.48 187.234 438.541 175.806C438.359 175.091 438.203 174.374 438.072 173.672L442.051 171.657Z" fill="black"/>
</g>
<path d="M393.151 164.43C391.198 174.749 389.977 195.94 395.645 237.904H446.735C447.086 230.062 442.16 191.805 449.724 154.852C449.724 154.852 440.966 153.095 432.621 152.693C426.093 152.378 416.641 152.17 410.902 152.694C408.507 152.913 406.156 153.258 404.061 153.629C398.537 154.606 394.194 158.918 393.151 164.43Z" fill="#BCBCBC"/>
<g opacity="0.4">
<path d="M393.151 164.43C391.198 174.749 389.977 195.94 395.645 237.904H446.735C447.086 230.062 442.16 191.805 449.724 154.852C449.724 154.852 440.966 153.095 432.621 152.693C426.093 152.378 416.641 152.17 410.902 152.694C408.507 152.913 406.156 153.258 404.061 153.629C398.537 154.606 394.194 158.918 393.151 164.43Z" fill="black"/>
</g>
<g opacity="0.2">
<path d="M400.968 179.68L391.737 177.469C391.45 183.06 391.426 189.99 391.841 198.559C396.093 193.722 401.514 186.181 400.968 179.68Z" fill="black"/>
</g>
<g opacity="0.2">
<path d="M410.103 458.757L410.592 470.158H420.147L419.659 458.757H410.103Z" fill="black"/>
</g>
<g opacity="0.2">
<path d="M481.343 455.85L472.003 457.872L476.839 468.492L486.179 466.47L481.343 455.85Z" fill="black"/>
</g>
<path d="M413.769 237.904C413.769 237.904 424.609 310.901 430.56 338.248C437.077 368.196 472.021 467.277 472.021 467.277L489.119 463.575C489.119 463.575 464.685 382.831 459.215 340.964C455.013 308.804 446.735 237.904 446.735 237.904H413.769Z" fill="#FF8654"/>
<path d="M467.926 461.569C467.852 461.585 471.113 467.752 471.113 467.752L490.35 463.587L488.729 457.803L467.926 461.569Z" fill="#263238"/>
<g opacity="0.3">
<path d="M420.619 263.911C433.153 266.369 431.828 313.113 430.319 337.153C426.704 320.159 421.413 287.457 417.798 264.249C418.631 263.834 419.565 263.703 420.619 263.911Z" fill="black"/>
</g>
<path d="M395.646 237.904C395.646 237.904 394.33 309.321 395.369 338.45C396.45 368.748 407.033 467.952 407.033 467.952H423.213C423.213 467.952 423.808 370.517 424.528 340.762C425.313 308.323 429.229 237.904 429.229 237.904H395.646Z" fill="#FF8654"/>
<path d="M403.919 461.506C403.844 461.506 404.832 468.224 404.832 468.224H424.516L425.047 462.229L403.919 461.506Z" fill="#263238"/>
<path d="M413.173 167.562C417.753 179.905 390.845 194.443 390.845 194.443L379.196 179.467C379.196 179.467 386.966 163.998 396.503 157.026C408.285 148.413 409.687 158.166 413.173 167.562Z" fill="#7B7B7B"/>
</svg>
