<svg width="380" height="380" viewBox="0 0 380 380" fill="none" xmlns="http://www.w3.org/2000/svg">
<g clip-path="url(#clip0_72_2450)">
<path d="M380 0H0V380H380V0Z" fill="white"/>
<path fill-rule="evenodd" clip-rule="evenodd" d="M71.0661 278.129C94.0029 303.096 182.7 288.754 241.104 288.754C266.299 288.754 350.852 301.382 315.937 214.658C201.455 -69.6935 -1.60946 199.019 71.0661 278.129Z" fill="#A5DBFF"/>
<path fill-rule="evenodd" clip-rule="evenodd" d="M172.551 280.137C172.662 280.051 172.779 279.959 172.828 279.827C172.984 279.404 172.373 279.123 171.923 279.133C171.269 279.148 170.431 279.588 170.631 280.211C170.746 280.571 171.19 280.738 171.562 280.671C171.935 280.605 172.251 280.367 172.551 280.137ZM174.495 272.723C174.989 272.878 175.476 273.069 175.906 273.357C176.713 273.898 177.262 274.737 177.79 275.553C178.167 276.138 178.551 276.735 178.739 277.405C178.944 278.132 178.907 278.906 178.77 279.648C178.344 281.959 176.918 284.068 174.932 285.324C172.946 286.58 170.429 286.964 168.159 286.358C167.716 286.24 167.272 286.08 166.932 285.774C166.646 285.516 166.453 285.174 166.277 284.832C165.352 283.039 164.729 281.047 164.8 279.031C164.871 277.014 165.7 274.974 167.27 273.707C169.24 272.116 172.079 271.965 174.495 272.723Z" fill="white"/>
<path fill-rule="evenodd" clip-rule="evenodd" d="M278.766 163.035C277.684 163.022 276.668 163.93 276.561 165.007C276.517 165.447 276.704 165.994 277.143 166.055C277.471 166.1 277.759 165.847 277.98 165.599C278.447 165.076 278.848 164.494 279.17 163.871C279.279 163.662 279.374 163.394 279.232 163.207C279.128 163.07 278.938 163.037 278.766 163.035ZM278.298 158.205C279.835 158.741 281.228 159.684 282.297 160.912C283.215 161.968 283.915 163.338 283.722 164.724C283.651 165.233 283.464 165.718 283.249 166.185C282.439 167.953 281.044 169.648 279.129 169.991C278.124 170.171 277.088 169.955 276.122 169.626C275.005 169.246 273.939 168.713 272.965 168.047C272.448 167.693 271.936 167.273 271.709 166.689C271.553 166.287 271.548 165.844 271.554 165.413C271.568 164.345 271.639 163.26 272.011 162.26C272.482 160.994 273.403 159.95 274.38 159.017C274.772 158.642 275.189 158.273 275.694 158.072C276.519 157.743 277.459 157.912 278.298 158.205Z" fill="white"/>
<path fill-rule="evenodd" clip-rule="evenodd" d="M278.768 81.2126C285.129 87.7724 290.149 95.6161 293.436 104.129C293.661 104.713 293.88 105.362 293.665 105.951C292.007 110.482 288.807 114.26 285.67 117.934C283.665 120.281 281.661 122.628 279.656 124.975C277.742 127.216 275.828 129.457 273.849 131.642C263.776 142.763 251.874 152.489 238.088 158.473C237.568 158.699 237.01 158.924 236.45 158.833C235.889 158.743 235.365 158.202 235.511 157.655C237.215 151.308 238.931 144.673 237.563 138.246C237.233 136.695 236.865 134.743 238.152 133.811C248.563 126.258 256.059 115.462 263.242 104.813C265.049 102.135 266.85 99.4501 268.449 96.6447C271.287 91.6631 273.472 86.3132 274.933 80.7728C275.134 80.0128 276.097 79.6703 276.861 79.8694C277.624 80.069 278.22 80.6472 278.768 81.2126Z" fill="white"/>
<path fill-rule="evenodd" clip-rule="evenodd" d="M80.4051 106.695C81.4392 116.043 84.3175 125.185 88.8259 133.44C91.6176 138.55 95.0128 143.303 98.3993 148.041C100.756 151.338 103.275 154.773 106.952 156.477C107.93 156.931 107.793 158.34 107.531 159.385C106.397 163.903 105.868 168.571 105.962 173.228C105.971 173.668 105.983 174.124 105.81 174.528C105.223 175.902 103.213 175.673 101.829 175.111C93.2653 171.635 86.6908 164.644 80.5495 157.738C72.5755 148.771 64.7202 139.411 60.0097 128.375C59.6895 127.624 59.3784 126.835 59.4321 126.021C59.4868 125.191 59.9129 124.437 60.3451 123.727C64.6153 116.714 70.556 110.724 77.5348 106.397C78.0268 106.093 78.5512 105.787 79.1293 105.768C79.7074 105.747 80.3412 106.12 80.4051 106.695Z" fill="white"/>
<path fill-rule="evenodd" clip-rule="evenodd" d="M277.519 270.7C278.258 269.449 279.172 268.073 280.605 267.835C281.17 267.742 281.467 267.128 281.659 266.589C284.028 259.947 284.256 252.561 282.302 245.785C281.745 243.851 282.431 241.801 283.111 239.906C284.863 235.016 286.616 230.126 288.369 225.237C287.365 223.5 284.717 223.551 283.36 222.073C281.614 220.17 282.931 217.146 284.299 214.955C292.288 202.161 300.277 189.366 308.267 176.571C309.245 175.004 311.394 174.512 313.194 174.93C314.994 175.348 316.531 176.481 318.012 177.587C323.839 181.939 329.666 186.291 335.493 190.643C338.62 192.979 342.072 195.962 341.892 199.862C341.793 202.02 340.558 203.937 339.364 205.737C334.745 212.696 330.128 219.654 325.51 226.613C322.908 230.533 323.627 235.682 322.84 240.321C321.598 247.65 316.572 253.669 311.918 259.466C307.264 265.263 302.607 271.736 302.345 279.165C302.033 288.02 297.827 296.669 291.053 302.38C293.017 297.613 280.605 299.515 266.406 293.866C268.742 285.599 273.154 278.098 277.519 270.7Z" fill="white"/>
<path fill-rule="evenodd" clip-rule="evenodd" d="M121.605 291.429C120.72 290.705 120.438 289.482 120.281 288.346C118.473 275.198 126.239 262.221 124.855 249.022C124.142 242.219 121.017 235.872 117.084 230.29C114.368 226.435 114.216 221.27 115.229 216.658C116.242 212.046 118.286 207.733 119.665 203.217C125.796 183.136 118.336 161.684 110.96 142.03C125.657 134.923 142.809 136.299 159.091 137.262C175.373 138.225 192.884 138.293 206.455 129.2C208.315 148.871 204.214 168.564 200.136 187.895C220.829 185.879 241.522 183.863 262.215 181.847C262.808 181.789 263.457 181.744 263.95 182.081C264.608 182.531 264.709 183.447 264.746 184.246C265.714 204.703 266.3 225.179 266.506 245.659C266.511 246.172 266.493 246.745 266.133 247.109C265.824 247.421 265.353 247.486 264.918 247.535C235.927 250.765 206.935 253.997 177.944 257.227C175.437 257.507 171.866 256.854 172.012 254.323C172.667 243.039 172.285 231.694 170.872 220.48C163.168 220.189 155.411 221.364 148.134 223.924C146.483 224.505 144.498 226.067 145.388 227.58C151.279 237.591 143.967 252.638 151.968 261.041C154.719 263.93 154.529 268.476 153.984 272.437C152.815 280.927 150.83 289.305 148.064 297.413C149.401 288.08 122.422 296.434 121.605 291.429Z" fill="white"/>
<path fill-rule="evenodd" clip-rule="evenodd" d="M38.6818 79.5604C38.7066 79.7595 38.5988 79.9687 38.4221 80.0645C38.2814 79.9237 38.1407 79.7828 38 79.6419C38.2109 79.5497 38.4501 79.5234 38.6761 79.5675L38.6818 79.5604Z" fill="#00160A"/>
<path fill-rule="evenodd" clip-rule="evenodd" d="M173.988 272.723C174.482 272.878 174.969 273.069 175.399 273.357C176.206 273.898 176.756 274.737 177.283 275.553C177.661 276.138 178.044 276.735 178.233 277.405C178.437 278.132 178.4 278.906 178.263 279.648C177.837 281.959 176.411 284.068 174.425 285.324C172.439 286.58 169.922 286.964 167.652 286.358C167.21 286.24 166.765 286.08 166.425 285.774C166.139 285.516 165.946 285.174 165.77 284.832C164.845 283.039 164.222 281.047 164.293 279.031C164.365 277.014 165.194 274.974 166.763 273.707C168.733 272.116 171.572 271.965 173.988 272.723ZM171.219 284.727C172.455 284.54 173.541 283.733 174.251 282.705C174.961 281.678 175.325 280.445 175.5 279.208C175.6 278.502 175.609 277.692 175.11 277.182C174.812 276.877 174.385 276.741 173.977 276.618C172.441 276.159 170.688 275.768 169.313 276.591C168.312 277.19 167.753 278.301 167.247 279.353C166.654 280.584 166.801 282.138 167.613 283.237C168.425 284.337 169.868 284.933 171.219 284.727Z" fill="#00160A"/>
<path fill-rule="evenodd" clip-rule="evenodd" d="M230.401 217.254C230.422 216.991 230.454 216.71 230.628 216.513C230.797 216.319 231.064 216.25 231.314 216.192C237.766 214.689 244.43 214.102 251.045 214.452C251.888 214.496 252.972 214.782 253.027 215.623C253.347 220.45 253.666 225.276 253.986 230.102C254.002 230.347 254.01 230.617 253.854 230.806C253.727 230.959 253.521 231.019 253.328 231.069C246.448 232.863 239.195 233.216 232.173 232.1C231.992 232.072 231.802 232.038 231.662 231.921C231.492 231.778 231.432 231.547 231.384 231.331C230.348 226.724 230.016 221.959 230.401 217.254ZM231.923 225.26C232.049 227.082 232.431 228.887 233.055 230.604C233.676 230.694 234.291 230.823 234.91 230.928C240.247 231.831 245.705 230.922 251.041 230.014C251.419 229.95 251.835 229.864 252.068 229.559C252.307 229.248 252.275 228.815 252.232 228.425C252.048 226.762 251.865 225.099 251.681 223.435C251.666 223.302 251.647 223.158 251.556 223.058C251.446 222.937 251.266 222.917 251.103 222.906C247.311 222.657 243.507 222.939 239.717 223.223C237.623 223.379 235.528 223.535 233.434 223.691C232.941 223.728 232.382 223.801 232.099 224.206C231.89 224.503 231.897 224.897 231.923 225.26ZM231.981 218.304C231.65 219.367 231.591 220.513 231.81 221.605C231.85 221.801 231.905 222.008 232.054 222.141C232.275 222.339 232.611 222.307 232.905 222.264C236.473 221.741 240.08 221.481 243.687 221.487C244.196 221.488 244.352 220.803 244.346 220.295C244.338 219.549 244.33 218.804 244.322 218.058C244.317 217.627 244.295 217.152 244 216.838C243.645 216.46 243.052 216.471 242.535 216.511C241.341 216.602 240.146 216.693 238.951 216.784C238.379 216.828 236.863 217.217 236.166 217.262C234.954 217.456 233.741 217.649 232.528 217.843C232.398 217.864 232.262 217.887 232.162 217.973C232.065 218.055 232.019 218.182 231.981 218.304ZM247.98 221.547C248.928 221.559 249.878 221.464 250.805 221.264C251.026 221.217 251.258 221.156 251.415 220.995C251.646 220.757 251.644 220.385 251.627 220.053C251.578 219.092 251.529 218.131 251.48 217.17C251.463 216.827 251.424 216.441 251.156 216.227C250.921 216.038 250.588 216.049 250.286 216.069C249.232 216.141 248.178 216.213 247.123 216.285C246.956 216.296 246.781 216.31 246.641 216.403C246.386 216.572 246.347 216.925 246.34 217.231C246.317 218.25 246.359 219.27 246.465 220.283C246.496 220.577 246.538 220.886 246.72 221.118C247.003 221.481 247.521 221.54 247.98 221.547Z" fill="#FFB61D"/>
<path fill-rule="evenodd" clip-rule="evenodd" d="M246.913 196.161C248.323 195.551 250.052 195.755 251.281 196.677C252.509 197.599 253.189 199.202 252.998 200.726C253.861 200.259 254.957 199.799 255.763 200.359C256.673 200.993 256.465 202.356 256.328 203.456C256.089 205.378 256.399 207.366 257.211 209.124C257.547 209.85 257.836 210.952 257.091 211.245C256.965 211.294 256.828 211.306 256.694 211.317C247.964 212.02 239.234 212.724 230.504 213.427C230.265 213.447 229.997 213.457 229.816 213.299C229.631 213.138 229.608 212.864 229.598 212.619C229.514 210.566 229.43 208.513 229.347 206.459C229.324 205.908 229.314 205.315 229.625 204.86C230.14 204.106 231.218 204.109 232.119 203.964C233.02 203.82 234.068 203.06 233.721 202.216C233.334 201.275 234.652 200.588 235.657 200.435C236.663 200.282 237.996 199.682 237.692 198.712C237.359 197.652 238.818 196.994 239.919 196.848C240.697 196.745 241.509 196.645 242.246 196.912C242.984 197.178 243.606 197.937 243.441 198.703C243.25 199.581 244.319 200.398 245.161 200.088C246.003 199.778 246.345 198.627 245.918 197.837C245.57 197.192 246.24 196.452 246.913 196.161ZM251.421 209.692C251.095 209.087 251.092 208.366 251.089 207.678C251.076 204.449 250.877 201.22 250.495 198.013C250.476 197.851 250.446 197.67 250.313 197.575C250.199 197.494 250.045 197.503 249.905 197.516C249.223 197.58 248.415 197.731 248.146 198.361C248.031 198.629 248.044 198.933 248.06 199.224C248.233 202.462 248.406 205.698 248.579 208.935C248.595 209.237 248.635 209.583 248.885 209.751C249.022 209.843 249.194 209.86 249.358 209.869C250.05 209.907 250.746 209.847 251.421 209.692ZM239.68 204.715C239.595 205.255 239.476 205.79 239.445 206.335C239.391 207.245 239.583 208.151 239.774 209.043C239.897 209.615 240.636 209.896 241.177 209.676C241.719 209.456 242.047 208.877 242.136 208.299C242.227 207.721 242.121 207.134 242.029 206.556C241.667 204.287 241.511 201.985 241.561 199.687C241.575 199.106 241.008 198.581 240.429 198.638C239.85 198.696 239.397 199.322 239.525 199.889C239.878 201.47 239.93 203.116 239.68 204.715ZM245.421 201.615C245.081 201.17 244.3 201.407 244.035 201.901C243.769 202.395 243.851 202.994 243.916 203.551C244.089 205.006 244.105 206.478 243.966 207.937C243.924 208.366 243.878 208.836 244.116 209.197C244.481 209.751 245.282 209.746 245.943 209.68C246.15 209.658 246.388 209.618 246.492 209.438C246.565 209.312 246.548 209.157 246.528 209.013C246.224 206.75 245.919 204.489 245.614 202.226C245.585 202.012 245.552 201.787 245.421 201.615ZM252.983 202.588C252.726 202.937 252.672 203.392 252.65 203.825C252.574 205.311 252.77 206.794 252.966 208.268C253.044 208.849 253.309 209.595 253.894 209.555C254.486 209.515 254.641 208.723 254.627 208.129C254.591 206.557 254.554 204.985 254.518 203.413C254.508 203 254.465 202.521 254.122 202.29C253.762 202.049 253.239 202.238 252.983 202.588ZM235.089 202.216C235.089 202.216 235.349 204.268 235.44 205.313C235.554 206.625 235.699 207.935 235.875 209.24C235.9 209.43 235.935 209.635 236.075 209.766C236.317 209.992 237.253 209.842 237.425 209.558C237.597 209.275 237.588 208.922 237.572 208.59C237.525 207.542 237.478 206.494 237.43 205.446C237.379 204.323 237.112 201.901 237.112 201.901M231.696 209.645C231.771 209.88 231.859 210.126 232.049 210.283C232.42 210.59 233.022 210.4 233.314 210.017C233.606 209.635 233.672 209.132 233.728 208.654C233.796 208.067 233.863 207.457 233.673 206.898C233.483 206.339 232.957 205.847 232.369 205.899C231.828 205.946 231.409 206.441 231.282 206.969C231.156 207.498 231.262 208.052 231.394 208.579C231.483 208.937 231.584 209.293 231.696 209.645Z" fill="#E7EAEE"/>
<path fill-rule="evenodd" clip-rule="evenodd" d="M267.084 125.633C266.379 126.691 265.615 127.763 264.525 128.416C263.434 129.069 261.929 129.197 260.948 128.387C259.868 127.493 259.801 125.882 259.887 124.482C259.919 123.944 259.962 123.4 260.117 122.883C260.385 121.986 260.97 121.22 261.58 120.51C262.321 119.648 263.141 118.817 264.169 118.332C265.196 117.847 266.473 117.762 267.436 118.365C268.588 119.087 269.015 120.623 268.797 121.966C268.578 123.308 267.839 124.501 267.084 125.633ZM264.846 126.752C265.735 125.806 266.497 124.74 267.107 123.594C267.507 122.839 267.848 122.019 267.832 121.165C267.816 120.311 267.365 119.417 266.572 119.101C265.539 118.688 264.404 119.348 263.541 120.05C262.925 120.55 262.33 121.097 261.936 121.785C261.686 122.219 261.524 122.698 261.363 123.172C261.06 124.07 260.752 125.005 260.867 125.946C260.983 126.887 261.656 127.831 262.599 127.928C263.472 128.019 264.246 127.392 264.846 126.752Z" fill="#FFB61D"/>
<path fill-rule="evenodd" clip-rule="evenodd" d="M85.5248 137.592C86.6288 138.71 87.5403 140.018 88.2071 141.442C88.8774 142.872 88.2015 144.71 86.8867 145.585C85.5719 146.46 83.794 146.448 82.352 145.804C80.9101 145.159 79.7771 143.956 78.9427 142.614C78.3134 141.603 77.8255 140.47 77.7733 139.281C77.7206 138.091 78.1589 136.839 79.0997 136.109C80.0518 135.372 81.3904 135.266 82.5415 135.62C83.6927 135.974 84.6786 136.735 85.5248 137.592ZM81.2166 136.911C80.2615 136.813 79.4129 137.69 79.2487 138.637C79.085 139.583 79.4458 140.543 79.9124 141.382C80.9247 143.202 82.731 144.819 84.8109 144.719C85.8805 144.666 87.0524 143.926 87.0336 142.856C87.0255 142.393 86.797 141.965 86.569 141.563C85.963 140.493 85.3084 139.433 84.4344 138.568C83.5604 137.702 82.4402 137.038 81.2166 136.911Z" fill="#FFB61D"/>
<path fill-rule="evenodd" clip-rule="evenodd" d="M169.01 278.39C169.777 277.807 170.731 277.43 171.693 277.492C172.654 277.554 173.605 278.105 174.007 278.98C174.439 279.92 174.17 281.087 173.496 281.871C172.823 282.656 171.809 283.089 170.785 283.232C170.086 283.33 169.253 283.242 168.87 282.649C168.686 282.363 168.644 282.011 168.607 281.673C168.541 281.065 168.474 280.458 168.407 279.85C168.379 279.593 168.352 279.326 168.434 279.081C168.532 278.792 168.768 278.574 169.01 278.39ZM172.044 280.137C172.156 280.051 172.273 279.959 172.321 279.826C172.477 279.404 171.866 279.123 171.416 279.133C170.762 279.147 169.924 279.588 170.124 280.21C170.239 280.571 170.683 280.738 171.056 280.672C171.429 280.605 171.744 280.368 172.044 280.137Z" fill="#00160A"/>
<path fill-rule="evenodd" clip-rule="evenodd" d="M277.648 84.1731C283.624 90.359 288.34 97.7563 291.428 105.784C291.64 106.335 291.846 106.948 291.643 107.503C290.085 111.776 287.08 115.339 284.132 118.803L278.482 125.444C276.684 127.557 274.886 129.67 273.027 131.73C263.563 142.219 252.381 151.391 239.43 157.033C238.941 157.247 238.417 157.459 237.891 157.374C237.364 157.289 236.871 156.778 237.009 156.263C238.61 150.277 240.221 144.02 238.937 137.958C238.627 136.496 238.281 134.655 239.489 133.776C249.27 126.653 256.313 116.472 263.062 106.429C264.759 103.904 266.451 101.372 267.953 98.7261C270.62 94.0282 272.673 88.9829 274.045 83.7586C274.234 83.0412 275.139 82.7184 275.856 82.9064C276.573 83.0944 277.133 83.64 277.648 84.1731ZM273.466 91.8551C272.859 91.6038 272.299 92.2833 271.989 92.8629C271.654 93.4907 271.32 94.1194 270.985 94.7482C264.794 106.378 258.507 118.186 249.072 127.346C248.181 128.212 247.184 129.257 247.349 130.488C247.876 134.436 245.768 138.605 242.276 140.521C240.692 141.392 240.71 143.637 240.942 145.43C241.036 146.148 241.307 147.048 242.028 147.109C244.144 147.287 246.174 148.329 247.553 149.943C247.989 150.452 248.813 150.134 249.38 149.777C263.654 140.804 274.621 127.55 285.329 114.527C285.698 114.078 286.091 113.512 285.899 112.963C284.279 108.348 284.538 103.102 286.607 98.6683C285.386 96.2398 283.931 93.9294 282.27 91.7786C279.504 92.9789 276.252 93.0073 273.466 91.8551ZM239.611 154.663C240.174 154.958 240.855 154.678 241.419 154.383C242.899 153.611 244.325 152.734 245.682 151.761C246.041 151.504 246.148 150.99 246.021 150.568C245.894 150.145 245.577 149.804 245.225 149.537C244.128 148.704 242.594 148.485 241.307 148.978C241.069 149.069 240.833 149.188 240.669 149.382C240.477 149.611 240.407 149.914 240.345 150.206C240.034 151.68 239.789 153.167 239.611 154.663ZM279.694 88.7817C278.724 86.8853 277.229 85.2614 275.418 84.1391C274.789 84.6939 274.666 85.5375 274.541 86.3973V86.3978C274.456 86.9876 274.369 87.5855 274.116 88.1033C274.034 88.272 273.933 88.4331 273.833 88.5942C273.642 88.9003 273.452 89.2053 273.39 89.5574C273.297 90.094 273.751 90.7668 274.266 90.5895C274.685 90.4451 275.124 90.5378 275.566 90.6315C275.8 90.6807 276.035 90.7303 276.268 90.7455C277.627 90.8332 278.755 89.7682 279.694 88.7817ZM287.381 100.147C286.342 102.214 286.506 104.655 286.695 106.96L286.966 110.266C286.996 110.63 287.194 111.121 287.545 111.02C287.762 110.411 288.176 109.908 288.592 109.405C288.956 108.964 289.32 108.522 289.554 108.008C290.347 106.264 289.467 104.254 288.599 102.546L287.381 100.147ZM240.873 136.842C240.917 137.489 241.588 137.972 242.236 137.954C242.884 137.936 243.468 137.517 243.846 136.991C244.225 136.465 244.432 135.838 244.635 135.222L245.303 133.189C245.489 132.622 245.5 131.755 244.908 131.689C244.693 131.664 244.489 131.778 244.314 131.903C243.649 132.375 243.165 133.054 242.694 133.72L241.41 135.532C241.132 135.926 240.841 136.361 240.873 136.842ZM87.8124 131.414C83.3041 123.16 80.4257 114.018 79.3916 104.669C79.3278 104.094 78.694 103.722 78.1158 103.742C77.5377 103.762 77.0133 104.067 76.5214 104.372C69.5425 108.699 63.6019 114.688 59.3317 121.702C58.8995 122.412 58.4734 123.166 58.4187 123.996C58.365 124.809 58.6761 125.599 58.9963 126.349C63.7068 137.385 71.5621 146.746 79.536 155.712C85.6773 162.619 92.2519 169.61 100.816 173.086C102.199 173.648 104.21 173.876 104.796 172.503C104.967 172.103 104.958 171.654 104.949 171.219L104.949 171.202C104.855 166.546 105.384 161.877 106.518 157.36C106.78 156.315 106.917 154.905 105.939 154.452C102.262 152.748 99.7424 149.313 97.3859 146.015C93.9993 141.277 90.6042 136.525 87.8124 131.414ZM95.7717 167.498C95.265 167.633 94.7593 167.314 94.3363 167.003C86.5427 161.293 80.5028 153.565 74.5687 145.94L64.0964 132.484C65.8636 131.358 66.0881 128.912 66.1266 126.817C66.1768 124.093 66.2132 121.289 65.2293 118.749C65.0109 118.184 65.2957 117.558 65.6007 117.035C66.9079 114.791 68.7212 112.844 70.8665 111.381C71.0742 111.239 71.2941 111.099 71.5429 111.063C72.2 110.971 72.7041 111.61 73.0553 112.172C74.4415 114.396 76.3471 116.91 78.961 116.727C79.9561 116.657 80.5083 117.83 80.7986 118.784C84.4092 130.655 91.1884 141.361 99.1385 150.886C100.172 152.124 100.43 153.795 100.687 155.45C100.974 157.297 101.257 159.124 102.608 160.31C103.761 161.324 103.547 163.144 103.235 164.647C103.172 164.955 103.096 165.284 102.862 165.494C102.689 165.65 102.455 165.715 102.229 165.775L95.7717 167.498ZM77.2951 113.978C75.8652 112.979 74.63 111.702 73.679 110.24C73.4733 109.924 73.2736 109.569 73.3096 109.194C73.3486 108.785 73.6562 108.459 73.9617 108.185C74.7166 107.51 75.5699 106.944 76.4859 106.512C76.8213 106.353 77.2545 106.225 77.5332 106.47C77.6973 106.614 77.7495 106.844 77.7921 107.059L79.1125 113.663C79.1905 114.053 78.7811 114.405 78.3834 114.417C77.9851 114.428 77.6213 114.206 77.2951 113.978ZM64.2266 126.752C64.1987 127.994 64.104 129.389 63.1727 130.211C62.9782 130.234 62.8485 130.02 62.7725 129.84C62.1016 128.252 61.4217 126.626 61.3158 124.906C61.2104 123.185 61.787 121.322 63.193 120.325C63.383 120.189 63.6622 120.078 63.8299 120.24C63.8973 120.305 63.9261 120.399 63.951 120.49C64.333 121.894 64.3031 123.373 64.2702 124.828L64.2266 126.752ZM102.166 168.073C102.392 168.258 102.416 168.588 102.422 168.88L102.489 172.073C101.179 171.347 99.9243 170.522 98.7387 169.607C98.5143 169.433 98.267 169.152 98.4048 168.904C98.4732 168.781 98.6151 168.722 98.7468 168.673C99.5945 168.36 100.471 168.126 101.361 167.973C101.636 167.926 101.95 167.896 102.166 168.073ZM102.242 155.496C102.23 155.351 102.23 155.194 102.315 155.078C102.542 154.77 103.032 155.049 103.24 155.369C103.74 156.141 103.85 157.151 103.529 158.013C102.795 157.383 102.322 156.459 102.242 155.496ZM297.348 131.25C298.653 129.606 301.033 129.369 303.132 129.42C303.622 129.432 304.127 129.456 304.573 129.66C305.815 130.226 306.078 131.848 306.12 133.212C306.158 134.453 306.151 135.71 305.85 136.915C305.548 138.119 304.924 139.279 303.927 140.018C303.478 140.351 302.958 140.593 302.408 140.685C301.557 140.828 300.686 140.609 299.878 140.308C298.801 139.907 297.78 139.357 296.852 138.677C296.4 138.345 295.932 137.911 295.917 137.35C295.884 136.055 296.029 134.757 296.347 133.501C296.55 132.699 296.833 131.898 297.348 131.25ZM300.733 139.438C302.409 139.92 304.192 138.623 304.827 136.999C305.462 135.375 305.227 133.55 304.878 131.842C304.744 131.186 304.043 130.819 303.397 130.644C302.396 130.372 301.333 130.336 300.317 130.54C299.812 130.64 299.296 130.814 298.941 131.187C298.748 131.391 298.615 131.643 298.483 131.89L297.502 133.746C297.329 134.073 297.154 134.402 297.053 134.757C296.75 135.819 297.151 136.999 297.892 137.817C298.634 138.636 299.671 139.134 300.733 139.438ZM278.298 158.205C279.835 158.741 281.228 159.684 282.297 160.912C283.216 161.968 283.915 163.338 283.722 164.724C283.651 165.233 283.464 165.718 283.249 166.185C282.439 167.953 281.044 169.649 279.129 169.991C278.125 170.171 277.088 169.955 276.122 169.626C275.005 169.246 273.94 168.713 272.965 168.047C272.449 167.693 271.936 167.273 271.709 166.689C271.553 166.287 271.548 165.844 271.554 165.413C271.568 164.345 271.639 163.26 272.011 162.26C272.482 160.994 273.403 159.95 274.38 159.017C274.772 158.642 275.189 158.273 275.694 158.072C276.519 157.743 277.459 157.912 278.298 158.205ZM279.87 167.506C280.98 166.407 281.627 164.814 281.451 163.261C281.275 161.708 280.224 160.251 278.754 159.721C278.143 159.5 277.465 159.438 276.84 159.612C276.502 159.705 276.185 159.865 275.89 160.052C274.624 160.857 273.736 162.23 273.52 163.714C273.305 165.198 273.765 166.767 274.749 167.898C275.379 168.623 276.407 168.934 277.36 168.813C278.313 168.693 279.187 168.181 279.87 167.506ZM139.579 149.05C139.527 148.318 138.549 148.127 137.815 148.148C133.963 148.261 130.116 148.55 126.291 149.013C125.662 149.089 125.611 150.102 126.115 150.485C126.62 150.867 127.322 150.796 127.949 150.707L139.579 149.05ZM127.266 154.001C127.299 153.624 127.773 153.488 128.149 153.446L150.836 150.876C151.247 150.83 151.684 150.788 152.053 150.973C152.422 151.157 152.66 151.663 152.419 151.998C152.241 152.245 151.901 152.295 151.598 152.324L128.392 154.576C127.91 154.623 127.223 154.484 127.266 154.001ZM178.128 157.823C176.858 158.102 175.555 157.644 174.338 157.189C170.402 155.718 166.481 154.206 162.576 152.654C161 152.027 159.27 152.966 157.853 153.897C153.75 156.592 149.799 159.52 146.027 162.661C145.058 163.468 143.567 162.902 142.59 162.105C142.383 161.937 142.18 161.757 141.976 161.577C141.215 160.904 140.443 160.223 139.459 160.083C137.946 159.868 136.615 161.015 135.518 162.08L128.446 168.948C127.495 169.872 126.494 171.351 127.341 172.371C127.899 173.044 128.924 173.01 129.793 172.91C134.33 172.384 138.844 171.646 143.357 170.909H143.357C150.816 169.691 158.27 168.473 165.814 168.212C167.485 168.154 169.158 168.143 170.831 168.133C171.878 168.126 172.926 168.12 173.973 168.101C178.697 168.019 183.416 167.701 188.108 167.148C188.335 167.122 188.594 167.075 188.711 166.879C188.8 166.731 188.778 166.544 188.753 166.374L186.765 152.851C186.664 152.164 186.488 151.37 185.86 151.073C185.226 150.773 184.478 151.16 183.958 151.631C183.143 152.366 182.515 153.344 181.896 154.308C180.88 155.89 179.887 157.436 178.128 157.823ZM145.854 165.222C150.098 161.732 154.524 158.463 159.107 155.431C160.048 154.809 161.192 154.172 162.244 154.58L173.357 158.899C175.212 159.619 177.241 160.349 179.145 159.772C181.358 159.1 182.682 156.897 183.796 154.871C184.013 154.476 184.644 154.522 184.956 154.845C185.268 155.17 185.347 155.646 185.412 156.091L186.225 161.731C186.35 162.596 186.473 163.495 186.222 164.333C185.972 165.171 185.237 165.933 184.362 165.916C170.057 165.64 155.724 166.82 141.656 169.431C141.222 169.511 140.789 169.593 140.354 169.675H140.353L140.353 169.676H140.352H140.351L140.351 169.676H140.35H140.349H140.348C136.987 170.311 133.615 170.948 130.199 170.959C131.848 168.623 133.938 166.639 136.014 164.672C137.153 163.592 138.577 162.427 140.107 162.78C140.933 162.971 141.567 163.564 142.197 164.155C142.399 164.344 142.601 164.533 142.809 164.709C143.664 165.431 144.989 165.933 145.854 165.222ZM329.381 204.559C329.001 204.7 328.578 204.604 328.192 204.482C325.576 203.66 323.451 201.821 321.363 200.013C321.081 199.769 320.799 199.524 320.516 199.283C317.056 196.332 313.302 193.727 309.327 191.52C308.922 191.295 308.498 191.058 308.25 190.668C308.003 190.277 308.01 189.682 308.392 189.421C310.175 188.204 311.331 186.115 311.416 183.959C311.438 183.384 312.088 183.001 312.661 183.047C313.235 183.093 313.734 183.438 314.203 183.771L332.368 196.665C332.721 196.916 333.102 197.207 333.189 197.631C333.26 197.979 333.115 198.329 332.968 198.651C332.185 200.38 331.284 202.056 330.274 203.662C330.045 204.026 329.784 204.409 329.381 204.559ZM311.208 189.262C310.995 189.639 310.81 190.184 311.156 190.444L325.979 201.605C326.79 202.216 328.052 202.789 328.691 201.999C329.425 201.092 330.111 200.146 330.744 199.166C330.917 198.898 331.094 198.591 331.031 198.278C330.974 197.992 330.734 197.785 330.508 197.601C325.068 193.191 319.308 189.174 313.289 185.594L311.208 189.262ZM303.831 196.088C304.07 195.677 304.361 195.228 304.825 195.127C305.181 195.049 305.542 195.202 305.87 195.361C307.655 196.227 309.289 197.402 310.68 198.818C311.014 199.159 311.056 199.706 310.907 200.16C310.758 200.614 310.451 200.995 310.15 201.366C309.667 201.962 309.151 202.582 308.438 202.864C307.668 203.169 306.772 203.022 306.042 202.63C305.313 202.237 304.728 201.622 304.212 200.974C303.539 200.129 302.937 199.115 303.041 198.04C303.11 197.336 303.475 196.699 303.831 196.088ZM306.953 200.82C308.076 201.257 308.794 200.911 308.823 200.174C308.842 199.71 308.436 199.352 308.068 199.068L306.953 198.211C306.585 197.927 306.178 197.63 305.714 197.633C305.248 197.637 304.775 198.116 304.966 198.54C304.937 198.745 305.831 200.384 306.953 200.82ZM302.523 209.882C302.796 210.032 303.087 210.179 303.398 210.185C303.71 210.192 304.049 210.015 304.125 209.712C304.305 209.003 304.775 208.414 305.235 207.837C305.285 207.774 305.335 207.712 305.385 207.649C305.888 207.011 306.375 206.289 306.388 205.477C306.402 204.664 305.729 203.798 304.924 203.909C304.29 203.997 303.7 203.581 303.239 203.136C303.166 203.065 303.093 202.992 303.02 202.92C302.634 202.535 302.242 202.144 301.731 201.978C301.122 201.779 300.293 202.095 300.245 202.733C300.147 204.019 299.079 204.987 298.088 205.812C297.791 206.058 298.059 206.532 298.337 206.8C299.586 208.008 300.998 209.048 302.523 209.882ZM302.72 207.432L300.768 206.112C300.271 205.776 300.312 204.953 300.754 204.549C301.197 204.145 301.885 204.114 302.449 204.316C303.013 204.519 303.482 204.915 303.938 205.304C304.24 205.562 304.282 206.031 304.143 206.403C304.005 206.775 303.724 207.073 303.45 207.359C303.357 207.458 303.252 207.562 303.117 207.579C302.974 207.598 302.84 207.513 302.72 207.432ZM318.198 207.519L319.152 205.491C319.445 204.87 319.728 204.101 319.333 203.54C319.196 203.345 318.994 203.207 318.797 203.074L315.324 200.733C314.949 200.481 314.543 200.218 314.091 200.226C313.556 200.234 313.107 200.616 312.727 200.993C312.158 201.558 311.626 202.159 311.135 202.793C310.762 203.276 310.455 204.07 310.966 204.405L316.28 207.891C316.7 208.167 317.232 208.449 317.672 208.21C317.931 208.069 318.072 207.786 318.198 207.519ZM317.02 206.083C316.797 206.135 316.564 206.078 316.344 206.012C315.003 205.607 313.775 204.833 312.831 203.797C312.518 203.453 312.695 202.844 313.094 202.602C313.492 202.361 314.011 202.416 314.44 202.596C314.718 202.713 314.972 202.875 315.226 203.038C315.366 203.127 315.505 203.216 315.648 203.298C315.803 203.386 315.963 203.466 316.125 203.547C316.581 203.776 317.039 204.005 317.35 204.401C317.771 204.937 317.684 205.931 317.02 206.083ZM318.815 208.349C319.428 208.203 319.615 207.579 319.809 206.93C319.97 206.393 320.136 205.84 320.551 205.526C321.265 204.986 322.278 205.438 323.047 205.896L325.495 207.352C325.885 207.584 326.285 207.824 326.565 208.182C326.845 208.539 326.982 209.046 326.786 209.455C326.656 209.729 326.409 209.91 326.16 210.092C325.956 210.242 325.751 210.393 325.607 210.596C325.423 210.856 325.355 211.184 325.287 211.507C325.202 211.912 325.118 212.311 324.809 212.566C324.246 213.03 323.408 212.658 322.785 212.277L319.335 210.169C318.988 209.957 318.62 209.724 318.45 209.353C318.279 208.983 318.418 208.443 318.815 208.349ZM323.337 210.442C323.83 210.273 324.228 209.907 324.609 209.55C324.885 209.292 324.515 208.867 324.186 208.681L322.073 207.491C321.852 207.367 321.545 207.254 321.375 207.441C320.824 208.041 320.744 209.021 321.19 209.703C321.636 210.385 322.566 210.705 323.337 210.442ZM299.091 210.368C298.618 210.235 298.136 210.099 297.75 209.835C297.15 209.426 296.315 209.525 295.685 209.887C295.055 210.248 294.586 210.829 294.131 211.395C293.879 211.709 293.62 212.037 293.524 212.428C293.427 212.82 293.542 213.294 293.895 213.49L297.58 215.544C297.858 215.7 298.17 215.86 298.482 215.791C298.793 215.722 299.007 215.446 299.194 215.189L300.142 213.885C300.67 213.158 301.221 212.233 300.835 211.422C300.526 210.773 299.819 210.573 299.091 210.368ZM297.925 213.748C297.732 213.798 297.534 213.705 297.356 213.615L294.846 212.337C295.328 211.654 296.247 211.392 297.079 211.475C297.911 211.558 298.684 211.928 299.437 212.292L298.283 213.49C298.18 213.598 298.069 213.709 297.925 213.748ZM280.533 162.659C280.921 163.252 280.8 164.043 280.542 164.704C280.202 165.574 279.627 166.38 278.816 166.843C278.005 167.305 276.939 167.373 276.149 166.876C275.358 166.378 274.961 165.272 275.385 164.44C275.483 164.247 275.616 164.076 275.75 163.906C275.878 163.743 276.006 163.579 276.102 163.396C276.166 163.276 276.216 163.149 276.266 163.022C276.337 162.838 276.408 162.654 276.521 162.494C276.924 161.924 277.717 161.812 278.414 161.822C279.205 161.833 280.099 161.997 280.533 162.659ZM278.767 163.035C277.684 163.022 276.668 163.929 276.561 165.007C276.517 165.447 276.704 165.994 277.143 166.055C277.471 166.1 277.759 165.847 277.98 165.599C278.447 165.076 278.848 164.494 279.171 163.871C279.279 163.662 279.375 163.394 279.232 163.206C279.128 163.07 278.938 163.037 278.767 163.035ZM304.657 134.802C304.574 133.811 303.91 132.836 302.947 132.587C301.724 132.272 300.537 133.133 299.566 133.941C299.279 134.181 298.979 134.437 298.857 134.791C298.651 135.391 299.022 136.023 299.388 136.541C299.807 137.134 300.255 137.73 300.866 138.122C301.477 138.515 302.293 138.667 302.934 138.326C303.261 138.152 303.515 137.869 303.737 137.572C304.33 136.774 304.74 135.793 304.657 134.802ZM301.943 137.343C301.529 137.405 301.098 137.238 300.793 136.951C300.336 136.52 300.154 135.827 300.315 135.22C300.483 134.58 301.019 134.052 301.662 133.894C302.304 133.736 303.025 133.956 303.47 134.445C303.453 134.578 303.44 134.712 303.425 134.846C303.378 135.302 303.331 135.759 303.173 136.186C302.969 136.741 302.528 137.256 301.943 137.343ZM269.009 291.959C271.264 283.978 275.524 276.735 279.739 269.592C280.452 268.385 281.335 267.055 282.718 266.826C283.263 266.736 283.551 266.143 283.736 265.623C286.023 259.21 286.243 252.078 284.357 245.536C283.819 243.669 284.482 241.689 285.137 239.86L290.215 225.697C289.687 224.783 288.688 224.382 287.677 223.976C286.831 223.636 285.975 223.292 285.379 222.642C283.693 220.805 284.965 217.884 286.285 215.77L309.426 178.709C310.371 177.196 312.445 176.721 314.184 177.124C315.922 177.527 317.406 178.621 318.836 179.689L335.714 192.296C338.733 194.551 342.066 197.432 341.893 201.196C341.796 203.28 340.604 205.132 339.451 206.869L326.075 227.025C324.345 229.632 324.135 232.8 323.925 235.983C323.829 237.423 323.734 238.866 323.498 240.26C322.344 247.065 317.812 252.701 313.47 258.101L313.199 258.438C313.117 258.54 313.034 258.643 312.951 258.746C308.458 264.343 303.962 270.592 303.709 277.766C303.408 286.315 299.346 294.666 292.806 300.18L298.497 286.374C299.85 283.09 301.104 279.005 298.839 276.27C297.814 275.032 296.265 274.377 294.778 273.767L285.939 270.141C285.33 269.891 284.702 269.636 284.043 269.632C281.989 269.62 280.768 271.847 279.935 273.724C277.055 280.218 273.376 286.357 269.009 291.959ZM298.073 273.209C299.588 273.77 301.722 274.111 302.44 272.663C305.916 265.656 309.487 258.515 315.02 252.986C318.209 249.8 320.164 245.548 321.27 241.177C322.376 236.807 322.689 232.281 322.997 227.783C321.655 228.272 321.538 230.084 321.544 231.513C321.557 234.663 321.006 237.814 319.926 240.773C319.7 241.392 319.396 242.061 318.791 242.322C318.186 242.583 317.294 242.059 317.497 241.432C319.059 236.619 319.64 231.49 319.197 226.45C319.06 224.887 318.769 223.216 317.658 222.108C317.778 224.575 317.898 227.054 317.649 229.512C317.216 233.764 315.691 237.819 314.18 241.817C313.984 242.336 313.747 242.902 313.248 243.146C312.75 243.39 311.976 243.003 312.106 242.464L314.369 233.109C315.614 227.965 316.837 222.432 314.911 217.502C313.941 217.438 313.712 218.825 313.799 219.793C314.392 226.427 312.559 233.01 310.743 239.418C310.531 240.167 309.781 241.102 309.198 240.588C308.947 240.366 308.935 239.983 308.955 239.649C309.07 237.764 309.587 235.94 310.102 234.118C310.262 233.552 310.423 232.987 310.57 232.42C311.935 227.194 312.283 221.705 311.589 216.349C310.394 217.881 309.887 219.824 309.408 221.708L306.568 232.889C305.283 237.943 303.643 243.5 299.19 246.215C298.836 246.432 298.425 246.633 298.02 246.536C297.518 246.417 297.234 245.899 297.024 245.427C294.182 239.026 293.827 231.559 296.049 224.917C296.184 224.515 295.774 224.094 295.35 224.06C294.927 224.027 294.53 224.257 294.182 224.503C290.537 227.075 289.141 231.735 287.981 236.043L286.439 241.772C286.214 242.609 285.987 243.453 285.94 244.318C285.868 245.633 286.212 246.92 286.554 248.2C286.633 248.496 286.712 248.793 286.786 249.089C288.269 255.04 287.599 261.505 284.927 267.026C284.533 267.84 285.573 268.581 286.421 268.895L298.073 273.209ZM303.832 218.535C303.224 218.116 302.573 217.638 302.385 216.924C302.096 215.829 303.139 214.73 304.261 214.583C305.384 214.436 306.482 214.977 307.412 215.622C308.722 216.531 310.38 215.145 311.361 213.888C310.037 213.096 308.775 211.868 308.723 210.327C308.671 208.786 310.545 207.318 311.792 208.225C312.275 208.577 312.861 208.792 313.44 209.005C314.307 209.324 315.16 209.638 315.636 210.397C316.177 211.261 315.984 212.429 315.433 213.287C314.883 214.145 314.035 214.76 313.207 215.355C314.395 215.473 315.552 215.897 316.535 216.574L317.607 213.452C317.69 213.21 317.78 212.957 317.97 212.786C318.338 212.457 318.909 212.558 319.379 212.707C320.613 213.099 321.823 213.71 322.637 214.716C323.451 215.723 323.791 217.184 323.222 218.347C322.653 219.509 321.047 220.129 319.959 219.428C319.733 219.283 319.507 219.088 319.28 218.894C318.673 218.374 318.067 217.855 317.481 218.271C319.269 219.663 320.497 221.754 320.842 223.993C326.469 215.421 332.037 206.808 337.543 198.157C338.069 197.332 338.493 196.03 337.637 195.555C333.98 193.526 330.748 190.809 327.523 188.099C323.453 184.677 319.395 181.266 314.511 179.263C314.201 179.136 313.862 179.013 313.538 179.098C313.198 179.188 312.959 179.483 312.746 179.762C303.651 191.633 295.488 204.218 288.358 217.363C287.363 219.197 288.695 221.383 289.968 223.036C290.604 223.861 291.833 224.734 292.527 223.956C293.402 222.975 294.835 222.415 296.074 222.853C297.313 223.291 298.084 224.901 297.41 226.029C296.923 226.845 297.876 227.752 298.71 228.208C300.375 229.121 302.083 229.954 303.827 230.706C304.069 230.811 304.351 230.913 304.587 230.795C304.812 230.682 304.903 230.414 304.973 230.173L306.905 223.527C307.222 222.434 307.435 221.016 306.497 220.371L303.832 218.535ZM338.382 199.905C338.126 199.817 337.892 200.074 337.741 200.3L323.28 221.947C322.891 222.53 322.492 223.135 322.378 223.826C322.265 224.517 322.519 225.321 323.148 225.628C324.19 226.138 325.279 225.067 325.947 224.12L339.384 205.076C340.382 203.662 339.537 201.729 338.683 200.224C338.609 200.094 338.524 199.954 338.382 199.905ZM297.666 228.813C297.411 228.627 297.031 228.738 296.818 228.969C296.605 229.201 296.518 229.519 296.437 229.824C296.239 230.573 296.041 231.33 296.011 232.105C295.982 232.879 296.123 233.649 296.263 234.411L297.648 241.939C297.706 242.255 297.774 242.59 297.998 242.82C298.221 243.05 298.658 243.1 298.839 242.835C300.889 239.837 302.967 236.781 304.04 233.311C304.173 232.88 304.211 232.274 303.789 232.115C301.612 231.296 299.546 230.182 297.666 228.813ZM313.659 210.239C312.964 209.578 312.047 209.156 311.093 209.058C310.224 208.97 309.722 210.191 310.119 210.969C310.516 211.748 311.393 212.134 312.204 212.459C312.777 212.689 313.471 212.905 313.97 212.543C314.688 212.022 314.301 210.85 313.659 210.239ZM307.949 218.962C308.232 218.761 308.269 218.349 308.19 218.011C307.892 216.737 306.494 216.086 305.24 215.713C304.755 215.568 304.151 215.468 303.809 215.841C303.524 216.153 303.585 216.669 303.831 217.012C304.077 217.356 304.463 217.568 304.835 217.768L306.772 218.812C307.14 219.01 307.609 219.205 307.949 218.962ZM318.974 214.37C318.563 214.919 318.605 215.717 318.948 216.312C319.29 216.906 319.883 217.318 320.508 217.599C320.722 217.695 320.958 217.78 321.188 217.734C321.386 217.694 321.556 217.561 321.677 217.399C322.124 216.801 321.907 215.9 321.394 215.357C320.882 214.814 320.152 214.541 319.45 214.287C319.329 214.243 319.187 214.2 319.077 214.267C319.067 214.273 319.057 214.28 319.048 214.288C319.02 214.311 318.996 214.34 318.974 214.37ZM124.663 264.158C124.931 262.175 125.307 259.994 126.865 258.738C128.107 257.737 129.812 257.577 131.407 257.546C136.632 257.446 141.874 258.295 146.8 260.038C148.359 260.59 149.99 261.316 150.842 262.733C151.764 264.267 151.539 266.201 151.284 267.973L147.328 295.46C150.056 287.5 152.015 279.276 153.167 270.94C153.705 267.051 153.893 262.589 151.179 259.752C146.942 255.325 147.057 249.017 147.175 242.604C147.276 237.069 147.379 231.456 144.687 226.903C143.808 225.418 145.767 223.884 147.396 223.314C154.575 220.8 162.229 219.647 169.831 219.933C171.224 230.942 171.601 242.079 170.955 253.157C170.81 255.642 174.334 256.283 176.807 256.009L262.618 246.493C263.047 246.446 263.512 246.382 263.816 246.075C264.171 245.718 264.189 245.156 264.184 244.651C263.981 224.546 263.403 204.445 262.448 184.361C262.411 183.577 262.312 182.677 261.662 182.236C261.176 181.905 260.536 181.949 259.95 182.005L198.702 187.943C202.726 168.966 206.772 149.633 204.937 130.321C191.548 139.248 174.271 139.181 158.206 138.235C157.539 138.196 156.87 138.156 156.199 138.116C140.739 137.192 124.618 136.229 110.719 142.917C117.997 162.211 125.357 183.271 119.308 202.986C118.773 204.73 118.136 206.443 117.5 208.155C116.518 210.796 115.538 213.434 114.931 216.181C113.932 220.709 114.082 225.779 116.761 229.564C120.642 235.044 123.725 241.275 124.429 247.953C125.097 254.29 123.605 260.575 122.115 266.853C120.559 273.412 119.004 279.963 119.916 286.559C120.07 287.674 120.349 288.875 121.223 289.586L124.663 264.158ZM130.734 184.524C132.357 184.582 133.002 186.619 133.209 188.23L134.852 200.982C131.645 199.319 127.132 202.142 127.224 205.754C124.52 200.537 124.11 194.557 123.704 188.638C123.615 187.351 123.527 186.066 123.415 184.792C122.222 171.174 118.118 158.003 114.039 144.955C113.457 143.095 115.969 141.888 117.898 141.605C130.554 139.75 143.363 140.006 156.178 140.263C161.987 140.379 167.797 140.495 173.595 140.415C183.896 140.272 194.796 139.296 203.153 133.271C205.031 145.791 202.478 158.424 199.958 170.897C199.617 172.584 199.276 174.269 198.947 175.949C196.188 190.056 194.311 205.092 199.589 218.461C199.812 219.024 199.053 219.449 198.46 219.573C194.119 220.478 189.63 220.673 185.226 220.148C183.337 219.922 181.468 219.566 179.599 219.209C178.191 218.941 176.783 218.672 175.366 218.46C164.699 216.859 153.566 218.521 143.831 223.165C143.44 223.351 142.976 223.264 142.568 223.123C140.596 222.44 139.19 220.619 138.488 218.654C137.786 216.689 137.686 214.569 137.592 212.484L137.2 203.743C137.186 203.429 137.268 203.003 137.582 202.992C154.635 202.46 171.669 201.31 188.639 199.547C187.921 195.531 187.85 191.401 188.429 187.364C188.794 184.815 186.397 182.492 183.845 182.151C181.293 181.809 178.769 182.965 176.65 184.428C175.857 184.975 175.096 185.57 174.335 186.164C173.063 187.157 171.791 188.15 170.375 188.92C169.448 189.423 168.333 189.829 167.36 189.422C166.169 188.925 165.77 187.508 165.414 186.243C165.391 186.164 165.369 186.085 165.347 186.007C164.882 184.378 164.115 182.757 162.766 181.732C161.417 180.708 159.382 180.453 158.051 181.5C156.912 182.395 156.552 183.945 156.361 185.381C156.345 185.508 156.328 185.637 156.312 185.766C156.143 187.086 155.968 188.45 155.18 189.508C154.315 190.67 152.386 191.168 151.438 190.073C149.562 187.909 146.272 187.455 143.51 188.215C140.748 188.974 138.386 190.729 136.095 192.447C134.713 190.284 134.598 187.372 135.806 185.107L135.827 185.07C136.054 184.645 136.315 184.156 136.114 183.723C135.99 183.455 135.715 183.29 135.444 183.174C133.819 182.477 131.743 183.072 130.734 184.524ZM179.562 221.079C180.471 221.26 181.587 221.665 181.644 222.59C182.179 231.409 189.188 239.334 197.805 241.286C206.422 243.238 215.972 239.291 220.996 232.023C226.02 224.756 226.414 214.66 222.293 206.844C217.875 198.462 207.138 194.01 198.085 196.808C197.665 194.956 197.712 192.999 198.221 191.169C198.316 190.829 198.439 190.474 198.713 190.253C198.981 190.036 199.343 189.986 199.685 189.945L225.187 186.874C227.429 186.604 229.677 186.333 231.935 186.315C241.646 186.235 251.349 185.266 260.884 183.426C262.365 203.321 263.062 223.274 262.973 243.223C262.969 244.169 262.681 245.427 261.735 245.455C245.685 245.922 229.762 248.034 213.833 250.145C203.13 251.565 192.425 252.984 181.677 253.905C179.281 254.111 176.87 254.291 174.476 254.063C174.042 254.022 173.553 253.933 173.317 253.567C173.175 253.346 173.159 253.069 173.147 252.806L171.716 220.898C171.697 220.485 171.723 219.988 172.079 219.781C172.316 219.644 172.612 219.693 172.88 219.747L179.562 221.079ZM135.652 213.692C135.399 215.349 135.113 217.214 136.199 218.468C140.249 223.145 144.456 228.141 145.532 234.234C146.035 237.079 145.819 240.007 145.604 242.923C145.333 246.596 145.064 250.251 146.234 253.697C146.264 253.786 146.295 253.877 146.327 253.967C146.542 254.581 146.761 255.207 146.692 255.848C146.612 256.584 145.973 257.324 145.244 257.199L136.778 255.739C133.974 255.255 131.012 254.784 128.348 255.785C127.834 255.979 127.241 255.639 126.965 255.163C126.689 254.688 126.653 254.115 126.629 253.565C126.6 252.902 126.579 252.233 126.557 251.564C126.42 247.349 126.281 243.055 124.329 239.362L118.106 227.58C117.186 225.84 116.246 224.023 116.183 222.057C116.14 220.744 116.495 219.454 116.846 218.188L119.951 207.003C120.605 204.649 121.297 202.219 122.845 200.328C126.606 206.709 126.977 214.964 123.804 221.656C123.51 222.275 124.407 222.913 125.046 222.666C125.685 222.419 126.01 221.719 126.236 221.072C127.138 218.48 127.455 215.748 127.771 213.011C128.028 210.797 128.284 208.581 128.852 206.434C129.2 205.119 129.702 203.777 130.717 202.871C131.733 201.966 133.389 201.656 134.453 202.504C135.267 203.152 135.532 204.261 135.687 205.29C136.096 208.006 136.094 210.784 135.682 213.499C135.672 213.563 135.662 213.627 135.652 213.692ZM150.261 191.61C151.509 192.565 152.731 193.501 154.228 193.327C156.131 193.107 157.317 191.148 157.87 189.313C157.991 188.912 158.099 188.501 158.207 188.089C158.592 186.62 158.98 185.138 159.988 184.033C160.281 183.711 160.703 183.412 161.12 183.538C161.456 183.64 161.653 183.981 161.81 184.297C162.032 184.744 162.242 185.199 162.452 185.654C163.044 186.937 163.637 188.221 164.497 189.335C165.662 190.846 167.475 192.033 169.371 191.826C171.066 191.64 172.391 190.439 173.682 189.269C173.947 189.029 174.21 188.79 174.475 188.562C177.585 185.88 181.635 184.311 185.74 184.198C185.187 185.582 185.556 187.091 185.918 188.572C186.005 188.929 186.092 189.284 186.166 189.635C186.745 192.406 186.452 195.352 185.339 197.954L157.921 200.065C151.52 200.558 145.103 201.051 138.688 200.825C138.283 200.811 137.867 200.792 137.494 200.632C136.79 200.331 136.371 199.579 136.22 198.828C135.88 197.145 136.656 195.391 137.832 194.14C139.008 192.888 140.543 192.044 142.051 191.222C143.62 190.367 145.362 189.482 147.111 189.848C148.276 190.091 149.276 190.856 150.261 191.61ZM202.179 231.549C198.026 231.464 194.427 228.075 193.194 224.108C192.942 223.298 193.466 222.409 194.188 221.964C194.91 221.519 195.784 221.414 196.627 221.32L202.713 220.636C200.862 217.039 199.544 213.168 198.815 209.189C198.749 208.828 198.688 208.448 198.802 208.1C199.002 207.487 199.663 207.165 200.273 206.96C205.218 205.298 211.155 207.315 214.063 211.646C216.971 215.977 216.59 222.238 213.177 226.183C211.7 227.891 209.763 229.152 207.724 230.122C205.984 230.949 204.105 231.589 202.179 231.549ZM221.89 210.167C222.629 212.608 222.842 215.175 222.944 217.723C221.284 217.472 219.608 217.329 217.93 217.296C217.601 213.01 214.749 209.138 210.999 207.038C207.249 204.937 202.722 204.483 198.485 205.203C198.449 204.598 198.339 203.968 198.229 203.338C197.938 201.674 197.648 200.011 198.723 198.83C199.373 198.116 200.362 197.831 201.311 197.654C205.631 196.85 210.238 197.693 213.993 199.976C217.748 202.259 220.616 205.961 221.89 210.167ZM191.426 223.675C191.42 223.754 191.413 223.832 191.41 223.906C191.381 224.498 191.657 225.042 191.93 225.58C192.004 225.724 192.077 225.867 192.144 226.011C192.46 226.693 192.614 227.592 192.084 228.126C190.804 229.418 189.673 230.858 188.72 232.408C188.484 232.791 187.904 232.822 187.516 232.594C187.129 232.365 186.889 231.958 186.665 231.567C185.248 229.097 183.796 226.514 183.619 223.672C183.597 223.318 183.636 222.891 183.949 222.726C184.088 222.654 184.25 222.652 184.406 222.651L190.742 222.632C190.893 222.631 191.053 222.633 191.184 222.707C191.495 222.884 191.46 223.295 191.426 223.675Z" fill="#00160A"/>
</g>
<defs>
<clipPath id="clip0_72_2450">
<rect width="380" height="380" fill="white"/>
</clipPath>
</defs>
</svg>
