<svg width="380" height="380" viewBox="0 0 380 380" fill="none" xmlns="http://www.w3.org/2000/svg">
<g clip-path="url(#clip0_72_2476)">
<path d="M380 0H0V380H380V0Z" fill="white"/>
<path fill-rule="evenodd" clip-rule="evenodd" d="M205.185 329.765C273.381 329.765 283.048 299.426 293.389 293.85C303.729 288.275 297.3 277.087 304.082 268.648C314.915 255.169 321.48 262.115 325.065 244.628C328.65 227.142 322.133 222.195 322.133 206.582C322.133 175.302 337.117 160.495 317.981 144.129C298.846 127.764 266.892 129.695 235.288 129.695C176.628 129.695 141.486 49.2809 63.2477 73.4059C36.2854 81.7198 39.2653 93.0499 45.1897 133.09C47.7624 150.477 28.3377 172.583 31.708 192.342C37.8634 228.43 54.1201 223.534 84.7927 247.899C89.9384 251.987 97.4436 251.945 103.053 256.137C112.459 263.165 113.063 274.094 130.646 281.465C158.998 293.352 156.592 329.765 205.185 329.765Z" fill="#FFC46B"/>
<path d="M74.8129 252.827C84.3353 252.827 92.0547 245.568 92.0547 236.613C92.0547 227.659 84.3353 220.4 74.8129 220.4C65.2906 220.4 57.5712 227.659 57.5712 236.613C57.5712 245.568 65.2906 252.827 74.8129 252.827Z" fill="white"/>
<path fill-rule="evenodd" clip-rule="evenodd" d="M68.0509 178.805C65.1118 171.465 67.6795 167.067 69.3252 161.325C70.6998 156.529 81.4507 148.739 86.3983 156.862C87.854 159.252 87.2698 161.511 90.4512 163.611C98.1525 168.695 93.9512 158.147 94.2375 155.481C94.3773 154.18 93.2784 151.18 93.6872 149.925C94.1169 148.608 96.405 146.737 96.405 144.006C96.405 141.276 91.7508 140.225 90.4512 139.554C78.9053 133.592 71.5626 123.636 75.2218 118.582C80.3204 111.542 100.301 122.619 106.305 123.636C106.382 123.649 107.454 118.051 108.33 116.77C110.082 114.206 112.019 111.716 114.329 109.641C115.364 108.711 116.766 108.137 118.146 107.951C122.271 107.394 126.492 106.938 130.625 107.442C132.085 107.62 140.782 97.5547 144.174 94.3079C170.191 69.3977 222.346 99.7531 193.917 141.002C188.691 148.584 182.01 150.994 181.147 153.674C179.23 159.626 191.297 158.843 196.408 159.479C205.14 160.565 209.444 165.05 204.023 172.739C200.646 177.528 180.835 177.284 172.158 173.821C168.937 172.535 164.956 166.914 161.912 171.525C159.815 174.702 151.637 181.442 142.864 185.255C138.905 186.976 134.394 185.939 131.015 187.475C126.259 189.638 112.218 198.721 106.305 198.719C100.349 198.717 92.642 191.55 91.7508 191.08C90.3914 190.363 79.8786 188.309 74.6847 180.295C73.1146 177.871 69.1271 181.492 68.0509 178.805Z" fill="white"/>
<path d="M169.173 138.052C170.181 138.052 170.999 137.246 170.999 136.251C170.999 135.257 170.181 134.451 169.173 134.451C168.164 134.451 167.346 135.257 167.346 136.251C167.346 137.246 168.164 138.052 169.173 138.052Z" fill="#FFB61D"/>
<path d="M155.8 134.267C156.779 134.267 157.573 133.473 157.573 132.493C157.573 131.514 156.779 130.72 155.8 130.72C154.821 130.72 154.027 131.514 154.027 132.493C154.027 133.473 154.821 134.267 155.8 134.267Z" fill="#FFB61D"/>
<path d="M285 155.04C298.292 155.04 309.067 144.265 309.067 130.973C309.067 117.682 298.292 106.907 285 106.907C271.708 106.907 260.933 117.682 260.933 130.973C260.933 144.265 271.708 155.04 285 155.04Z" fill="white"/>
<path d="M209.747 327.277C248.37 327.277 279.68 300.517 279.68 267.505C279.68 234.494 248.37 207.733 209.747 207.733C171.125 207.733 139.815 234.494 139.815 267.505C139.815 300.517 171.125 327.277 209.747 327.277Z" fill="white"/>
<path fill-rule="evenodd" clip-rule="evenodd" d="M150.461 300.096L151.245 300.665C149.474 302.254 146.809 300.277 145.315 298.425C142.912 295.446 140.474 292.28 139.743 288.524C139.327 286.386 139.493 284.184 139.662 282.013L140.34 273.258C140.639 269.379 140.941 265.493 141.612 261.66C143.43 251.288 148.005 241.412 154.741 233.318L154.808 233.237C155.998 231.809 157.297 230.248 157.274 228.396C157.226 224.478 159.482 220.815 162.446 218.25C165.409 215.685 169.037 214.039 172.61 212.427C174.228 211.697 176.341 211.043 177.596 212.3C180.176 214.884 184.481 213.238 187.889 211.925C192.073 210.314 196.543 209.445 201.025 209.373C201.156 209.371 201.287 209.369 201.42 209.367C204.112 209.329 207.141 209.286 208.783 207.2C209.829 205.872 211.828 205.949 213.506 206.15L225.048 207.531C225.93 207.636 226.987 207.877 227.265 208.72C228.01 210.982 230.64 211.905 232.92 212.593C241.027 215.037 248.951 218.355 255.833 223.287C262.715 228.219 268.531 234.854 271.618 242.738C266.6 235.879 261.452 228.891 254.487 224.02C252.494 222.626 250.374 221.422 248.222 220.288C243.144 217.611 237.859 215.304 232.368 213.628C206.88 205.848 177.396 213.063 158.381 231.735C155.624 234.442 153.039 237.423 151.475 240.957L153.541 241.598C150.267 243.061 147.835 246.267 147.309 249.814C148.627 247.557 150.504 245.631 152.726 244.256C152.091 246.38 150.436 248.088 148.815 249.761C146.748 251.894 144.735 253.972 144.948 256.79C145.93 254.215 148.401 252.271 151.135 251.925C146.799 256.161 142.146 261.134 142.284 267.195C143.866 263.695 146.551 260.704 149.861 258.756L145.096 265.159C143.294 267.581 141.396 270.348 141.808 273.338C143.376 270.525 145.617 268.09 148.292 266.295C147.004 269.224 145.165 271.909 142.901 274.169C145.054 273.909 147.128 273.017 148.798 271.632C148.098 272.609 147.467 273.712 147.443 274.914C147.42 276.116 148.198 277.405 149.388 277.578C149.748 276.773 150.878 276.433 151.622 276.906C149.365 279.102 149.341 283.172 151.574 285.395C151.772 284.35 152.654 283.47 153.698 283.272C152.033 286.183 151.733 289.84 152.903 292.983C153.256 291.202 154.245 289.554 155.649 288.403C154.839 292.627 153.05 296.661 150.461 300.096ZM149.474 298.75C150.884 298.736 151.761 297.159 151.908 295.757C152.084 294.079 151.667 292.403 151.254 290.768L148.801 281.069C148.34 281.215 148.286 281.717 148.23 282.243C148.182 282.692 148.133 283.158 147.825 283.435C147.205 282.663 147.134 281.495 147.658 280.654C148.186 279.805 147.84 278.616 147.091 277.954C146.341 277.292 145.298 277.068 144.299 277.035C143.758 277.017 143.184 277.058 142.742 277.369C142.3 277.68 142.067 278.342 142.381 278.782C143.316 280.091 144.019 281.565 144.449 283.116C144.48 283.232 144.511 283.349 144.543 283.467C144.756 284.271 144.976 285.099 145.565 285.673C146.02 286.117 146.136 286.794 146.228 287.422L146.978 292.519C147.114 293.447 147.25 294.392 147.094 295.317C146.938 296.241 146.439 297.158 145.6 297.577L148.278 298.488C148.666 298.621 149.064 298.754 149.474 298.75ZM178.661 215.217C178.133 215.329 177.69 214.865 177.312 214.469L177.269 214.424C176.882 214.019 176.217 213.666 175.809 214.05C171.056 218.521 165.648 222.294 159.811 225.21C158.752 225.739 158.609 227.166 158.609 228.351C158.608 228.746 158.987 229.302 159.234 228.992C160.437 227.484 162.003 226.314 163.549 225.161C167.902 221.915 172.307 218.64 177.296 216.501C177.902 216.241 178.611 215.874 178.661 215.217ZM226.426 210.189C226.156 209.557 225.391 209.329 224.715 209.202C222.876 208.855 221.004 208.698 219.133 208.541C216.564 208.326 213.999 208.111 211.527 207.405C210.735 207.179 210.058 207.981 209.624 208.682C210.927 208.546 212.238 208.49 213.547 208.514C215.826 208.556 218.094 208.84 220.355 209.124C221.505 209.267 222.662 209.413 223.765 209.77C223.893 209.811 224.022 209.856 224.152 209.9C224.905 210.159 225.683 210.426 226.426 210.189ZM202.095 219.903C202.615 220.022 203.111 220.412 203.189 220.94C203.267 221.467 202.907 221.981 202.446 222.25C201.986 222.518 201.442 222.594 200.914 222.664L199.323 222.874C199.163 222.895 198.999 222.918 198.861 223C198.461 223.237 198.489 223.878 198.815 224.209C199.143 224.538 199.644 224.62 200.108 224.619C202.272 224.615 204.32 223.058 204.981 220.998C205.138 220.509 205.221 219.965 205.027 219.489C204.928 219.248 204.763 219.039 204.58 218.854C203.729 217.991 202.461 217.611 201.253 217.696C200.045 217.782 198.895 218.297 197.912 219.004C197.44 219.343 196.991 219.74 196.723 220.255C196.456 220.771 196.398 221.425 196.698 221.922C196.812 222.112 196.989 222.28 197.207 222.316C197.426 222.352 197.678 222.211 197.705 221.991C197.781 221.38 198.227 220.863 198.758 220.553C199.29 220.242 199.902 220.106 200.506 219.985C201.03 219.88 201.574 219.784 202.095 219.903ZM159.457 250.125C160.051 246.609 162.891 243.75 166.202 242.425C168.027 241.695 170.115 241.375 171.95 242.079C172.403 242.252 172.841 242.492 173.167 242.85C173.474 243.188 173.667 243.613 173.812 244.045C174.745 246.809 173.799 250.007 171.796 252.129C169.793 254.252 166.877 255.365 163.966 255.574C163.034 255.641 162.032 255.603 161.262 255.073C160.492 254.543 160.11 253.366 160.703 252.643C160.983 252.656 161.135 252.907 161.289 253.162C161.366 253.29 161.443 253.418 161.538 253.52C161.861 253.867 162.396 253.893 162.87 253.873C164.934 253.786 167.029 253.274 168.709 252.072C170.388 250.87 171.596 248.907 171.56 246.841C171.549 246.176 171.404 245.495 171.027 244.947C170.408 244.047 169.238 243.64 168.148 243.712C167.058 243.784 166.036 244.267 165.108 244.844C163.886 245.601 162.757 246.555 161.992 247.771C161.226 248.988 160.852 250.492 161.176 251.892C160.889 252.409 160.039 252.306 159.688 251.831C159.336 251.357 159.358 250.707 159.457 250.125ZM178.463 279.107C176.953 280.078 175.701 281.599 175.468 283.379C175.28 284.82 175.763 286.254 176.238 287.626C176.61 288.698 176.993 289.792 177.701 290.678C178.978 292.278 181.093 292.94 183.114 293.266C183.665 293.354 184.5 293.106 184.304 292.584C182.169 292.545 180.07 291.555 178.681 289.934C177.292 288.314 176.636 286.087 176.924 283.972C176.985 283.527 177.087 283.084 177.273 282.675C177.651 281.849 178.356 281.214 179.119 280.721C180.762 279.66 182.762 279.162 184.71 279.331C186.589 279.493 188.465 280.316 189.612 281.813C190.759 283.31 191.033 285.518 190.02 287.109C189.856 287.368 189.736 287.825 190.037 287.879C191.666 287.001 192.571 285.066 192.48 283.217C192.388 281.369 191.412 279.639 190.071 278.364C189.33 277.659 188.451 277.063 187.456 276.823C186.144 276.507 184.772 276.833 183.467 277.176C181.73 277.633 179.973 278.135 178.463 279.107ZM252.618 281.403C247.158 279.364 241.225 278.604 235.428 279.201C232.997 279.451 230.558 279.947 228.372 281.041C224.249 283.105 221.3 287.353 220.81 291.939C220.319 296.524 222.302 301.3 225.896 304.189C227.259 305.285 228.806 306.105 230.354 306.927C231.412 307.488 232.47 308.049 233.471 308.699C233.758 308.972 233.114 309.245 232.737 309.123C229.235 307.993 225.834 306.273 223.337 303.571C220.298 300.284 218.815 295.616 219.401 291.177C219.987 286.739 222.631 282.616 226.419 280.23C229.416 278.343 232.998 277.547 236.537 277.42C240.076 277.292 243.604 277.798 247.103 278.34C249.289 278.679 251.852 279.328 252.618 281.403ZM195.167 288.244C194.919 287.676 193.923 287.528 193.74 288.12C192.582 291.89 188.904 294.739 184.965 294.92C184.075 294.96 183.184 294.878 182.297 294.792C180.386 294.607 178.416 294.389 176.742 293.448C174.336 292.095 172.888 289.318 172.872 286.557C172.854 283.797 174.164 281.115 176.152 279.2C175.876 278.427 174.691 278.8 174.103 279.372C170.842 282.541 170.282 288.012 172.571 291.941C174.858 295.87 179.653 298.073 184.172 297.573C188.692 297.074 192.772 294.047 194.873 290.015C195.159 289.466 195.415 288.812 195.167 288.244ZM166.866 307.33C166.129 310.153 166.059 313.148 166.663 316.003C166.934 317.283 166.963 317.988 166.969 318.121C166.969 318.136 166.97 318.143 166.97 318.143C166.97 318.143 166.971 318.136 166.971 318.121C166.978 317.988 167.009 317.28 167.287 315.998C167.904 313.138 167.757 310.117 166.866 307.33ZM170.777 309.038C169.731 311.23 169.86 313.943 171.111 316.026C171.392 316.493 171.605 316.874 171.762 317.154V317.154C171.973 317.531 172.084 317.729 172.122 317.715C172.164 317.701 172.119 317.437 172.026 316.883C171.989 316.661 171.944 316.393 171.894 316.075L170.777 309.038ZM173.722 311.838C173.278 313.237 173.605 314.856 174.557 315.973C175.529 317.115 175.846 317.481 175.55 316.011C175.248 314.511 174.62 313.077 173.722 311.838ZM258.947 295.916C257.612 301.277 253.346 305.339 249.21 309.001C249.399 309.409 250.01 309.263 250.401 309.042C254.591 306.685 257.98 302.842 259.527 298.29C261.074 293.739 260.689 288.509 258.248 284.368C258.043 284.021 257.782 283.651 257.386 283.573C256.99 283.496 256.533 283.955 256.766 284.284C259.113 287.608 259.93 291.968 258.947 295.916ZM198.718 247.511C198.707 246.663 198.719 245.745 199.231 245.069C199.937 244.138 201.274 244.04 202.442 244.024C202.963 244.017 203.49 244.01 203.998 244.131C205.077 244.388 205.937 245.184 206.703 245.987C206.873 246.165 207.054 246.384 207.012 246.626C206.96 246.926 206.584 247.064 206.285 247.003C206.086 246.962 205.908 246.863 205.73 246.764H205.729C205.64 246.714 205.55 246.664 205.457 246.622C204.383 246.129 203.122 246.67 202.157 247.352C202.006 247.459 201.842 247.596 201.838 247.782C201.835 247.969 201.994 248.113 202.145 248.223C203.448 249.178 205.116 249.62 206.721 249.435C207.105 249.392 207.555 249.251 207.655 248.878C207.694 248.732 207.679 248.56 207.664 248.395C207.64 248.118 207.617 247.857 207.85 247.76C207.971 247.71 208.109 247.746 208.235 247.783C209.104 248.036 210.119 248.442 210.287 249.331C210.336 249.587 210.302 249.855 210.219 250.103C209.98 250.83 209.314 251.397 208.558 251.517C208.223 251.571 207.881 251.542 207.542 251.513C206.658 251.437 205.773 251.361 204.897 251.219C203.289 250.961 201.716 250.481 200.237 249.799C199.723 249.563 199.19 249.272 198.929 248.77C198.732 248.389 198.722 247.941 198.718 247.511ZM231.751 226.598C231.234 225.201 229.986 224.098 228.535 223.759C228.086 223.654 227.579 223.628 227.199 223.888C226.818 224.148 226.687 224.782 227.05 225.066C227.402 225.342 227.189 225.99 226.76 226.113C226.329 226.235 225.867 225.943 225.652 225.551C225.438 225.159 225.414 224.693 225.412 224.247C225.409 223.65 225.463 222.984 225.904 222.582C226.072 222.429 226.281 222.33 226.489 222.238C227.347 221.854 228.296 221.528 229.214 221.734C230.088 221.931 230.785 222.577 231.395 223.233C231.895 223.771 232.367 224.335 232.811 224.921C233.201 225.437 233.577 225.988 233.724 226.619C233.87 227.249 233.744 227.981 233.257 228.407C232.78 228.825 232.046 228.86 231.468 228.603C230.956 228.375 230.52 227.874 230.558 227.315C230.596 226.757 231.282 226.293 231.751 226.598ZM236.364 265.879C237.647 265.843 238.842 264.855 239.118 263.603C239.287 262.841 239.079 261.935 238.415 261.526C237.931 261.227 237.321 261.248 236.752 261.285C235.965 261.336 235.147 261.404 234.463 261.797C233.779 262.19 233.271 263.005 233.485 263.764C233.834 264.999 235.083 265.916 236.364 265.879ZM236.529 264.029C236.281 264.096 235.928 264.033 235.905 263.777C235.896 263.67 235.954 263.57 236.019 263.485C236.383 263.014 237.077 262.83 237.627 263.061C237.436 263.529 237.018 263.898 236.529 264.029ZM237.192 245.057C236.983 244.575 237.387 244.013 237.879 243.829C238.273 243.681 238.7 243.696 239.125 243.712C239.231 243.715 239.336 243.719 239.44 243.72C239.965 243.727 240.545 243.639 240.886 243.239C241.007 243.099 241.088 242.891 240.996 242.73C240.901 242.562 240.675 242.533 240.482 242.523C239.143 242.454 237.562 242.495 236.791 243.591C236.625 243.826 236.219 243.747 236.064 243.504C235.908 243.261 235.944 242.943 236.033 242.668C236.348 241.686 237.256 240.972 238.247 240.685C239.238 240.399 240.302 240.489 241.309 240.717C241.648 240.794 242 240.895 242.248 241.139C242.444 241.333 242.554 241.598 242.626 241.864C242.969 243.139 242.463 244.598 241.405 245.387C240.347 246.176 238.804 246.243 237.68 245.551C237.48 245.427 237.285 245.273 237.192 245.057ZM232.603 267.573C233.225 268.317 233.961 268.995 234.854 269.374C236.659 270.14 238.967 269.432 240.032 267.785C240.42 267.185 240.593 266.27 240.02 265.845C239.101 267.776 236.437 268.628 234.569 267.589C234.211 267.39 233.885 267.136 233.589 266.853C232.246 265.566 231.545 263.465 232.333 261.78C232.59 261.231 232.985 260.756 233.416 260.33C234.358 259.401 235.704 258.64 236.961 259.054C237.013 259.071 237.065 259.09 237.117 259.109C237.293 259.174 237.47 259.239 237.655 259.228C237.895 259.214 238.145 258.999 238.084 258.767C238.065 258.699 238.023 258.639 237.979 258.583C237.202 257.594 235.678 257.288 234.579 257.902C233.273 258.632 231.945 259.492 231.25 260.818C230.118 262.976 231.042 265.701 232.603 267.573ZM253.419 234.284C253.362 234.367 253.376 234.481 253.39 234.591C253.406 234.721 253.421 234.844 253.315 234.897C252.923 235.09 252.455 235.07 252.038 234.942C250.9 234.593 250.137 233.548 249.493 232.547C249.116 231.962 248.741 231.339 248.681 230.646C248.62 229.952 248.974 229.171 249.643 228.975C250.387 228.756 251.118 229.311 251.698 229.826C252.352 230.409 253.02 231.009 253.425 231.786C253.83 232.562 253.919 233.566 253.419 234.284ZM250.944 231.685C251.105 231.841 251.193 232.051 251.281 232.261C251.367 232.468 251.454 232.674 251.61 232.83C251.808 233.027 252.108 233.115 252.381 233.057C251.869 232.265 251.277 231.525 250.614 230.854C250.438 230.907 250.423 231.17 250.529 231.321C250.594 231.412 250.684 231.48 250.775 231.548C250.833 231.591 250.892 231.635 250.944 231.685ZM153.507 303.244C153.444 304.283 153.523 305.487 154.355 306.114C154.633 305.959 154.614 305.563 154.579 305.247C154.364 303.304 154.967 301.432 155.574 299.547C156.008 298.198 156.444 296.842 156.584 295.449C156.625 295.046 156.517 294.493 156.112 294.477C155.808 294.465 155.611 294.786 155.489 295.064C154.353 297.645 153.678 300.429 153.507 303.244ZM234.203 265.757C235.141 266.172 236.182 266.595 237.164 266.297C237.555 266.178 237.902 265.953 238.244 265.73C238.243 266.304 237.749 266.786 237.199 266.95C236.649 267.114 236.057 267.026 235.496 266.905C234.873 266.77 234.111 266.388 234.203 265.757ZM159.957 313.67C160.196 313.244 160.237 312.737 160.272 312.249L160.555 308.363C160.694 306.456 160.834 304.542 160.709 302.634C160.693 302.393 160.669 302.139 160.529 301.943C160.388 301.747 160.091 301.643 159.899 301.788C159.757 301.895 159.722 302.089 159.697 302.265C159.39 304.472 159.225 306.698 159.206 308.926C159.191 310.541 159.265 312.21 159.957 313.67ZM155.709 310.33C155.46 310.54 155.045 310.356 154.908 310.06C154.771 309.764 154.827 309.419 154.885 309.099C155.5 305.745 156.198 302.406 156.977 299.087C156.997 299.004 157.018 298.918 157.072 298.851C157.277 298.597 157.692 298.853 157.837 299.145C158.194 299.86 158.023 300.715 157.845 301.495L155.924 309.873C155.886 310.04 155.84 310.22 155.709 310.33ZM162.362 310.479C162.255 311.737 162.444 312.999 162.632 314.248C162.699 314.692 163.019 315.283 163.42 315.081L164.203 306.711C164.235 306.371 164.256 305.993 164.045 305.724C163.834 305.455 163.3 305.466 163.232 305.801L162.655 308.671C162.535 309.27 162.414 309.871 162.362 310.479ZM243.184 284.828C240.955 283.681 238.244 283.228 235.929 284.189C234.2 284.907 229.314 288.008 228.663 291.982C228.228 294.643 228.232 297.361 229.164 299.93L229.314 300.333C229.591 301.061 230.474 301.897 230.968 301.295C229.526 298.687 229.256 295.459 230.246 292.649C231.236 289.838 233.47 287.491 236.228 286.363C236.809 286.126 237.415 285.939 238.039 285.88C239.302 285.76 240.562 286.169 241.691 286.748C244.12 287.993 247.131 290.063 248.287 292.536C249.402 294.92 250.223 297.764 249.214 300.195C248.205 302.626 241.577 304.384 241.577 304.384L242.31 305.723C242.31 305.723 246.021 304.991 248.287 303.34C257.8 296.412 245.315 285.925 243.184 284.828Z" fill="#00160A"/>
<path fill-rule="evenodd" clip-rule="evenodd" d="M75.0125 250.615C71.6477 250.975 68.0843 250.197 65.4573 248.064C63.5968 246.554 62.2896 244.452 61.372 242.238C60.3759 239.834 59.8034 237.256 59.6883 234.657C59.6448 233.678 59.6681 232.681 59.9559 231.745C60.4291 230.203 61.5691 228.967 62.7324 227.851C65.208 225.477 68.1178 223.31 71.5109 222.811C73.8233 222.471 76.1753 222.935 78.4386 223.518C80.2165 223.975 81.9918 224.514 83.5903 225.415C87.1238 227.408 89.572 231.207 89.9262 235.248C90.2804 239.288 89.8446 241.965 84.3919 246.985C81.5586 248.835 78.3773 250.254 75.0125 250.615ZM80.946 237.932C80.4004 238.103 79.8562 238.407 79.2928 238.309C78.1422 238.106 77.9359 236.527 78.1913 235.387C78.9229 232.122 81.1984 229.239 84.2034 227.769C83.523 226.536 81.7162 226.445 80.4379 227.038C79.1601 227.631 78.1609 228.7 76.9251 229.376C76.3101 229.713 75.581 229.951 74.9122 229.741C73.8107 229.397 73.3906 227.955 73.7509 226.858C74.1116 225.763 75.011 224.945 75.8748 224.18C72.7452 224.29 69.6479 225.229 66.9843 226.877C64.8989 228.166 62.9209 230.281 63.198 232.718C64.9217 231.33 66.9458 230.317 69.0901 229.769C69.545 229.653 70.1161 229.594 70.4008 229.967C70.6161 230.25 70.5543 230.657 70.416 230.985C69.7305 232.61 67.715 233.155 66.465 234.4C66.3009 234.563 66.1433 234.752 66.1038 234.98C66.0257 235.428 66.4518 235.836 66.8997 235.91C67.3476 235.985 67.797 235.822 68.2216 235.661C69.1037 235.329 69.9858 234.996 70.8679 234.663C71.5069 234.423 72.2648 234.192 72.8328 234.571C73.42 234.963 73.4753 235.853 73.1434 236.477C72.8115 237.1 72.202 237.517 71.6153 237.91C70.2017 238.858 68.7881 239.805 67.3745 240.753C66.1909 241.546 64.865 242.616 64.9774 244.037C65.0833 245.373 66.5542 246.282 67.8923 246.196C69.2309 246.11 70.4089 245.292 71.3969 244.385C72.3844 243.477 73.2761 242.442 74.4232 241.746C75.1721 241.293 76.2401 241.041 76.8481 241.671C77.3178 242.157 77.2727 242.939 77.0964 243.592C76.5882 245.473 75.2141 247.102 73.4449 247.92C74.8843 248.251 76.3855 248.314 77.8473 248.103C78.6813 247.983 79.5441 247.751 80.147 247.163C80.75 246.575 80.9835 245.54 80.4607 244.879C79.6804 243.894 79.7113 242.453 80.2099 241.299C80.7084 240.146 81.5986 239.215 82.4706 238.31C82.2208 237.795 81.4917 237.76 80.946 237.932ZM87.6092 240.168C88.393 238.356 88.4214 236.307 88.2228 234.343C88.0034 232.171 87.2465 229.687 85.2 228.926C82.2016 230.171 79.8876 232.948 79.2041 236.121C79.1469 236.388 79.1018 236.675 79.2067 236.926C79.3115 237.178 79.6231 237.362 79.8648 237.235C80.6937 236.801 81.7137 236.555 82.5562 236.961C83.3988 237.368 83.8092 238.638 83.1267 239.279C82.3728 239.987 81.5986 240.723 81.1918 241.673C80.7849 242.624 80.8437 243.855 81.6098 244.55C82.1849 245.072 82.1864 246.097 81.6123 246.621C83.2443 246.144 84.4076 244.741 85.4655 243.41C86.2747 242.393 87.0929 241.36 87.6092 240.168ZM68.8215 230.799C67.1242 231.503 65.476 232.327 63.8947 233.263C63.5182 233.485 63.1382 233.721 62.8631 234.061C62.4917 234.519 62.3504 235.118 62.2359 235.697C61.865 237.567 61.674 239.581 62.4593 241.318C62.7101 241.873 63.0526 242.38 63.3936 242.884C63.4944 243.033 63.6084 243.192 63.7812 243.242C63.9535 243.292 64.1815 243.153 64.1409 242.978C64.0163 242.439 64.4247 241.931 64.8275 241.552C67.1885 239.33 70.3689 238.054 72.4923 235.604C72.1701 235.222 71.559 235.401 71.1 235.597C70.0061 236.065 68.8783 236.452 67.7286 236.755C67.1353 236.912 66.4741 237.039 65.933 236.75C65.1406 236.328 65.0119 235.172 65.4304 234.378C65.8489 233.583 66.6444 233.071 67.4115 232.605C68.1786 232.138 68.9837 231.652 69.4442 230.88C69.3601 230.661 69.0389 230.709 68.8215 230.799ZM74.632 245.685C75.3818 245.082 76.1925 244.371 76.2746 243.413C76.3172 242.911 75.9959 242.298 75.4948 242.346C75.3408 242.36 75.1999 242.437 75.0672 242.516C72.8855 243.82 71.4501 246.368 68.9887 247.002C69.6844 247.313 70.4094 247.558 71.1512 247.732C71.3721 247.784 71.6021 247.829 71.824 247.783C72.0829 247.73 72.2993 247.559 72.505 247.394C73.2138 246.825 73.9226 246.255 74.632 245.685ZM76.6607 224.851C76.1753 225.388 75.6899 225.924 75.2045 226.461C74.8199 226.887 74.407 227.448 74.6213 227.98C74.7789 228.371 75.2445 228.569 75.6656 228.537C76.0871 228.504 76.4707 228.289 76.8238 228.057C78.0824 227.231 79.2153 226.107 80.6841 225.777C79.6657 225.405 78.6473 225.034 77.6289 224.663C77.4171 224.586 77.1805 224.509 76.9718 224.595C76.8466 224.646 76.7514 224.75 76.6607 224.851Z" fill="#00160A"/>
<path fill-rule="evenodd" clip-rule="evenodd" d="M95.6115 160.713C95.4843 163.257 93.5215 166.012 90.9917 165.711C89.8502 164.391 88.9564 162.752 88.0733 161.132C86.377 158.021 84.7197 154.981 81.4172 154.404C78.1735 153.837 75.1528 156.223 73.1327 158.823C70.2072 162.589 68.3163 167.151 67.7205 171.882C67.3699 174.664 68.5109 178.521 71.2976 178.215C74.481 177.865 76.7447 180.37 79.0475 182.916C81.1786 185.273 83.3431 187.667 86.3 187.869C89.8208 188.11 92.6971 190.219 95.6085 192.354C97.5525 193.781 99.5128 195.218 101.691 196.118C105.789 197.811 110.516 197.484 114.699 196.014C118.882 194.543 122.605 192.01 126.129 189.318L126.313 189.177C128.237 187.706 130.25 186.166 132.642 185.842C144.872 184.185 156.247 177.012 163.012 166.69C172.604 174.357 186.014 176.978 197.787 173.485C199.784 172.892 201.795 172.098 203.276 170.633C204.757 169.168 205.597 166.892 204.869 164.94C204.073 162.806 201.693 161.663 199.432 161.387C198.192 161.237 196.942 161.282 195.692 161.326H195.691C194.661 161.363 193.629 161.4 192.602 161.327C186.384 160.887 181.206 156.598 176.497 152.513C183.32 150.42 188.851 145.164 192.503 139.033C196.155 132.903 198.113 125.92 199.6 118.94C200.383 115.268 200.964 111.13 198.866 108.016C197.926 106.622 196.549 105.603 195.177 104.587C193.632 103.444 192.093 102.305 191.192 100.64C189.459 97.4386 186.082 95.5401 182.879 93.8103C174.495 89.2843 164.866 84.6255 155.831 87.6482C152.312 88.8257 149.272 91.0819 146.308 93.3148C141.385 97.0231 136.112 101.373 135.175 107.463C127.122 103.861 116.702 106.738 111.639 113.964C110.481 115.617 109.592 117.439 108.704 119.26C107.658 121.403 106.614 123.545 105.133 125.403C99.1865 122.693 93.1273 120.23 86.9764 118.022C84.2495 117.044 80.9916 116.179 78.6417 117.873C76.7574 119.232 76.1793 121.899 76.7326 124.155C77.2854 126.411 78.7623 128.324 80.3456 130.024C83.7813 133.711 87.9076 136.753 92.4468 138.943C92.5933 139.014 92.7407 139.084 92.8887 139.154C94.3104 139.832 95.7711 140.528 96.7175 141.77C97.7628 143.143 97.8276 145.439 96.3624 146.349C94.1989 147.694 93.8007 150.712 94.244 153.221C94.3955 154.078 94.6179 154.926 94.8403 155.775C95.268 157.408 95.6951 159.038 95.6115 160.713ZM154.353 174.128C148.901 179.852 141.229 183.202 133.385 184.18C125.54 185.16 117.53 183.887 110.036 181.368C112.052 181.367 113.509 178.728 112.437 177.021C108.307 181.836 102.011 184.09 96.0113 186.149C90.5909 188.009 84.1122 186.658 80.1308 182.537C76.1494 178.416 75.0722 171.653 77.8721 166.653C79.0891 164.479 81.1532 162.588 83.6349 162.374C86.1171 162.161 88.7892 164.219 88.5592 166.699C87.178 166.459 85.7249 167.632 85.6676 169.033C91.0104 168.457 96.033 165.396 98.9925 160.911C100.014 159.363 100.791 157.677 101.567 155.989C102.089 154.856 102.611 153.723 103.208 152.629C104.693 149.908 106.826 147.315 109.782 146.38C112.154 145.63 114.718 146.046 117.17 146.469L128.062 148.347C128.877 147.643 127.557 146.515 126.503 146.295C123.099 145.584 119.647 145.145 116.195 144.707C112.994 144.301 109.793 143.894 106.629 143.27C100.053 141.973 93.444 139.599 88.6575 134.907C91.9042 133.039 94.3742 129.866 95.3875 126.26C95.5927 125.53 95.1043 124.332 94.512 124.805C93.8351 127.145 93.1015 129.587 91.4057 131.337C89.7098 133.086 86.7332 133.855 84.8139 132.353C82.3221 130.405 79.7027 128.279 78.7172 125.273C77.7317 122.268 79.2907 118.231 82.4326 117.862C83.8426 117.697 85.2213 118.279 86.5214 118.849L99.6405 124.6C103.545 126.312 107.508 128.041 111.726 128.661C114.687 129.098 117.699 128.975 120.69 128.852L129.169 128.502C129.515 128.488 129.871 128.471 130.19 128.336C131.042 127.972 131.331 126.932 131.519 126.025C133.794 115.045 136.851 103.459 145.121 95.8876C148.822 92.4996 153.432 90.1142 158.335 89.0502C163.168 88.0009 168.501 88.3094 172.661 90.9826C165.681 91.4964 158.903 94.4396 153.763 99.1896C151.603 96.8843 147.583 98.7685 145.861 101.417C143.191 105.522 143.239 111.224 145.979 115.283C148.285 118.7 149.14 122.777 149.998 126.863C150.785 130.619 151.575 134.382 153.494 137.648C156.53 142.816 162.183 146.133 168.088 147.161C173.992 148.189 180.113 147.115 185.724 145.01C179.444 151.275 169.411 153.442 161.105 150.327C160.499 150.1 159.897 149.847 159.294 149.593H159.294C157.385 148.79 155.47 147.983 153.423 148.007C154.622 149.277 156.154 150.23 157.823 150.745C155.899 153.978 153.88 157.154 151.769 160.269C151.499 160.667 151.192 161.092 150.73 161.226C150.215 161.376 149.678 161.12 149.209 160.861C145.329 158.716 141.851 155.847 139.009 152.444L133.323 159.361C136.241 162.927 139.652 166.09 143.429 168.729C138.402 174.94 130.786 178.985 122.825 179.672C131.065 180.092 139.408 176.227 144.415 169.669C147.585 171.449 150.916 172.944 154.353 174.128ZM180.413 113.312C182.234 111.327 182.908 108.491 182.753 105.802C182.597 103.112 181.693 100.526 180.691 98.0248C183.3 97.7157 185.95 98.6996 188.027 100.306C190.105 101.913 191.665 104.1 192.945 106.393C194.497 109.173 195.687 112.18 196.203 115.321C197.419 122.719 194.823 130.261 191.129 136.785C190.412 138.051 189.64 139.309 188.593 140.321C187.539 141.339 186.242 142.071 184.913 142.689C179.427 145.237 173.117 145.973 167.193 144.754C170.975 141.605 173.646 137.267 175.347 132.649C177.048 128.032 177.826 123.124 178.275 118.223L178.277 118.196C178.39 116.96 178.509 115.661 179.214 114.64C179.447 114.303 179.735 114.01 180.024 113.717C180.155 113.583 180.287 113.45 180.413 113.312ZM173.569 133.724C171.937 137.541 169.409 141.046 165.981 143.389C165.58 143.663 165.149 143.928 164.666 143.984C164.239 144.034 163.812 143.917 163.403 143.787C160.489 142.868 157.736 141.237 155.866 138.82C155.188 137.943 154.634 136.976 154.14 135.983C150.542 128.753 150.189 119.981 153.196 112.485C153.34 112.127 153.545 111.725 153.923 111.65C154.413 111.553 154.788 112.053 155.063 112.47C157.309 115.873 161.509 117.596 165.582 117.775C169.656 117.953 173.663 116.795 177.526 115.49C176.822 117.211 176.643 119.086 176.465 120.944L176.465 120.947C176.443 121.18 176.42 121.412 176.397 121.645C175.983 125.775 175.201 129.907 173.569 133.724ZM172.739 98.2614C174.824 97.7876 177.256 97.6569 178.849 99.0832C179.363 99.5438 179.746 100.134 180.06 100.749C182.033 104.604 181.26 109.682 178.23 112.775C174.726 116.352 169.182 116.942 164.194 116.517C162.404 116.365 160.563 116.089 159.035 115.145C157.058 113.922 155.887 111.769 154.804 109.713C159.611 104.341 165.711 99.8589 172.739 98.2614ZM189.598 163.098C188.944 164.749 188.284 166.423 188.07 168.186C187.856 169.949 188.134 171.842 189.207 173.257C180.308 173.75 171.265 171.006 164.141 165.652C166.438 162.4 168.253 158.809 169.506 155.03C170.001 153.537 171.891 152.914 173.425 153.26C174.837 153.578 176.024 154.484 177.18 155.368L177.322 155.476C177.374 155.516 177.426 155.556 177.479 155.596C181.266 158.471 185.44 160.79 189.598 163.098ZM127.417 185.648C126.014 187.228 124.337 188.54 122.623 189.777C119.047 192.359 115.148 194.706 110.801 195.456C104.431 196.555 97.549 193.808 93.6877 188.624L107.581 183.441C107.914 183.317 108.259 183.191 108.613 183.211C108.813 183.222 109.006 183.28 109.199 183.337C109.327 183.375 109.456 183.414 109.587 183.439C110.034 183.523 110.484 183.449 110.936 183.375C111.217 183.328 111.499 183.282 111.781 183.273C112.821 183.242 113.777 183.717 114.722 184.187C114.963 184.307 115.202 184.426 115.442 184.537C119.126 186.231 123.374 185.957 127.417 185.648ZM107.357 126.202C107.258 125.983 107.362 125.73 107.465 125.514C110.31 119.555 114.074 114.035 118.583 109.211C121.755 113.614 123.866 118.777 124.688 124.141C124.853 125.213 124.675 126.696 123.599 126.83C118.439 127.473 113.189 127.386 108.053 126.571C107.782 126.528 107.469 126.452 107.357 126.202ZM126.79 125.834C125.727 119.993 123.522 114.363 120.334 109.354C123.032 107.934 126.221 107.911 129.27 107.92C131.195 107.927 133.297 107.994 134.764 109.241L130.958 120.472C130.312 122.378 129.658 124.338 129.739 126.349L127.333 126.388C127.248 126.389 127.159 126.39 127.08 126.358C126.888 126.277 126.827 126.039 126.79 125.834ZM157.746 154.574C158.385 153.487 158.994 152.325 159.059 151.066C161.937 152.361 165.107 153.002 168.263 152.929C168.758 152.917 168.74 153.681 168.538 154.133C167.923 155.5 167.308 156.869 166.597 158.189C165.867 159.543 165.039 160.842 164.211 162.139L162.227 165.249C161.956 165.674 161.675 166.11 161.272 166.413C160.189 167.227 158.643 166.835 157.408 166.28C155.358 165.359 153.471 164.077 151.861 162.51C154.098 160.084 156.074 157.418 157.746 154.574ZM83.3086 157.261C84.2627 158.222 84.8859 159.455 85.4934 160.665L82.6322 161.073C81.6787 161.209 80.7013 161.353 79.8587 161.819C79.0389 162.273 78.4066 163 77.8503 163.754C75.5232 166.906 74.2337 170.811 74.2256 174.73C74.2226 176.145 72.5495 177.155 71.1805 176.796C69.8115 176.437 68.8818 175.077 68.6452 173.682C68.408 172.286 68.7414 170.86 69.1594 169.508C70.6308 164.749 73.2619 160.256 77.1551 157.149C77.8989 156.555 78.7207 156 79.6606 155.85C80.9977 155.636 82.3551 156.299 83.3086 157.261ZM203.461 165.226C203.792 165.651 204.037 166.169 204.022 166.707C204.003 167.404 203.562 168.014 203.087 168.523C200.325 171.483 196.08 172.491 192.06 172.966C191.795 172.997 191.517 173.025 191.268 172.928C191.064 172.848 190.9 172.691 190.754 172.527C189.785 171.436 189.4 169.911 189.479 168.453C189.558 166.996 190.061 165.592 190.687 164.273C190.819 163.996 190.972 163.704 191.24 163.556C191.455 163.436 191.711 163.427 191.956 163.421L196.822 163.293C198.02 163.262 199.231 163.232 200.404 163.478C201.576 163.726 202.725 164.28 203.461 165.226ZM149.234 119.252C147.251 115.578 145.768 111.635 144.838 107.566L145.639 105.427C146.63 103.508 147.879 101.723 149.342 100.136C149.938 99.4885 150.97 99.4171 151.793 99.7287C152.615 100.04 153.277 100.66 153.915 101.265L156.788 103.986C156.873 104.067 156.963 104.154 156.991 104.269C157.045 104.484 156.867 104.68 156.706 104.833C155.361 106.112 154.166 107.554 153.207 109.144C151.759 111.547 150.875 114.239 150.002 116.906L149.234 119.252ZM156.576 98.6196C162.425 95.4869 168.822 92.5391 175.42 93.2439C178.869 93.6122 182.169 94.9848 185.042 96.9283C176.811 94.813 167.637 96.7642 160.981 102.047C159.952 102.863 158.408 103.75 157.492 102.808C157.257 102.567 157.103 102.228 156.953 101.898C156.713 101.37 156.483 100.864 155.945 100.814C155.433 100.767 155.204 100.071 155.422 99.604C155.639 99.1374 156.122 98.8628 156.576 98.6196ZM140.508 155.916C141.662 157.026 142.934 158.005 144.202 158.982L149.327 162.929C147.749 164.319 146.205 165.748 144.696 167.215C141.106 165.087 137.902 162.311 135.284 159.06C136.717 157.568 138.092 156.02 139.407 154.422C139.613 155.012 140.057 155.483 140.508 155.916ZM107.56 145.241C104.862 147.349 102.073 149.568 100.588 152.654C100.298 153.257 100.058 153.891 99.8194 154.524V154.525C99.3112 155.871 98.8045 157.213 97.8185 158.238C97.3813 158.11 97.2095 157.595 97.1031 157.152L96.0766 152.882C95.9378 152.305 95.7985 151.713 95.877 151.125C95.9555 150.541 96.2438 150.008 96.527 149.491L99.5392 143.986C99.6066 143.863 99.676 143.737 99.7839 143.648C100.05 143.426 100.445 143.497 100.781 143.579L107.56 145.241ZM151.393 164.153C153.233 166.045 155.52 167.499 158.014 168.363C158.48 167.924 159.382 168.166 159.565 168.78C158.707 169.893 157.765 170.942 156.75 171.913C156.296 172.348 155.57 172.256 154.958 172.116C151.97 171.43 149.091 170.267 146.465 168.686C146.289 168.58 146.091 168.429 146.108 168.225C146.12 168.088 146.229 167.981 146.33 167.887L150.018 164.49C150.404 164.134 151.027 163.776 151.393 164.153ZM198.48 116.703C198.446 117.12 198.387 117.584 198.062 117.846C198.059 114.577 197.248 111.311 195.722 108.42C195.445 107.895 195.145 107.382 194.81 106.892C194.768 106.83 194.724 106.767 194.68 106.703C194.343 106.217 193.999 105.72 193.916 105.139L197.868 109.267C198.232 109.647 198.606 110.043 198.778 110.54C198.944 111.019 198.904 111.542 198.863 112.047L198.48 116.703ZM193.939 111.457L193.044 110.329C192.06 109.088 190.852 107.732 189.267 107.731C188.348 107.73 187.503 108.201 186.705 108.658L185.466 109.369C185.127 109.563 184.78 109.765 184.541 110.073C183.853 110.964 184.355 112.265 185.005 113.183C185.456 113.819 185.995 114.429 186.711 114.734C187.638 115.13 188.703 114.955 189.674 114.687C191.004 114.321 192.289 113.791 193.491 113.115C193.875 112.899 194.3 112.583 194.281 112.142C194.269 111.883 194.1 111.66 193.939 111.457ZM186.121 112.327C185.967 112.082 185.808 111.82 185.805 111.531C185.8 110.965 186.365 110.585 186.862 110.314L188.628 109.35C188.895 109.205 189.174 109.056 189.477 109.035C189.781 109.015 190.118 109.161 190.22 109.448C190.521 110.293 191.264 110.968 192.134 111.187C192.416 111.258 192.506 111.649 192.373 111.907C192.24 112.165 191.967 112.316 191.707 112.446C190.776 112.908 189.803 113.284 188.803 113.569C188.403 113.684 187.979 113.784 187.574 113.687C186.91 113.53 186.483 112.905 186.121 112.327ZM173.556 121.048C171.804 121.252 171.471 124.41 172.284 126.095C172.452 126.442 172.714 126.798 173.095 126.847C173.748 126.93 174.108 126.124 174.253 125.482L174.256 125.467C174.447 124.621 175.297 120.845 173.556 121.048ZM164.521 125.191C164.871 124.374 164.988 123.458 164.854 122.579C164.792 122.171 164.669 121.757 164.396 121.446C164.123 121.136 163.672 120.956 163.283 121.096C162.932 121.222 162.711 121.567 162.544 121.901C161.956 123.083 161.722 124.437 161.879 125.748C161.952 126.358 162.72 126.69 163.303 126.498C163.886 126.305 164.279 125.755 164.521 125.191ZM169.685 123.321C169.957 123.096 170.3 123.505 170.411 123.84C170.773 124.943 171.073 126.066 171.31 127.203C171.458 127.921 171.582 128.667 171.423 129.383C171.199 130.393 170.431 131.214 169.541 131.74C168.651 132.266 167.637 132.538 166.638 132.805C166.374 132.875 166.042 132.925 165.871 132.712C165.727 132.531 165.798 132.247 165.963 132.084C166.124 131.924 166.349 131.85 166.566 131.779L166.579 131.775C168.136 131.263 169.801 130.339 170.163 128.74C170.363 127.861 170.12 126.978 169.877 126.091V126.091C169.655 125.283 169.432 124.472 169.542 123.658C169.558 123.534 169.589 123.401 169.685 123.321ZM158.806 119.724C158.396 119.156 158.724 118.293 159.319 117.922C159.914 117.552 160.666 117.557 161.361 117.646C162.191 117.753 163.007 117.965 163.785 118.273C163.95 118.339 164.129 118.422 164.201 118.585C164.336 118.886 163.987 119.215 163.657 119.215C163.392 119.215 163.151 119.087 162.913 118.961C162.856 118.93 162.798 118.899 162.741 118.871C161.442 118.227 159.721 118.6 158.806 119.724ZM173.769 119.529C174.386 119.426 175.04 119.568 175.558 119.918C175.775 120.065 176.085 119.819 176.087 119.557C176.088 119.296 175.893 119.076 175.688 118.914C175.245 118.566 174.694 118.358 174.132 118.326C173.769 118.306 173.368 118.376 173.134 118.654C172.9 118.932 172.971 119.455 173.321 119.552C173.446 119.586 173.577 119.563 173.706 119.54C173.727 119.536 173.748 119.532 173.769 119.529ZM166.112 135.558C166.286 135.46 166.515 135.631 166.541 135.829C166.567 136.027 166.454 136.216 166.325 136.368C165.678 137.131 164.563 137.366 163.579 137.188C162.594 137.009 161.712 136.479 160.881 135.921C160.491 135.658 160.107 135.387 159.728 135.108C159.335 134.818 158.917 134.463 158.871 133.978C158.824 133.492 159.445 133.004 159.801 133.337C160.674 134.159 161.566 134.995 162.652 135.503C163.737 136.012 165.068 136.147 166.112 135.558ZM147.425 139.45C143.788 131.546 142.271 122.68 143.073 114.017C143.087 113.868 143.106 113.71 143.204 113.598C143.342 113.44 143.625 113.447 143.755 113.611C143.708 118.377 143.664 123.171 144.442 127.872C145.22 132.574 146.872 137.226 149.888 140.916C149.978 141.026 150.069 141.136 150.161 141.246C150.68 141.868 151.203 142.495 151.497 143.245C149.536 143.208 148.245 141.232 147.425 139.45ZM150.991 103.759C150.924 103.687 150.846 103.622 150.755 103.583C150.493 103.47 150.185 103.586 149.956 103.756C149.04 104.434 149.036 106.018 149.949 106.699C150.394 106.32 150.85 105.926 151.111 105.403C151.372 104.88 151.388 104.189 150.991 103.759ZM158.883 112.106C159.869 112.907 160.993 113.537 162.191 113.962C166.055 115.332 170.398 114.472 174.126 112.768C174.696 112.507 175.423 112.645 175.858 113.095C173.464 114.801 170.531 115.739 167.591 115.738C166.943 115.738 166.295 115.693 165.649 115.637C164.328 115.521 162.996 115.352 161.753 114.889C160.509 114.427 159.349 113.643 158.645 112.519L158.883 112.106ZM200.962 164.185C200.923 164.317 201.029 164.443 201.126 164.539L202.595 165.996C202.755 165.577 202.575 165.089 202.267 164.763C201.959 164.437 201.543 164.239 201.137 164.047C201.058 164.051 200.984 164.109 200.962 164.185Z" fill="#00160A"/>
<path fill-rule="evenodd" clip-rule="evenodd" d="M297.387 107.51C299.186 108.134 300.88 106.512 302.43 105.407C304.828 103.697 307.957 103.05 310.837 103.669C311.315 103.772 311.815 103.926 312.13 104.3C312.417 104.642 312.499 105.108 312.545 105.553C312.829 108.273 312.149 111.084 310.653 113.374C309.925 114.488 309.013 115.48 308.362 116.64C307.712 117.801 307.34 119.219 307.804 120.466C310.56 127.881 309.413 136.627 304.837 143.08C300.261 149.534 292.388 153.51 284.478 153.362C280.433 153.287 276.47 152.207 272.659 150.849C270.996 150.257 269.168 149.607 267.517 150.233C264.505 151.374 261.335 152.095 258.125 152.367C257.328 152.435 256.496 152.47 255.762 152.155C254.662 151.685 253.998 150.492 253.871 149.302C253.745 148.112 254.074 146.922 254.49 145.799C255.743 142.415 259.633 137.128 261.989 135.91C261.798 131.8 261.819 127.642 262.708 123.624C263.596 119.607 265.41 115.709 268.384 112.866C269.613 111.692 271.019 110.715 272.492 109.867C279.941 105.579 289.265 104.696 297.387 107.51ZM286.043 107.177C280.347 107.31 274.802 109.598 270.349 113.153C269.042 114.197 267.813 115.357 266.831 116.712C266.058 117.78 265.446 118.958 264.935 120.174C261.902 127.387 262.594 136.054 266.734 142.695C266.824 142.839 266.928 142.993 267.089 143.049C267.287 143.118 267.502 143.018 267.687 142.918C280.689 135.99 292.262 126.393 301.478 114.899C301.698 114.625 301.929 114.307 301.881 113.96C301.846 113.699 301.66 113.487 301.478 113.297C297.545 109.173 291.739 107.043 286.043 107.177ZM294.007 150.239C300.182 147.34 304.873 141.611 306.878 135.09C307.333 133.613 307.659 132.087 307.691 130.543C307.718 129.244 307.537 127.95 307.356 126.664C307.094 124.799 306.832 122.934 306.57 121.069C306.5 120.574 306.024 119.921 305.676 120.279C296.013 130.223 285.463 139.303 274.19 147.376C273.815 147.645 273.402 147.977 273.382 148.438C273.358 148.972 273.868 149.359 274.33 149.625C280.24 153.033 287.831 153.138 294.007 150.239ZM255.914 149.48C256.364 150.201 257.338 150.348 258.186 150.371C262.64 150.495 267.045 149.19 271.03 147.197C275.014 145.204 278.621 142.538 282.125 139.788C286.799 136.119 291.334 132.274 295.753 128.302C301.226 123.383 306.604 118.165 310.198 111.743C310.893 110.501 311.534 109.139 311.425 107.72C311.317 106.301 310.184 104.867 308.762 104.923C305.743 105.04 302.776 106.201 300.478 108.162C300.021 108.552 300.344 109.383 300.907 109.593C301.469 109.805 302.096 109.595 302.646 109.352C303.195 109.11 303.767 108.826 304.364 108.892C305.276 108.994 305.924 109.928 305.979 110.844C306.033 111.76 305.628 112.64 305.151 113.424C304.267 114.875 303.113 116.139 301.947 117.374C291.585 128.353 279.63 137.828 266.575 145.409C265.399 146.092 264.209 146.762 262.944 147.259C262.28 147.52 261.519 147.73 260.872 147.431C259.809 146.942 259.724 145.451 260.043 144.326C260.521 142.637 261.555 141.109 262.946 140.037C262.682 139.295 262.419 138.553 262.155 137.811C258.723 140.004 256.314 143.734 255.726 147.765C255.642 148.346 255.603 148.981 255.914 149.48ZM265.675 144.387C265.7 144.311 265.655 144.231 265.612 144.163C265.169 143.458 264.725 142.754 264.282 142.049C264.081 141.73 263.693 141.369 263.392 141.596C262.308 142.412 261.532 143.628 261.248 144.955C261.192 145.217 261.159 145.509 261.302 145.736C261.567 146.158 262.201 146.064 262.67 145.896C263.67 145.538 264.633 145.077 265.539 144.523C265.596 144.489 265.655 144.45 265.675 144.387ZM304.253 110.846C304.209 110.663 303.991 110.583 303.802 110.575C303.231 110.55 302.634 111.02 302.671 111.591C302.706 112.162 303.555 112.521 303.909 112.072C304.017 111.937 304.062 111.764 304.104 111.597C304.146 111.431 304.189 111.265 304.231 111.099C304.252 111.016 304.274 110.929 304.253 110.846Z" fill="#00160A"/>
</g>
<defs>
<clipPath id="clip0_72_2476">
<rect width="380" height="380" fill="white"/>
</clipPath>
</defs>
</svg>
