<svg width="838" height="824" viewBox="0 0 838 824" fill="none" xmlns="http://www.w3.org/2000/svg">
<path fill-rule="evenodd" clip-rule="evenodd" d="M147.904 555.49C116.671 508.231 164.227 446.375 164.438 389.967C164.641 335.713 115.302 273.406 149.12 230.678C184.985 185.362 267.414 226.139 317.429 196.663C366.603 167.682 370.491 85.5543 424.97 68.1023C477.835 51.1676 539.434 77.3696 582.914 111.617C624.6 144.451 640.106 198.998 655.242 249.476C667.788 291.317 650.337 336.04 662.765 377.916C681.234 440.146 770.089 491.375 744.779 551.171C720.735 607.978 628.849 587.57 568.115 601.535C525.032 611.442 483.452 620.21 439.225 621.429C394.864 622.652 352.248 618.471 308.982 608.677C252.846 595.971 179.387 603.127 147.904 555.49Z" fill="#65DC7F" fill-opacity="0.1"/>
<mask id="mask0_2885_78112" style="mask-type:luminance" maskUnits="userSpaceOnUse" x="178" y="80" width="500" height="500">
<path d="M678 80H178V580H678V80Z" fill="white"/>
</mask>
<g mask="url(#mask0_2885_78112)">
<path d="M247.212 248.292C247.212 248.292 289.874 210.963 342.311 228.738C394.749 246.513 435.633 327.392 486.293 330.058C536.953 332.725 584.057 305.173 624.052 329.17C664.047 353.167 671.158 457.154 594.723 467.819C518.289 478.483 475.628 440.267 442.743 442.044C409.858 443.821 329.869 483.816 266.766 466.041C203.663 448.266 146.782 325.615 247.212 248.292Z" fill="#9EF3B1" fill-opacity="0.6"/>
<mask id="mask1_2885_78112" style="mask-type:luminance" maskUnits="userSpaceOnUse" x="-22" y="-110" width="919" height="919">
<path d="M-21.1016 -109.559H896.898V808.441H-21.1016V-109.559Z" fill="white"/>
</mask>
<g mask="url(#mask1_2885_78112)">
<mask id="mask2_2885_78112" style="mask-type:luminance" maskUnits="userSpaceOnUse" x="-66" y="-143" width="1024" height="1024">
<path d="M-65.6211 -53.5176L817.937 -142.705L957.412 791.141L73.8537 880.329L-65.6211 -53.5176Z" fill="white"/>
</mask>
<g mask="url(#mask2_2885_78112)">
<mask id="mask3_2885_78112" style="mask-type:luminance" maskUnits="userSpaceOnUse" x="581" y="276" width="32" height="74">
<path d="M592.785 276.718C592.785 276.718 583.262 311.912 583.54 313.84C585.186 325.263 575.468 322.675 588.159 348.575C589.566 351.449 595.115 345.086 596.501 343.865C598.641 341.98 611.115 306.897 612.455 298.034C613.794 289.172 592.785 276.718 592.785 276.718Z" fill="white"/>
</mask>
<g mask="url(#mask3_2885_78112)">
<path d="M588.899 305.512C588.899 305.512 581.652 325.212 581.054 323.56C580.457 321.907 562.629 297.198 562.629 297.198L555.835 300.585C555.835 300.585 573.406 337.501 581.409 342.949C581.409 342.949 582.189 343.905 584.242 343.388C586.295 342.872 599.273 322.682 599.273 322.682L588.899 305.512Z" fill="#FEDDAB"/>
<path d="M596.881 282.299C596.881 282.299 591.732 285.28 589.803 289.839C587.875 294.398 583.538 314.706 583.538 314.706C583.538 314.706 589.148 322.663 599.192 324.829L607.616 296.734L596.881 282.299Z" fill="#E87E5E"/>
</g>
</g>
<mask id="mask4_2885_78112" style="mask-type:luminance" maskUnits="userSpaceOnUse" x="-100" y="-168" width="1102" height="1102">
<path d="M-99.9297 6.57031L757.654 -167.503L1001.05 759.401L143.463 933.474L-99.9297 6.57031Z" fill="white"/>
</mask>
<g mask="url(#mask4_2885_78112)">
<mask id="mask5_2885_78112" style="mask-type:luminance" maskUnits="userSpaceOnUse" x="507" y="275" width="79" height="99">
<path d="M579.302 324.197C564.819 306.559 540.782 274.205 524.725 275.992C514.245 277.157 498.645 330.255 514.238 355.289C515.968 358.066 567.782 374.928 569.04 373.549C570.983 371.421 576.029 361.877 580.669 354.736C586.57 345.652 589.077 336.1 579.302 324.197Z" fill="white"/>
</mask>
<g mask="url(#mask5_2885_78112)">
<path d="M544.671 290.89L528.151 290.467C528.151 290.467 528.571 292.881 530.132 293.135C531.694 293.389 531.694 293.389 531.694 293.389C531.694 293.389 537.857 302.185 539.8 302.92C541.743 303.654 552.92 306.309 552.92 306.309L552.427 294.665L544.671 290.89Z" fill="#FF7D56"/>
<path d="M560.032 302.32C560.032 302.32 559.566 301.193 556.249 296.958C552.572 292.264 551.481 290.257 551.481 290.257C551.481 290.257 543.459 288.541 541.876 287.214C540.293 285.886 539.528 285.762 539.528 285.762C539.528 285.762 538.923 288.874 541.573 290.54C544.224 292.205 546.501 293.399 546.501 293.399C546.501 293.399 547.907 299.389 549.385 302.099C550.862 304.809 553.326 305.785 553.326 305.785L560.032 302.32Z" fill="#FEDDAB"/>
<path d="M586.24 304.923C586.24 304.923 580.976 325.499 580.221 323.899C579.466 322.298 559.347 299.285 559.347 299.285L552.934 303.399C552.934 303.399 573.994 338.722 582.473 343.373C582.473 343.373 583.341 344.254 585.328 343.521C587.315 342.788 598.222 321.123 598.222 321.123L586.24 304.923Z" fill="#FEDDAB"/>
<path d="M591.826 280.933C591.826 280.933 586.996 284.468 585.524 289.253C584.052 294.038 581.726 314.906 581.726 314.906C581.726 314.906 588.085 322.318 598.287 323.445L603.917 294.323L591.826 280.933Z" fill="#E87E5E"/>
<path d="M541.837 294.919L531.633 293.74C531.633 293.74 533.112 295.895 533.909 296.458C534.706 297.021 541.964 298.303 541.964 298.303" stroke="#0B132A" stroke-width="0.8721" stroke-miterlimit="10"/>
<path d="M533.785 296.25C533.785 296.25 535.533 299.116 536.127 299.535C536.721 299.954 542.993 300.699 542.993 300.699" stroke="#0B132A" stroke-width="0.8721" stroke-miterlimit="10"/>
<path d="M542.906 291.795L546.482 293.754L548.503 292.698" stroke="#0B132A" stroke-width="0.8721" stroke-miterlimit="10"/>
</g>
</g>
<path d="M660.121 524.647C660.121 527.612 631.492 530.015 596.177 530.015C560.862 530.015 532.234 527.612 532.234 524.647C532.234 521.681 560.862 519.277 596.177 519.277C631.492 519.277 660.121 521.681 660.121 524.647Z" fill="#999999"/>
<path d="M582.02 413.355L572.258 461.68L591.294 462.168C591.294 462.168 596.175 419.214 594.223 419.214C592.27 419.214 582.02 413.355 582.02 413.355Z" fill="#6C0B4C"/>
<path d="M626.275 517.65C626.275 517.65 619.117 525.135 616.188 526.761C616.839 528.063 627.251 528.063 631.156 526.11C635.061 524.158 637.99 519.602 637.99 519.602L637.664 524.483H639.617C639.617 524.483 641.569 517.649 641.569 516.023C641.569 514.396 639.617 512.118 639.617 512.118L626.275 517.65Z" fill="#704A32"/>
<path d="M623.348 421.328L630.506 509.19L638.967 508.538C638.967 508.538 648.729 444.108 644.825 421.98C640.92 399.851 623.348 421.328 623.348 421.328Z" fill="#FEDDAB"/>
<path d="M630.504 509.19C630.504 509.19 627.9 516.024 624.321 519.277C620.741 522.531 629.853 522.531 633.758 519.277C637.663 516.024 637.989 514.071 639.29 513.42C640.591 512.769 638.964 508.539 638.964 508.539L630.504 509.19Z" fill="#FEDDAB"/>
<path d="M567.518 516.174C567.518 516.174 559.2 522.345 556.039 523.455C556.462 524.849 566.726 526.603 570.904 525.337C575.082 524.07 578.737 520.073 578.737 520.073L577.593 524.83L579.518 525.159C579.518 525.159 582.594 518.752 582.868 517.148C583.143 515.545 581.602 512.971 581.602 512.971L567.518 516.174Z" fill="#704A32"/>
<path d="M580.866 420.737L573.113 508.548L581.562 509.333C581.562 509.333 602.046 447.469 601.927 424.999C601.808 402.529 580.866 420.737 580.866 420.737Z" fill="#FEDDAB"/>
<path d="M573.116 508.548C573.116 508.548 569.397 514.845 565.32 517.45C561.244 520.054 570.225 521.589 574.623 519.04C579.021 516.491 579.67 514.622 581.063 514.199C582.456 513.777 581.565 509.333 581.565 509.333L573.116 508.548Z" fill="#FEDDAB"/>
<path d="M592.271 345.02C592.271 345.02 592.759 352.829 592.759 355.758C592.759 355.758 581.045 412.379 580.557 425.559C580.069 438.738 589.831 465.584 589.831 465.584C589.831 465.584 631.809 464.609 645.476 461.679L646.941 433.369C646.941 433.369 648.893 384.069 646.941 369.913C644.988 355.758 636.69 348.437 636.69 348.437L634.25 341.603L592.271 345.02Z" fill="#CB128D"/>
<path d="M628.147 279.123C628.147 279.123 639.129 284.249 642.546 289.618C645.963 294.987 656.214 324.03 656.214 324.03C656.214 324.03 644.743 328.179 634.737 328.179C634.737 328.179 635.713 337.453 636.689 340.382C637.665 343.31 634.249 344.531 634.249 344.531C634.249 344.531 610.33 351.121 592.514 347.216C592.514 347.216 590.318 346.727 590.318 345.751C590.318 344.775 590.562 342.334 590.562 342.334C590.562 342.334 588.853 325.738 588.366 322.81C587.878 319.881 582.508 311.908 582.996 308.735C583.484 305.562 591.783 290.838 591.783 290.838C591.783 290.838 597.396 284.249 599.836 282.54C602.277 280.832 608.379 280.832 608.379 280.832L628.147 279.123Z" fill="#F8A1DB"/>
<path d="M607.335 270.341C607.344 270.724 608.738 279.007 604.15 284.869C599.561 290.859 617.659 290.604 621.864 284.487C625.688 279.007 625.305 278.115 625.305 278.115C625.305 278.115 622.247 268.174 623.139 261.675C622.884 255.812 607.08 259.381 607.335 270.341Z" fill="#FEDDAB"/>
<path d="M628.148 279.123L623.999 275.218C623.999 275.218 620.338 285.713 607.403 286.445C607.403 286.445 605.695 283.761 606.671 279.856L604.474 281.564C604.474 281.564 599.837 288.154 600.325 290.106C600.813 292.058 606.996 288.641 606.996 288.641C606.996 288.641 614.318 293.035 617.247 293.279C620.175 293.523 627.66 279.855 628.148 279.123Z" fill="#CA4A71"/>
<path d="M625.301 300.275L632.785 326.959" stroke="#3D2E3B" stroke-width="0.97665" stroke-miterlimit="10"/>
<path d="M620.664 301.821C620.664 301.821 622.372 306.946 627.985 310.363" stroke="#5F475C" stroke-width="0.97665" stroke-miterlimit="10"/>
<path d="M629.207 295.476C629.207 295.476 630.184 288.642 637.993 288.154" stroke="#5F475C" stroke-width="0.97665" stroke-miterlimit="10"/>
<path d="M590.888 292.546C590.888 292.546 582.915 305.644 582.997 308.735C583.078 311.827 588.204 320.613 588.204 320.613L594.549 337.21" stroke="#5F475C" stroke-width="0.97665" stroke-miterlimit="10"/>
<path d="M618.465 346.972L627.007 337.209" stroke="#5F475C" stroke-width="0.97665" stroke-miterlimit="10"/>
<mask id="mask6_2885_78112" style="mask-type:luminance" maskUnits="userSpaceOnUse" x="-22" y="-110" width="919" height="919">
<path d="M-21.1016 -109.559H896.898V808.441H-21.1016V-109.559Z" fill="white"/>
</mask>
<g mask="url(#mask6_2885_78112)">
<mask id="mask7_2885_78112" style="mask-type:luminance" maskUnits="userSpaceOnUse" x="633" y="321" width="30" height="23">
<path d="M657.412 322.454C655.712 318.629 633.824 325.854 633.824 325.854C633.824 325.854 638.013 330.64 640.837 338.923C644.024 348.273 655.924 341.367 660.812 337.542C665.012 334.254 659.112 326.279 657.412 322.454Z" fill="white"/>
</mask>
<g mask="url(#mask7_2885_78112)">
<path d="M652.641 325.17C652.966 326.146 655.57 333.793 656.871 337.698C658.173 341.603 628.886 362.104 624.33 365.683L620.751 368.612L615.219 362.104L640.926 336.397L637.184 327.936L652.641 325.17Z" fill="#FEDDAB"/>
</g>
</g>
<mask id="mask8_2885_78112" style="mask-type:luminance" maskUnits="userSpaceOnUse" x="-93" y="-219" width="1064" height="1064">
<path d="M100.438 -218.882L970.861 -88.1242L777.822 844.581L-92.6016 713.823L100.438 -218.882Z" fill="white"/>
</mask>
<g mask="url(#mask8_2885_78112)">
<mask id="mask9_2885_78112" style="mask-type:luminance" maskUnits="userSpaceOnUse" x="537" y="331" width="121" height="78">
<path d="M656.939 341.587C652.568 332.265 638.946 331.952 638.946 331.952C638.946 331.952 537.044 376.501 537.803 385.54C538.661 395.742 617.351 411.857 622.862 408.509C627.599 405.63 658.695 345.332 656.939 341.587Z" fill="white"/>
</mask>
<g mask="url(#mask9_2885_78112)">
<path d="M605.589 382.678L578.391 394.76L568.226 357.032L595.425 344.951L605.589 382.678Z" fill="white"/>
<path d="M615.453 362.822C615.453 362.822 610.635 366.947 609.277 367.805C607.918 368.663 600.087 368.385 600.087 368.385C600.087 368.385 595.258 374.245 594.415 373.87C593.573 373.496 593.972 372.768 593.972 372.768C593.972 372.768 596.359 361.368 597.325 360.196C598.291 359.023 610.138 356.98 610.138 356.98L611.896 355.394L615.453 362.822Z" fill="#FEDDAB"/>
<path d="M655.102 324.399C655.17 325.446 655.753 333.662 656.025 337.854C656.296 342.045 624.526 359.552 619.491 362.678L615.508 365.254L611.964 357.849L641.677 334.524L640.241 325.327L655.102 324.399Z" fill="#FEDDAB"/>
<path d="M594.463 372.989L597.172 366.394" stroke="#0B132A" stroke-width="0.8721" stroke-miterlimit="10"/>
<path d="M594.657 366.762L597.098 363.059" stroke="#0B132A" stroke-width="0.8721" stroke-miterlimit="10"/>
<path d="M597.012 359.871L593.581 373.025L595.446 373.294L599.73 367.845" stroke="#0B132A" stroke-width="0.8721" stroke-miterlimit="10"/>
</g>
</g>
<mask id="mask10_2885_78112" style="mask-type:luminance" maskUnits="userSpaceOnUse" x="-58" y="-138" width="1011" height="1011">
<path d="M-57.4336 -60.5903L830.376 -137.15L952.352 796.075L64.5426 872.635L-57.4336 -60.5903Z" fill="white"/>
</mask>
<g mask="url(#mask10_2885_78112)">
<path d="M603.384 236.096C603.384 236.096 598.629 237.856 597.042 246.353C595.455 254.85 599.924 272.306 602.102 274.234C604.279 276.162 609.851 274.936 617.321 271.501C625.213 267.871 626.639 258.23 627.212 251.899C628.309 239.775 616.984 228.251 603.384 236.096Z" fill="#FEDDAB"/>
<path d="M595.259 246.075C595.259 246.075 601.578 257.669 619.028 257L626.161 277.802C626.161 277.802 634.117 281.103 637.258 282.613C637.258 282.613 634.981 244.031 625.702 235.348C616.423 226.666 602.76 230.063 598.06 235.792C593.359 241.522 595.259 246.075 595.259 246.075Z" fill="#6E2B01"/>
<path d="M619.496 256.438C619.496 256.438 620.839 253.014 622.837 254.083C624.835 255.152 622.938 262.81 620.479 263.175C618.021 263.54 618.614 258.427 619.496 256.438Z" fill="#FF7D56"/>
<path d="M609.28 273.833C609.28 273.833 614.999 272.032 617.211 265.717" stroke="#0B132A" stroke-width="0.8721" stroke-miterlimit="10"/>
<path d="M601.961 260.13L601.799 266.425L603.753 266.761" stroke="#0B132A" stroke-width="0.8721" stroke-miterlimit="10"/>
<path d="M602.805 269.566C602.805 269.566 605.95 270.04 608.885 267.778" stroke="#0B132A" stroke-width="0.8721" stroke-miterlimit="10"/>
<path d="M613.44 262.233C613.694 263.942 612.623 265.424 611.047 265.544C609.472 265.663 607.99 264.375 607.737 262.666C607.483 260.957 608.554 259.475 610.129 259.355C611.704 259.236 613.187 260.524 613.44 262.233Z" fill="#FF3C00"/>
<path d="M607.299 258.729C607.348 259.058 607.073 259.349 606.686 259.378C606.299 259.408 605.946 259.164 605.897 258.835C605.848 258.505 606.122 258.215 606.509 258.186C606.896 258.156 607.25 258.399 607.299 258.729Z" fill="#6E2B01"/>
<path d="M599.451 259.562C599.5 259.891 599.226 260.182 598.839 260.211C598.451 260.241 598.099 259.997 598.05 259.668C598.001 259.338 598.274 259.048 598.661 259.019C599.048 258.989 599.402 259.232 599.451 259.562Z" fill="#6E2B01"/>
</g>
</g>
<mask id="mask11_2885_78112" style="mask-type:luminance" maskUnits="userSpaceOnUse" x="-22" y="-110" width="919" height="919">
<path d="M-20.6766 -109.134H896.473V808.016H-20.6766V-109.134Z" fill="white" stroke="white" stroke-width="0.85"/>
</mask>
<g mask="url(#mask11_2885_78112)">
<path d="M312.422 413.213L312.422 413.213C312.709 412.11 313.705 411.34 314.845 411.34H497.205C498.844 411.34 500.041 412.889 499.628 414.475L482.605 479.882C482.318 480.985 481.321 481.755 480.181 481.755H297.821C296.183 481.755 294.985 480.207 295.398 478.621L312.422 413.213Z" fill="#F0F9FF" stroke="#19A5FF" stroke-width="0.85"/>
<mask id="mask12_2885_78112" style="mask-type:alpha" maskUnits="userSpaceOnUse" x="313" y="418" width="82" height="50">
<path d="M313.797 442.941C313.797 442.941 363.06 442.941 394.228 442.941" stroke="#19A5FF" stroke-width="49.3"/>
</mask>
<g mask="url(#mask12_2885_78112)">
<path d="M322.832 424.908H386.287" stroke="#19A5FF" stroke-width="2.9291" stroke-linecap="round" stroke-linejoin="round"/>
<path d="M317.949 454.194H381.404" stroke="#19A5FF" stroke-width="2.9291" stroke-linecap="round" stroke-linejoin="round"/>
<path d="M344.633 443.131H408.088" stroke="#19A5FF" stroke-width="2.9291" stroke-linecap="round" stroke-linejoin="round"/>
<path d="M321.203 434.67H340.24" stroke="#19A5FF" stroke-width="2.9291" stroke-linecap="round" stroke-linejoin="round"/>
<path d="M318.602 443.131H337.638" stroke="#19A5FF" stroke-width="2.9291" stroke-linecap="round" stroke-linejoin="round"/>
<path d="M407.453 467.935H373.682C373.512 467.935 373.388 467.774 373.43 467.609L374.942 461.802C374.971 461.687 375.075 461.607 375.193 461.607H408.965C409.135 461.607 409.259 461.768 409.217 461.933L407.705 467.74C407.675 467.855 407.571 467.935 407.453 467.935Z" stroke="#19A5FF" stroke-width="0.97665" stroke-miterlimit="10"/>
<path d="M365.477 467.935H331.705C331.535 467.935 331.411 467.774 331.454 467.609L332.965 461.802C332.995 461.687 333.098 461.607 333.217 461.607H366.989C367.159 461.607 367.283 461.768 367.24 461.933L365.728 467.74C365.699 467.855 365.595 467.935 365.477 467.935Z" stroke="#19A5FF" stroke-width="0.97665" stroke-miterlimit="10"/>
</g>
<path d="M466.475 459.77L466.475 459.77C466.803 460.207 467.037 460.895 467.183 461.75C467.327 462.596 467.379 463.558 467.378 464.507C467.376 466.101 467.224 467.621 467.13 468.417H421.841C422.163 467.581 422.738 466.17 423.471 464.696C424.428 462.774 425.619 460.819 426.834 459.846C427.509 459.306 428.498 458.787 429.68 458.273C430.857 457.762 432.194 457.268 433.552 456.769L433.685 456.72C434.994 456.24 436.318 455.754 437.505 455.249C438.73 454.728 439.838 454.175 440.653 453.567C442.25 452.375 443.344 450.253 444.044 448.447L444.154 448.164L443.922 447.968C443.307 447.45 442.904 446.975 442.767 446.597C442.62 445.786 442.558 444.639 442.551 443.355L442.546 442.572L441.892 443.002C441.639 443.169 441.398 443.265 441.195 443.269C441.183 443.259 441.161 443.24 441.129 443.202C441.049 443.109 440.956 442.955 440.859 442.74C440.667 442.312 440.495 441.715 440.393 441.075C440.291 440.435 440.263 439.777 440.34 439.227C440.419 438.662 440.598 438.294 440.828 438.119C441.148 437.876 441.331 437.909 441.444 437.961C441.606 438.035 441.773 438.222 441.924 438.491L442.63 439.749L442.719 438.31C442.784 437.25 442.857 436.313 442.913 435.642C442.937 435.362 442.957 435.128 442.973 434.951H442.98L443.041 434.597C443.086 434.335 443.136 434.076 443.201 433.816C444.549 428.411 450.043 424.025 455.425 424.025C458.098 424.025 460.212 425.104 461.497 426.817C462.784 428.531 463.273 430.924 462.604 433.61L462.604 433.61C462.539 433.871 462.461 434.131 462.375 434.393L462.231 434.83C462.163 434.996 462.078 435.203 461.978 435.444C461.699 436.115 461.305 437.052 460.841 438.113L461.523 438.592C461.822 438.309 462.137 438.074 462.406 437.973C462.537 437.924 462.63 437.917 462.693 437.928C462.746 437.938 462.807 437.964 462.877 438.05C462.898 438.075 462.937 438.15 462.928 438.332C462.92 438.51 462.867 438.744 462.767 439.025C462.566 439.585 462.203 440.255 461.773 440.908C461.344 441.559 460.862 442.173 460.438 442.621C460.225 442.846 460.034 443.02 459.879 443.136C459.801 443.193 459.74 443.231 459.695 443.252C459.674 443.263 459.66 443.267 459.655 443.269C459.464 443.271 459.308 443.19 459.169 443.053L458.753 442.647L458.492 443.166C457.84 444.458 457.197 445.622 456.633 446.449C456.332 446.804 455.809 447.212 455.137 447.64L454.969 447.747L454.944 447.945C454.823 448.893 454.76 449.94 454.859 450.912C454.957 451.875 455.22 452.816 455.795 453.5L455.795 453.5C456.334 454.141 457.198 454.709 458.164 455.231C459.106 455.74 460.192 456.228 461.259 456.708L461.372 456.758C462.483 457.257 463.566 457.748 464.48 458.255C465.404 458.768 466.099 459.269 466.475 459.77Z" fill="#8B92DC" stroke="#19A5FF" stroke-width="0.85"/>
</g>
<mask id="mask13_2885_78112" style="mask-type:luminance" maskUnits="userSpaceOnUse" x="-22" y="-110" width="919" height="919">
<path d="M-20.6766 -109.134H896.473V808.016H-20.6766V-109.134Z" fill="white" stroke="white" stroke-width="0.85"/>
</mask>
<g mask="url(#mask13_2885_78112)">
<path d="M331.297 326.003L331.297 326.003C331.584 324.9 332.579 324.13 333.719 324.13H516.08C517.719 324.13 518.915 325.678 518.503 327.264L501.479 392.672C501.192 393.775 500.196 394.545 499.056 394.545H316.695C315.057 394.545 313.86 392.997 314.273 391.411L331.297 326.003Z" fill="#F0F9FF" stroke="#19A5FF" stroke-width="0.85"/>
<mask id="mask14_2885_78112" style="mask-type:alpha" maskUnits="userSpaceOnUse" x="335" y="334" width="87" height="51">
<path d="M335.047 359.642C335.047 359.642 391 359.642 421.86 359.642" stroke="#19A5FF" stroke-width="49.3"/>
</mask>
<g mask="url(#mask14_2885_78112)">
<path d="M341.703 337.698H405.158" stroke="#19A5FF" stroke-width="2.9291" stroke-linecap="round" stroke-linejoin="round"/>
<path d="M336.824 366.985H400.279" stroke="#19A5FF" stroke-width="2.9291" stroke-linecap="round" stroke-linejoin="round"/>
<path d="M363.508 355.921H426.963" stroke="#19A5FF" stroke-width="2.9291" stroke-linecap="round" stroke-linejoin="round"/>
<path d="M340.078 347.46H359.115" stroke="#19A5FF" stroke-width="2.9291" stroke-linecap="round" stroke-linejoin="round"/>
<path d="M337.473 355.921H356.509" stroke="#19A5FF" stroke-width="2.9291" stroke-linecap="round" stroke-linejoin="round"/>
<path d="M415.246 337.698H437.862" stroke="#19A5FF" stroke-width="2.9291" stroke-linecap="round" stroke-linejoin="round"/>
<path d="M426.329 380.724H392.557C392.387 380.724 392.263 380.565 392.305 380.4L393.817 374.592C393.846 374.477 393.95 374.397 394.068 374.397H427.84C428.01 374.397 428.134 374.558 428.092 374.723L426.581 380.531C426.551 380.645 426.447 380.724 426.329 380.724Z" stroke="#19A5FF" stroke-width="0.97665" stroke-miterlimit="10"/>
<path d="M384.353 380.724H350.58C350.41 380.724 350.286 380.565 350.329 380.4L351.84 374.592C351.87 374.477 351.974 374.397 352.092 374.397H385.864C386.034 374.397 386.158 374.558 386.115 374.723L384.604 380.531C384.574 380.645 384.471 380.724 384.353 380.724Z" stroke="#19A5FF" stroke-width="0.97665" stroke-miterlimit="10"/>
</g>
<path d="M478.097 356.393C478.107 356.375 478.116 356.357 478.125 356.338L477.746 356.147L477.448 356.451C477.479 356.481 477.512 356.511 477.546 356.54C476.955 357.691 476.371 358.73 475.847 359.496C475.505 359.907 474.931 360.349 474.24 360.789L478.097 356.393ZM478.097 356.393C478.231 356.454 478.383 356.489 478.554 356.484C479.475 356.456 482.986 351.679 482.081 350.571C481.742 350.157 481.268 350.248 480.807 350.525C480.707 350.756 480.603 350.997 480.495 351.243L480.106 351.073L479.814 350.764C480.005 350.584 480.228 350.394 480.469 350.236C480.942 349.135 481.313 348.237 481.516 347.74L478.097 356.393ZM461.496 347.315C461.542 347.046 461.596 346.777 461.664 346.503C463.056 340.918 468.713 336.39 474.299 336.39C479.885 336.39 483.283 340.918 481.891 346.503L461.496 347.315ZM461.496 347.315H461.461H461.496ZM485.349 372.56L485.349 372.56C485.677 372.997 485.911 373.685 486.057 374.54C486.201 375.386 486.253 376.348 486.252 377.297C486.25 378.891 486.099 380.412 486.004 381.207H440.716C441.038 380.371 441.612 378.961 442.346 377.486C443.302 375.564 444.493 373.609 445.709 372.636C446.383 372.096 447.372 371.577 448.554 371.063C449.731 370.551 451.068 370.058 452.426 369.559L452.56 369.51C453.869 369.029 455.192 368.543 456.38 368.038C457.605 367.517 458.713 366.964 459.528 366.356C461.125 365.164 462.219 363.042 462.919 361.236L463.029 360.953L462.797 360.757C462.182 360.239 461.778 359.765 461.641 359.387C461.495 358.576 461.432 357.429 461.425 356.145L461.42 355.362L460.766 355.792C460.513 355.959 460.273 356.055 460.07 356.059C460.057 356.049 460.035 356.03 460.003 355.992C459.924 355.899 459.83 355.745 459.733 355.53C459.542 355.102 459.37 354.506 459.268 353.865C459.166 353.225 459.137 352.567 459.215 352.017C459.294 351.452 459.473 351.084 459.703 350.909C460.023 350.666 460.206 350.699 460.319 350.751C460.481 350.825 460.648 351.012 460.799 351.281L461.505 352.54L461.594 351.1C461.659 350.04 461.732 349.103 461.788 348.432C461.812 348.151 461.832 347.917 461.848 347.74H461.855L461.915 347.386C461.96 347.125 462.011 346.867 462.076 346.606C463.423 341.201 468.917 336.815 474.299 336.815C476.972 336.815 479.086 337.895 480.372 339.607C481.659 341.321 482.148 343.714 481.479 346.4L481.479 346.4C481.414 346.661 481.336 346.919 481.249 347.182L481.101 347.631C481.034 347.795 480.951 347.998 480.853 348.233C480.574 348.905 480.18 349.842 479.716 350.903L480.398 351.382C480.698 351.099 481.011 350.864 481.281 350.763C481.411 350.714 481.504 350.707 481.567 350.718C481.62 350.728 481.681 350.754 481.751 350.84C481.772 350.865 481.811 350.94 481.802 351.122C481.794 351.301 481.741 351.534 481.641 351.815C481.44 352.375 481.077 353.045 480.647 353.698C480.219 354.349 479.737 354.963 479.312 355.411C479.099 355.636 478.909 355.81 478.754 355.926C478.676 355.983 478.615 356.021 478.57 356.042C478.549 356.053 478.535 356.057 478.53 356.059C478.338 356.061 478.182 355.979 478.043 355.843L477.628 355.437L477.366 355.956C476.714 357.249 476.072 358.412 475.508 359.239C475.207 359.594 474.684 360.002 474.012 360.43L473.844 360.538L473.819 360.735C473.698 361.683 473.635 362.73 473.734 363.701C473.832 364.665 474.094 365.606 474.669 366.289L474.669 366.289C475.208 366.93 476.072 367.499 477.038 368.021C477.98 368.529 479.067 369.018 480.134 369.497L480.246 369.548C481.357 370.047 482.441 370.538 483.354 371.045C484.278 371.558 484.973 372.059 485.349 372.56ZM481.786 346.89H481.689H481.653V347.3L481.786 346.89ZM480.314 369.113C478.134 368.133 475.949 367.15 474.994 366.016L486.379 381.632C486.537 380.435 487.246 374.379 485.689 372.305C484.81 371.133 482.565 370.124 480.314 369.113Z" fill="#8B92DC" stroke="#19A5FF" stroke-width="0.85"/>
</g>
<mask id="mask15_2885_78112" style="mask-type:luminance" maskUnits="userSpaceOnUse" x="-22" y="-110" width="919" height="919">
<path d="M-20.6766 -109.134H896.473V808.016H-20.6766V-109.134Z" fill="white" stroke="white" stroke-width="0.85"/>
</mask>
<g mask="url(#mask15_2885_78112)">
<path d="M364.488 185.425L364.488 185.425C364.775 184.323 365.771 183.553 366.912 183.553H549.271C550.91 183.553 552.108 185.101 551.695 186.687L534.671 252.094C534.384 253.197 533.388 253.968 532.248 253.968H349.887C348.248 253.968 347.052 252.419 347.464 250.834L347.053 250.727L347.464 250.834L364.488 185.425Z" fill="#F0F9FF" stroke="#19A5FF" stroke-width="0.85"/>
<mask id="mask16_2885_78112" style="mask-type:alpha" maskUnits="userSpaceOnUse" x="367" y="191" width="65" height="38">
<path d="M367.348 210.042C367.348 210.042 402.035 210.042 431.929 210.042" stroke="#19A5FF" stroke-width="37.4"/>
</mask>
<g mask="url(#mask16_2885_78112)">
<path d="M374.898 197.121H438.353" stroke="#19A5FF" stroke-width="2.9291" stroke-linecap="round" stroke-linejoin="round"/>
<path d="M370.016 226.407H433.471" stroke="#19A5FF" stroke-width="2.9291" stroke-linecap="round" stroke-linejoin="round"/>
<path d="M396.699 215.344H460.155" stroke="#19A5FF" stroke-width="2.9291" stroke-linecap="round" stroke-linejoin="round"/>
<path d="M373.27 206.883H392.306" stroke="#19A5FF" stroke-width="2.9291" stroke-linecap="round" stroke-linejoin="round"/>
<path d="M370.668 215.344H389.704" stroke="#19A5FF" stroke-width="2.9291" stroke-linecap="round" stroke-linejoin="round"/>
</g>
<path d="M509.131 226.721L509.131 226.721C509.769 227.478 510.788 228.149 511.929 228.765C513.041 229.366 514.324 229.942 515.584 230.508L515.716 230.568C517.028 231.158 518.308 231.737 519.386 232.336C520.477 232.941 521.298 233.533 521.742 234.124L521.742 234.124C522.13 234.641 522.405 235.453 522.578 236.463C522.748 237.461 522.81 238.598 522.808 239.718C522.806 241.601 522.627 243.397 522.515 244.336H469.038C469.418 243.349 470.096 241.683 470.962 239.942C472.092 237.671 473.499 235.363 474.933 234.215L474.62 233.823L474.933 234.215C475.73 233.577 476.898 232.964 478.294 232.357C479.683 231.753 481.262 231.17 482.866 230.581L483.023 230.523C484.569 229.956 486.132 229.382 487.535 228.785C488.98 228.17 490.29 227.517 491.251 226.8C493.138 225.392 494.429 222.886 495.256 220.754L495.386 220.42L495.112 220.188C494.386 219.576 493.91 219.016 493.748 218.57C493.575 217.612 493.5 216.259 493.491 214.742L493.486 213.817L492.714 214.325C492.414 214.522 492.132 214.636 491.892 214.641C491.877 214.629 491.851 214.606 491.813 214.562C491.72 214.451 491.609 214.27 491.495 214.015C491.268 213.511 491.065 212.806 490.945 212.05C490.824 211.293 490.79 210.517 490.882 209.867C490.976 209.199 491.187 208.765 491.458 208.559L491.458 208.559C491.836 208.272 492.052 208.31 492.186 208.372C492.377 208.46 492.574 208.681 492.753 208.999L493.586 210.485L493.691 208.785C493.769 207.533 493.854 206.427 493.921 205.634C493.949 205.303 493.973 205.027 493.992 204.817H494.001L494.072 204.398C494.123 204.091 494.184 203.786 494.26 203.478C495.851 197.095 502.338 191.915 508.693 191.915C511.85 191.915 514.347 193.191 515.865 195.213C517.384 197.237 517.963 200.063 517.172 203.235L517.171 203.236C517.095 203.544 517.003 203.849 516.902 204.158L516.731 204.676C516.651 204.872 516.551 205.116 516.433 205.4C516.104 206.193 515.638 207.3 515.091 208.553L515.895 209.118C516.249 208.784 516.62 208.506 516.939 208.386C517.092 208.329 517.202 208.32 517.276 208.334C517.339 208.345 517.411 208.376 517.494 208.477C517.518 208.507 517.564 208.595 517.554 208.81C517.544 209.021 517.482 209.297 517.363 209.628C517.126 210.29 516.698 211.081 516.19 211.853C515.684 212.622 515.115 213.347 514.614 213.876C514.362 214.141 514.137 214.347 513.954 214.483C513.862 214.551 513.79 214.595 513.737 214.621C513.712 214.633 513.696 214.639 513.689 214.641C513.463 214.643 513.279 214.547 513.114 214.386L512.624 213.906L512.315 214.519C511.546 216.045 510.787 217.418 510.121 218.395C509.766 218.814 509.149 219.296 508.354 219.802L508.156 219.928L508.126 220.161C507.984 221.28 507.91 222.517 508.027 223.664C508.143 224.802 508.452 225.913 509.131 226.721Z" fill="#8B92DC" stroke="#19A5FF" stroke-width="1.0037"/>
</g>
<mask id="mask17_2885_78112" style="mask-type:luminance" maskUnits="userSpaceOnUse" x="-22" y="-110" width="919" height="919">
<path d="M-21.1016 -109.559H896.898V808.441H-21.1016V-109.559Z" fill="white"/>
</mask>
<g mask="url(#mask17_2885_78112)">
<path d="M500.522 306.459H318.161C316.244 306.459 314.844 304.647 315.326 302.792L332.351 237.384C332.687 236.094 333.851 235.193 335.185 235.193H517.546C519.462 235.193 520.862 237.004 520.38 238.86L503.356 304.267C503.02 305.558 501.855 306.459 500.522 306.459Z" stroke="#0B132A" stroke-width="0.97665" stroke-miterlimit="10"/>
<path d="M497.103 301.577H314.742C312.826 301.577 311.426 299.766 311.908 297.911L328.932 232.503C329.268 231.213 330.433 230.312 331.766 230.312H514.127C516.044 230.312 517.444 232.123 516.961 233.978L499.937 299.386C499.601 300.676 498.437 301.577 497.103 301.577Z" fill="#C6E9FF"/>
<path d="M371.969 301.577H463.246" stroke="#0B132A" stroke-width="0.97665" stroke-miterlimit="10"/>
<path d="M346.586 230.312H423.708" stroke="#0B132A" stroke-width="0.97665" stroke-miterlimit="10"/>
<path d="M482.379 291.815H441.378C439.491 291.815 438.342 290.285 438.812 288.398L449.157 246.908C449.627 245.021 451.538 243.491 453.425 243.491H494.428C496.315 243.491 497.463 245.021 496.992 246.908L486.648 288.398C486.178 290.285 484.266 291.815 482.379 291.815Z" fill="#DDB6FF"/>
<path d="M462.257 291.977L465.845 277.587L459.962 275.095C459.962 275.095 448.999 279.108 448.066 280.077C447.283 280.889 443.347 289.283 442.094 291.977H462.257Z" fill="#5E2501"/>
<path d="M482.558 291.977C482.648 289.283 482.898 280.889 482.521 280.077C482.07 279.108 473.108 275.095 473.108 275.095L465.983 277.587L462.395 291.977H482.558Z" fill="#5E2501"/>
<path d="M465.968 291.977L471.589 279.524L459.517 280.216L458.336 291.977H465.968Z" fill="#CFC2BE"/>
<path d="M462.141 272.466L459.512 274.127L457.786 278.278L457.34 283.951L461.041 282.43L463.914 285.888L467.751 282.706L470.106 284.92L473.664 277.309L473.038 272.604L471.55 271.913L462.141 272.466Z" fill="#F7D0C4"/>
<path d="M462.948 261.572C462.948 261.572 462.066 259.566 460.256 260.901C458.445 262.235 460.563 267.391 461.875 265.839C463.186 264.289 462.948 261.572 462.948 261.572Z" fill="#FA9374"/>
<path d="M475.85 261.466C475.85 261.466 477.57 259.339 478.869 260.531C480.167 261.722 475.899 267.171 475.198 265.713C474.496 264.255 475.85 261.466 475.85 261.466Z" fill="#FA9374"/>
<path d="M471.816 276.485L473.669 266.661L462.949 267.591L460.582 276.816C460.582 276.816 462.456 281.185 464.464 283.122C464.464 283.122 470.699 277.736 471.816 276.485Z" fill="#FA9779"/>
<path d="M480.511 257.499C480.112 258.694 479.126 258.994 479.054 259.691C478.982 260.388 478.535 262.179 477.856 262.876C477.176 263.573 476.823 263.772 476.823 263.772C476.823 263.772 467.626 266.361 462.956 262.777C462.956 262.777 462.65 261.416 462.97 259.79C463.288 258.18 462.506 257.898 463.413 257.102C464.32 256.305 464.595 255.608 464.616 254.712C464.637 253.816 464.708 252.721 465.639 251.825C466.571 250.929 467.407 251.227 468.314 250.431C468.314 250.431 469.655 248.178 471.426 247.922C473.198 247.667 476.933 246.727 479.154 249.459C481.376 252.191 480.353 254.582 480.994 255.436C481.635 256.29 480.511 257.499 480.511 257.499Z" fill="#704A32"/>
<path d="M462.877 259.881C462.877 259.881 458.538 271.835 466.711 272.731C473.933 272.898 476.497 264.084 477.531 259.565C478.564 255.045 477.926 250.314 472.145 250.469C466.364 250.624 463.513 257.204 462.877 259.881Z" fill="#FAA78D"/>
<path d="M465.146 255.594C465.146 255.594 465.68 256.552 465.185 257.518C464.689 258.485 463.344 258.856 463.143 260.131C462.941 261.406 462.352 264.057 461.99 264.174C461.629 264.29 461.884 261.585 461.945 260.657C462.006 259.73 462.698 255.896 464.625 253.46C466.553 251.025 467.745 249.997 471.176 249.438C474.608 248.88 477.209 250.324 478.164 252.418C479.12 254.513 477.591 259.846 477.591 259.846C477.591 259.846 477.82 257.311 476.971 256.716C476.122 256.121 475.42 255.681 475.561 255.334C475.701 254.986 472.845 256.247 469.989 255.329C467.133 254.411 466.21 254.828 465.735 255.122C465.259 255.416 465.146 255.594 465.146 255.594Z" fill="#704A32"/>
<path d="M457.059 278.417C456.991 278.694 453.07 288.034 453.07 288.034L456.514 289.764L455.546 291.701" stroke="#542102" stroke-width="0.4148" stroke-miterlimit="10"/>
<path d="M474.01 278.417C473.941 278.694 473.205 288.034 473.205 288.034L468.898 289.764L468.9 291.701" stroke="#542102" stroke-width="0.4148" stroke-miterlimit="10"/>
<path d="M515.991 268.548C513.926 276.829 505.538 283.543 497.257 283.543C488.977 283.543 483.937 276.829 486.002 268.548C488.066 260.267 496.454 253.554 504.735 253.554C513.016 253.554 518.055 260.267 515.991 268.548Z" fill="#65DC7F"/>
<mask id="mask18_2885_78112" style="mask-type:alpha" maskUnits="userSpaceOnUse" x="488" y="261" width="26" height="18">
<path d="M491.023 266.567L497.823 274.217L511.848 264.017" stroke="#FD9B85" stroke-width="5.95"/>
</mask>
<g mask="url(#mask18_2885_78112)">
<path d="M497.128 276.168C496.656 276.168 496.23 275.989 495.959 275.629L492.084 270.467C491.544 269.747 491.835 268.58 492.734 267.86C493.635 267.14 494.801 267.14 495.341 267.86L498.237 271.718L508.586 263.434C509.486 262.715 510.652 262.715 511.193 263.434C511.734 264.154 511.442 265.321 510.543 266.041L498.566 275.629C498.117 275.989 497.6 276.168 497.128 276.168Z" fill="white"/>
</g>
<path d="M523.158 284.656C522.593 286.922 520.297 288.759 518.031 288.759C515.765 288.759 514.386 286.922 514.951 284.656C515.516 282.39 517.812 280.552 520.078 280.552C522.344 280.552 523.724 282.39 523.158 284.656Z" fill="#19A5FF"/>
<mask id="mask19_2885_78112" style="mask-type:luminance" maskUnits="userSpaceOnUse" x="-22" y="-110" width="919" height="919">
<path d="M-21.1016 -109.559H896.898V808.441H-21.1016V-109.559Z" fill="white"/>
</mask>
<g mask="url(#mask19_2885_78112)">
<mask id="mask20_2885_78112" style="mask-type:alpha" maskUnits="userSpaceOnUse" x="338" y="241" width="67" height="9">
<path d="M342.57 245.741C342.57 245.741 392.499 245.741 400.422 245.741" stroke="#FD9B85" stroke-width="7.64291" stroke-linecap="round"/>
</mask>
<g mask="url(#mask20_2885_78112)">
<path d="M339.754 245.932H403.209" stroke="#61C1FF" stroke-width="2.9291" stroke-linecap="round" stroke-linejoin="round"/>
</g>
<mask id="mask21_2885_78112" style="mask-type:alpha" maskUnits="userSpaceOnUse" x="333" y="270" width="66" height="9">
<path d="M337.582 274.429C337.582 274.429 388.097 274.429 394.705 274.429" stroke="#FD9B85" stroke-width="7.57311" stroke-linecap="round"/>
</mask>
<g mask="url(#mask21_2885_78112)">
<path d="M334.875 275.218H398.33" stroke="#61C1FF" stroke-width="2.9291" stroke-linecap="round" stroke-linejoin="round"/>
</g>
<mask id="mask22_2885_78112" style="mask-type:alpha" maskUnits="userSpaceOnUse" x="360" y="259" width="59" height="9">
<path d="M364.238 263.804C364.238 263.804 397.743 263.804 415.109 263.804" stroke="#FD9B85" stroke-width="7.78063" stroke-linecap="round"/>
</mask>
<g mask="url(#mask22_2885_78112)">
<path d="M361.555 264.155H425.01" stroke="#61C1FF" stroke-width="2.9291" stroke-linecap="round" stroke-linejoin="round"/>
</g>
<mask id="mask23_2885_78112" style="mask-type:alpha" maskUnits="userSpaceOnUse" x="336" y="253" width="27" height="6">
<path d="M338.816 255.729C338.816 255.729 354.51 255.729 360.473 255.729" stroke="#FD9B85" stroke-width="4.87029" stroke-linecap="round"/>
</mask>
<g mask="url(#mask23_2885_78112)">
<path d="M338.129 255.694H357.166" stroke="#61C1FF" stroke-width="2.9291" stroke-linecap="round" stroke-linejoin="round"/>
</g>
<mask id="mask24_2885_78112" style="mask-type:alpha" maskUnits="userSpaceOnUse" x="333" y="261" width="29" height="5">
<path d="M335.984 263.591C335.984 263.591 355.653 263.591 358.774 263.591" stroke="#FD9B85" stroke-width="4.79704" stroke-linecap="round"/>
</mask>
<g mask="url(#mask24_2885_78112)">
<path d="M335.523 264.155H354.56" stroke="#61C1FF" stroke-width="2.9291" stroke-linecap="round" stroke-linejoin="round"/>
</g>
<mask id="mask25_2885_78112" style="mask-type:alpha" maskUnits="userSpaceOnUse" x="406" y="238" width="32" height="12">
<path d="M411.762 244.466C411.762 244.466 423.912 244.466 431.843 244.466" stroke="#FD9B85" stroke-width="11.0418" stroke-linecap="round"/>
</mask>
<g mask="url(#mask25_2885_78112)">
<path d="M413.297 245.932H435.913" stroke="#61C1FF" stroke-width="2.9291" stroke-linecap="round" stroke-linejoin="round"/>
</g>
<mask id="mask26_2885_78112" style="mask-type:alpha" maskUnits="userSpaceOnUse" x="389" y="275" width="37" height="19">
<path d="M389.652 284.417C389.652 284.417 418.984 284.417 426 284.417" stroke="#FD9B85" stroke-width="17.5026"/>
</mask>
<g mask="url(#mask26_2885_78112)">
<path d="M424.38 288.959H390.608C390.438 288.959 390.313 288.798 390.356 288.633L391.868 282.825C391.897 282.71 392.001 282.631 392.119 282.631H425.891C426.061 282.631 426.186 282.792 426.143 282.957L424.632 288.764C424.602 288.879 424.498 288.959 424.38 288.959Z" stroke="#19A5FF" stroke-width="0.97665" stroke-miterlimit="10"/>
</g>
<mask id="mask27_2885_78112" style="mask-type:alpha" maskUnits="userSpaceOnUse" x="347" y="275" width="34" height="19">
<path d="M347.152 284.417C347.152 284.417 370.722 284.417 380.659 284.417" stroke="#FD9B85" stroke-width="17.5026"/>
</mask>
<g mask="url(#mask27_2885_78112)">
<path d="M382.4 288.959H348.627C348.457 288.959 348.332 288.798 348.376 288.633L349.887 282.825C349.917 282.71 350.021 282.631 350.14 282.631H383.911C384.081 282.631 384.205 282.792 384.163 282.957L382.651 288.764C382.621 288.879 382.518 288.959 382.4 288.959Z" stroke="#19A5FF" stroke-width="0.97665" stroke-miterlimit="10"/>
</g>
<mask id="mask28_2885_78112" style="mask-type:alpha" maskUnits="userSpaceOnUse" x="319" y="238" width="33" height="18">
<path d="M319.324 247.016C319.324 247.016 343.379 247.016 351.997 247.016" stroke="#FD9B85" stroke-width="17"/>
</mask>
<g mask="url(#mask28_2885_78112)">
<path d="M353.114 251.535H319.342C319.172 251.535 319.048 251.375 319.09 251.21L320.602 245.403C320.631 245.288 320.735 245.208 320.853 245.208H354.626C354.796 245.208 354.92 245.369 354.877 245.534L353.366 251.342C353.336 251.456 353.232 251.535 353.114 251.535Z" fill="#19A5FF"/>
</g>
</g>
</g>
<path d="M302.585 209.022H299.248C298.409 209.022 297.9 208.344 298.109 207.506L298.941 204.169C299.15 203.331 299.998 202.651 300.836 202.651H304.173C305.011 202.651 305.521 203.331 305.312 204.169L304.48 207.506C304.271 208.344 303.423 209.022 302.585 209.022Z" fill="#42498F"/>
<path d="M300.147 218.807H296.81C295.972 218.807 295.463 218.129 295.672 217.291L296.504 213.953C296.713 213.115 297.561 212.437 298.399 212.437H301.736C302.574 212.437 303.084 213.115 302.875 213.953L302.043 217.291C301.834 218.129 300.985 218.807 300.147 218.807Z" fill="#13D1FF"/>
<path d="M310.765 218.807H307.428C306.59 218.807 306.08 218.129 306.289 217.291L307.121 213.953C307.33 213.115 308.179 212.437 309.017 212.437H312.354C313.192 212.437 313.701 213.115 313.492 213.953L312.66 217.291C312.451 218.129 311.603 218.807 310.765 218.807Z" fill="#42498F"/>
<path d="M321.386 218.807H318.049C317.211 218.807 316.701 218.129 316.91 217.291L317.742 213.953C317.951 213.115 318.8 212.437 319.638 212.437H322.975C323.813 212.437 324.323 213.115 324.114 213.953L323.282 217.291C323.073 218.129 322.224 218.807 321.386 218.807Z" fill="#13D1FF"/>
<path d="M297.652 228.819H294.315C293.477 228.819 292.967 228.14 293.176 227.302L294.008 223.965C294.217 223.127 295.064 222.448 295.903 222.448H299.241C300.079 222.448 300.588 223.127 300.379 223.965L299.547 227.302C299.337 228.14 298.49 228.819 297.652 228.819Z" fill="#13D1FF"/>
<path d="M294.984 239.513H291.647C290.809 239.513 290.299 238.835 290.508 237.997L291.34 234.659C291.549 233.821 292.397 233.143 293.235 233.143H296.573C297.411 233.143 297.92 233.821 297.711 234.659L296.879 237.997C296.669 238.835 295.822 239.513 294.984 239.513Z" fill="#13D1FF"/>
<path d="M308.269 228.819H304.932C304.094 228.819 303.584 228.14 303.793 227.302L304.625 223.965C304.834 223.127 305.683 222.448 306.521 222.448H309.858C310.696 222.448 311.206 223.127 310.997 223.965L310.165 227.302C309.955 228.14 309.107 228.819 308.269 228.819Z" fill="#13D1FF"/>
<path d="M303.617 247.478H300.28C299.442 247.478 298.932 246.798 299.141 245.96L299.973 242.623C300.182 241.785 301.03 241.106 301.868 241.106H305.205C306.043 241.106 306.553 241.785 306.344 242.623L305.512 245.96C305.303 246.798 304.455 247.478 303.617 247.478Z" fill="#42498F"/>
<mask id="mask29_2885_78112" style="mask-type:alpha" maskUnits="userSpaceOnUse" x="330" y="185" width="40" height="40">
<path d="M335 208.424C335.073 210.217 335.391 212.36 335.897 215.141C336.737 219.76 344.822 221.941 352.897 219.816C356.619 218.837 365.222 208.341 365.222 199.841C365.222 196.186 351.622 190.066 351.622 190.066C351.622 190.066 340.636 196.012 339.297 197.716C336.585 201.167 335.303 203.332 335.037 206.366" stroke="#FD9B85" stroke-width="8.5"/>
</mask>
<g mask="url(#mask29_2885_78112)">
<path d="M356.115 189.596V189.594C356.098 189.593 356.081 189.592 356.064 189.591C356.013 189.588 355.964 189.581 355.913 189.579L355.911 189.583C355.568 189.562 355.222 189.545 354.868 189.545C344.973 189.545 334.957 197.478 332.321 207.331L332.203 207.802H332.199C332.187 207.851 332.179 207.9 332.167 207.95L332.092 208.251H332.102C329.93 218.237 336.338 226.186 346.596 225.77C355.951 225.392 365.384 217.926 368.191 208.672C371.236 198.636 365.694 190.265 356.115 189.596ZM362.939 208.332C360.965 214.91 354.222 220.221 347.586 220.432C340.451 220.658 335.999 215.121 337.471 208.158L337.676 207.331H337.669C339.567 200.431 346.592 194.893 353.534 194.893C353.894 194.893 354.244 194.911 354.589 194.941C361.22 195.501 365.039 201.338 362.939 208.332Z" fill="#FBEDE8"/>
<path d="M355.138 192.679C354.832 193.909 355.405 194.976 356.526 195.273C361.936 196.704 364.823 202.052 362.938 208.332C360.963 214.91 354.22 220.221 347.584 220.432C341.077 220.639 336.798 216.051 337.212 209.96C337.298 208.703 336.405 207.802 335.128 207.802C333.471 207.802 331.821 209.296 331.711 210.926C331.123 219.617 337.271 226.147 346.595 225.77C355.949 225.391 365.383 217.926 368.19 208.672C370.9 199.74 366.809 192.123 359.122 190.084C357.533 189.662 355.574 190.934 355.138 192.679Z" fill="#19A5FF"/>
</g>
<mask id="mask30_2885_78112" style="mask-type:alpha" maskUnits="userSpaceOnUse" x="376" y="184" width="39" height="40">
<path d="M395.596 219.107C396.515 218.974 397.445 218.786 398.374 218.542C402.097 217.562 410.699 207.067 410.699 198.567C410.699 194.911 397.099 188.792 397.099 188.792C397.099 188.792 386.113 194.737 384.774 196.442C380.099 202.392 379.674 204.517 381.374 213.867C382.045 217.554 387.333 219.687 393.547 219.317" stroke="#FD9B85" stroke-width="8.5"/>
</mask>
<g mask="url(#mask30_2885_78112)">
<path d="M401.186 187.769L401.187 187.767C401.171 187.766 401.155 187.766 401.139 187.765C401.076 187.76 401.013 187.757 400.95 187.754C400.617 187.734 400.282 187.719 399.939 187.719C389.932 187.719 379.797 195.832 377.301 205.839C374.806 215.846 380.897 223.958 390.904 223.958C391.245 223.958 391.586 223.944 391.928 223.924C391.993 223.92 392.056 223.918 392.121 223.913C392.139 223.913 392.157 223.912 392.175 223.911V223.909C401.703 223.266 411.045 215.508 413.498 205.996C413.512 205.944 413.528 205.892 413.542 205.839C415.931 196.255 410.444 188.417 401.186 187.769ZM393.137 218.576C393.12 218.577 393.103 218.58 393.086 218.581C392.876 218.594 392.665 218.603 392.454 218.606C392.382 218.607 392.309 218.612 392.236 218.612C385.182 218.612 380.89 212.893 382.648 205.839C384.407 198.785 391.551 193.066 398.606 193.066C398.678 193.066 398.748 193.07 398.821 193.071C399.031 193.075 399.238 193.084 399.443 193.098C399.461 193.098 399.478 193.1 399.495 193.102C406.015 193.563 409.877 199.088 408.194 205.839C408.181 205.892 408.165 205.944 408.151 205.996C406.403 212.678 399.835 218.122 393.137 218.576Z" fill="white"/>
<path d="M407.374 208.227C405.128 213.349 400.094 217.389 394.732 218.376C393.393 218.623 392.181 219.708 391.856 221.01C391.437 222.693 392.66 223.949 394.392 223.634C402.034 222.246 409.217 216.485 412.4 209.178C413.12 207.527 412.247 205.996 410.567 205.996C409.261 205.996 407.937 206.945 407.374 208.227Z" fill="#0B89DA"/>
</g>
<mask id="mask31_2885_78112" style="mask-type:luminance" maskUnits="userSpaceOnUse" x="-22" y="-110" width="919" height="919">
<path d="M-21.1016 -109.559H896.898V808.441H-21.1016V-109.559Z" fill="white"/>
</mask>
<g mask="url(#mask31_2885_78112)">
<path d="M333.406 524.647C333.406 527.612 304.777 530.015 269.462 530.015C234.148 530.015 205.52 527.612 205.52 524.647C205.52 521.681 234.148 519.277 269.462 519.277C304.777 519.277 333.406 521.681 333.406 524.647Z" fill="#BFBFBF"/>
<mask id="mask32_2885_78112" style="mask-type:luminance" maskUnits="userSpaceOnUse" x="207" y="270" width="102" height="264">
<path d="M231.773 273.791C209.902 298.092 199.898 346.891 213.498 363.041C227.098 379.191 221.998 431.891 226.248 466.741C230.498 501.591 227.098 530.491 238.148 533.041C249.198 535.591 306.148 527.941 307.848 524.541C309.548 521.141 297.648 488.841 297.648 488.841C297.648 488.841 288.298 432.741 295.098 425.941C301.898 419.141 296.798 343.491 296.798 343.491L293.823 322.879C293.823 322.879 289.148 319.479 285.535 315.866C283.719 314.051 270.959 307.618 278.948 291.641C283.198 283.141 289.658 283.6 288.085 282.079C281.71 275.916 238.148 265.079 231.773 273.791Z" fill="white"/>
</mask>
<g mask="url(#mask32_2885_78112)">
<path d="M243.725 507.373C243.725 507.373 245.081 504.466 250.12 505.241C255.159 506.016 255.74 506.985 256.322 509.505C256.903 512.024 258.647 514.737 259.81 515.319C260.973 515.9 265.235 518.807 268.724 519.389C272.212 519.97 272.6 522.102 271.825 523.071C271.049 524.04 257.872 524.814 254.965 524.427C254.965 524.427 245.081 524.233 242.756 523.458C240.43 522.682 243.531 508.342 243.725 507.373Z" fill="#352C26"/>
<path d="M238.127 439.252C238.127 439.252 236.654 431.226 245.13 428.532C253.605 425.839 255.208 429.755 257.774 437.076C260.34 444.396 255.569 506.928 255.569 506.928C255.569 506.928 245.81 508.594 243.306 507.116C243.306 507.116 235.872 466.41 236.389 455.238C236.906 444.067 238.127 439.252 238.127 439.252Z" fill="#42498F"/>
<path d="M242.27 504.66C242.27 504.66 253.316 503.691 256.805 503.109L256.611 508.148C256.611 508.148 247.89 509.699 242.463 508.923L242.27 504.66Z" fill="#876A58"/>
<path d="M239.557 282.572C239.557 282.572 232.58 282.96 228.316 298.851C224.053 314.742 221.34 334.121 222.89 339.16C224.44 344.198 241.106 357.764 247.308 357.764C253.51 357.764 253.897 353.113 252.734 349.237C251.572 345.361 239.557 334.896 239.557 334.896C239.557 334.896 249.246 303.89 248.858 295.75C248.471 287.611 243.82 282.572 239.557 282.572Z" fill="#61C1FF"/>
<path d="M268.259 233.589C268.259 233.589 273.993 235.056 277.241 243.86C280.489 252.665 278.324 271.373 276.158 273.574C273.992 275.774 267.416 274.934 258.294 271.923C248.657 268.742 245.4 258.723 243.678 252.114C240.38 239.458 251.385 226.435 268.259 233.589Z" fill="#FEDDAB"/>
<path d="M247.695 282.184L252.347 265.518C252.347 265.518 261.648 262.805 267.462 269.007L269.4 271.72V282.572C269.4 282.572 259.711 284.51 247.695 282.184Z" fill="#FEDDAB"/>
<path d="M234.711 371.911C234.711 371.911 231.222 392.259 234.711 415.514C238.199 438.769 245.175 441.096 251.57 441.096C257.966 441.096 259.71 422.491 260.873 414.351C262.036 406.212 266.687 378.306 257.966 371.911C249.245 365.516 239.362 364.934 234.711 371.911Z" fill="#42498F"/>
<path d="M259.129 399.236C259.129 399.236 252.152 380.632 264.362 372.492C276.571 364.353 285.873 365.515 288.78 378.888C291.687 392.26 292.268 438.188 288.198 447.49C284.128 456.793 269.594 442.259 259.129 399.236Z" fill="#42498F"/>
<path d="M279.447 234.384C279.447 234.384 282.198 237.961 280.547 242.088C278.896 246.215 272.844 247.865 272.844 247.865C272.844 247.865 274.77 250.617 272.844 254.468L271.468 256.67C271.468 256.67 273.394 261.071 272.844 262.172C272.294 263.273 270.367 262.997 270.367 262.997C270.367 262.997 268.167 256.945 267.341 257.495C266.516 258.045 264.315 260.797 264.315 263.273C264.315 265.749 265.14 267.675 264.59 269.325C264.04 270.976 255.511 270.976 251.934 270.426C248.358 269.876 242.855 258.87 241.48 253.918C241.48 253.918 239.553 247.04 242.305 241.263C242.305 241.263 241.756 236.311 246.432 231.358C251.11 226.406 265.966 228.056 268.442 229.982C268.442 229.982 268.167 227.232 270.918 227.782C273.67 228.332 277.796 230.808 279.447 234.384Z" fill="#D92500"/>
<path d="M245.234 282.097C245.234 282.097 246.532 277.534 247.695 277.147C248.858 276.759 263.198 275.208 270.95 279.859C274.439 282.572 274.051 284.51 274.051 284.51C274.051 284.51 250.912 280.071 245.234 282.097Z" fill="#F7D0C4"/>
<path d="M242.268 281.021C242.268 281.021 266.299 279.471 283.352 286.835C291.104 290.711 308.836 308.249 308.836 308.249L322.789 279.18C322.789 279.18 330.638 276.37 333.739 283.735C333.739 283.735 324.922 318.036 317.557 328.889C312.906 332.765 290.717 320.168 290.717 320.168C290.717 320.168 294.205 365.129 293.042 385.283C291.492 389.159 261.26 391.096 255.834 390.709C250.407 390.321 231.416 384.12 231.028 382.958C230.64 381.795 233.741 335.284 232.966 329.857C232.191 324.431 229.865 297.688 230.64 293.812C231.416 289.936 234.903 282.572 242.268 281.021Z" fill="#A5DBFF"/>
<path d="M267.85 508.536C267.85 508.536 269.205 505.629 274.244 506.404C279.283 507.179 279.864 508.148 280.446 510.667C281.027 513.187 282.771 515.9 283.934 516.481C285.097 517.063 289.36 519.97 292.849 520.551C296.337 521.133 296.724 523.264 295.949 524.233C295.174 525.202 281.996 525.978 279.089 525.59C279.089 525.59 269.206 525.396 266.881 524.621C264.555 523.846 267.656 509.505 267.85 508.536Z" fill="#423832"/>
<path d="M270.175 440.514C270.175 440.514 269.593 432.375 278.314 430.631C287.035 428.886 288.198 432.956 289.942 440.514C291.686 448.073 280.058 509.698 280.058 509.698C280.058 509.698 270.175 510.28 267.85 508.536C267.85 508.536 264.942 467.258 266.686 456.211C268.43 445.165 270.175 440.514 270.175 440.514Z" fill="#42498F"/>
<path d="M267.073 509.505C267.073 509.505 274.63 511.637 281.025 510.474L281.607 506.016L266.879 505.047L267.073 509.505Z" fill="#876A58"/>
<path d="M256.805 394.875C256.805 394.875 264.943 421.038 271.048 433.828" stroke="#0B132A" stroke-width="0.8721" stroke-miterlimit="10"/>
<path d="M273.375 439.061C273.375 439.061 278.317 436.154 283.259 439.061" stroke="#0B132A" stroke-width="0.8721" stroke-miterlimit="10"/>
<path d="M272.5 442.259C272.5 442.259 276.57 439.933 283.547 444.874" stroke="#0B132A" stroke-width="0.8721" stroke-miterlimit="10"/>
<path d="M241.977 435.573C241.977 435.573 245.174 432.666 252.442 435.863" stroke="#0B132A" stroke-width="0.8721" stroke-miterlimit="10"/>
<path d="M244.305 438.48C244.305 438.48 248.956 436.154 253.316 439.642" stroke="#0B132A" stroke-width="0.8721" stroke-miterlimit="10"/>
<path d="M255.061 443.13L253.316 502.431" stroke="#0B132A" stroke-width="0.8721" stroke-miterlimit="10"/>
<path d="M279.09 393.422C279.09 393.422 285.679 397.298 288.392 391.097" stroke="#0B132A" stroke-width="0.8721" stroke-miterlimit="10"/>
<path d="M285.68 394.197C285.68 394.197 288.78 418.228 288.005 434.119" stroke="#0B132A" stroke-width="0.8721" stroke-miterlimit="10"/>
<path d="M230.641 303.89L233.741 337.222" stroke="#0B132A" stroke-width="0.8721" stroke-miterlimit="10"/>
<path d="M283.84 315.517C283.84 315.517 288.393 318.803 294.395 322.166C301.871 326.355 311.594 330.663 317.56 328.889" stroke="#0B132A" stroke-width="0.8721" stroke-miterlimit="10"/>
<path d="M282.965 289.064C282.965 289.064 270.756 295.459 278.896 310.284" stroke="#0B132A" stroke-width="0.8721" stroke-miterlimit="10"/>
<path d="M265.672 269.733C265.672 269.733 267.706 274.966 274.537 274.094" stroke="#0B132A" stroke-width="0.8721" stroke-miterlimit="10"/>
</g>
<mask id="mask33_2885_78112" style="mask-type:luminance" maskUnits="userSpaceOnUse" x="235" y="222" width="58" height="54">
<path d="M236.306 227.491C237.905 239.835 235.131 247.339 235.811 254.247C236.475 260.978 238.285 260.763 240.813 263.893C245.282 269.424 249.262 277.624 286.373 274.459C288.036 274.317 293.441 232.472 292.298 231.693C291.155 230.915 234.707 215.146 236.306 227.491Z" fill="white"/>
</mask>
<g mask="url(#mask33_2885_78112)">
<path d="M263.027 232.625C263.027 232.625 268.649 233.71 273.008 242.467C277.368 251.225 278.085 270.489 276.368 272.893C274.651 275.297 268.327 274.912 259.285 272.496C249.731 269.942 245.183 259.944 242.586 253.318C237.611 240.631 246.065 226.536 263.027 232.625Z" fill="#FEDDAB"/>
<path d="M249.657 283.351L251.606 265.813C251.606 265.813 260.091 262.336 266.58 268.314L268.839 270.973L270.466 282.173C270.466 282.173 261.494 284.878 249.657 283.351Z" fill="#FEDDAB"/>
<path d="M273.933 232.685C273.933 232.685 277.07 236.152 276.118 240.5C275.167 244.848 269.677 246.976 269.677 246.976C269.677 246.976 271.911 249.657 270.657 253.742L269.68 256.097C269.68 256.097 272.158 260.468 271.8 261.636C271.443 262.804 269.576 262.661 269.576 262.661C269.576 262.661 266.592 256.618 265.892 257.241C265.191 257.865 263.514 260.843 263.882 263.38C264.249 265.917 265.317 267.831 265.041 269.563C264.764 271.294 256.683 271.91 253.212 271.605C249.741 271.3 242.894 260.42 240.855 255.445C240.855 255.445 238.009 248.536 239.758 242.418C239.758 242.418 238.503 237.383 242.199 231.971C245.897 226.558 260.219 227.175 262.851 228.97C262.851 228.97 262.182 226.171 264.871 226.536C267.56 226.901 271.838 229.14 273.933 232.685Z" fill="#2D1865"/>
<path d="M269.615 258.319C269.615 258.319 268.338 254.755 265.772 256.646C263.207 258.536 267.742 266.916 269.956 266.18C272.17 265.445 270.322 259.672 269.615 258.319Z" fill="#FF7D56"/>
<path d="M246.669 283.338C246.669 283.338 247.26 278.271 248.344 277.758C249.428 277.244 263.279 274.426 271.589 278.876C275.421 281.554 275.331 283.693 275.331 283.693C275.331 283.693 251.942 280.686 246.669 283.338Z" fill="#F7D0C4"/>
<path d="M242.896 279.922C242.896 279.922 265.424 276.598 282.666 282.909C290.581 286.319 309.974 303.001 309.974 303.001L318.876 272.219C318.876 272.219 325.892 268.774 329.921 276.093C329.921 276.093 326.659 311.863 321.294 323.511C317.464 327.818 294.583 316.518 294.583 316.518C294.583 316.518 304.555 362.317 306.442 383.045C305.549 387.127 277.207 391.295 272.011 391.29C266.815 391.285 247.91 386.306 247.371 385.143C246.831 383.98 242.87 336.117 241.331 330.615C239.792 325.113 233.623 297.889 233.783 293.863C233.942 289.837 236.152 282.042 242.896 279.922Z" fill="#FD9B85"/>
<path d="M265.449 268.868C265.449 268.868 268.216 274.23 274.717 272.801" stroke="#0B132A" stroke-width="0.8721" stroke-miterlimit="10"/>
<path d="M254.611 241.614C248.664 239.147 242.025 243.262 242.025 243.262C242.025 243.262 242.338 239.197 246.137 237.489" stroke="#19A5FF" stroke-width="1.1628" stroke-miterlimit="10"/>
<path d="M242.36 245.452C242.36 245.452 243.739 245.191 245.973 248.034" stroke="#19A5FF" stroke-width="1.1628" stroke-miterlimit="10"/>
<path d="M265.863 229.762C265.863 229.762 272.864 230.4 274.058 237.696" stroke="#19A5FF" stroke-width="1.1628" stroke-miterlimit="10"/>
</g>
<mask id="mask34_2885_78112" style="mask-type:luminance" maskUnits="userSpaceOnUse" x="276" y="278" width="56" height="58">
<path d="M279.669 280.458C271.841 310.26 278.724 310.941 280.611 313.13C289.428 323.354 323.838 333.816 329.388 335.275C333.036 336.234 330.167 328.322 330.167 328.322C330.167 328.322 310.393 308.04 304.003 300.123C297.877 292.533 282.165 270.957 279.669 280.458Z" fill="white"/>
</mask>
<g mask="url(#mask34_2885_78112)">
<path d="M325.904 275.353L324.797 275.508L326.842 270.175C326.842 270.175 333.171 269.55 334.441 272.366L332.121 279.321L325.904 275.353Z" fill="#F99F19"/>
<path d="M322.576 277.918L324.49 273.477C324.49 273.477 329.701 272.305 332.7 276.58C333.585 278.141 333.207 278.154 333.207 278.154L331.795 281.783L322.576 277.918Z" fill="#F7D0C4"/>
<path d="M241.085 281.305C241.085 281.305 264.18 278.939 281.264 285.865C289.073 289.55 307.647 306.796 307.647 306.796L318.745 276.787C318.745 276.787 326.099 273.672 329.7 281.056C329.7 281.056 323.995 316.216 317.769 327.49C313.592 331.583 291.116 319.507 291.116 319.507C291.116 319.507 298.177 365.098 298.708 385.624C297.528 389.615 268.472 392.578 263.197 392.363C257.921 392.147 239.06 386.468 238.59 385.299C238.12 384.129 237.299 336.746 236.105 331.255C234.91 325.765 230.468 298.656 230.899 294.69C231.33 290.724 234.096 283.123 241.085 281.305Z" fill="#61C1FF"/>
<path d="M284.711 314.697C284.711 314.697 289.474 317.971 295.672 321.276C303.391 325.393 313.337 329.559 319.072 327.505" stroke="#0B132A" stroke-width="0.8721" stroke-miterlimit="10"/>
<path d="M311.789 309.737C311.789 309.737 316.391 312.222 316.601 318.387" stroke="#0B132A" stroke-width="0.8721" stroke-miterlimit="10"/>
<path d="M310.509 307.422C310.509 307.422 315.251 305.746 318.523 310.779" stroke="#0B132A" stroke-width="0.8721" stroke-miterlimit="10"/>
<path d="M281.943 288.945C281.943 288.945 271.144 295.779 279.8 310.402" stroke="#0B132A" stroke-width="0.8721" stroke-miterlimit="10"/>
</g>
<mask id="mask35_2885_78112" style="mask-type:luminance" maskUnits="userSpaceOnUse" x="296" y="232" width="65" height="97">
<path d="M296.76 277.791C305.02 312.763 325.189 323.762 327.579 325.373C339.687 333.534 346.207 320.464 350.672 318.382C353.9 316.876 360.892 285.177 360.892 285.177C360.892 285.177 342.217 240.428 334.85 233.243C327.787 226.354 294.434 267.945 296.76 277.791Z" fill="white"/>
</mask>
<g mask="url(#mask35_2885_78112)">
<path d="M320.687 274.294L319.639 274.585L320.784 268.91C320.784 268.91 326.821 267.514 328.494 270.23L327.337 277.589L320.687 274.294Z" fill="#FEDDAB"/>
<path d="M321.667 259.088C321.667 259.088 320.133 253.749 321.666 252.716C323.2 251.683 325.483 252.87 325.483 252.87C325.483 252.87 328.188 252.119 329.394 253.302C330.6 254.484 331.01 256.494 331.01 256.494C331.01 256.494 332.672 256.64 333.481 258.236C334.289 259.833 334.336 263.157 334.336 263.157C334.336 263.157 333.119 265.923 330.871 265.637C328.623 265.35 321.667 259.088 321.667 259.088Z" fill="#FF7D56"/>
<path d="M319.565 264.248C319.565 264.248 317.321 257.446 317.767 256.427C318.213 255.408 322.491 243.799 322.491 243.799C322.491 243.799 324.311 245.367 323.986 247.542C323.661 249.717 321.94 256.433 321.94 256.433L323.168 261.739C323.168 261.739 321.471 263.707 319.565 264.248Z" fill="#FF7D56"/>
<path d="M321.006 269.459C321.006 269.459 316.635 258.452 317.393 256.728C318.151 255.004 323.911 255.037 325.078 255.318C326.243 255.599 330.185 259.343 330.99 260.935C331.794 262.526 330.475 268.944 329.134 270.527C327.793 272.11 322.487 271.467 321.006 269.459Z" fill="#FEDDAB"/>
<path d="M317.774 277.256L318.916 272.497C318.916 272.497 323.779 270.679 327.374 274.684C328.482 276.171 328.118 276.229 328.118 276.229L327.333 280.1L317.774 277.256Z" fill="#F7D0C4"/>
<path d="M237.452 289.914C237.452 289.914 259.349 284.772 276.93 289.764C285.05 292.574 305.716 307.853 305.716 307.853L311.63 276.108C311.63 276.108 318.225 272.076 322.876 279.136C322.876 279.136 322.985 315.462 318.779 327.633C315.405 332.279 291.801 322.705 291.801 322.705C291.801 322.705 305.886 368.091 309.673 388.84C309.171 393.027 281.622 399.482 276.499 399.89C271.377 400.298 252.28 396.78 251.64 395.651C251.001 394.521 242.648 346.576 240.62 341.151C238.592 335.725 229.981 308.767 229.764 304.695C229.547 300.623 231.002 292.587 237.452 289.914Z" fill="#61C1FF"/>
<path d="M285.367 318.496C285.367 318.496 290.544 321.287 297.128 323.932C305.329 327.228 315.715 330.299 320.997 327.476" stroke="#0B132A" stroke-width="0.8721" stroke-miterlimit="10"/>
<path d="M311.414 310.258C311.414 310.258 316.208 312.198 317.36 318.366" stroke="#0B132A" stroke-width="0.8721" stroke-miterlimit="10"/>
<path d="M309.838 308.119C309.838 308.119 314.2 305.816 318.197 310.597" stroke="#0B132A" stroke-width="0.8721" stroke-miterlimit="10"/>
<path d="M321.444 255.068L323.122 252.551C323.122 252.551 324.65 252.293 325.714 253.247" stroke="#0B132A" stroke-width="0.8721" stroke-miterlimit="10"/>
<path d="M324.16 254.722C324.124 254.57 326.761 252.266 326.761 252.266C326.761 252.266 329.73 252.575 330.523 254.123C331.316 255.67 331.198 256.578 331.198 256.578" stroke="#0B132A" stroke-width="0.8721" stroke-miterlimit="10"/>
<path d="M328.353 256.672C328.474 256.602 332.148 256.261 332.148 256.261C332.148 256.261 333.7 257.025 334.101 258.938C334.502 260.852 334.374 262.825 334.374 262.825C334.374 262.825 333.563 265.063 331.346 265.371" stroke="#0B132A" stroke-width="0.8721" stroke-miterlimit="10"/>
<path d="M331.013 260.465C331.013 260.465 331.629 261.171 331.387 262.673C331.145 264.176 331.31 267.979 329.239 270.111" stroke="#0B132A" stroke-width="0.8721" stroke-miterlimit="10"/>
</g>
</g>
</g>
</svg>
