<svg width="22" height="24" viewBox="0 0 22 24" fill="none" xmlns="http://www.w3.org/2000/svg">
<path d="M6.16283 20.2269C5.76987 20.3579 5.5575 20.7827 5.68849 21.1756C5.81947 21.5686 6.24421 21.781 6.63717 21.65L6.16283 20.2269ZM12.6308 21.3538L12.5627 20.6069L12.5627 20.6069L12.6308 21.3538ZM16.3692 20.5231L16.6982 21.1971L16.6982 21.1971L16.3692 20.5231ZM19.9414 17.2735L19.3586 16.8015L19.3586 16.8015L19.9414 17.2735ZM17.4982 15.2402L18.0286 15.7706L18.0286 15.7706L17.4982 15.2402ZM15.8531 16.8854L16.3834 17.4157L16.3834 17.4157L15.8531 16.8854ZM11.3846 16.8654C10.9704 16.8654 10.6346 17.2012 10.6346 17.6154C10.6346 18.0296 10.9704 18.3654 11.3846 18.3654V16.8654ZM19.5616 15.0359L19.1455 15.66L19.1455 15.66L19.5616 15.0359ZM7.66441 14.4909L7.99982 15.1617L7.99983 15.1617L7.66441 14.4909ZM12.136 14.0818L11.9386 14.8054L11.9386 14.8054L12.136 14.0818ZM13.8822 14.5581L14.0795 13.8345L14.0795 13.8345L13.8822 14.5581ZM14.4354 16.6415L14.9658 17.1718L14.9658 17.1718L14.4354 16.6415ZM12.9312 17.0851C12.6383 17.3779 12.6383 17.8528 12.9312 18.1457C13.2241 18.4386 13.699 18.4386 13.9919 18.1457L12.9312 17.0851ZM6.63717 21.65C6.80262 21.5948 7.09498 21.5701 7.55386 21.6028C7.99742 21.6345 8.51169 21.7118 9.08747 21.8023C10.1949 21.9762 11.5468 22.2057 12.6988 22.1008L12.5627 20.6069C11.6378 20.6912 10.4974 20.5053 9.32022 20.3204C8.7537 20.2314 8.17758 20.1435 7.66056 20.1066C7.15887 20.0709 6.62045 20.0744 6.16283 20.2269L6.63717 21.65ZM12.6988 22.1008C13.4777 22.0298 14.1076 21.9984 14.6938 21.8923C15.3181 21.7793 15.9068 21.5833 16.6982 21.1971L16.0403 19.8491C15.345 20.1884 14.8882 20.3327 14.4267 20.4162C13.9273 20.5066 13.4313 20.5278 12.5627 20.6069L12.6988 22.1008ZM16.6982 21.1971C17.4475 20.8314 18.1812 20.2354 18.8227 19.619C19.4715 18.9957 20.0625 18.3157 20.5242 17.7455L19.3586 16.8015C18.9202 17.3427 18.3722 17.9717 17.7834 18.5374C17.1875 19.1101 16.5851 19.5832 16.0403 19.8491L16.6982 21.1971ZM16.9679 14.7099L15.3227 16.3551L16.3834 17.4157L18.0286 15.7706L16.9679 14.7099ZM14.0907 16.8654H11.3846V18.3654H14.0907V16.8654ZM15.3227 16.3551C14.996 16.6818 14.5528 16.8654 14.0907 16.8654V18.3654C14.9506 18.3654 15.7753 18.0238 16.3834 17.4157L15.3227 16.3551ZM19.9776 14.4119C19.0316 13.7812 17.7719 13.9059 16.9679 14.7099L18.0286 15.7706C18.3269 15.4722 18.7944 15.4259 19.1455 15.66L19.9776 14.4119ZM20.5242 17.7455C21.3971 16.6678 21.0735 15.1425 19.9776 14.4119L19.1455 15.66C19.5651 15.9397 19.6321 16.4637 19.3586 16.8015L20.5242 17.7455ZM1.83077 14.2115H5.15385V12.7115H1.83077V14.2115ZM5.23462 14.2923V21.7692H6.73462V14.2923H5.23462ZM5.15385 21.85H1.83077V23.35H5.15385V21.85ZM1.75 21.7692V14.2923H0.25V21.7692H1.75ZM1.83077 21.85C1.78616 21.85 1.75 21.8138 1.75 21.7692H0.25C0.25 22.6423 0.957738 23.35 1.83077 23.35V21.85ZM5.23462 21.7692C5.23462 21.8138 5.19846 21.85 5.15385 21.85V23.35C6.02688 23.35 6.73462 22.6423 6.73462 21.7692H5.23462ZM5.15385 14.2115C5.19845 14.2115 5.23462 14.2477 5.23462 14.2923H6.73462C6.73462 13.4193 6.02688 12.7115 5.15385 12.7115V14.2115ZM1.83077 12.7115C0.957735 12.7115 0.25 13.4193 0.25 14.2923H1.75C1.75 14.2477 1.78616 14.2115 1.83077 14.2115V12.7115ZM6.73541 15.7939L7.99982 15.1617L7.329 13.82L6.06459 14.4523L6.73541 15.7939ZM10.2651 14.6269H10.6058V13.1269H10.2651V14.6269ZM11.9386 14.8054L13.6848 15.2816L14.0795 13.8345L12.3333 13.3583L11.9386 14.8054ZM13.9051 16.1112L12.9312 17.0851L13.9919 18.1457L14.9658 17.1718L13.9051 16.1112ZM13.6848 15.2816C14.0524 15.3819 14.1745 15.8418 13.9051 16.1112L14.9658 17.1718C16.0495 16.088 15.5582 14.2378 14.0795 13.8345L13.6848 15.2816ZM10.6058 14.6269C11.0561 14.6269 11.5043 14.6869 11.9386 14.8054L12.3333 13.3583C11.7703 13.2047 11.1894 13.1269 10.6058 13.1269V14.6269ZM7.99983 15.1617C8.70318 14.81 9.47876 14.6269 10.2651 14.6269V13.1269C9.24589 13.1269 8.24064 13.3642 7.329 13.82L7.99983 15.1617ZM16.0346 7.64615C16.0346 9.06722 14.8826 10.2192 13.4615 10.2192V11.7192C15.711 11.7192 17.5346 9.89565 17.5346 7.64615H16.0346ZM13.4615 10.2192C12.0405 10.2192 10.8885 9.06722 10.8885 7.64615H9.38846C9.38846 9.89565 11.212 11.7192 13.4615 11.7192V10.2192ZM10.8885 7.64615C10.8885 6.22508 12.0405 5.07308 13.4615 5.07308V3.57308C11.212 3.57308 9.38846 5.39666 9.38846 7.64615H10.8885ZM13.4615 5.07308C14.8826 5.07308 16.0346 6.22508 16.0346 7.64615H17.5346C17.5346 5.39666 15.711 3.57308 13.4615 3.57308V5.07308ZM10.1385 6.89615C8.71739 6.89615 7.56538 5.74415 7.56538 4.32308H6.06538C6.06538 6.57257 7.88896 8.39615 10.1385 8.39615V6.89615ZM7.56538 4.32308C7.56538 2.90201 8.71739 1.75 10.1385 1.75V0.25C7.88896 0.25 6.06538 2.07358 6.06538 4.32308H7.56538ZM10.1385 1.75C11.5595 1.75 12.7115 2.90201 12.7115 4.32308H14.2115C14.2115 2.07358 12.388 0.25 10.1385 0.25V1.75Z" fill="#13D1FF"/>
</svg>
