<svg width="640" height="433" viewBox="0 0 640 433" fill="none" xmlns="http://www.w3.org/2000/svg">
<path d="M606.248 276.92C583.629 339.446 541.104 394.226 482.036 418.3C474.353 421.426 466.508 424.078 458.541 426.243C416.398 437.714 370.294 433.724 331.446 412.817C314.959 403.938 299.924 392.207 283.377 383.456C266.829 374.705 247.933 368.983 229.922 373.302C214.415 377.022 201.331 387.68 188.158 397.175C157.104 419.559 119.764 437.273 82.9911 429.585C66.0704 426.052 49.4085 416.265 41.5504 399.906C24.1818 363.738 56.9382 320.739 50.3043 280.741C46.0592 255.142 26.6701 235.971 14.6166 213.38C-6.0067 174.737 -3.56318 123.405 20.6185 87.1905C44.8001 50.9755 89.4508 31.7788 130.389 39.9931C180.31 50.0085 218.053 95.1232 266.595 111.063C296.953 121.036 329.914 118.06 358.908 104.926C405.753 83.6997 470.111 51.1455 522.829 56.4482C550.863 59.2695 578.359 72.5526 596.862 95.2348C620.253 123.868 627.265 164.519 623.363 202.275C620.686 227.838 614.933 252.927 606.248 276.92Z" fill="#DAF0FF"/>
<path d="M621.298 326.376C620.258 326.375 619.222 326.241 618.212 325.977C615.017 325.139 612.245 323.031 610.459 320.083C608.672 317.136 608.005 313.57 608.597 310.116C609.184 306.662 610.991 303.579 613.639 301.497C616.286 299.414 619.581 298.489 622.845 298.911C626.11 299.333 629.101 301.069 631.206 303.765C633.316 306.462 634.376 309.915 634.182 313.421C633.983 316.926 632.54 320.218 630.146 322.626C627.752 325.034 624.587 326.375 621.298 326.376ZM621.263 305.027C619.551 305.033 617.899 305.708 616.62 306.925C615.341 308.142 614.524 309.817 614.32 311.633C614.121 313.45 614.549 315.282 615.525 316.784C616.5 318.286 617.963 319.355 619.626 319.787C620.521 320.019 621.447 320.061 622.358 319.909C623.268 319.758 624.139 319.417 624.926 318.905C625.712 318.394 626.394 317.722 626.936 316.929C627.479 316.135 627.872 315.236 628.086 314.28C628.305 313.325 628.345 312.335 628.2 311.364C628.061 310.393 627.742 309.461 627.26 308.622C626.782 307.783 626.155 307.053 625.408 306.474C624.667 305.894 623.826 305.477 622.93 305.245C622.383 305.1 621.825 305.025 621.263 305.022V305.027Z" fill="#E7F6FF"/>
<path d="M609.518 340.992C610.25 337.761 608.393 334.506 605.367 333.723C602.337 332.939 599.291 334.923 598.554 338.154C597.823 341.385 599.679 344.64 602.71 345.423C605.736 346.207 608.781 344.223 609.518 340.992Z" fill="#E7F6FF"/>
<path d="M27.4663 325.063C24.0481 324.983 20.7973 323.467 18.4196 320.844C16.0419 318.221 14.7293 314.702 14.7666 311.053C14.804 307.402 16.1883 303.915 18.6191 301.349C21.0499 298.782 24.331 297.342 27.75 297.342C31.1691 297.342 34.4501 298.782 36.8809 301.349C39.3117 303.915 40.696 307.402 40.7334 311.053C40.7707 314.702 39.4581 318.221 37.0804 320.844C34.7027 323.467 31.4519 324.983 28.0337 325.063H27.4663ZM27.4663 303.719H27.1727C25.3265 303.762 23.5707 304.581 22.2863 305.997C21.002 307.414 20.2928 309.314 20.3128 311.285C20.3328 313.256 21.0803 315.14 22.3931 316.526C23.7058 317.913 25.4779 318.69 27.3245 318.69C29.1711 318.69 30.9431 317.913 32.2559 316.526C33.5687 315.14 34.3162 313.256 34.3362 311.285C34.3562 309.314 33.647 307.414 32.3627 305.997C31.0783 304.581 29.3224 303.762 27.4763 303.719H27.4663Z" fill="#E7F6FF"/>
<path d="M18.2093 348.327C21.3205 348.183 23.7338 345.375 23.5996 342.053C23.4654 338.732 20.8345 336.155 17.7232 336.298C14.6121 336.442 12.1987 339.25 12.333 342.572C12.4671 345.893 15.098 348.47 18.2093 348.327Z" fill="#E7F6FF"/>
<path d="M352.886 100.968C349.786 100.978 346.786 99.8039 344.427 97.6574C342.069 95.5103 340.508 92.5333 340.027 89.2641C339.546 85.9954 340.177 82.6507 341.807 79.8358C343.436 77.0208 345.955 74.921 348.909 73.9174C351.862 72.9137 355.054 73.0715 357.908 74.3632C360.762 75.6543 363.088 77.9937 364.466 80.9579C365.844 83.9216 366.182 87.3147 365.42 90.5217C364.658 93.7293 362.846 96.5395 360.311 98.4437C358.137 100.078 355.545 100.958 352.886 100.968ZM352.846 79.6084C351.035 79.6068 349.292 80.3512 347.982 81.6869C346.672 83.0226 345.896 84.8472 345.814 86.7791C345.733 88.711 346.353 90.6025 347.545 92.0583C348.738 93.5141 350.411 94.4227 352.216 94.5943C354.02 94.7654 355.817 94.1873 357.232 92.9791C358.646 91.7714 359.57 90.0271 359.809 88.1101C360.049 86.193 359.587 84.2511 358.519 82.689C357.451 81.1269 355.858 80.0653 354.075 79.7253C353.67 79.6482 353.258 79.6089 352.846 79.6084Z" fill="#E7F6FF"/>
<path d="M326.416 100.191C328.966 98.2817 329.583 94.5279 327.795 91.806C326.007 89.0835 322.49 88.4246 319.941 90.3331C317.391 92.2422 316.774 95.996 318.562 98.7185C320.349 101.44 323.866 102.1 326.416 100.191Z" fill="#E7F6FF"/>
<path d="M640 172.355C640 166.513 637.825 160.91 633.958 156.778C630.086 152.647 624.841 150.327 619.367 150.327C618.909 150.327 618.456 150.327 618.008 150.374C618.038 149.896 618.053 149.413 618.053 148.924C618.053 145.793 617.426 142.698 616.216 139.846C615.007 136.993 613.245 134.449 611.041 132.382C608.836 130.315 606.248 128.773 603.441 127.859C600.64 126.945 597.683 126.68 594.777 127.081C591.866 127.482 589.074 128.541 586.575 130.186C584.082 131.831 581.942 134.026 580.305 136.622C578.668 139.219 577.568 142.159 577.075 145.246C576.587 148.333 576.717 151.496 577.463 154.524C574.97 152.592 572.098 151.282 569.067 150.689C566.037 150.096 562.921 150.235 559.945 151.097C556.974 151.958 554.217 153.519 551.883 155.667C549.549 157.814 547.693 160.492 546.454 163.505C545.219 166.518 544.627 169.788 544.727 173.076C544.826 176.365 545.617 179.587 547.036 182.507C548.459 185.426 550.47 187.97 552.933 189.949C555.392 191.93 558.238 193.296 561.259 193.948C562.493 197.437 564.534 200.536 567.196 202.953C569.854 205.369 573.049 207.026 576.473 207.766C579.892 208.506 583.44 208.306 586.77 207.185C590.099 206.063 593.11 204.058 595.519 201.355C597.982 203.339 600.829 204.709 603.854 205.363C606.88 206.017 610.001 205.938 612.992 205.133C615.988 204.327 618.77 202.815 621.143 200.709C623.517 198.602 625.413 195.954 626.702 192.96C630.614 191.37 633.983 188.548 636.357 184.868C638.731 181.188 640 176.824 640 172.355Z" fill="white"/>
<path d="M95.2785 119.383C95.2785 113.541 93.1052 107.939 89.2368 103.808C85.3684 99.6771 80.1215 97.3558 74.6502 97.3542C74.1923 97.3542 73.7395 97.3542 73.2916 97.402C73.3214 96.9238 73.3363 96.4403 73.3363 95.9515C73.3358 92.821 72.7103 89.726 71.5009 86.8739C70.2921 84.0212 68.5274 81.4767 66.3247 79.4099C64.122 77.343 61.5317 75.8011 58.7268 74.8872C55.922 73.9728 52.9668 73.7077 50.0585 74.1089C47.1502 74.5105 44.3554 75.5689 41.8604 77.2139C39.3653 78.8594 37.2275 81.0538 35.5893 83.6503C33.9511 86.2474 32.8503 89.1872 32.3601 92.2737C31.8699 95.3607 32.0017 98.5236 32.7466 101.552C30.2529 99.6214 27.3859 98.3111 24.356 97.7176C21.3261 97.1241 18.2102 97.2628 15.2369 98.123C12.2637 98.9827 9.5086 100.543 7.17379 102.688C4.83898 104.834 2.98373 107.51 1.74418 110.52C0.504632 113.531 -0.0877541 116.8 0.0104991 120.087C0.108752 123.375 0.895151 126.596 2.31198 129.517C3.72881 132.437 5.74011 134.981 8.19829 136.963C10.6565 138.946 13.4991 140.315 16.5177 140.97C17.7519 144.457 19.7943 147.552 22.4538 149.966C25.1133 152.38 28.3031 154.034 31.7245 154.773C35.1458 155.513 38.687 155.313 42.0165 154.194C45.3461 153.074 48.3551 151.071 50.7622 148.372C53.2251 150.357 56.0738 151.727 59.0981 152.38C62.1224 153.034 65.2458 152.955 68.2377 152.15C71.2297 151.345 74.0147 149.832 76.387 147.726C78.7594 145.62 80.659 142.971 81.946 139.977C85.8631 138.394 89.2363 135.576 91.6176 131.898C93.9995 128.22 95.276 123.854 95.2785 119.383Z" fill="white"/>
<path d="M474.864 432.848H178.006V425.94H474.864C475.722 425.94 476.545 426.304 477.151 426.952C477.758 427.6 478.099 428.478 478.099 429.394C478.099 430.31 477.758 431.188 477.151 431.836C476.545 432.484 475.722 432.848 474.864 432.848Z" fill="#426572"/>
<path d="M164.728 432.848H146.578C145.72 432.848 144.897 432.484 144.291 431.836C143.684 431.188 143.343 430.31 143.343 429.394C143.343 428.478 143.684 427.6 144.291 426.952C144.897 426.304 145.72 425.94 146.578 425.94H164.728C165.586 425.94 166.409 426.304 167.015 426.952C167.622 427.6 167.963 428.478 167.963 429.394C167.963 430.31 167.622 431.188 167.015 431.836C166.409 432.484 165.586 432.848 164.728 432.848Z" fill="#426572"/>
<path d="M134.798 432.848H129.015C128.157 432.848 127.335 432.484 126.728 431.836C126.121 431.188 125.781 430.31 125.781 429.394C125.781 428.478 126.121 427.6 126.728 426.952C127.335 426.304 128.157 425.94 129.015 425.94H134.798C135.656 425.94 136.479 426.304 137.086 426.952C137.692 427.6 138.033 428.478 138.033 429.394C138.033 430.31 137.692 431.188 137.086 431.836C136.479 432.484 135.656 432.848 134.798 432.848Z" fill="#426572"/>
<path d="M578.956 432.848H487.714V425.94H578.956C579.812 425.94 580.638 426.304 581.245 426.952C581.853 427.6 582.191 428.478 582.191 429.394C582.191 430.31 581.853 431.188 581.245 431.836C580.638 432.484 579.812 432.848 578.956 432.848Z" fill="#426572"/>
<path d="M112.473 432.848H21.2256V425.94H112.473C113.331 425.94 114.154 426.304 114.76 426.952C115.367 427.6 115.708 428.478 115.708 429.394C115.708 430.31 115.367 431.188 114.76 431.836C114.154 432.484 113.331 432.848 112.473 432.848Z" fill="#426572"/>
<path d="M493.616 65.6514V430.303H128.647V65.6514C128.664 58.9376 131.169 52.5039 135.615 47.7561C140.062 43.0082 146.087 40.3322 152.376 40.3125H469.887C476.176 40.3322 482.202 43.0082 486.648 47.7561C491.094 52.5039 493.599 58.9376 493.616 65.6514Z" fill="white"/>
<path d="M469.848 100.441H148.434V430.302H469.848V100.441Z" fill="white"/>
<path opacity="0.4" d="M491.626 58.4245V63.5624C488.694 56.5383 479.592 51.3846 468.892 51.3846H151.38C138.327 51.3846 127.652 59.0568 127.652 68.44V303.848H126.656V58.4245C126.656 49.0467 137.331 41.3691 150.385 41.3691H467.897C480.951 41.3745 491.626 49.0467 491.626 58.4245Z" fill="#C1CEDE"/>
<path d="M494.612 432.96H123.67V65.1201C123.678 57.5578 126.495 50.3076 131.503 44.9597C136.512 39.6119 143.302 36.6031 150.385 36.5933H467.897C474.98 36.6031 481.77 39.6119 486.779 44.9597C491.787 50.3076 494.604 57.5578 494.612 65.1201V192.271H488.64V65.1201C488.634 59.2479 486.447 53.618 482.559 49.4651C478.67 45.3124 473.397 42.9762 467.897 42.9691H150.385C144.885 42.9762 139.612 45.3124 135.723 49.4651C131.835 53.618 129.648 59.2479 129.642 65.1201V426.584H488.64V266.656H494.612V432.96Z" fill="black"/>
<path d="M153.207 130.046H468.534V107.635L468.031 99.229H186.088H149.728L149.226 107.635V130.046H153.207Z" fill="#E2F2FF"/>
<path d="M450.613 111.583H163.713C161.926 111.583 160.478 113.129 160.478 115.036V116.63C160.478 118.537 161.926 120.084 163.713 120.084H450.613C452.399 120.084 453.848 118.537 453.848 116.63V115.036C453.848 113.129 452.399 111.583 450.613 111.583Z" fill="#61C1FF"/>
<path d="M472.834 432.428H145.448V96.1865H472.834V432.428ZM151.42 426.053H466.862V102.562H151.42V426.053Z" fill="#0B132A"/>
<path d="M425.824 326.961H352.966V406.128H425.824V326.961Z" fill="#DDE4ED"/>
<path d="M346.829 326.961H201.112V406.128H346.829V326.961Z" fill="#DDE4ED"/>
<path d="M425.739 164.111H361.715V193.865H425.739V164.111Z" fill="#FF5A78"/>
<path d="M425.739 199.263H361.715V229.017H425.739V199.263Z" fill="#A5DBFF"/>
<path d="M425.739 269.578H361.715V299.332H425.739V269.578Z" fill="#FFC46B"/>
<path d="M425.739 234.419H361.715V264.173H425.739V234.419Z" fill="#65DC7F"/>
<path opacity="0.2" d="M182.684 98.5018C186.188 91.5298 188.345 83.8782 189.03 75.9993C189.713 68.1208 188.91 60.1759 186.666 52.635C184.422 45.094 180.784 38.1104 175.966 32.0977C171.149 26.085 165.25 21.1655 158.62 17.6304C151.99 14.0953 144.763 12.0166 137.366 11.5173C129.97 11.018 122.555 12.1083 115.56 14.7236C108.566 17.3389 102.134 21.4261 96.6456 26.7431C91.1573 32.0601 86.7236 38.4988 83.6082 45.678C79.287 54.341 77.0529 64.0163 77.1072 73.8309C77.1614 83.6455 79.5024 93.2917 83.9192 101.9C88.336 110.508 94.6897 117.807 102.408 123.14C110.125 128.473 118.965 131.672 128.129 132.448C126.53 132.852 124.906 133.18 123.257 133.431C131.933 134.767 140.781 133.885 149.075 130.859C157.369 127.833 164.873 122.749 170.969 116.025C175.843 110.996 179.813 105.057 182.684 98.5018Z" fill="#606060"/>
<path opacity="0.2" d="M506.396 20.6943C499.24 18.7026 491.785 18.2605 484.467 19.3941C477.149 20.5276 470.118 23.214 463.788 27.2946C457.458 31.3752 451.957 36.7675 447.609 43.1537C443.262 49.5399 440.157 56.7908 438.476 64.4785C436.795 72.1662 436.573 80.1355 437.822 87.9167C439.072 95.6979 441.768 103.133 445.752 109.784C449.735 116.435 454.926 122.167 461.017 126.643C467.109 131.118 473.978 134.246 481.219 135.842C490.114 138.324 499.449 138.403 508.377 136.074C517.31 133.744 525.557 129.078 532.38 122.497C539.198 115.915 544.378 107.625 547.449 98.3736C550.52 89.1223 551.39 79.1998 549.972 69.5016C550.709 71.0674 551.385 72.6773 551.998 74.3313C551.206 65.0119 548.35 56.0267 543.672 48.1135C538.994 40.2005 532.623 33.5858 525.084 28.8129C519.371 24.9111 513.035 22.1594 506.396 20.6943Z" fill="#606060"/>
<path opacity="0.2" d="M186.038 335.189C189.272 328.726 191.259 321.636 191.883 314.339C192.507 307.042 191.755 299.685 189.671 292.704C187.586 285.722 184.212 279.258 179.749 273.692C175.284 268.125 169.821 263.571 163.68 260.298C157.54 257.024 150.847 255.098 143.998 254.633C137.148 254.168 130.28 255.173 123.801 257.589C117.321 260.006 111.361 263.784 106.272 268.701C101.184 273.618 97.0701 279.574 94.1737 286.217C90.1664 294.249 88.0942 303.219 88.1444 312.319C88.1942 321.419 90.3645 330.363 94.4593 338.344C98.5541 346.325 104.446 353.093 111.601 358.037C118.757 362.981 126.953 365.946 135.45 366.665C133.967 367.037 132.463 367.341 130.936 367.579C138.981 368.818 147.187 368.001 154.878 365.195C162.57 362.389 169.527 357.673 175.179 351.437C179.697 346.774 183.378 341.267 186.038 335.189Z" fill="#606060"/>
<path d="M126.333 118.66C156.924 118.66 181.723 92.1846 181.723 59.5242C181.723 26.8643 156.924 0.388184 126.333 0.388184C95.7418 0.388184 70.9426 26.8643 70.9426 59.5242C70.9426 92.1846 95.7418 118.66 126.333 118.66Z" fill="#65DC7F"/>
<path d="M179.086 63.7482C179.084 72.2276 177.375 80.6071 174.074 88.3192C170.773 96.0314 165.957 102.896 159.953 108.446C153.949 113.997 146.898 118.104 139.277 120.49C131.655 122.876 123.643 123.484 115.782 122.273C128.963 120.239 141.016 113.204 149.733 102.455C158.45 91.7059 163.248 77.9638 163.248 63.7456C163.248 49.5278 158.45 35.7858 149.733 25.037C141.016 14.2881 128.963 7.25221 115.782 5.21803C123.644 4.00753 131.656 4.61595 139.278 7.00201C146.899 9.38813 153.951 13.496 159.955 19.0473C165.959 24.5986 170.775 31.4632 174.076 39.1759C177.376 46.8886 179.085 55.2689 179.086 63.7482Z" fill="#A7E59C"/>
<path d="M125.014 124.659C113.468 124.659 102.182 121.004 92.5816 114.155C82.9811 107.307 75.4992 97.5725 71.0809 86.1842C66.6626 74.7953 65.507 62.264 67.76 50.1741C70.0124 38.0842 75.5729 26.9792 83.7376 18.2632C91.9023 9.54725 102.304 3.61185 113.628 1.20766C124.953 -1.19653 136.69 0.0384576 147.357 4.75644C158.024 9.4744 167.141 17.4635 173.555 27.7133C179.968 37.9632 183.391 50.0134 183.39 62.34C183.372 78.8631 177.215 94.7034 166.272 106.386C155.328 118.069 140.491 124.641 125.014 124.659ZM125.014 6.39193C114.65 6.39193 104.518 9.67327 95.8996 15.8209C87.282 21.9686 80.565 30.7065 76.5985 40.9297C72.6326 51.1529 71.5945 62.4022 73.6165 73.255C75.6386 84.1083 80.6297 94.077 87.9588 101.902C95.2874 109.726 104.625 115.055 114.791 117.213C124.956 119.372 135.492 118.264 145.069 114.03C154.644 109.795 162.828 102.624 168.587 93.4234C174.345 84.2225 177.418 73.4059 177.418 62.34C177.404 47.5065 171.878 33.2849 162.053 22.7959C152.229 12.3069 138.908 6.40745 125.014 6.39193Z" fill="#426572"/>
<path d="M500.32 9.36719C486.02 9.39391 472.316 15.4807 462.218 26.2899C452.12 37.0991 446.455 51.7464 446.467 67.0126C446.48 82.2791 452.169 96.916 462.285 107.706C472.401 118.497 486.115 124.557 500.414 124.557C514.712 124.557 528.428 118.497 538.546 107.706C548.658 96.916 554.347 82.2791 554.362 67.0126C554.376 51.7464 548.708 37.0991 538.61 26.2899C528.513 15.4807 514.807 9.39391 500.509 9.36719H500.32Z" fill="#A5DBFF"/>
<path d="M554.824 67.6334C554.809 81.2485 550.281 94.4189 542.044 104.813C533.803 115.206 522.386 122.153 509.815 124.423C497.24 126.693 484.318 124.14 473.338 117.216C462.357 110.292 454.025 99.4437 449.817 86.591C450.097 86.4358 450.388 86.3025 450.687 86.1925C456.197 84.1416 461.138 90.0286 465.249 94.4386C473.924 103.742 486.783 108.694 498.896 106.473C511.01 104.252 521.874 94.5183 525.178 81.8781C528.164 70.5025 525.372 57.3364 531.329 47.3847C533.061 44.5754 535.39 42.2394 538.123 40.5645C540.855 38.8896 543.915 37.9226 547.061 37.7412C552.177 46.7533 554.859 57.0967 554.824 67.6334Z" fill="#19A5FF"/>
<path d="M501.813 128.544C486.696 128.544 472.199 122.132 461.509 110.72C450.82 99.3082 444.815 83.8302 444.815 67.6913C444.815 51.5522 450.82 36.0741 461.509 24.6621C472.199 13.2501 486.696 6.83887 501.813 6.83887H502.002C517.121 6.86565 531.608 13.3026 542.278 24.7335C552.948 36.1645 558.93 51.6531 558.905 67.7923C558.88 83.9312 552.849 99.3985 542.144 110.792C531.439 122.185 516.932 128.57 501.813 128.544ZM501.813 13.2147C488.322 13.2408 475.393 18.9839 465.867 29.1821C456.34 39.3803 450.996 53.1995 451.008 67.6021C451.021 82.0051 456.388 95.8137 465.932 105.993C475.476 116.173 488.414 121.892 501.907 121.892C515.394 121.892 528.333 116.173 537.879 105.993C547.419 95.8137 552.789 82.0051 552.799 67.6021C552.814 53.1995 547.469 39.3803 537.943 29.1821C528.418 18.9839 515.489 13.2408 501.997 13.2147H501.813Z" fill="#426572"/>
<path d="M508.755 110.265C491.198 110.265 487.664 95.8499 486.813 92.2422V63.4127H476.686V48.9978C481.352 46.5351 485.442 42.9875 488.655 38.6154C491.868 34.2433 494.123 29.158 495.254 23.7334H505.381V48.9978H520.56V63.4127H505.381V88.6771C505.879 92.6354 507.904 95.5311 512.134 95.8871C516.519 95.5311 518.888 93.3633 519.062 92.5185L518.888 92.3326C518.928 92.3278 518.972 92.3411 519.002 92.3687C519.037 92.3969 519.057 92.4372 519.062 92.4813C519.062 92.4936 519.062 92.5058 519.062 92.5185L523.954 103.145C523.954 103.145 519.565 110.265 508.755 110.265Z" fill="white"/>
<path d="M121.595 250.587C107.296 250.614 93.5914 256.701 83.4932 267.51C73.3951 278.319 67.7301 292.966 67.7426 308.233C67.755 323.5 73.4443 338.136 83.5599 348.926C93.676 359.717 107.39 365.778 121.69 365.778C135.989 365.778 149.704 359.717 159.819 348.926C169.935 338.136 175.624 323.5 175.637 308.233C175.649 292.966 169.984 278.319 159.886 267.51C149.788 256.701 136.084 250.614 121.784 250.587H121.595Z" fill="#FF5A78"/>
<path d="M176.1 308.853C176.084 322.468 171.556 335.639 163.318 346.032C155.08 356.426 143.664 363.373 131.089 365.643C118.515 367.913 105.594 365.36 94.6131 358.436C83.6321 351.512 75.3001 340.663 71.0919 327.811C71.3725 327.656 71.6637 327.522 71.9628 327.412C77.472 325.361 82.4138 331.248 86.5245 335.658C95.1989 344.962 108.059 349.914 120.172 347.693C132.285 345.472 143.149 335.738 146.454 323.098C149.44 311.722 146.648 298.556 152.605 288.604C154.338 285.795 156.663 283.459 159.395 281.784C162.128 280.109 165.19 279.142 168.336 278.961C173.45 287.973 176.136 298.316 176.1 308.853Z" fill="#F60C36"/>
<path d="M123.088 369.764C107.972 369.764 93.474 363.352 82.7846 351.941C72.0957 340.528 66.0903 325.05 66.0903 308.911C66.0903 292.773 72.0957 277.294 82.7846 265.882C93.474 254.47 107.972 248.059 123.088 248.059H123.277C138.394 248.086 152.881 254.523 163.553 265.953C174.224 277.384 180.205 292.873 180.181 309.012C180.156 325.151 174.126 340.619 163.42 352.012C152.712 363.405 138.205 369.79 123.088 369.764ZM123.088 254.435C109.597 254.461 96.6685 260.204 87.1421 270.402C77.6158 280.6 72.2719 294.42 72.2838 308.822C72.2962 323.225 77.6636 337.034 87.2073 347.213C96.7511 357.394 109.689 363.112 123.18 363.112C136.671 363.112 149.609 357.394 159.153 347.213C168.697 337.034 174.064 323.225 174.077 308.822C174.089 294.42 168.745 280.6 159.218 270.402C149.692 260.204 136.763 254.461 123.272 254.435H123.088Z" fill="#426572"/>
<path d="M115.285 341.975V303.401L105.331 313.927L95.2884 302.769L117.758 279.269H133.022V341.975H115.285Z" fill="white"/>
<path d="M348.835 312.348H203.835L233.695 268.323L253.601 288.896L282.043 236.821L348.835 312.348Z" fill="#DDE4ED"/>
<path d="M259.061 230.977C261.805 230.977 264.487 230.109 266.769 228.481C269.051 226.853 270.829 224.539 271.88 221.833C272.93 219.126 273.204 216.148 272.669 213.274C272.133 210.4 270.812 207.761 268.872 205.689C266.931 203.617 264.459 202.207 261.768 201.635C259.076 201.064 256.286 201.357 253.751 202.478C251.215 203.599 249.049 205.498 247.524 207.934C245.999 210.37 245.186 213.234 245.186 216.164C245.202 220.087 246.668 223.845 249.267 226.62C251.865 229.394 255.385 230.96 259.061 230.977Z" fill="#DDE4ED"/>
<path d="M494.412 242.831H488.44V254.786H494.412V242.831Z" fill="black"/>
<path d="M494.412 202.897H488.44V235.127H494.412V202.897Z" fill="black"/>
<path d="M145.747 88.3636C129.493 90.8236 109.457 84.4584 109.457 84.4584L99.5783 86.5571C99.1454 86.6463 98.699 86.6299 98.2729 86.5093C97.8464 86.3887 97.4513 86.1666 97.1164 85.8605C96.7814 85.5539 96.5157 85.1709 96.339 84.7394C96.1618 84.308 96.0787 83.8399 96.0947 83.3692C96.2947 75.8265 96.1136 68.278 95.5522 60.7561C95.5024 60.2125 95.587 59.6647 95.7981 59.1669C96.0086 58.6696 96.338 58.2397 96.7531 57.9209C97.1686 57.6016 97.6548 57.4045 98.1635 57.3492C98.6726 57.294 99.1862 57.3822 99.653 57.6053C101.879 58.778 104.318 59.4166 106.799 59.4756C112.796 59.4225 118.032 54.513 120.709 48.6845C123.387 42.8559 123.994 39.0782 124.556 32.5961C124.8 29.7642 125.188 26.624 127.204 24.8069C130.688 21.6562 136.421 25.3382 137.55 30.0936C138.68 34.8489 136.859 36.9476 135.321 41.5861C134.325 44.604 134.544 44.774 133.738 47.8822C133.636 48.1346 133.585 48.4076 133.59 48.6827C133.595 48.9578 133.656 49.2285 133.768 49.4762C133.912 49.649 134.089 49.7883 134.286 49.8851C134.482 49.982 134.696 50.0346 134.913 50.0394C138.167 50.4857 140.302 51.7822 143.562 52.1647C145.06 52.3375 146.483 52.952 147.672 53.9392C148.861 54.9264 149.77 56.2473 150.296 57.7541V83.8367C150.301 84.4589 150.185 85.0758 149.955 85.6475C149.725 86.2197 149.387 86.7345 148.961 87.1596C148.535 87.5841 148.032 87.9104 147.482 88.1171C146.932 88.3232 146.348 88.4056 145.767 88.3583L145.747 88.3636Z" fill="#00C42B"/>
</svg>
