<svg width="1160" height="160" viewBox="0 0 1160 160" fill="none" xmlns="http://www.w3.org/2000/svg">
<g clip-path="url(#clip0_726_50242)">
<rect width="1160" height="160" rx="20" fill="url(#paint0_linear_726_50242)"/>
<path fill-rule="evenodd" clip-rule="evenodd" d="M987.841 -427.643C1049.01 -424.972 1077.69 -349.63 1128.14 -314.929C1176.37 -281.749 1252.39 -281.798 1277.05 -228.698C1301.69 -175.625 1272.54 -111.936 1246.78 -59.3923C1225.54 -16.0385 1183.77 10.5962 1145.4 39.9057C1114.21 63.7381 1080.17 79.602 1044.21 95.3596C1002.73 113.538 963.177 147.109 918.564 139.315C873.253 131.398 839.888 92.2106 812.919 54.9486C787.466 19.782 789.268 -26.2547 770.425 -65.3629C740.439 -127.598 652.349 -174.998 669.937 -241.805C686.39 -304.302 783.652 -294.917 839.445 -327.532C892.023 -358.268 926.997 -430.299 987.841 -427.643Z" stroke="#0B132A" stroke-width="2"/>
<path fill-rule="evenodd" clip-rule="evenodd" d="M900.596 -452.863C980.563 -440.263 1029.46 -370.581 1079.4 -306.871C1128.54 -244.188 1185.05 -180.535 1176.14 -101.386C1166.12 -12.4263 1115.54 76.1768 1032.51 109.638C953.498 141.477 872.326 90.6694 796.665 51.5366C724.993 14.4667 653.342 -25.873 624.671 -101.299C590.287 -191.757 573.987 -300.966 633.734 -377.092C693.799 -453.623 804.494 -468.005 900.596 -452.863Z" stroke="#0B132A" stroke-width="2"/>
<path fill-rule="evenodd" clip-rule="evenodd" d="M899.411 -487.879C941.349 -490.833 967.236 -439.188 996.266 -408.778C1019.33 -384.614 1022.36 -340.702 1052.88 -327.116C1101.39 -305.523 1172.03 -350.409 1210.22 -313.53C1241.08 -283.737 1212.09 -227.179 1198.54 -186.484C1186.46 -150.22 1157.74 -122.985 1136.24 -91.3824C1119.41 -66.6481 1095.2 -46.9052 1084.57 -18.943C1069.65 20.2904 1087.61 70.5803 1062.02 103.85C1038.65 134.233 993.883 156.445 956.64 147.38C912.76 136.699 899.815 74.9812 859.533 54.565C832.315 40.7701 799.301 51.2725 768.8 52.1779C714.323 53.795 624.822 113.563 606.989 62.0614C585.069 -1.24351 728.877 -40.693 714.023 -106.018C700.207 -166.782 572.593 -133.36 549.404 -191.198C532.768 -232.695 606.69 -259.033 641.359 -287.26C669.123 -309.865 703.321 -321.421 733.33 -340.947C759.321 -357.858 784.479 -374.946 807.703 -395.492C840.481 -424.491 855.755 -484.803 899.411 -487.879Z" stroke="#0B132A" stroke-width="2"/>
</g>
<rect x="0.5" y="0.5" width="1159" height="159" rx="19.5" stroke="#FEE719" style="mix-blend-mode:hard-light"/>
<defs>
<linearGradient id="paint0_linear_726_50242" x1="278.361" y1="-9.74622" x2="845.724" y2="201.217" gradientUnits="userSpaceOnUse">
<stop stop-color="#FEE719"/>
<stop offset="1" stop-color="#FEE719" stop-opacity="0.15"/>
</linearGradient>
<clipPath id="clip0_726_50242">
<rect width="1160" height="160" rx="20" fill="white"/>
</clipPath>
</defs>
</svg>
