<svg width="36" height="37" viewBox="0 0 36 37" fill="none" xmlns="http://www.w3.org/2000/svg">
<path fill-rule="evenodd" clip-rule="evenodd" d="M34.0381 26.546V5.25766C34.0381 4.12846 33.5896 3.04551 32.7911 2.24704C31.9926 1.44857 30.9097 1 29.7805 1H12.7498C11.6206 1 10.5377 1.44857 9.73923 2.24704C8.94076 3.04551 8.49219 4.12846 8.49219 5.25766V26.546C8.49219 27.6752 8.94076 28.7581 9.73923 29.5566C10.5377 30.355 11.6206 30.8036 12.7498 30.8036H29.7805C30.9097 30.8036 31.9926 30.355 32.7911 29.5566C33.5896 28.7581 34.0381 27.6752 34.0381 26.546Z" stroke="#00AC4F" stroke-width="2" stroke-linecap="round" stroke-linejoin="round"/>
<path d="M8.06669 6.18396L3.80052 7.73801C2.73977 8.12437 1.87588 8.9162 1.39883 9.93937C0.921771 10.9625 0.870599 12.1333 1.25656 13.1942L8.53716 33.1988C8.72846 33.7243 9.0214 34.2069 9.39926 34.6192C9.77712 35.0314 10.2325 35.3652 10.7394 35.6015C11.2462 35.8377 11.7947 35.9718 12.3534 35.996C12.9121 36.0203 13.4701 35.9342 13.9955 35.7428L25.8488 31.0636M14.8683 11.6444H25.5125M14.8683 15.9021H27.6413M14.8683 20.1597H21.2548" stroke="#00AC4F" stroke-width="2" stroke-linecap="round" stroke-linejoin="round"/>
</svg>
