<svg width="466" height="339" viewBox="0 0 466 339" fill="none" xmlns="http://www.w3.org/2000/svg">
<g clip-path="url(#clip0_3094_81830)">
<mask id="mask0_3094_81830" style="mask-type:luminance" maskUnits="userSpaceOnUse" x="0" y="0" width="466" height="339">
<path d="M466 0H0V339H466V0Z" fill="white"/>
</mask>
<g mask="url(#mask0_3094_81830)">
<path d="M214.138 154.738C216.813 153.195 221.192 153.195 223.869 154.738L367.612 237.696C370.289 239.241 370.289 241.768 367.612 243.313L272.334 298.298C269.658 299.842 265.279 299.842 262.602 298.298L118.858 215.343C116.182 213.798 116.182 211.27 118.858 209.726L214.138 154.738Z" fill="#6FC1EA"/>
<path d="M369.62 240.505L369.618 246.053C369.649 247.094 368.98 248.14 367.612 248.929L272.334 303.914C269.658 305.459 265.279 305.46 262.603 303.916L118.859 220.958C117.522 220.188 116.853 219.17 116.853 218.154L116.856 212.652C116.855 212.632 116.858 212.612 116.858 212.594C116.882 213.591 117.547 214.585 118.859 215.343L262.603 298.298C265.279 299.841 269.658 299.842 272.334 298.298L367.612 243.313C368.964 242.533 369.634 241.503 369.62 240.474V240.505Z" fill="#C4E9FB"/>
<path d="M218.648 36.1969C218.648 33.1078 220.837 31.8451 223.512 33.389L367.259 116.343C369.936 117.887 372.126 121.677 372.126 124.766L372.124 234.737C372.124 237.826 369.934 239.09 367.258 237.546L223.511 154.591C220.836 153.046 218.646 149.255 218.646 146.167L218.648 36.1969Z" fill="#C4E9FB"/>
<path d="M363.365 227.436C364.436 228.054 365.311 227.549 365.311 226.314L365.312 125.329C365.312 124.093 364.436 122.577 363.365 121.959L227.407 43.4986C226.335 42.881 225.46 43.3856 225.46 44.6213L225.459 145.605C225.459 146.841 226.334 148.357 227.405 148.975L363.365 227.436Z" fill="#E2F6FC"/>
<path d="M166.766 192.425C166.228 192.733 166.225 193.239 166.761 193.547L300.134 270.518C300.669 270.827 301.547 270.829 302.084 270.521L355.343 240.047C355.879 239.74 355.881 239.236 355.346 238.926L221.973 161.954C221.438 161.645 220.561 161.643 220.024 161.951L166.766 192.425Z" fill="#C4E9FB"/>
<path d="M173.595 239.917C173.06 240.226 173.059 240.731 173.595 241.04L218.075 266.711C218.61 267.019 219.486 267.019 220.021 266.711L252.387 248.033C252.921 247.724 252.921 247.218 252.387 246.909L207.906 221.239C207.371 220.93 206.495 220.93 205.96 221.238L173.595 239.917Z" fill="#D5D1EA"/>
<path d="M372.124 234.737L372.125 124.766C372.125 121.679 369.935 117.887 367.259 116.343L223.513 33.3896C222.23 32.6498 221.063 32.5605 220.19 33.0026C220.206 32.9947 220.217 32.9842 220.232 32.977L224.056 30.7787C224.931 30.3169 226.114 30.4036 227.412 31.1532L371.159 114.108C373.835 115.652 376.025 119.442 376.025 122.531L376.024 232.503C376.023 234.045 375.476 235.129 374.597 235.637L370.72 237.861C371.587 237.345 372.124 236.265 372.124 234.737Z" fill="#6FC1EA"/>
<path d="M215.612 175.637C215.079 175.945 214.205 175.946 213.671 175.637L207.759 172.225C207.224 171.916 207.224 171.412 207.759 171.104L213.671 167.692C214.205 167.384 215.079 167.384 215.612 167.692L221.524 171.104C222.059 171.412 222.059 171.916 221.524 172.225L215.612 175.637Z" fill="#6FC1EA"/>
<path d="M224.659 180.858C224.125 181.166 223.252 181.166 222.718 180.857L216.805 177.446C216.271 177.137 216.271 176.633 216.805 176.326L222.718 172.913C223.252 172.605 224.125 172.605 224.659 172.913L230.57 176.325C231.105 176.633 231.105 177.137 230.571 177.446L224.659 180.858Z" fill="#6FC1EA"/>
<path d="M233.706 186.078C233.172 186.387 232.298 186.387 231.763 186.078L225.852 182.666C225.319 182.359 225.319 181.855 225.852 181.547L231.765 178.133C232.298 177.825 233.172 177.825 233.706 178.133L239.616 181.547C240.152 181.855 240.153 182.359 239.618 182.666L233.706 186.078Z" fill="#6FC1EA"/>
<path d="M242.753 191.298C242.219 191.606 241.343 191.606 240.81 191.298L234.898 187.887C234.364 187.579 234.364 187.074 234.898 186.766L240.81 183.354C241.343 183.045 242.219 183.045 242.753 183.354L248.664 186.766C249.198 187.074 249.198 187.579 248.664 187.887L242.753 191.298Z" fill="#6FC1EA"/>
<path d="M251.799 196.52C251.265 196.828 250.39 196.828 249.856 196.519L243.944 193.108C243.411 192.8 243.411 192.295 243.944 191.988L249.856 188.575C250.39 188.267 251.265 188.267 251.799 188.575L257.71 191.988C258.244 192.295 258.245 192.8 257.711 193.108L251.799 196.52Z" fill="#6FC1EA"/>
<path d="M260.845 201.74C260.311 202.048 259.437 202.048 258.903 201.74L252.992 198.329C252.458 198.021 252.458 197.516 252.992 197.208L258.904 193.796C259.437 193.487 260.311 193.487 260.845 193.796L266.757 197.208C267.292 197.516 267.292 198.021 266.757 198.329L260.845 201.74Z" fill="#6FC1EA"/>
<path d="M269.892 206.962C269.357 207.27 268.483 207.27 267.949 206.962L262.039 203.549C261.504 203.241 261.504 202.737 262.038 202.429L267.95 199.016C268.483 198.708 269.357 198.708 269.892 199.016L275.803 202.429C276.338 202.737 276.338 203.241 275.804 203.549L269.892 206.962Z" fill="#6FC1EA"/>
<path d="M278.938 212.184C278.404 212.492 277.53 212.492 276.996 212.184L271.085 208.772C270.551 208.464 270.55 207.959 271.084 207.651L276.997 204.239C277.529 203.931 278.404 203.931 278.938 204.239L284.849 207.651C285.385 207.959 285.385 208.464 284.85 208.772L278.938 212.184Z" fill="#6FC1EA"/>
<path d="M287.985 217.403C287.45 217.711 286.577 217.711 286.043 217.403L280.132 213.992C279.597 213.683 279.597 213.178 280.131 212.871L286.044 209.459C286.577 209.15 287.45 209.15 287.985 209.459L293.896 212.871C294.431 213.178 294.431 213.683 293.896 213.992L287.985 217.403Z" fill="#6FC1EA"/>
<path d="M297.031 222.624C296.497 222.933 295.623 222.933 295.089 222.624L289.177 219.213C288.643 218.905 288.643 218.4 289.177 218.092L295.089 214.68C295.623 214.372 296.497 214.372 297.031 214.68L302.942 218.092C303.477 218.4 303.477 218.905 302.942 219.213L297.031 222.624Z" fill="#6FC1EA"/>
<path d="M306.077 227.845C305.543 228.153 304.669 228.153 304.135 227.845L298.224 224.434C297.689 224.125 297.689 223.62 298.224 223.313L304.135 219.901C304.669 219.592 305.543 219.592 306.077 219.901L311.989 223.313C312.524 223.62 312.524 224.125 311.989 224.433L306.077 227.845Z" fill="#6FC1EA"/>
<path d="M315.124 233.066C314.59 233.374 313.716 233.374 313.182 233.065L307.27 229.654C306.735 229.346 306.735 228.84 307.269 228.534L313.182 225.121C313.716 224.812 314.59 224.812 315.124 225.121L321.035 228.534C321.57 228.841 321.57 229.346 321.035 229.654L315.124 233.066Z" fill="#6FC1EA"/>
<path d="M324.17 238.286C323.637 238.595 322.763 238.595 322.228 238.286L316.317 234.874C315.783 234.566 315.783 234.062 316.317 233.754L322.228 230.342C322.762 230.033 323.637 230.033 324.171 230.342L330.082 233.754C330.616 234.062 330.616 234.566 330.083 234.875L324.17 238.286Z" fill="#6FC1EA"/>
<path d="M224.838 170.639C224.304 170.948 223.431 170.948 222.897 170.639L216.702 167.064C216.168 166.756 216.168 166.251 216.703 165.943L219.33 164.426C219.864 164.118 220.738 164.118 221.271 164.426L227.467 168.002C228.001 168.31 228.001 168.814 227.467 169.122L224.838 170.639Z" fill="#6FC1EA"/>
<path d="M234.211 176.047C233.677 176.356 232.803 176.356 232.269 176.047L226.074 172.474C225.541 172.165 225.54 171.661 226.074 171.353L228.703 169.835C229.237 169.527 230.109 169.527 230.644 169.835L236.84 173.411C237.374 173.719 237.374 174.224 236.84 174.531L234.211 176.047Z" fill="#6FC1EA"/>
<path d="M243.584 181.456C243.049 181.766 242.175 181.766 241.641 181.456L235.446 177.882C234.912 177.573 234.912 177.069 235.446 176.761L238.075 175.244C238.608 174.936 239.482 174.936 240.016 175.244L246.211 178.819C246.745 179.127 246.745 179.631 246.211 179.939L243.584 181.456Z" fill="#6FC1EA"/>
<path d="M252.957 186.866C252.423 187.175 251.548 187.175 251.014 186.866L244.82 183.291C244.287 182.983 244.287 182.477 244.82 182.17L247.448 180.653C247.982 180.345 248.856 180.345 249.39 180.654L255.584 184.229C256.119 184.537 256.119 185.041 255.584 185.349L252.957 186.866Z" fill="#6FC1EA"/>
<path d="M262.328 192.275C261.794 192.583 260.92 192.583 260.387 192.275L254.192 188.7C253.659 188.391 253.657 187.887 254.192 187.579L256.82 186.062C257.355 185.754 258.229 185.754 258.762 186.062L264.957 189.637C265.491 189.945 265.491 190.45 264.957 190.757L262.328 192.275Z" fill="#6FC1EA"/>
<path d="M271.702 197.683C271.167 197.991 270.293 197.991 269.76 197.683L263.565 194.108C263.03 193.8 263.03 193.297 263.565 192.988L266.193 191.471C266.726 191.162 267.6 191.162 268.135 191.471L274.33 195.046C274.864 195.354 274.864 195.858 274.33 196.166L271.702 197.683Z" fill="#6FC1EA"/>
<path d="M281.074 203.093C280.54 203.401 279.666 203.401 279.133 203.093L272.937 199.518C272.403 199.21 272.403 198.705 272.937 198.397L275.565 196.881C276.1 196.572 276.974 196.572 277.508 196.881L283.701 200.456C284.236 200.764 284.236 201.268 283.702 201.576L281.074 203.093Z" fill="#6FC1EA"/>
<path d="M290.447 208.503C289.913 208.811 289.038 208.811 288.503 208.503L282.31 204.927C281.775 204.619 281.775 204.115 282.31 203.806L284.939 202.29C285.473 201.981 286.345 201.981 286.88 202.29L293.074 205.864C293.609 206.173 293.609 206.677 293.075 206.985L290.447 208.503Z" fill="#6FC1EA"/>
<path d="M299.819 213.911C299.286 214.219 298.412 214.219 297.879 213.911L291.682 210.337C291.149 210.029 291.149 209.523 291.682 209.216L294.311 207.699C294.846 207.391 295.719 207.391 296.252 207.699L302.447 211.274C302.982 211.582 302.982 212.086 302.448 212.395L299.819 213.911Z" fill="#6FC1EA"/>
<path d="M309.191 219.32C308.658 219.629 307.782 219.629 307.249 219.32L301.055 215.746C300.522 215.437 300.522 214.933 301.055 214.625L303.684 213.108C304.217 212.8 305.09 212.8 305.625 213.108L311.819 216.684C312.354 216.992 312.354 217.496 311.819 217.803L309.191 219.32Z" fill="#6FC1EA"/>
<path d="M318.565 224.729C318.03 225.038 317.156 225.038 316.622 224.729L310.428 221.154C309.893 220.846 309.893 220.341 310.428 220.034L313.055 218.517C313.589 218.208 314.464 218.208 314.998 218.517L321.192 222.091C321.726 222.399 321.725 222.904 321.192 223.212L318.565 224.729Z" fill="#6FC1EA"/>
<path d="M327.938 230.138C327.403 230.447 326.529 230.447 325.996 230.138L319.8 226.565C319.266 226.255 319.266 225.751 319.8 225.443L322.427 223.925C322.962 223.617 323.836 223.617 324.371 223.925L330.565 227.501C331.101 227.809 331.101 228.314 330.565 228.621L327.938 230.138Z" fill="#6FC1EA"/>
<path d="M337.31 235.547C336.775 235.856 335.901 235.856 335.367 235.547L329.172 231.972C328.639 231.664 328.639 231.16 329.172 230.852L331.801 229.335C332.335 229.026 333.209 229.026 333.742 229.335L339.937 232.909C340.472 233.218 340.472 233.723 339.938 234.031L337.31 235.547Z" fill="#6FC1EA"/>
<path d="M346.707 240.97C346.173 241.279 345.3 241.279 344.765 240.971L338.571 237.396C338.036 237.087 338.036 236.582 338.571 236.275L341.199 234.757C341.733 234.449 342.606 234.449 343.141 234.758L349.336 238.333C349.87 238.641 349.87 239.145 349.336 239.453L346.707 240.97Z" fill="#6FC1EA"/>
<path d="M337.765 246.131C337.23 246.44 336.356 246.44 335.822 246.131L325.387 240.11C324.853 239.801 324.853 239.297 325.387 238.989L331.298 235.578C331.833 235.268 332.706 235.268 333.241 235.578L343.677 241.6C344.211 241.907 344.21 242.412 343.675 242.72L337.765 246.131Z" fill="#6FC1EA"/>
<path d="M179.342 196.569C178.807 196.878 177.932 196.878 177.398 196.569L171.487 193.158C170.952 192.849 170.952 192.345 171.487 192.037L177.398 188.625C177.932 188.316 178.806 188.316 179.34 188.625L185.252 192.037C185.786 192.345 185.786 192.849 185.252 193.158L179.342 196.569Z" fill="#6FC1EA"/>
<path d="M188.387 201.79C187.853 202.098 186.979 202.098 186.446 201.79L180.533 198.379C179.999 198.071 179.999 197.565 180.534 197.258L186.446 193.845C186.979 193.537 187.853 193.537 188.386 193.845L194.298 197.258C194.834 197.565 194.834 198.071 194.299 198.379L188.387 201.79Z" fill="#6FC1EA"/>
<path d="M197.434 207.011C196.9 207.319 196.026 207.319 195.491 207.011L189.58 203.6C189.045 203.291 189.045 202.787 189.58 202.479L195.491 199.067C196.026 198.759 196.899 198.759 197.432 199.067L203.344 202.479C203.879 202.787 203.879 203.291 203.345 203.6L197.434 207.011Z" fill="#6FC1EA"/>
<path d="M297.051 259.187C296.517 259.495 295.643 259.495 295.109 259.187L289.197 255.774C288.662 255.467 288.662 254.962 289.197 254.655L290.591 253.849C291.125 253.541 291.999 253.541 292.533 253.849L298.444 257.262C298.978 257.57 298.978 258.075 298.444 258.383L297.051 259.187Z" fill="#6FC1EA"/>
<path d="M283.399 256.623C282.865 256.932 281.991 256.932 281.458 256.623L275.547 253.213C275.011 252.903 275.011 252.399 275.547 252.092L276.939 251.288C277.473 250.978 278.347 250.978 278.882 251.288L284.793 254.699C285.328 255.008 285.328 255.511 284.793 255.819L283.399 256.623Z" fill="#6FC1EA"/>
<path d="M292.447 261.844C291.912 262.153 291.038 262.153 290.503 261.844L284.593 258.433C284.059 258.125 284.059 257.621 284.593 257.313L285.986 256.508C286.519 256.199 287.394 256.199 287.928 256.508L293.84 259.919C294.374 260.228 294.374 260.732 293.84 261.04L292.447 261.844Z" fill="#6FC1EA"/>
<path d="M301.492 267.065C300.959 267.373 300.084 267.373 299.55 267.065L293.639 263.652C293.105 263.345 293.105 262.84 293.639 262.532L295.032 261.728C295.566 261.42 296.44 261.42 296.974 261.728L302.886 265.14C303.42 265.448 303.42 265.953 302.886 266.261L301.492 267.065Z" fill="#6FC1EA"/>
<path d="M206.481 212.232C205.946 212.54 205.072 212.54 204.538 212.232L198.626 208.82C198.091 208.513 198.091 208.008 198.626 207.7L204.538 204.288C205.072 203.98 205.946 203.98 206.479 204.288L212.391 207.7C212.925 208.008 212.925 208.513 212.391 208.82L206.481 212.232Z" fill="#6FC1EA"/>
<path d="M256.273 240.968C255.739 241.277 254.865 241.277 254.33 240.968L207.673 214.042C207.138 213.733 207.138 213.229 207.673 212.921L213.585 209.508C214.119 209.2 214.993 209.2 215.526 209.508L262.183 236.436C262.718 236.743 262.718 237.248 262.185 237.557L256.273 240.968Z" fill="#6FC1EA"/>
<path d="M265.295 246.175C264.761 246.484 263.887 246.484 263.352 246.175L257.441 242.763C256.907 242.455 256.907 241.95 257.441 241.643L263.352 238.23C263.887 237.922 264.761 237.922 265.295 238.231L271.206 241.643C271.74 241.95 271.74 242.455 271.206 242.763L265.295 246.175Z" fill="#6FC1EA"/>
<path d="M274.341 251.396C273.807 251.705 272.933 251.705 272.4 251.396L266.488 247.985C265.953 247.677 265.953 247.172 266.488 246.864L272.4 243.451C272.933 243.144 273.807 243.144 274.341 243.452L280.252 246.864C280.787 247.172 280.787 247.677 280.253 247.985L274.341 251.396Z" fill="#6FC1EA"/>
<path d="M220.159 188.703C219.625 189.011 218.751 189.011 218.218 188.703L212.306 185.29C211.772 184.982 211.772 184.478 212.306 184.17L218.218 180.758C218.751 180.449 219.625 180.449 220.159 180.758L226.071 184.17C226.605 184.478 226.605 184.982 226.072 185.29L220.159 188.703Z" fill="#6FC1EA"/>
<path d="M211.09 183.467C210.556 183.776 209.681 183.776 209.147 183.467L198.713 177.445C198.178 177.136 198.178 176.634 198.713 176.325L204.625 172.914C205.159 172.606 206.033 172.606 206.566 172.914L217.002 178.935C217.535 179.243 217.535 179.748 217.002 180.056L211.09 183.467Z" fill="#6FC1EA"/>
<path d="M229.207 193.923C228.673 194.231 227.799 194.231 227.264 193.923L221.353 190.511C220.819 190.202 220.819 189.698 221.353 189.391L227.264 185.979C227.799 185.67 228.673 185.67 229.207 185.979L235.118 189.39C235.652 189.698 235.652 190.202 235.119 190.511L229.207 193.923Z" fill="#6FC1EA"/>
<path d="M238.253 199.144C237.719 199.451 236.844 199.451 236.31 199.143L230.399 195.731C229.865 195.424 229.865 194.919 230.399 194.612L236.31 191.199C236.844 190.891 237.719 190.891 238.253 191.199L244.164 194.611C244.697 194.919 244.697 195.424 244.164 195.731L238.253 199.144Z" fill="#6FC1EA"/>
<path d="M247.299 204.365C246.765 204.674 245.89 204.674 245.357 204.365L239.446 200.954C238.911 200.646 238.911 200.141 239.446 199.834L245.357 196.421C245.89 196.112 246.765 196.112 247.299 196.421L253.211 199.834C253.745 200.141 253.745 200.646 253.211 200.954L247.299 204.365Z" fill="#6FC1EA"/>
<path d="M256.346 209.587C255.812 209.895 254.937 209.895 254.404 209.586L248.492 206.175C247.957 205.866 247.957 205.362 248.492 205.054L254.404 201.642C254.937 201.333 255.812 201.333 256.346 201.642L262.257 205.054C262.792 205.362 262.792 205.866 262.257 206.175L256.346 209.587Z" fill="#6FC1EA"/>
<path d="M265.392 214.806C264.858 215.115 263.984 215.115 263.451 214.806L257.539 211.396C257.003 211.087 257.003 210.582 257.538 210.274L263.451 206.862C263.984 206.554 264.858 206.554 265.392 206.862L271.303 210.274C271.839 210.582 271.839 211.086 271.304 211.394L265.392 214.806Z" fill="#6FC1EA"/>
<path d="M274.439 220.028C273.905 220.336 273.031 220.336 272.496 220.028L266.586 216.616C266.05 216.308 266.05 215.804 266.584 215.495L272.497 212.083C273.031 211.774 273.905 211.774 274.439 212.083L280.35 215.495C280.885 215.804 280.885 216.308 280.35 216.616L274.439 220.028Z" fill="#6FC1EA"/>
<path d="M283.485 225.249C282.951 225.558 282.077 225.558 281.543 225.249L275.632 221.837C275.097 221.529 275.097 221.024 275.632 220.717L281.543 217.305C282.077 216.996 282.951 216.996 283.486 217.305L289.397 220.717C289.932 221.024 289.932 221.529 289.397 221.837L283.485 225.249Z" fill="#6FC1EA"/>
<path d="M292.532 230.47C291.998 230.778 291.124 230.778 290.59 230.47L284.679 227.059C284.143 226.75 284.143 226.245 284.679 225.937L290.59 222.526C291.124 222.217 291.998 222.217 292.532 222.526L298.444 225.937C298.977 226.245 298.977 226.75 298.444 227.058L292.532 230.47Z" fill="#6FC1EA"/>
<path d="M301.579 235.69C301.045 235.999 300.171 235.999 299.636 235.69L293.725 232.279C293.191 231.971 293.191 231.466 293.725 231.158L299.636 227.746C300.171 227.438 301.045 227.438 301.579 227.746L307.49 231.158C308.024 231.466 308.024 231.97 307.49 232.279L301.579 235.69Z" fill="#6FC1EA"/>
<path d="M310.624 240.911C310.09 241.22 309.216 241.22 308.682 240.911L302.77 237.5C302.236 237.191 302.236 236.687 302.77 236.379L308.682 232.966C309.216 232.658 310.09 232.658 310.625 232.966L316.536 236.379C317.069 236.687 317.069 237.191 316.536 237.5L310.624 240.911Z" fill="#6FC1EA"/>
<path d="M319.672 246.131C319.137 246.44 318.263 246.44 317.729 246.131L311.818 242.72C311.283 242.411 311.283 241.908 311.818 241.6L317.729 238.187C318.263 237.878 319.137 237.878 319.672 238.187L325.584 241.599C326.119 241.906 326.118 242.411 325.583 242.72L319.672 246.131Z" fill="#6FC1EA"/>
<path d="M328.718 251.353C328.184 251.661 327.309 251.661 326.775 251.353L320.864 247.942C320.329 247.633 320.329 247.13 320.863 246.821L326.775 243.408C327.309 243.1 328.184 243.1 328.718 243.408L334.63 246.821C335.164 247.128 335.164 247.633 334.629 247.942L328.718 251.353Z" fill="#6FC1EA"/>
<path d="M213.239 195.151C212.706 195.459 211.831 195.459 211.298 195.151L205.386 191.739C204.851 191.431 204.851 190.926 205.386 190.619L211.298 187.206C211.831 186.897 212.706 186.897 213.239 187.206L219.151 190.619C219.686 190.926 219.686 191.431 219.151 191.739L213.239 195.151Z" fill="#6FC1EA"/>
<path d="M204.193 189.93C203.659 190.238 202.786 190.238 202.252 189.93L189.665 182.666C189.131 182.359 189.131 181.854 189.665 181.546L195.578 178.133C196.111 177.825 196.985 177.825 197.519 178.133L210.105 185.397C210.639 185.705 210.639 186.21 210.105 186.518L204.193 189.93Z" fill="#6FC1EA"/>
<path d="M222.286 200.371C221.752 200.68 220.879 200.68 220.344 200.371L214.433 196.959C213.898 196.651 213.898 196.147 214.433 195.839L220.344 192.427C220.879 192.118 221.752 192.118 222.287 192.427L228.198 195.839C228.732 196.147 228.732 196.651 228.198 196.959L222.286 200.371Z" fill="#6FC1EA"/>
<path d="M231.332 205.592C230.799 205.9 229.925 205.9 229.392 205.592L223.479 202.181C222.945 201.872 222.945 201.368 223.479 201.06L229.392 197.648C229.925 197.34 230.799 197.34 231.333 197.648L237.245 201.06C237.779 201.368 237.779 201.872 237.245 202.181L231.332 205.592Z" fill="#6FC1EA"/>
<path d="M240.379 210.813C239.846 211.122 238.972 211.122 238.438 210.813L232.527 207.401C231.991 207.093 231.991 206.589 232.526 206.281L238.438 202.869C238.972 202.561 239.846 202.561 240.379 202.869L246.292 206.281C246.826 206.589 246.826 207.093 246.292 207.401L240.379 210.813Z" fill="#6FC1EA"/>
<path d="M249.427 216.035C248.893 216.343 248.019 216.343 247.485 216.035L241.573 212.622C241.039 212.314 241.039 211.809 241.573 211.502L247.485 208.09C248.018 207.781 248.893 207.781 249.427 208.091L255.338 211.502C255.873 211.81 255.873 212.314 255.338 212.622L249.427 216.035Z" fill="#6FC1EA"/>
<path d="M258.472 221.256C257.939 221.564 257.065 221.564 256.531 221.256L250.62 217.844C250.085 217.536 250.085 217.03 250.62 216.723L256.531 213.311C257.065 213.002 257.939 213.002 258.473 213.311L264.384 216.723C264.919 217.03 264.919 217.536 264.384 217.844L258.472 221.256Z" fill="#6FC1EA"/>
<path d="M267.52 226.476C266.986 226.784 266.112 226.784 265.578 226.476L259.666 223.064C259.132 222.756 259.132 222.252 259.666 221.944L265.578 218.532C266.112 218.224 266.986 218.224 267.52 218.532L273.431 221.944C273.966 222.252 273.966 222.756 273.431 223.064L267.52 226.476Z" fill="#6FC1EA"/>
<path d="M276.566 231.697C276.032 232.006 275.158 232.006 274.625 231.697L268.713 228.286C268.178 227.978 268.178 227.473 268.713 227.166L274.625 223.753C275.157 223.444 276.031 223.444 276.565 223.753L282.478 227.166C283.013 227.474 283.013 227.978 282.478 228.286L276.566 231.697Z" fill="#6FC1EA"/>
<path d="M285.613 236.917C285.079 237.226 284.205 237.226 283.671 236.917L277.76 233.506C277.225 233.198 277.225 232.693 277.759 232.386L283.671 228.973C284.204 228.665 285.078 228.665 285.613 228.973L291.524 232.386C292.059 232.693 292.059 233.198 291.524 233.506L285.613 236.917Z" fill="#6FC1EA"/>
<path d="M294.659 242.139C294.125 242.447 293.251 242.447 292.717 242.139L286.805 238.728C286.271 238.419 286.271 237.914 286.805 237.606L292.717 234.194C293.251 233.886 294.125 233.886 294.659 234.195L300.57 237.606C301.105 237.915 301.105 238.419 300.57 238.728L294.659 242.139Z" fill="#6FC1EA"/>
<path d="M303.705 247.359C303.172 247.668 302.298 247.668 301.765 247.359L295.852 243.948C295.318 243.64 295.318 243.135 295.852 242.827L301.765 239.415C302.298 239.106 303.172 239.106 303.705 239.415L309.617 242.827C310.151 243.136 310.151 243.64 309.618 243.948L303.705 247.359Z" fill="#6FC1EA"/>
<path d="M319.672 256.573C319.137 256.881 318.263 256.881 317.729 256.573L304.898 249.168C304.365 248.86 304.365 248.355 304.898 248.047L310.81 244.635C311.345 244.327 312.218 244.327 312.753 244.635L325.584 252.041C326.117 252.348 326.117 252.853 325.584 253.162L319.672 256.573Z" fill="#6FC1EA"/>
<path d="M208.805 203.034C208.272 203.343 207.398 203.343 206.865 203.034L200.953 199.623C200.419 199.314 200.419 198.809 200.953 198.502L206.865 195.089C207.398 194.782 208.272 194.782 208.806 195.089L214.719 198.502C215.253 198.809 215.253 199.314 214.719 199.623L208.805 203.034Z" fill="#6FC1EA"/>
<path d="M199.742 197.802C199.208 198.111 198.333 198.111 197.799 197.801L180.619 187.887C180.085 187.579 180.085 187.075 180.619 186.767L186.532 183.355C187.065 183.046 187.94 183.046 188.474 183.355L205.654 193.27C206.188 193.578 206.188 194.082 205.654 194.39L199.742 197.802Z" fill="#6FC1EA"/>
<path d="M217.853 208.254C217.32 208.562 216.445 208.562 215.911 208.254L210 204.843C209.464 204.535 209.464 204.029 209.999 203.722L215.911 200.31C216.445 200.002 217.32 200.002 217.853 200.31L223.766 203.722C224.299 204.029 224.299 204.535 223.766 204.843L217.853 208.254Z" fill="#6FC1EA"/>
<path d="M226.899 213.476C226.366 213.784 225.492 213.784 224.958 213.476L219.046 210.065C218.511 209.756 218.511 209.251 219.046 208.944L224.958 205.531C225.492 205.223 226.366 205.223 226.9 205.531L232.811 208.944C233.346 209.251 233.346 209.756 232.811 210.064L226.899 213.476Z" fill="#6FC1EA"/>
<path d="M235.946 218.696C235.413 219.004 234.539 219.004 234.005 218.696L228.092 215.285C227.557 214.976 227.557 214.472 228.092 214.164L234.005 210.752C234.539 210.443 235.413 210.443 235.946 210.752L241.858 214.164C242.392 214.472 242.392 214.976 241.858 215.285L235.946 218.696Z" fill="#6FC1EA"/>
<path d="M244.992 223.917C244.458 224.226 243.585 224.225 243.05 223.916L237.139 220.505C236.604 220.197 236.604 219.693 237.139 219.385L243.05 215.972C243.585 215.664 244.458 215.664 244.992 215.972L250.904 219.385C251.438 219.693 251.438 220.197 250.905 220.505L244.992 223.917Z" fill="#6FC1EA"/>
<path d="M254.039 229.139C253.505 229.447 252.631 229.447 252.098 229.138L246.185 225.727C245.652 225.419 245.652 224.914 246.185 224.606L252.098 221.194C252.631 220.886 253.505 220.886 254.039 221.194L259.95 224.606C260.486 224.914 260.486 225.419 259.95 225.727L254.039 229.139Z" fill="#6FC1EA"/>
<path d="M263.086 234.36C262.553 234.668 261.678 234.668 261.144 234.359L255.233 230.948C254.698 230.64 254.698 230.135 255.232 229.827L261.144 226.415C261.678 226.107 262.553 226.107 263.086 226.415L268.997 229.827C269.532 230.135 269.532 230.64 268.997 230.948L263.086 234.36Z" fill="#6FC1EA"/>
<path d="M272.133 239.58C271.598 239.888 270.724 239.888 270.191 239.579L264.279 236.169C263.745 235.86 263.745 235.355 264.279 235.048L270.191 231.635C270.724 231.327 271.598 231.327 272.133 231.635L278.044 235.048C278.579 235.355 278.579 235.86 278.044 236.169L272.133 239.58Z" fill="#6FC1EA"/>
<path d="M281.179 244.801C280.645 245.109 279.771 245.109 279.238 244.801L273.327 241.39C272.792 241.082 272.792 240.576 273.326 240.269L279.238 236.856C279.771 236.548 280.645 236.548 281.179 236.856L287.091 240.269C287.625 240.576 287.625 241.082 287.091 241.39L281.179 244.801Z" fill="#6FC1EA"/>
<path d="M290.226 250.022C289.692 250.33 288.817 250.33 288.283 250.022L282.372 246.61C281.838 246.302 281.838 245.798 282.372 245.49L288.283 242.078C288.817 241.77 289.692 241.77 290.226 242.078L296.137 245.49C296.672 245.798 296.672 246.302 296.137 246.61L290.226 250.022Z" fill="#6FC1EA"/>
<path d="M310.625 261.795C310.091 262.104 309.217 262.104 308.683 261.795L291.418 251.831C290.884 251.523 290.884 251.019 291.418 250.71L297.331 247.299C297.864 246.99 298.738 246.99 299.272 247.299L316.537 257.263C317.07 257.57 317.07 258.075 316.537 258.384L310.625 261.795Z" fill="#6FC1EA"/>
<path d="M197.88 164.212L206.715 169.289L227.854 156.91L219.24 151.939L197.88 164.212Z" fill="black" fill-opacity="0.3"/>
<path d="M372.808 240.493L362.367 234.469L341.71 247.282L351.398 252.848L372.808 240.493Z" fill="black" fill-opacity="0.3"/>
<path d="M359.602 232.956L296.465 196.522L275.808 209.335L338.464 245.336L359.602 232.956Z" fill="black" fill-opacity="0.3"/>
<path d="M293.734 194.671L230.597 158.237L209.94 171.05L272.596 207.051L293.734 194.671Z" fill="black" fill-opacity="0.3"/>
<path d="M346.427 314.173L355.783 308.887L325.502 291.448L329.58 289.657L275.362 258.433C283.524 252.949 287.62 246.143 287.62 239.331V230.147C287.621 222.633 282.654 215.121 272.721 209.387C262.787 203.654 249.769 200.788 236.748 200.788C223.73 200.788 210.711 203.656 200.78 209.387C190.846 215.121 185.879 222.633 185.879 230.146V239.33C185.879 246.845 190.846 254.357 200.778 260.089C210.712 265.822 223.731 268.69 236.75 268.689C247.437 268.69 258.121 266.754 267.1 262.891L286.882 274.285L281.576 277.281C281.576 277.281 280.448 278.261 282.514 279.452L342.791 314.165C342.791 314.165 344.73 315.133 346.427 314.173ZM192.247 230.146C192.247 223.574 196.592 217 205.282 211.986C213.972 206.97 225.36 204.465 236.748 204.463C248.139 204.463 259.529 206.97 268.219 211.986C276.908 217 281.252 223.575 281.252 230.147C281.252 236.72 276.907 243.293 268.219 248.307C259.528 253.322 248.139 255.83 236.75 255.83L205.738 246.338L192.247 230.146Z" fill="black" fill-opacity="0.3"/>
<path d="M276.929 206.553C266.996 200.82 253.977 197.954 240.957 197.954C227.938 197.954 214.92 200.82 204.988 206.553C195.055 212.285 190.088 219.799 190.088 227.312V236.497C190.088 244.009 195.055 251.523 204.987 257.255C214.921 262.988 227.94 265.855 240.959 265.854C253.978 265.855 266.996 262.988 276.929 257.255C286.862 251.523 291.829 244.011 291.829 236.498V227.312C291.83 219.799 286.863 212.285 276.929 206.553ZM272.427 245.472C263.736 250.489 252.348 252.995 240.959 252.995C229.57 252.995 218.181 250.489 209.49 245.472C200.8 240.457 196.456 233.883 196.456 227.312C196.456 220.739 200.8 214.168 209.49 209.152C218.18 204.138 229.568 201.631 240.957 201.629C252.348 201.629 263.737 204.138 272.427 209.152C281.117 214.168 285.461 220.739 285.461 227.312C285.461 233.885 281.114 240.457 272.427 245.472Z" fill="#8B8B8B"/>
<path d="M209.491 214.674C218.181 209.658 229.568 207.152 240.957 207.152C252.348 207.151 263.738 209.658 272.428 214.674C279.899 218.986 284.148 224.45 285.196 230.073C285.367 229.156 285.461 228.234 285.461 227.313C285.461 220.74 281.118 214.167 272.428 209.151C263.738 204.137 252.348 201.629 240.957 201.629C229.568 201.63 218.181 204.137 209.491 209.151C200.801 214.167 196.457 220.74 196.457 227.312C196.457 228.234 196.551 229.156 196.721 230.073C197.771 224.449 202.02 218.986 209.491 214.674Z" fill="#C1C1C1"/>
<path d="M240.958 202.96C229.569 202.96 218.181 205.466 209.491 210.481C200.801 215.497 196.457 222.07 196.457 228.642C196.457 235.214 200.801 241.788 209.491 246.803C218.182 251.819 229.571 254.326 240.96 254.326C252.349 254.326 263.737 251.819 272.428 246.803C281.115 241.788 285.462 235.216 285.462 228.642C285.462 222.07 281.118 215.497 272.428 210.481C263.738 205.466 252.349 202.959 240.958 202.96Z" fill="#77D2FF" fill-opacity="0.3"/>
<path d="M271.471 243.502C263.144 247.589 252.232 249.633 241.319 249.633C230.406 249.633 219.495 247.589 211.168 243.502C207.638 241.77 204.863 239.809 202.831 237.717C204.852 240.379 207.74 242.874 211.516 245.055C219.647 249.748 230.303 252.093 240.959 252.093C251.615 252.093 262.27 249.748 270.401 245.055C272.9 243.612 275.01 242.032 276.741 240.357C275.222 241.467 273.469 242.523 271.471 243.502Z" fill="white"/>
<path d="M276.929 206.553C266.996 200.82 253.977 197.954 240.957 197.954C227.938 197.954 214.92 200.82 204.988 206.553C195.055 212.285 190.088 219.799 190.088 227.312C190.088 234.825 195.055 242.338 204.987 248.071C214.921 253.804 227.94 256.671 240.959 256.669C253.978 256.671 266.996 253.804 276.929 248.071C286.862 242.339 291.829 234.827 291.829 227.312C291.83 219.799 286.863 212.285 276.929 206.553ZM272.427 245.472C263.736 250.489 252.348 252.995 240.959 252.995C229.57 252.995 218.181 250.489 209.49 245.472C200.8 240.457 196.456 233.884 196.456 227.312C196.456 220.739 200.8 214.167 209.49 209.151C218.18 204.137 229.568 201.631 240.957 201.629C252.348 201.629 263.737 204.137 272.427 209.151C281.117 214.167 285.461 220.739 285.461 227.312C285.461 233.885 281.114 240.457 272.427 245.472Z" fill="#C1C1C1"/>
<path d="M272.428 210.481C263.737 205.466 252.348 202.959 240.957 202.96C229.568 202.96 218.18 205.466 209.49 210.481C201.048 215.354 196.719 221.698 196.479 228.081C196.516 228.747 196.598 229.41 196.721 230.073C197.771 224.449 202.019 218.986 209.49 214.674C218.18 209.658 229.568 207.152 240.957 207.152C252.348 207.151 263.737 209.658 272.428 214.674C279.898 218.986 284.147 224.45 285.196 230.073C285.32 229.41 285.4 228.747 285.437 228.081C285.197 221.698 280.87 215.354 272.428 210.481Z" fill="#8B8B8B"/>
<path d="M276.028 206.674C266.344 201.085 253.65 198.292 240.957 198.292C228.266 198.293 215.573 201.086 205.889 206.675C196.205 212.263 191.362 219.589 191.362 226.914C191.362 234.238 196.205 241.564 205.889 247.152C215.573 252.742 228.266 255.537 240.959 255.536C253.651 255.537 266.344 252.742 276.028 247.152C285.711 241.564 290.553 234.239 290.553 226.914C290.554 219.589 285.712 212.263 276.028 206.674ZM272.427 245.472C263.736 250.489 252.348 252.995 240.959 252.995C229.57 252.995 218.181 250.489 209.49 245.472C200.8 240.457 196.456 233.884 196.456 227.312C196.456 220.74 200.8 214.167 209.49 209.151C218.18 204.137 229.568 201.631 240.957 201.629C252.348 201.629 263.737 204.137 272.427 209.151C281.117 214.167 285.461 220.74 285.461 227.313C285.461 233.885 281.114 240.457 272.427 245.472Z" fill="#AAAAAA"/>
<path d="M272.428 210.481C263.738 205.466 252.348 202.959 240.957 202.96C229.568 202.96 218.18 205.466 209.49 210.481C200.8 215.497 196.457 222.07 196.457 228.642C196.457 234.984 200.514 241.323 208.605 246.265C214.173 238.916 223.478 229.461 238.183 221.727C250.117 215.452 264.561 213.262 275.705 212.598C274.689 211.868 273.603 211.158 272.428 210.481Z" fill="white" fill-opacity="0.3"/>
<path d="M235.74 204.995C226.967 205.636 218.481 207.894 211.744 211.782C208.386 213.721 205.737 215.911 203.777 218.246C205.287 217.215 206.992 216.227 208.917 215.306C215.66 212.082 223.992 210.083 232.706 209.304C233.663 207.741 234.725 206.277 235.74 204.995Z" fill="white"/>
<path d="M270.172 211.781C262.499 207.352 252.556 205.036 242.502 204.82C241.513 206.214 240.722 207.671 240.125 208.939C240.459 208.934 240.792 208.927 241.125 208.927C252.783 208.926 264.44 211.054 273.334 215.305C274.93 216.069 276.378 216.877 277.689 217.718C275.779 215.58 273.279 213.574 270.172 211.781Z" fill="white"/>
<path d="M296.688 260.875L277.341 249.803C276.606 249.385 275.593 249.448 274.478 250.092C272.233 251.388 270.415 254.537 270.415 257.127C270.415 258.429 270.875 259.343 271.618 259.764L290.967 270.836C291.701 271.252 292.711 271.186 293.827 270.544C296.07 269.249 297.889 266.1 297.889 263.509C297.889 262.208 297.429 261.297 296.688 260.875Z" fill="#AAAAAA"/>
<path d="M297.89 263.509C297.89 266.1 296.07 269.249 293.826 270.544C292.711 271.186 291.701 271.251 290.967 270.835C290.224 270.416 289.763 269.501 289.763 268.199C289.763 265.609 291.582 262.459 293.826 261.165C294.942 260.52 295.954 260.457 296.689 260.875C297.429 261.297 297.89 262.208 297.89 263.509Z" fill="#B8BEC3"/>
<path d="M270.983 254.418C270.625 255.323 270.416 256.256 270.416 257.126C270.416 258.429 270.876 259.343 271.619 259.764L290.967 270.835C291.701 271.251 292.712 271.185 293.827 270.543C294.56 270.12 295.246 269.497 295.84 268.762L270.983 254.418Z" fill="#8B8B8B"/>
<path d="M359.337 292.001L299.723 258.588C298.354 257.81 296.469 257.928 294.386 259.13C290.203 261.544 287.621 266.281 287.621 271.108C287.621 273.537 288.478 275.239 289.865 276.023L348.671 310.57C350.04 311.346 351.923 311.225 354.001 310.026C358.183 307.611 361.575 301.741 361.575 296.914C361.575 294.488 360.72 292.787 359.337 292.001Z" fill="#5DDAD6"/>
<path d="M309.951 318.785C311.576 319.723 311.576 321.258 309.951 322.194L297.47 329.397C295.845 330.336 293.186 330.336 291.562 329.397L279.08 322.194C277.456 321.258 277.455 319.723 279.079 318.785L291.562 311.582C293.186 310.643 295.845 310.643 297.47 311.582L309.951 318.785Z" fill="#F763C3"/>
<path d="M104.532 240.666C106.157 241.604 106.157 243.138 104.532 244.075L92.0505 251.278C90.4251 252.216 87.7665 252.216 86.1424 251.278L73.6603 244.075C72.0362 243.138 72.0355 241.604 73.6596 240.666L86.1424 233.462C87.7665 232.524 90.4251 232.524 92.0505 233.462L104.532 240.666Z" fill="#F763C3"/>
<path d="M384.537 281.32C385.694 281.989 385.694 283.083 384.537 283.75L375.642 288.882C374.484 289.55 372.589 289.55 371.432 288.882L362.538 283.75C361.381 283.083 361.38 281.989 362.538 281.32L371.432 276.188C372.589 275.519 374.484 275.519 375.642 276.188L384.537 281.32Z" fill="#F763C3"/>
<path d="M412.707 293.112C413.449 293.54 413.449 294.241 412.707 294.668L407.013 297.954C406.271 298.381 405.058 298.381 404.317 297.954L398.622 294.668C397.881 294.241 397.881 293.54 398.622 293.112L404.317 289.826C405.058 289.398 406.271 289.398 407.013 289.826L412.707 293.112Z" fill="#F763C3"/>
<path d="M228.366 306.616C229.585 307.32 229.585 308.471 228.366 309.175L219.008 314.572C217.79 315.276 215.798 315.276 214.579 314.572L205.222 309.175C204.005 308.471 204.004 307.32 205.222 306.616L214.579 301.217C215.798 300.514 217.79 300.514 219.008 301.217L228.366 306.616Z" fill="#F763C3"/>
<path d="M103.549 270.32C104.29 270.748 104.29 271.449 103.549 271.876L97.8541 275.162C97.1127 275.589 95.8994 275.589 95.158 275.162L89.4635 271.876C88.7228 271.449 88.7221 270.748 89.4635 270.32L95.158 267.034C95.8994 266.606 97.1127 266.606 97.8541 267.034L103.549 270.32Z" fill="#F763C3"/>
<path d="M348.856 89.3889C348.856 91.8447 350.594 94.8589 352.723 96.0861L366.566 104.075C368.693 105.302 370.434 104.298 370.434 101.843V85.8655C370.434 83.4084 368.695 80.3955 366.566 79.167L352.723 71.1795C350.594 69.9516 348.856 70.9554 348.856 73.4125V89.3889Z" fill="#BB1DBE"/>
<path d="M370.435 101.842V85.8654C370.435 83.4083 368.696 80.396 366.567 79.1681L352.724 71.18C351.787 70.6399 350.927 70.5315 350.256 70.7891L352.59 69.3595C353.294 68.9121 354.29 68.9521 355.386 69.5855L369.23 77.5743C371.358 78.8022 373.098 81.8158 373.1 84.2715L373.097 100.249C373.097 101.508 372.64 102.384 371.908 102.775L369.347 104.309V104.306C370.019 103.889 370.435 103.04 370.435 101.842Z" fill="#E532C7"/>
<path d="M364.685 84.3466L363.92 83.0234L362.16 84.0398C362.469 84.4438 362.756 84.8676 363.016 85.3123L364.685 84.3466Z" fill="white"/>
<path d="M356.595 80.8278L354.836 77.7827L354.071 78.2255L355.74 81.1136C355.998 80.9671 356.287 80.8777 356.595 80.8278Z" fill="white"/>
<path d="M359.919 81.8556V78.8027L358.837 78.1792V81.2315C359.017 81.3117 359.194 81.3734 359.377 81.4799C359.564 81.5863 359.739 81.7295 359.919 81.8556Z" fill="white"/>
<path d="M352.415 83.1345L354.229 84.1804C354.246 83.7606 354.305 83.3789 354.402 83.0313L352.415 81.8862V83.1345Z" fill="white"/>
<path d="M364.355 88.7759C364.449 89.2331 364.508 89.6832 364.528 90.1227L366.341 91.1699V89.9223L364.355 88.7759Z" fill="white"/>
<path d="M359.377 82.9037C357.202 81.6476 355.435 82.6659 355.435 85.1795C355.435 86.3666 355.95 87.6333 356.471 88.854C357.013 90.118 357.711 90.8985 357.711 92.0002V94.3483C357.711 94.8706 358.081 95.5105 358.532 95.77L360.224 96.7482C360.676 97.0077 361.044 96.7948 361.044 96.2725C361.044 96.2725 361.046 94.663 361.044 93.9239C361.044 92.8234 361.744 92.8477 362.283 92.2085C362.806 91.5903 363.321 90.9169 363.323 89.731C363.321 87.2168 361.554 84.1586 359.377 82.9037ZM361.504 89.4485C361.504 89.4485 361.997 87.6064 359.694 83.878C359.694 83.878 362.799 86.0014 362.71 90.1456L361.504 89.4485Z" fill="white"/>
<path d="M321.123 73.4583C321.123 75.914 322.862 78.9283 324.991 80.1555L338.834 88.1443C340.961 89.3716 342.703 88.367 342.703 85.9126V69.9356C342.703 67.4791 340.962 64.4662 338.834 63.2377L324.991 55.2495C322.863 54.0223 321.123 55.0255 321.123 57.4819V73.4583Z" fill="#C8EDF4"/>
<path d="M342.703 85.912V69.9356C342.703 67.4785 340.962 64.4663 338.834 63.2377L324.991 55.2496C324.055 54.7095 323.194 54.6011 322.525 54.8593V54.8587L324.857 53.4291C325.563 52.9817 326.557 53.0224 327.655 53.6551L341.498 61.6439C343.625 62.8712 345.365 65.8847 345.368 68.3411L345.365 84.3182C345.365 85.5776 344.908 86.4547 344.176 86.8449L341.614 88.3783V88.3757C342.287 87.9585 342.703 87.1103 342.703 85.912Z" fill="#C8EDF4"/>
<path d="M337.606 70.7312L335.036 69.2491V67.2387C335.036 66.9628 334.842 66.6238 334.602 66.4865L329.106 63.3146C328.867 63.1766 328.671 63.2903 328.671 63.5662L328.671 65.5746L326.221 64.1614C325.982 64.0228 325.787 64.1358 325.787 64.4124L325.787 74.4346C325.787 74.7105 325.982 75.0495 326.221 75.1881L337.606 81.7579C337.845 81.8952 338.04 81.7809 338.04 81.5056L338.041 71.4834C338.041 71.2082 337.845 70.8692 337.606 70.7312ZM329.528 64.532L334.179 67.2164V68.7537L329.528 66.0693V64.532ZM336.58 78.3541L327.019 72.8368V72.2679L336.58 77.7845V78.3541ZM336.582 76.1598L327.019 70.6405V70.0716L336.582 75.5902V76.1598ZM336.582 73.9642L327.019 68.4462V67.8766L336.582 73.3952V73.9642Z" fill="#F5F5F5"/>
<path d="M292.689 57.1375C292.689 59.5932 294.429 62.6081 296.557 63.8347L310.399 71.8235C312.528 73.0508 314.269 72.0469 314.269 69.5918V53.6148C314.269 51.1577 312.528 48.1454 310.399 46.9169L296.557 38.9287C294.429 37.7015 292.689 38.7047 292.689 41.1611V57.1375Z" fill="#F71732"/>
<path d="M314.269 69.5911V53.6141C314.269 51.1577 312.528 48.1454 310.399 46.9169L296.556 38.9287C295.62 38.388 294.761 38.2809 294.091 38.5385V38.5378L296.423 37.1082C297.129 36.6608 298.123 36.7016 299.219 37.3349L313.063 45.3231C315.19 46.5503 316.93 49.5639 316.932 52.0203L316.931 67.9973C316.931 69.2574 316.473 70.1338 315.741 70.524L313.18 72.0574V72.0548C313.852 71.6376 314.269 70.7901 314.269 69.5911Z" fill="#F71732"/>
<path d="M298.851 54.1484V56.8828C298.851 57.6711 299.301 58.7217 300.205 59.8451C302.013 62.0926 304.943 63.7837 306.751 63.622C307.655 63.5412 308.105 63.0124 308.105 62.2233V59.4897L303.478 59.9029L298.851 54.1484Z" fill="#F5F5F5"/>
<path d="M311.659 58.5948L303.478 48.4229L295.297 49.1534L303.478 59.3247L311.659 58.5948Z" fill="#F5F5F5"/>
<path d="M264.844 40.763C264.844 43.2188 266.582 46.2336 268.71 47.4602L282.554 55.449C284.682 56.6769 286.422 55.6718 286.422 53.2166V37.2396C286.422 34.7832 284.682 31.7703 282.554 30.5417L268.71 22.5536C266.582 21.3263 264.844 22.3302 264.844 24.7866V40.763Z" fill="#597CF6"/>
<path d="M286.423 53.2167V37.2397C286.423 34.7832 284.683 31.7697 282.555 30.5418L268.711 22.5536C267.776 22.0129 266.915 21.9071 266.244 22.164V22.1634L268.577 20.7338C269.281 20.2864 270.277 20.3271 271.375 20.9598L285.218 28.9486C287.345 30.1765 289.085 33.1894 289.088 35.6458L289.084 51.6215C289.084 52.8816 288.627 53.7593 287.896 54.1496L285.334 55.6823V55.6803C286.007 55.2632 286.423 54.415 286.423 53.2167Z" fill="#2F55D7"/>
<path d="M282.309 38.4472L268.958 30.7422L275.791 38.5655L282.309 38.4472Z" fill="#F5F5F5"/>
<path d="M275.791 40.1141L268.958 30.7417V41.2343L282.309 48.9386V38.4474L275.791 40.1141Z" fill="#F5F5F5"/>
<path d="M237.06 25.2554C237.06 27.7112 238.799 30.7261 240.927 31.9526L254.769 39.9415C256.898 41.1694 258.639 40.1642 258.639 37.7091V21.7321C258.639 19.2756 256.899 16.2627 254.769 15.0342L240.927 7.04666C238.799 5.81877 237.06 6.82263 237.06 9.27907V25.2554Z" fill="#5DDAD6"/>
<path d="M258.639 37.7092V21.7322C258.639 19.2757 256.899 16.2635 254.769 15.0349L240.927 7.04742C239.991 6.50673 239.131 6.39898 238.46 6.65586L240.793 5.22694C241.499 4.77954 242.493 4.82027 243.59 5.45294L257.434 13.4411C259.561 14.669 261.301 17.6832 261.303 20.139L261.301 36.1154C261.301 37.3754 260.844 38.2518 260.111 38.6421L257.551 40.1755V40.1728C258.222 39.7557 258.639 38.9068 258.639 37.7092Z" fill="#4BF0EA"/>
<path d="M251.349 27.7434L248.393 29.4482L245.438 24.333C243.743 24.5189 242.607 25.9991 242.607 28.4411L254.18 35.1179C254.18 32.676 253.043 29.8858 251.349 27.7434Z" fill="#F5F5F5"/>
<path d="M248.393 24.4869C250.725 25.8317 252.614 24.7405 252.614 22.0508C252.614 19.3598 250.725 16.0874 248.393 14.7419C246.063 13.3971 244.172 14.4877 244.172 17.1787C244.172 19.869 246.061 23.1414 248.393 24.4869Z" fill="#F5F5F5"/>
<path d="M321.095 203.235C321.094 206.848 318.534 208.326 315.403 206.519L263.652 176.655C260.521 174.848 257.959 170.413 257.959 166.8L257.96 70.6336C257.96 67.0202 260.522 65.542 263.653 67.3487L315.404 97.2142C318.535 99.0209 321.096 103.456 321.096 107.069L321.095 203.235Z" fill="black" fill-opacity="0.3"/>
<path d="M307.85 210.931C307.85 214.544 305.289 216.023 302.158 214.216L250.407 184.351C247.276 182.544 244.714 178.11 244.714 174.496L244.715 78.3309C244.715 74.7175 247.277 73.2393 250.408 75.046L302.16 104.911C305.29 106.718 307.852 111.153 307.852 114.766L307.85 210.931Z" fill="#FAFAFA"/>
<path d="M296.217 131.403C296.218 118.899 287.434 103.695 276.601 97.443C265.767 91.1912 256.985 96.2591 256.985 108.763C256.985 121.266 265.767 136.472 276.601 142.724C287.435 148.976 296.217 143.907 296.217 131.403Z" fill="#C8EDF4"/>
<path d="M287.781 124.813C287.781 124.813 288.348 130.099 286.014 132.241L285.803 130.761C285.803 130.761 284.965 133.106 280.922 131.801C276.88 130.497 270.434 125.106 269.635 122.274C269.635 122.274 270.083 124.113 270.352 124.563C270.352 124.563 266.849 118.868 266.969 116.219C267.09 113.571 269.935 110.071 269.935 110.071L276.673 105.511L280.706 107.222C280.706 107.222 285.306 111.853 285.361 112.069C285.415 112.283 287.781 124.813 287.781 124.813Z" fill="black"/>
<path d="M282.614 134.54C281.221 132.253 282.095 127.109 282.095 127.109L272.098 121.34C272.098 121.34 272.972 127.492 271.578 128.171C270.184 128.85 264.615 127.971 264.615 127.971L267.269 134.201L286.126 145.083L289.295 142.214C289.295 142.214 284.009 136.827 282.614 134.54Z" fill="#FFAF73"/>
<path d="M276.916 128.507C278.433 129.382 279.604 129.013 280.976 128.665C282.347 128.316 283.306 127.288 284.02 124.059C284.733 120.83 284.294 119.342 284.513 118.298C284.733 117.255 285.317 111.976 282.84 107.394C280.715 103.461 278.017 101.762 276.916 101.126C275.816 100.492 273.119 99.078 270.992 100.557C268.515 102.28 269.1 108.233 269.318 109.53C269.539 110.827 269.1 111.809 269.813 115.86C270.526 119.913 271.485 122.049 272.856 123.981C274.228 125.912 275.396 127.629 276.916 128.507Z" fill="#FFAF73"/>
<path d="M283.645 122.575C282.64 123.291 281.694 123.803 281.251 125.048C280.939 125.927 280.64 127.541 280.036 128.897C280.343 128.829 280.653 128.747 280.975 128.666C282.346 128.316 283.305 127.288 284.019 124.059C284.24 123.055 284.351 122.22 284.404 121.514C284.172 121.988 283.916 122.384 283.645 122.575Z" fill="#CD7A38"/>
<path d="M283.065 108.848C283.065 108.848 275.283 102.841 271.484 100.272C271.318 100.352 271.153 100.444 270.992 100.558C268.514 102.281 269.1 108.234 269.319 109.531C269.54 110.828 269.1 111.81 269.813 115.861C270.526 119.914 271.485 122.05 272.857 123.982C274.162 125.819 275.283 127.464 276.699 128.374C276.319 125.794 276.51 122.239 276.503 121.524C276.492 120.699 276.187 119.159 276.04 118.528C275.902 117.937 276.539 116.477 276.501 114.712C276.156 110.61 276.972 109.74 277.523 108.957C278.622 107.396 280.226 108.599 282.433 112.705C284.956 117.398 283.065 108.848 283.065 108.848Z" fill="#CD7A38"/>
<path d="M270.128 114.774C269.886 114.323 269.654 113.721 269.442 113.067C269.5 113.801 269.61 114.707 269.813 115.86C270.525 119.913 271.485 122.049 272.856 123.981C273.151 124.393 273.433 124.795 273.715 125.183C273.126 123.159 272.831 121.234 272.522 120.01C272.079 118.254 271.132 116.65 270.128 114.774Z" fill="#CD7A38"/>
<path d="M284.171 136.419C283.308 137.176 281.218 141.944 276.919 139.463C272.658 137.004 270.431 129.874 269.472 128.116C267.487 128.273 262.631 127.848 262.631 127.848V127.911C266.189 134.13 271.132 139.568 276.601 142.724C282.195 145.953 287.24 146.155 290.814 143.88C289.505 142.475 285.789 138.458 284.171 136.419Z" fill="#EEEEEE"/>
<path d="M269.512 110.872C269.512 110.872 269.259 109.618 268.689 109.202C268.118 108.788 267.52 109.272 267.91 111.678C268.298 114.082 268.689 114.636 268.839 115.259C268.989 115.882 269.573 117.05 270.097 116.072L269.512 110.872Z" fill="#CD7A38"/>
<path d="M284.399 119.462C284.399 119.462 284.654 118.503 285.224 118.745C285.793 118.987 286.391 120.164 286.002 122.119C285.613 124.074 285.222 124.178 285.073 124.629C284.923 125.079 284.339 125.571 283.815 123.987L284.399 119.462Z" fill="#FFAF73"/>
<path d="M277.242 139.954L269.811 127.718H267.953L272.889 140.172C273.393 140.574 273.904 140.958 274.421 141.323L277.242 139.954Z" fill="#D2D2D2"/>
<path d="M276.957 139.79L279.686 144.225C280.306 144.468 280.916 144.676 281.516 144.843L286.243 138.273L284.387 136.129L276.957 139.79Z" fill="#D2D2D2"/>
<path d="M279.188 107.356C279.109 107.351 282.643 110.49 283.601 114.83C284.559 119.17 285.431 107.741 279.188 107.356Z" fill="black"/>
<path d="M280.586 108.923C280.586 108.923 278.594 105.673 277.262 108.18C276.437 109.734 275.205 113.955 271.55 113.426C271.55 113.426 267.897 115.835 270.203 121.316C270.203 121.316 268.048 118.971 267.809 116.701C267.809 116.701 267.18 117.588 267.627 119.463C267.627 119.463 265.742 116.28 266.251 113.269C266.76 110.257 266.7 103.233 268.676 101.019C270.653 98.8053 276.791 96.9848 280.774 103.47C280.774 103.47 284.428 105.358 286.044 110.845C287.661 116.332 287.512 116.247 287.751 118.185C287.991 120.122 287.333 126.683 289.337 128.392C289.337 128.392 287.856 126.967 287.392 125.506C287.392 125.506 287.362 130.116 284.397 129.25C284.397 129.25 286.223 127.733 285.954 125.08C285.684 122.428 283.588 118.133 283.648 115.707C283.708 113.28 283.52 107.826 280.586 108.923Z" fill="#131313"/>
<path d="M302.847 178.158L251.554 148.558V146.788L302.847 176.388V178.158Z" fill="#D5D1EA"/>
<path d="M302.847 183.113L251.554 153.513V151.743L302.847 181.343V183.113Z" fill="#D5D1EA"/>
<path d="M302.847 188.068L251.554 158.468V156.698L302.847 186.298V188.068Z" fill="#D5D1EA"/>
<path d="M302.847 193.022L251.554 163.422V161.652L302.847 191.253V193.022Z" fill="#D5D1EA"/>
<path d="M280.886 185.303L251.553 168.377V166.607L280.886 183.534V185.303Z" fill="#D5D1EA"/>
<path d="M263.35 140.897L264.156 143.245L265.956 144.588L264.654 145.301L264.961 147.549L263.35 145.641L261.74 145.689L262.047 143.797L260.744 141.579L262.544 142.317L263.35 140.897Z" fill="#DC9500"/>
<path d="M270.276 144.894L271.081 147.242L272.882 148.583L271.578 149.297L271.886 151.545L270.276 149.637L268.664 149.686L268.973 147.793L267.669 145.576L269.47 146.313L270.276 144.894Z" fill="#DC9500"/>
<path d="M277.201 148.89L278.006 151.238L279.807 152.58L278.503 153.294L278.81 155.541L277.201 153.635L275.59 153.682L275.898 151.79L274.595 149.572L276.396 150.309L277.201 148.89Z" fill="#DC9500"/>
<path d="M284.126 152.886L284.931 155.234L286.732 156.576L285.428 157.289L285.736 159.537L284.126 157.63L282.515 157.678L282.823 155.786L281.52 153.568L283.32 154.305L284.126 152.886Z" fill="#DC9500"/>
<path d="M291.05 156.882L291.856 159.23L293.657 160.573L292.353 161.286L292.661 163.534L291.05 161.627L289.44 161.674L289.748 159.782L288.445 157.564L290.244 158.301L291.05 156.882Z" fill="#DC9500"/>
<path d="M169.554 261.357C168.352 267.367 167.096 279.86 166.051 285.349C165.004 290.836 164.586 295.068 165.057 298.57C165.527 302.073 167.08 306.693 167.08 306.693C167.08 306.693 169.031 309.45 167.414 310.211C165.798 310.971 164.466 309.496 162.897 307.216C161.327 304.935 156.311 300.395 155.383 299.467C155.892 298.959 156.325 298.676 156.536 296.061C156.744 293.448 154.443 281.741 153.763 277.037C153.082 272.333 156.952 262.56 157.789 259.646C158.625 256.731 157.372 252.419 156.117 248.081C154.862 243.743 154.284 230.154 154.284 230.154C154.284 230.154 151.723 215.048 153.657 210.762C155.592 206.477 171.54 208.463 173.894 211.295C176.247 214.127 176.562 225.345 175.724 233.394C174.887 241.443 170.757 255.347 169.554 261.357Z" fill="#FFAF73"/>
<path d="M139.693 284.829L139.312 288.822C139.312 288.822 141.262 289.013 140.785 290.58C140.31 292.149 138.741 291.103 138.502 289.819C138.265 288.537 137.029 287.634 136.174 287.159C135.319 286.683 131.704 284.829 131.704 284.829C131.704 284.829 132.752 282.726 133.146 281.077C133.538 279.427 132.344 269.662 131.876 263.763C131.409 257.863 136.667 250.095 138.479 245.306C140.291 240.517 137.719 229.711 137.018 219.722C136.317 209.734 140.057 204.068 140.057 204.068L156.01 210.904V220.832C156.01 220.832 154.285 230.153 152.562 238.18C150.839 246.206 147.128 253.016 146.018 255.703C144.908 258.39 141.693 270.655 140.783 275.036C139.871 279.417 139.693 284.829 139.693 284.829Z" fill="#FFAF73"/>
<path d="M160.025 275.912C161.631 269.984 163.978 257.571 162.311 249.173C160.642 240.775 164.539 208.436 164.539 208.436H164.543C168.749 208.838 172.799 209.974 173.894 211.294C176.247 214.126 176.562 225.344 175.724 233.393C174.888 241.442 170.757 255.346 169.554 261.357C168.352 267.368 167.096 279.859 166.051 285.347C165.003 290.836 164.587 295.068 165.058 298.569C165.528 302.072 167.081 306.693 167.081 306.693C167.081 306.693 169.03 309.449 167.414 310.21C165.797 310.969 164.466 309.495 162.898 307.214C162.304 306.353 161.22 305.169 160.049 303.978C160.133 303.631 160.245 303.235 160.395 302.773C161.26 300.117 160.334 298.635 160.395 298.141C160.457 297.647 158.419 281.84 160.025 275.912Z" fill="#CD7A38"/>
<path d="M136.655 273.107C137.119 264.761 138.31 257.672 139.438 254.956C140.565 252.239 143.745 248.066 144.144 241.374C144.426 236.621 145.4 217.355 145.94 206.59L156.01 210.904V220.833C156.01 220.833 154.285 230.154 152.562 238.181C150.839 246.207 147.128 253.016 146.017 255.703C144.907 258.39 141.692 270.656 140.782 275.036C139.871 279.417 139.692 284.829 139.692 284.829L139.312 288.823C139.312 288.823 141.262 289.013 140.785 290.58C140.31 292.149 138.741 291.104 138.503 289.819C138.265 288.537 137.029 287.634 136.173 287.16C135.802 286.953 134.914 286.487 134.024 286.026C134.943 283.41 136.348 278.621 136.655 273.107Z" fill="#CD7A38"/>
<path d="M155.825 153.802L155.954 153.997L161.141 156.661L162.533 160.908L154.174 157.137L155.825 153.802Z" fill="white"/>
<path d="M180.406 192.038L168.485 186.342L171.114 181.655L180.406 192.038Z" fill="#333333"/>
<path d="M184.367 181.466C184.367 181.466 184.638 177.316 184.367 177.046C184.097 176.776 177.95 175.429 177.95 175.429L184.367 181.466Z" fill="#FFAF73"/>
<path d="M184.271 176.991C184.319 177.012 184.354 177.031 184.367 177.045C184.639 177.314 184.367 181.467 184.367 181.467L182.221 179.448C182.934 178.537 183.647 177.703 184.271 176.991Z" fill="#CD7A38"/>
<path d="M155.383 299.467C155.383 299.467 152.437 300.846 151.699 303.151C150.961 305.455 152.626 307.404 153.196 309.545C153.767 311.682 153.766 317.292 153.766 317.292L154.766 317.005C154.766 317.005 154.671 311.777 155.383 310.589C156.097 309.401 157.903 309.449 159.378 310.589C160.851 311.731 165.085 315.866 167.509 315.866C169.935 315.866 177.732 309.26 177.353 307.406C176.973 305.551 167.081 306.692 167.081 306.692C167.081 306.692 169.031 309.449 167.415 310.21C165.798 310.97 164.466 309.496 162.898 307.215C161.328 304.934 156.311 300.394 155.383 299.467Z" fill="#1E1E1E"/>
<path d="M131.704 284.829C131.704 284.829 135.319 286.683 136.173 287.159C137.03 287.635 138.265 288.537 138.502 289.819C138.741 291.104 140.309 292.149 140.784 290.58C141.261 289.013 139.312 288.823 139.312 288.823L139.692 284.829C139.692 284.829 142.117 283.88 142.547 284.165C142.973 284.451 142.783 292.767 141.071 294.478C138.694 296.856 135.127 294.05 134.176 294.098C134.176 294.098 132.226 294.479 131.466 296.806C130.705 299.136 130.277 301.036 130.277 301.036L129.326 300.751C129.326 300.751 130.563 296.141 129.944 294.144C129.326 292.149 128.327 290.486 128.661 288.869C128.993 287.253 131.704 284.829 131.704 284.829Z" fill="#1E1E1E"/>
<path d="M175.245 213.463C175.245 213.463 176.286 217.221 176.546 227.38C176.807 237.538 172.196 250.999 172.196 250.999C172.196 250.999 167.87 253.69 160.967 252.827C157.754 252.425 140.433 245.223 138.534 240.443C138.534 240.443 136.377 220.745 136.377 214.535C136.377 208.326 141.383 200.564 141.383 200.564C141.383 200.564 172.177 200.404 175.245 213.463Z" fill="#4B4B4B"/>
<path d="M175.245 213.464C175.245 213.464 176.286 217.221 176.546 227.38C176.807 237.538 172.196 250.999 172.196 250.999C172.196 250.999 169.002 252.982 163.727 252.995C164.383 244.31 163.743 233.172 163.039 230.279C162.169 226.711 154.356 225.553 146.445 222.853C141.697 221.233 138.341 218.294 136.415 216.202C136.391 215.576 136.377 215.015 136.377 214.535C136.377 208.326 141.383 200.564 141.383 200.564C141.383 200.564 172.177 200.405 175.245 213.464Z" fill="#2C2C2C"/>
<path d="M169.972 165.632C169.972 165.632 173.76 176.459 173.38 179.943C173.001 183.425 171.059 191.224 171.69 194.631C172.319 198.038 176.334 216.36 177.017 220.675C177.017 220.675 175.319 223.766 164.539 224.448C153.762 225.13 139.662 218.662 135.723 213.589C135.723 213.589 138.461 204.399 140.732 200.082C143.005 195.767 147.398 190.846 146.186 186.909C144.975 182.972 134.143 165.027 133.84 160.636C133.537 156.244 135.052 152.459 137.399 151.475C139.749 150.49 148.257 152.004 148.257 152.004C148.257 152.004 153.846 153.992 159.888 157.577C163.825 159.914 168.566 163.54 169.972 165.632Z" fill="#797979"/>
<path d="M158.836 179.261C158.984 174.554 165.661 169.816 170.439 167.021C171.441 170.055 173.675 177.228 173.38 179.942C173.002 183.425 171.059 191.223 171.69 194.63C172.32 198.037 176.334 216.36 177.017 220.675C177.017 220.675 175.319 223.766 164.539 224.448C163.231 224.531 161.865 224.53 160.47 224.457C165.201 208.177 158.618 186.337 158.836 179.261Z" fill="#4B4B4B"/>
<path d="M164.215 161.922C165.708 161.53 171.751 165.216 174.858 169.909C177.963 174.604 186.788 182.739 187.923 185.089C189.059 187.438 189.264 192.398 187.318 193.646C184.488 195.462 178.487 190.965 175.305 188.239C172.123 185.514 163.608 179.033 160.956 172.749C158.306 166.465 161.034 162.755 164.215 161.922Z" fill="#797979"/>
<path d="M155.284 162.526C155.284 162.526 154.898 156.317 155.825 154.021C156.749 151.723 157.553 151.344 158.596 151.101C159.406 150.913 161.064 151.376 162.938 147.639C164.812 143.903 164.106 142.31 164.422 140.718C164.737 139.127 165.218 138.014 164.948 136.475C164.678 134.934 164.166 129.195 159.647 127.238C155.129 125.28 149.61 125.619 146.592 127.362C143.573 129.106 141.195 133.17 141.218 137.398C141.239 141.625 143.546 144.263 143.581 147.143C143.618 150.023 141.843 153.563 140.119 155.793C138.392 158.024 141.983 161.166 144.436 162.308C149.921 164.861 155.284 162.526 155.284 162.526Z" fill="#FFAF73"/>
<path d="M158.403 147.359C158.156 144.459 158.266 141.577 158.266 141.577L153.038 145.508C153.038 145.508 153.436 156.165 150.379 160.793C149.755 161.737 149.718 162.646 150.046 163.5C153.076 163.484 155.284 162.526 155.284 162.526C155.284 162.526 154.898 156.317 155.825 154.021C156.749 151.724 157.552 151.343 158.596 151.101C158.991 151.008 159.588 151.071 160.31 150.727C159.467 150.015 158.535 148.898 158.403 147.359Z" fill="#CD7A38"/>
<path d="M159.537 161.52C158.252 153.148 155.438 147.059 158.407 144.067L159.101 143.039C159.164 143.026 159.489 144.194 160.432 143.939C160.905 143.811 161.523 141.268 162.078 139.814C162.212 139.464 162.402 139.011 162.619 138.52C162.619 138.52 160.169 141.055 158.895 141.988L158.646 141.72C158.646 141.72 163.05 138.042 164.567 135.036C164.567 135.036 161.432 138.942 159.494 140.037C157.555 141.132 155.25 142.37 156.098 148.088C156.768 152.614 159.435 160.171 159.261 165.269C159.602 164.027 159.727 162.754 159.537 161.52Z" fill="#6C2C3C"/>
<path d="M162.875 127.645C161.113 125.506 158.056 123.139 151.106 123.875C147.755 124.23 145.053 126.801 143.71 128.641C142.208 130.703 140.84 133.659 141.189 139.583C141.539 145.506 141.224 150.515 137.386 154.335C135.249 156.461 134.206 162.482 136.158 166.127C135.495 164.098 135.131 161.333 136.352 158.427C136.375 158.369 136.389 158.337 136.389 158.337C136.375 158.366 136.364 158.397 136.352 158.427C136.111 159.051 134.77 162.964 137.019 167.352C137.417 167.785 137.879 168.155 138.421 168.434C143.453 171.03 149.933 172.968 151.376 172.83C152.51 172.722 154.043 171.939 155.479 170.704C154.615 171.783 153.821 172.451 153.821 172.451C156.834 171.139 158.4 167.693 159.047 165.848C158.682 168.084 157.834 169.957 157.834 169.957C157.834 169.957 159.815 166.745 159.94 164.175C160.066 161.604 158.774 157.406 158.774 157.406V157.408C157.454 151.147 155.948 146.545 158.406 144.067L159.101 143.038C159.163 143.025 159.489 144.193 160.431 143.938C160.904 143.81 161.523 141.268 162.078 139.814C162.212 139.464 162.402 139.011 162.619 138.52C168.529 133.612 162.875 127.645 162.875 127.645Z" fill="#CD7420"/>
<path d="M164.19 135.562C162.906 137.72 160.644 138.252 158.006 140.748C155.368 143.245 155.42 149.213 157.038 154.649C158.655 160.085 158.488 164.518 158.488 164.518C158.279 159.815 156.273 155.873 156.273 155.873C156.273 155.873 158.322 161.585 157.219 165.465C156.114 169.346 152.641 171.147 152.641 171.147C153.951 169.76 155.107 166.987 155.107 166.987C152.959 170.441 150.328 171.28 150.328 171.28C156.932 164.194 154.662 155.956 154.662 155.956C154.987 170.142 146.07 170.684 146.07 170.684L146.792 169.295C146.299 169.827 145.124 170.727 144.318 170.185C143.513 169.643 142.914 167.811 142.914 167.811L142.84 169.775C141.973 169.29 140.891 167.223 140.891 167.223L140.828 168.873C137.938 164.651 140.43 155.824 140.43 155.824C137.465 162.686 139.248 168.066 139.248 168.066C136.967 165.974 137.144 161.262 137.144 161.262C136.599 163.207 137.013 164.718 137.013 164.718C136.546 163.56 135.846 160.507 138.487 155.926C141.129 151.347 141.449 148.373 141.449 148.373C140.819 150.275 140.012 151.621 140.012 151.621C142.057 147.02 141.297 142.863 141.297 142.863C141.291 147.369 140.493 151.242 137.386 154.335C135.249 156.461 134.206 162.482 136.158 166.127C135.495 164.098 135.131 161.334 136.352 158.427C136.375 158.369 136.389 158.337 136.389 158.337C136.375 158.366 136.364 158.396 136.352 158.427C136.111 159.051 134.77 162.964 137.019 167.352C137.417 167.786 137.879 168.154 138.421 168.434C143.453 171.029 149.933 172.967 151.376 172.83C152.51 172.722 154.043 171.939 155.479 170.704C154.615 171.783 153.821 172.45 153.821 172.45C156.834 171.138 158.4 167.694 159.047 165.848C158.682 168.084 157.834 169.957 157.834 169.957C157.834 169.957 159.815 166.745 159.94 164.175C160.066 161.604 158.774 157.407 158.774 157.407V157.409C157.454 151.147 155.948 146.545 158.406 144.066L159.101 143.038C159.163 143.026 159.489 144.194 160.431 143.939C160.904 143.811 161.523 141.268 162.078 139.814C162.212 139.464 162.402 139.012 162.619 138.521L160.74 139.426C163 137.864 164.19 135.562 164.19 135.562Z" fill="#B0631D"/>
<path d="M158.947 147.684C158.778 147.955 156.835 148.119 157.16 144.771C157.485 141.425 159.729 140.641 159.675 143.089C159.62 145.537 158.947 147.684 158.947 147.684Z" fill="#FFAF73"/>
<path d="M151.106 123.875C147.755 124.23 145.052 126.802 143.71 128.641C142.208 130.703 140.839 133.66 141.188 139.583C141.258 140.745 141.301 141.871 141.295 142.961C141.631 144.082 141.901 145.016 142 145.6C142.391 147.932 141.424 153.408 141.424 153.408C142.08 151.915 142.498 148.256 142.498 148.256C142.978 150.352 141.594 157.355 141.594 157.355C143.023 154.897 144.317 148.958 144.028 140.737C143.738 132.517 149.146 127.315 151.222 125.999C154.854 123.697 158.762 124.615 158.767 124.616C156.932 123.893 154.477 123.517 151.106 123.875Z" fill="#B0631D"/>
<path d="M149.243 131.964C149.243 131.964 148.876 132.286 148.377 132.966C147.88 133.646 147.251 134.696 146.812 136.079C146.592 136.768 146.418 137.537 146.323 138.363C146.22 139.188 146.232 140.068 146.245 140.984C146.275 142.816 146.341 144.781 146.33 146.759C146.328 150.712 145.989 154.644 145.151 157.455C144.747 158.861 144.229 159.97 143.786 160.693C143.346 161.418 143.013 161.771 143.019 161.775C143.013 161.772 143.341 161.398 143.759 160.651C144.18 159.906 144.66 158.774 145.024 157.358C145.395 155.944 145.658 154.256 145.814 152.444C145.972 150.63 146.028 148.691 146.035 146.758C146.046 144.825 146 142.883 145.996 141.054C145.997 140.142 145.997 139.249 146.114 138.409C146.223 137.57 146.413 136.789 146.653 136.09C147.128 134.688 147.798 133.633 148.327 132.958C148.859 132.278 149.243 131.964 149.243 131.964Z" fill="#B0631D"/>
<path d="M147.151 165.195C147.147 165.195 147.905 163.542 148.697 160.925C149.087 159.617 149.487 158.066 149.72 156.367C149.833 155.519 149.905 154.633 149.884 153.736C149.855 152.841 149.757 151.912 149.692 150.99C149.389 147.294 149.167 143.621 149.357 140.881C149.445 139.513 149.64 138.382 149.886 137.624C150.127 136.86 150.407 136.49 150.4 136.489C150.406 136.49 150.137 136.879 149.924 137.657C149.705 138.43 149.547 139.572 149.5 140.944C149.391 143.693 149.692 147.344 149.986 150.966C150.052 151.876 150.141 152.776 150.168 153.687C150.183 154.596 150.101 155.486 149.975 156.34C149.719 158.047 149.284 159.603 148.856 160.914C147.986 163.54 147.147 165.195 147.151 165.195Z" fill="#B0631D"/>
<path d="M158.112 127.611C158.121 127.61 157.042 127.599 155.591 128.202C154.87 128.499 154.068 128.949 153.301 129.556C152.531 130.162 151.801 130.922 151.165 131.764C149.884 133.449 149.032 135.389 148.511 136.863C147.986 138.342 147.752 139.358 147.746 139.355C147.752 139.357 147.918 138.306 148.381 136.785C148.839 135.271 149.644 133.276 150.929 131.586C151.566 130.743 152.32 129.98 153.119 129.382C153.917 128.78 154.757 128.348 155.509 128.076C157.021 127.523 158.122 127.61 158.112 127.611Z" fill="#B0631D"/>
<path d="M160.61 130.643C160.61 130.643 160.103 130.794 159.301 131.236C158.501 131.679 157.399 132.426 156.359 133.609C155.312 134.782 154.373 136.408 153.847 138.313C153.581 139.263 153.41 140.274 153.327 141.313C153.24 142.357 153.184 143.421 153.164 144.49C153.115 146.627 153.252 148.751 153.269 150.747C153.294 152.743 153.106 154.602 152.784 156.154C152.466 157.707 152.072 158.964 151.782 159.834C151.489 160.704 151.298 161.19 151.3 161.191C151.298 161.19 151.476 160.687 151.745 159.797C152.013 158.906 152.376 157.626 152.651 156.062C152.934 154.5 153.076 152.653 153.018 150.677C152.97 148.703 152.821 146.593 152.87 144.484C152.889 143.431 152.948 142.376 153.042 141.339C153.13 140.299 153.31 139.276 153.589 138.316C154.136 136.388 155.119 134.737 156.204 133.56C157.287 132.37 158.43 131.635 159.256 131.208C160.088 130.779 160.611 130.643 160.61 130.643Z" fill="#B0631D"/>
<path d="M88.9075 176.915L33.3957 208.951L33.019 209.529L33.0204 134.793L33.3957 134.214L88.9068 102.18L88.9075 176.915Z" fill="#F763C3"/>
<path d="M101.172 111.332L47.4523 145.016L33.394 136.426L88.9065 104.392L101.172 111.332Z" fill="#D5D1EA"/>
<path d="M46.5598 142.273L45.9407 142.249L33.0202 134.792L33.0176 209.529L45.9407 216.985L46.5612 217.009L46.5598 142.273ZM39.4798 196.248C37.8748 195.322 36.5701 193.062 36.5701 191.21C36.5701 189.359 37.8748 188.606 39.4798 189.531C41.0842 190.457 42.3895 192.717 42.3895 194.569C42.3895 196.421 41.0842 197.174 39.4798 196.248Z" fill="#F763C3"/>
<path d="M102.074 184.975L46.561 217.01V142.273L102.073 110.239L102.074 184.975Z" fill="#F763C3"/>
<path d="M48.3734 215.964L48.6455 215.808L48.6442 141.07L48.3721 141.227L48.3734 215.964Z" fill="#F763C3"/>
<path d="M46.5607 142.274L45.9416 142.25L45.9409 216.986L46.5614 217.01L46.5607 142.274Z" fill="#F763C3"/>
<path d="M44.2588 181.95C44.2588 182.711 43.7192 183.023 43.0593 182.642L36.0477 178.595C35.3878 178.214 34.8481 177.281 34.8481 176.519L34.8501 141.489C34.8501 140.727 35.3891 140.416 36.0483 140.796L43.06 144.842C43.7199 145.223 44.2602 146.157 44.2602 146.918L44.2588 181.95Z" fill="black"/>
<path d="M44.1332 181.887C44.1332 182.648 43.5936 182.96 42.9337 182.579L35.9213 178.532C35.2621 178.152 34.7231 177.218 34.7231 176.456L34.7238 141.426C34.7238 140.664 35.2634 140.353 35.9227 140.734L42.935 144.78C43.5936 145.16 44.1338 146.094 44.1338 146.855L44.1332 181.887Z" fill="#FAFAFA"/>
<path d="M39.6311 188.718C38.5861 188.114 37.6475 188.095 36.9922 188.542C37.6324 188.184 38.5098 188.239 39.4793 188.798C41.4366 189.928 43.0239 192.676 43.0239 194.935C43.0239 196.563 42.1984 197.488 41.0041 197.459C42.3002 197.584 43.2119 196.636 43.2119 194.916C43.2119 192.635 41.6075 189.86 39.6311 188.718Z" fill="black"/>
<path d="M39.4799 189.531C37.8748 188.606 36.5708 189.359 36.5708 191.211C36.5708 193.062 37.8748 195.322 39.4799 196.248C41.0842 197.174 42.3896 196.42 42.3896 194.569C42.3896 192.717 41.0842 190.457 39.4799 189.531Z" fill="black" fill-opacity="0.3"/>
<path d="M39.4785 188.799C37.5225 187.67 35.9352 188.586 35.9346 190.844C35.9346 193.104 37.5225 195.852 39.4799 196.981C41.4378 198.111 43.0238 197.194 43.0238 194.935C43.0238 192.677 41.4359 189.929 39.4785 188.799ZM39.4799 196.249C37.8748 195.323 36.5701 193.062 36.5701 191.211C36.5701 189.36 37.8748 188.607 39.4799 189.532C41.0842 190.458 42.3896 192.718 42.3896 194.57C42.3896 196.422 41.0842 197.174 39.4799 196.249Z" fill="#D5D1EA"/>
<path d="M43.0253 147.548L35.936 143.458V142.484L43.0253 146.575V147.548Z" fill="#D5D1EA"/>
<path d="M43.0243 181.621L35.9351 177.531V176.557L43.0243 180.647V181.621Z" fill="#D5D1EA"/>
<path d="M42.8505 151.816L35.936 147.826V147.681L42.8505 151.67V151.816Z" fill="#D5D1EA"/>
<path d="M42.8505 155.646L35.936 151.656V151.509L42.8498 155.5L42.8505 155.646Z" fill="#D5D1EA"/>
<path d="M42.8491 159.477L35.936 155.488V155.34L42.8505 159.329L42.8491 159.477Z" fill="#D5D1EA"/>
<path d="M42.8491 163.306L35.936 159.316V159.169L42.8505 163.159L42.8491 163.306Z" fill="#D5D1EA"/>
<path d="M42.8505 167.136L35.936 163.146V162.999L42.8505 166.988V167.136Z" fill="#D5D1EA"/>
<path d="M42.8491 170.965L35.936 166.975V166.829L42.8491 170.818V170.965Z" fill="#D5D1EA"/>
<path d="M42.8491 174.794L35.936 170.805V170.659L42.8491 174.649V174.794Z" fill="#D5D1EA"/>
<path d="M42.8491 178.623L35.936 174.635V174.488L42.8491 178.477V178.623Z" fill="#D5D1EA"/>
<path d="M103.686 185.734L48.1741 217.769L47.7969 218.347L47.7988 143.61L48.1735 143.032L103.685 110.998L103.686 185.734Z" fill="#5DDAD6"/>
<path d="M115.951 120.151L62.2311 153.834L48.1729 145.243L103.685 113.209L115.951 120.151Z" fill="#D5D1EA"/>
<path d="M61.3385 151.09L60.7193 151.067L47.7988 143.609L47.7969 218.347L60.7187 225.803L61.3391 225.827L61.3385 151.09ZM54.2584 205.066C52.6534 204.14 51.3494 201.879 51.3494 200.028C51.3494 198.177 52.6534 197.424 54.2584 198.349C55.8628 199.276 57.1675 201.534 57.1675 203.386C57.1675 205.238 55.8628 205.991 54.2584 205.066Z" fill="#5DDAD6"/>
<path d="M116.852 193.792L61.3398 225.827V151.09L116.852 119.056L116.852 193.792Z" fill="#4BF0EA"/>
<path d="M63.1519 224.781L63.424 224.625L63.4233 149.887L63.1519 150.045V224.781Z" fill="#41D5D0"/>
<path d="M61.339 151.09L60.7199 151.066L60.7192 225.803L61.3397 225.826L61.339 151.09Z" fill="#41D5D0"/>
<path d="M59.0378 190.768C59.0378 191.528 58.4969 191.84 57.8377 191.46L50.826 187.412C50.1661 187.031 49.6265 186.098 49.6265 185.336L49.6278 150.306C49.6278 149.544 50.1667 149.233 50.826 149.613L57.839 153.66C58.4982 154.041 59.0385 154.974 59.0385 155.735L59.0378 190.768Z" fill="black"/>
<path d="M58.9113 190.704C58.9113 191.466 58.3724 191.776 57.7125 191.395L50.7008 187.349C50.0409 186.969 49.502 186.035 49.502 185.273L49.5026 150.242C49.5026 149.481 50.0422 149.17 50.7015 149.551L57.7138 153.597C58.3724 153.977 58.9127 154.911 58.9127 155.672L58.9113 190.704Z" fill="#FAFAFA"/>
<path d="M54.4101 197.535C53.3644 196.932 52.4258 196.912 51.7705 197.359C52.4113 197.001 53.2888 197.057 54.2583 197.616C56.2156 198.746 57.8029 201.493 57.8029 203.753C57.8029 205.38 56.9774 206.306 55.7824 206.276C57.0786 206.401 57.9909 205.453 57.9909 203.733C57.9909 201.452 56.3865 198.677 54.4101 197.535Z" fill="black"/>
<path d="M54.2577 198.349C52.6526 197.423 51.3486 198.176 51.3486 200.028C51.3486 201.88 52.6526 204.14 54.2577 205.066C55.8621 205.992 57.1674 205.238 57.1674 203.387C57.1674 201.535 55.8621 199.275 54.2577 198.349Z" fill="black" fill-opacity="0.5"/>
<path d="M54.2578 197.616C52.3018 196.487 50.7152 197.403 50.7139 199.662C50.7139 201.921 52.3012 204.669 54.2585 205.798C56.2165 206.928 57.8031 206.011 57.8031 203.753C57.8031 201.494 56.2158 198.746 54.2578 197.616ZM54.2585 205.066C52.6535 204.14 51.3494 201.88 51.3494 200.028C51.3494 198.177 52.6535 197.423 54.2585 198.349C55.8629 199.275 57.1682 201.535 57.1682 203.387C57.1682 205.239 55.8629 205.992 54.2585 205.066Z" fill="#D5D1EA"/>
<path d="M57.8036 156.366L50.7144 152.275V151.302L57.8036 155.392V156.366Z" fill="#D5D1EA"/>
<path d="M57.8031 190.437L50.7139 186.347V185.373L57.8031 189.463V190.437Z" fill="#D5D1EA"/>
<path d="M57.6288 160.634L50.7144 156.644V156.499L57.6288 160.487V160.634Z" fill="#D5D1EA"/>
<path d="M57.6288 164.463L50.7144 160.473V160.327L57.6288 164.317V164.463Z" fill="#D5D1EA"/>
<path d="M57.6279 168.294L50.7148 164.304V164.157L57.6279 168.146V168.294Z" fill="#D5D1EA"/>
<path d="M57.6279 172.123L50.7148 168.133V167.987L57.6279 171.976V172.123Z" fill="#D5D1EA"/>
<path d="M57.6288 175.954L50.7144 171.963V171.816L57.6288 175.806V175.954Z" fill="#D5D1EA"/>
<path d="M57.6279 179.783L50.7148 175.794V175.646L57.6279 179.636V179.783Z" fill="#D5D1EA"/>
<path d="M57.6279 183.612L50.7148 179.622V179.476L57.6279 183.465V183.612Z" fill="#D5D1EA"/>
<path d="M57.6279 187.441L50.7148 183.453V183.306L57.6279 187.294V187.441Z" fill="#D5D1EA"/>
</g>
</g>
<defs>
<clipPath id="clip0_3094_81830">
<rect width="466" height="339" fill="white"/>
</clipPath>
</defs>
</svg>
