<svg width="53" height="50" viewBox="0 0 53 50" fill="none" xmlns="http://www.w3.org/2000/svg">
<path d="M17.6543 16.7395L22.9071 6.29205C23.3223 5.46207 24.5836 5.43785 25.0385 6.25029L30.7827 16.4772L43.1148 17.8857C44.0933 17.9957 44.5064 19.1012 43.8184 19.7565L35.1125 27.9824L37.48 39.3016C37.6674 40.2015 36.666 40.9053 35.7837 40.5013L24.6634 35.3554L13.7945 40.9408C12.9337 41.3855 11.8963 40.7179 12.0413 39.8142L13.8721 28.4112L4.79155 20.54C4.07138 19.9156 4.43409 18.7941 5.40316 18.6438L17.6543 16.7395Z" fill="#13D1FF"/>
<path d="M44.6846 19.4442L35.9783 27.6699L38.3459 38.9894C38.5332 39.8893 37.5336 40.5971 36.6496 40.1891L25.5293 35.0432L14.6604 40.6286C13.7979 41.0692 12.7623 40.406 12.9055 39.4979L14.7363 28.095L5.65308 20.2293C4.93292 19.605 5.29591 18.4833 6.26934 18.3315L8.0336 18.0564C7.63174 18.4187 7.58209 19.0617 8.05085 19.4665C8.05085 19.4665 10.3923 21.8665 12.4551 23.2798C17.6784 26.8583 16.3739 27.5647 15.9178 30.4045L14.4588 36.4802C14.3304 37.2809 15.2442 37.8677 16.0078 37.4767L21.2754 34.7674C23.9829 33.3746 27.2565 33.3099 30.0258 34.5885L35.4185 37.0829C36.1984 37.445 37.0834 36.8204 36.9191 36.0232L35.1331 30.6039C34.6333 27.72 33.3994 26.7024 38.0335 22.7311L42.5104 18.7653C42.942 18.355 42.8836 17.7517 42.5058 17.3972L43.9834 17.5679C44.9565 17.6891 45.3726 18.7888 44.6846 19.4442Z" fill="#0A86D6"/>
<path d="M37.0246 41.2162C36.5178 41.399 35.9456 41.3785 35.4388 41.1447L24.6853 36.1724L14.1776 41.572C13.5173 41.9118 12.7234 41.8739 12.102 41.4733C11.4805 41.0726 11.1663 40.3943 11.2754 39.7023L13.0436 28.6737L4.26415 21.0686C3.71062 20.5923 3.50489 19.8752 3.72406 19.2083C3.94153 18.5375 4.54015 18.0486 5.28432 17.9329L17.1326 16.0908L22.2046 5.9861C22.5272 5.35146 23.1897 4.9457 23.9469 4.93201C24.704 4.91832 25.3849 5.2932 25.7355 5.9165L31.2882 15.8052L43.2118 17.1665C43.961 17.2528 44.5785 17.715 44.8312 18.3783C45.078 19.0394 44.9055 19.7585 44.3774 20.2592L35.9574 28.2154L38.2492 39.1642C38.393 39.853 38.1091 40.5432 37.5072 40.9637C37.3584 41.0729 37.198 41.1537 37.0246 41.2162ZM24.6489 34.5378L36.1342 39.8526C36.3394 39.9499 36.5052 39.8578 36.5661 39.8126C36.6271 39.7674 36.7665 39.6476 36.7229 39.4366L34.2739 27.7439L43.2659 19.2482C43.4272 19.0976 43.384 18.9234 43.3614 18.8574C43.337 18.7874 43.2524 18.6331 43.0258 18.6037L30.2848 17.1481L24.3535 6.58139C24.2492 6.39225 24.0572 6.37369 23.9793 6.3785C23.9001 6.37917 23.7115 6.40558 23.6171 6.59688L18.1901 17.3898L5.53597 19.3559C5.31119 19.3908 5.23448 19.5524 5.20874 19.6219C5.18736 19.6898 5.15548 19.8635 5.32213 20.0115L14.7091 28.138L12.8172 39.9194C12.7813 40.1315 12.9261 40.2505 12.9869 40.2887C13.0494 40.331 13.2187 40.4136 13.4192 40.3088L24.6489 34.5378Z" fill="#19A5FF"/>
</svg>
